<svg width="23" height="23" viewBox="0 0 23 23" fill="none" xmlns="http://www.w3.org/2000/svg">
<path id="Icon ionic-md-alert" d="M11.5 0C9.22552 0 7.00211 0.674463 5.11095 1.9381C3.21978 3.20173 1.7458 4.99779 0.87539 7.09914C0.00498269 9.20049 -0.222756 11.5128 0.220974 13.7435C0.664704 15.9743 1.75997 18.0234 3.36828 19.6317C4.97658 21.24 7.02568 22.3353 9.25646 22.779C11.4872 23.2228 13.7995 22.995 15.9009 22.1246C18.0022 21.2542 19.7983 19.7802 21.0619 17.8891C22.3255 15.9979 23 13.7745 23 11.5C22.9911 8.45275 21.7766 5.53286 19.6219 3.37812C17.4671 1.22339 14.5472 0.00892014 11.5 0ZM12.8273 17.2504H10.1735V15.0385H12.8273V17.2504ZM12.8273 12.3854H10.1735V5.30848H12.8273V12.3854Z" fill="#FF0000"/>
</svg>
