<svg xmlns="http://www.w3.org/2000/svg" width="15" height="15" viewBox="0 0 15 15" fill="none">
  <path d="M2.48 1H12.841C13.2335 1 13.61 1.15593 13.8875 1.43348C14.1651 1.71104 14.321 2.08748 14.321 2.48V12.841C14.321 13.2335 14.1651 13.61 13.8875 13.8875C13.61 14.1651 13.2335 14.321 12.841 14.321H2.48C2.08748 14.321 1.71104 14.1651 1.43348 13.8875C1.15593 13.61 1 13.2335 1 12.841V2.48C1 2.08748 1.15593 1.71104 1.43348 1.43348C1.71104 1.15593 2.08748 1 2.48 1Z" stroke="black" stroke-linecap="round" stroke-linejoin="round"/>
  <path d="M6.17996 5.06996C6.17996 5.2895 6.11486 5.50411 5.99289 5.68664C5.87092 5.86918 5.69757 6.01145 5.49474 6.09547C5.29191 6.17948 5.06873 6.20146 4.85341 6.15863C4.63809 6.1158 4.44031 6.01009 4.28507 5.85485C4.12984 5.69961 4.02412 5.50183 3.98129 5.28651C3.93846 5.07119 3.96044 4.84801 4.04446 4.64518C4.12847 4.44236 4.27074 4.269 4.45328 4.14703C4.63582 4.02506 4.85042 3.95996 5.06996 3.95996C5.36435 3.95996 5.64669 4.07691 5.85485 4.28507C6.06302 4.49324 6.17996 4.77557 6.17996 5.06996Z" stroke="black" stroke-linecap="round" stroke-linejoin="round"/>
  <path d="M14.3215 9.88005L10.6205 6.18005L2.48047 14.3201" stroke="black" stroke-linecap="round" stroke-linejoin="round"/>
</svg>