<svg width="1765" height="111" viewBox="0 0 1765 111" fill="none" xmlns="http://www.w3.org/2000/svg">
<path d="M0 0H1765V111H0V0Z" fill="white"/>
<path d="M47.84 53.6C47.84 48.584 51.512 45.032 56.336 45.032C60.056 45.032 63.08 47.024 64.208 50.456H60.344C59.552 48.848 58.112 48.056 56.312 48.056C53.384 48.056 51.296 50.192 51.296 53.6C51.296 56.984 53.384 59.144 56.312 59.144C58.112 59.144 59.552 58.352 60.344 56.72H64.208C63.08 60.176 60.056 62.144 56.336 62.144C51.512 62.144 47.84 58.616 47.84 53.6ZM70.4379 55.376V62H67.0779V48.704H70.4379V50.768C71.2779 49.4 72.6699 48.512 74.5179 48.512V52.04H73.6299C71.6379 52.04 70.4379 52.808 70.4379 55.376ZM82.493 51.248C80.885 51.248 79.613 52.28 79.349 54.104H85.661C85.613 52.352 84.221 51.248 82.493 51.248ZM88.805 57.824C88.085 60.272 85.877 62.216 82.589 62.216C78.725 62.216 75.917 59.528 75.917 55.352C75.917 51.152 78.653 48.488 82.589 48.488C86.429 48.488 89.141 51.104 89.141 55.064C89.141 55.496 89.117 55.928 89.045 56.36H79.325C79.493 58.328 80.837 59.432 82.517 59.432C83.957 59.432 84.749 58.712 85.181 57.824H88.805ZM90.7295 55.304C90.7295 51.152 93.4175 48.488 96.8015 48.488C98.9375 48.488 100.402 49.496 101.194 50.6V48.704H104.578V62H101.194V60.056C100.402 61.208 98.8895 62.216 96.7775 62.216C93.4175 62.216 90.7295 59.456 90.7295 55.304ZM101.194 55.352C101.194 52.832 99.5135 51.44 97.6655 51.44C95.8655 51.44 94.1615 52.784 94.1615 55.304C94.1615 57.824 95.8655 59.264 97.6655 59.264C99.5135 59.264 101.194 57.872 101.194 55.352ZM108.387 57.872V51.464H106.803V48.704H108.387V45.416H111.771V48.704H114.747V51.464H111.771V57.896C111.771 58.784 112.131 59.168 113.187 59.168H114.747V62H112.635C110.091 62 108.387 60.92 108.387 57.872ZM122.876 51.248C121.268 51.248 119.996 52.28 119.732 54.104H126.044C125.996 52.352 124.604 51.248 122.876 51.248ZM129.188 57.824C128.468 60.272 126.26 62.216 122.972 62.216C119.108 62.216 116.3 59.528 116.3 55.352C116.3 51.152 119.036 48.488 122.972 48.488C126.812 48.488 129.524 51.104 129.524 55.064C129.524 55.496 129.5 55.928 129.428 56.36H119.708C119.876 58.328 121.22 59.432 122.9 59.432C124.34 59.432 125.132 58.712 125.564 57.824H129.188ZM146.575 50.456C146.575 48.968 145.735 48.032 143.863 48.032H141.055V52.952H143.863C145.735 52.952 146.575 51.968 146.575 50.456ZM137.695 45.248H143.983C148.015 45.248 150.031 47.576 150.031 50.384C150.031 52.424 148.903 54.488 146.215 55.208L150.223 62H146.335L142.639 55.472H141.055V62H137.695V45.248ZM165.91 55.352C165.91 59.528 162.838 62.216 158.974 62.216C155.134 62.216 152.23 59.528 152.23 55.352C152.23 51.152 155.23 48.488 159.07 48.488C162.91 48.488 165.91 51.152 165.91 55.352ZM155.638 55.352C155.638 57.992 157.174 59.288 158.974 59.288C160.75 59.288 162.454 57.992 162.454 55.352C162.454 52.688 160.798 51.416 159.022 51.416C157.246 51.416 155.638 52.688 155.638 55.352ZM180.927 48.704V62H177.543V60.32C176.703 61.448 175.239 62.168 173.583 62.168C170.487 62.168 168.255 60.152 168.255 56.504V48.704H171.615V56.024C171.615 58.16 172.791 59.312 174.567 59.312C176.391 59.312 177.543 58.16 177.543 56.024V48.704H180.927ZM184.77 57.872V51.464H183.186V48.704H184.77V45.416H188.154V48.704H191.13V51.464H188.154V57.896C188.154 58.784 188.514 59.168 189.57 59.168H191.13V62H189.018C186.474 62 184.77 60.92 184.77 57.872ZM199.259 51.248C197.651 51.248 196.379 52.28 196.115 54.104H202.427C202.379 52.352 200.987 51.248 199.259 51.248ZM205.571 57.824C204.851 60.272 202.643 62.216 199.355 62.216C195.491 62.216 192.683 59.528 192.683 55.352C192.683 51.152 195.419 48.488 199.355 48.488C203.195 48.488 205.907 51.104 205.907 55.064C205.907 55.496 205.883 55.928 205.811 56.36H196.091C196.259 58.328 197.603 59.432 199.283 59.432C200.723 59.432 201.515 58.712 201.947 57.824H205.571Z" fill="#002850"/>
<rect x="1580.5" y="30.5" width="147" height="47" fill="#256EB5"/>
<rect x="1580.5" y="30.5" width="147" height="47" stroke="#256EB5"/>
<path d="M1622 56.2095C1622 56.019 1621.97 55.8481 1621.92 55.6968C1621.86 55.5405 1621.76 55.3989 1621.61 55.272C1621.46 55.1401 1621.24 55.0107 1620.97 54.8838C1620.7 54.7568 1620.34 54.625 1619.91 54.4883C1619.43 54.332 1618.97 54.1562 1618.53 53.9609C1618.1 53.7656 1617.72 53.5386 1617.39 53.2798C1617.06 53.0161 1616.8 52.7109 1616.61 52.3643C1616.43 52.0176 1616.33 51.6147 1616.33 51.1558C1616.33 50.7114 1616.43 50.3086 1616.63 49.9473C1616.82 49.5811 1617.1 49.2686 1617.45 49.0098C1617.8 48.7461 1618.21 48.5435 1618.69 48.4019C1619.18 48.2603 1619.71 48.1895 1620.28 48.1895C1621.07 48.1895 1621.75 48.3311 1622.34 48.6143C1622.93 48.8975 1623.38 49.2856 1623.7 49.7788C1624.03 50.272 1624.19 50.8359 1624.19 51.4707H1622.01C1622.01 51.1582 1621.95 50.8848 1621.81 50.6504C1621.69 50.4111 1621.49 50.2231 1621.23 50.0864C1620.97 49.9497 1620.64 49.8813 1620.25 49.8813C1619.87 49.8813 1619.55 49.9399 1619.29 50.0571C1619.04 50.1694 1618.85 50.3232 1618.72 50.5186C1618.6 50.709 1618.53 50.9238 1618.53 51.1631C1618.53 51.3438 1618.58 51.5073 1618.66 51.6538C1618.76 51.8003 1618.89 51.937 1619.07 52.064C1619.25 52.1909 1619.48 52.3105 1619.74 52.4229C1620 52.5352 1620.31 52.645 1620.66 52.7524C1621.24 52.9282 1621.75 53.126 1622.19 53.3457C1622.63 53.5654 1623 53.812 1623.3 54.0854C1623.6 54.3589 1623.82 54.6689 1623.97 55.0156C1624.13 55.3623 1624.2 55.7554 1624.2 56.1948C1624.2 56.6587 1624.11 57.0737 1623.93 57.4399C1623.75 57.8062 1623.49 58.1162 1623.15 58.3701C1622.8 58.624 1622.4 58.8169 1621.92 58.9487C1621.45 59.0806 1620.92 59.1465 1620.33 59.1465C1619.81 59.1465 1619.29 59.0781 1618.77 58.9414C1618.26 58.7998 1617.79 58.5874 1617.38 58.3042C1616.96 58.021 1616.63 57.6597 1616.38 57.2202C1616.13 56.7808 1616.01 56.2607 1616.01 55.6602H1618.21C1618.21 55.9922 1618.26 56.2729 1618.36 56.5024C1618.47 56.7319 1618.61 56.9175 1618.8 57.0591C1618.99 57.2007 1619.21 57.3032 1619.47 57.3667C1619.73 57.4302 1620.02 57.4619 1620.33 57.4619C1620.71 57.4619 1621.03 57.4082 1621.27 57.3008C1621.52 57.1934 1621.7 57.0444 1621.82 56.854C1621.94 56.6636 1622 56.4487 1622 56.2095ZM1629.84 57.2129V53.6826C1629.84 53.4287 1629.8 53.2114 1629.72 53.0308C1629.63 52.8452 1629.5 52.7012 1629.33 52.5986C1629.16 52.4961 1628.94 52.4448 1628.66 52.4448C1628.43 52.4448 1628.22 52.4863 1628.05 52.5693C1627.88 52.6475 1627.75 52.7622 1627.66 52.9136C1627.57 53.0601 1627.52 53.2334 1627.52 53.4336H1625.41C1625.41 53.0967 1625.49 52.7769 1625.64 52.4741C1625.8 52.1714 1626.03 51.9053 1626.33 51.6758C1626.62 51.4414 1626.98 51.2583 1627.39 51.1265C1627.8 50.9946 1628.27 50.9287 1628.78 50.9287C1629.39 50.9287 1629.94 51.0312 1630.42 51.2363C1630.9 51.4414 1631.27 51.749 1631.55 52.1592C1631.83 52.5693 1631.96 53.082 1631.96 53.6973V57.0884C1631.96 57.5229 1631.99 57.8794 1632.05 58.1577C1632.1 58.4312 1632.18 58.6704 1632.28 58.8755V59H1630.15C1630.05 58.7852 1629.97 58.5166 1629.91 58.1943C1629.87 57.8672 1629.84 57.54 1629.84 57.2129ZM1630.12 54.1733L1630.13 55.3672H1628.95C1628.68 55.3672 1628.43 55.3989 1628.23 55.4624C1628.02 55.5259 1627.86 55.6162 1627.72 55.7334C1627.59 55.8457 1627.49 55.9775 1627.43 56.1289C1627.37 56.2803 1627.34 56.4463 1627.34 56.627C1627.34 56.8076 1627.38 56.9712 1627.47 57.1177C1627.55 57.2593 1627.67 57.3716 1627.83 57.4546C1627.98 57.5327 1628.17 57.5718 1628.38 57.5718C1628.69 57.5718 1628.97 57.5083 1629.2 57.3813C1629.44 57.2544 1629.62 57.0981 1629.75 56.9126C1629.88 56.7271 1629.95 56.5513 1629.95 56.3853L1630.51 57.2788C1630.43 57.479 1630.32 57.6865 1630.19 57.9014C1630.05 58.1162 1629.88 58.3188 1629.68 58.5093C1629.47 58.6948 1629.23 58.8486 1628.94 58.9707C1628.65 59.0879 1628.31 59.1465 1627.91 59.1465C1627.41 59.1465 1626.96 59.0464 1626.54 58.8462C1626.14 58.6411 1625.82 58.3604 1625.58 58.0039C1625.34 57.6426 1625.23 57.2324 1625.23 56.7734C1625.23 56.3584 1625.3 55.9897 1625.46 55.6675C1625.62 55.3452 1625.85 55.0742 1626.15 54.8545C1626.46 54.6299 1626.84 54.4614 1627.3 54.3491C1627.76 54.2319 1628.29 54.1733 1628.9 54.1733H1630.12ZM1636.17 57.4619L1637.93 51.0752H1640.13L1637.46 59H1636.12L1636.17 57.4619ZM1634.96 51.0752L1636.73 57.4692L1636.76 59H1635.42L1632.75 51.0752H1634.96ZM1644.62 59.1465C1644.01 59.1465 1643.45 59.0488 1642.97 58.8535C1642.48 58.6533 1642.06 58.3774 1641.72 58.0259C1641.38 57.6743 1641.12 57.2666 1640.94 56.8027C1640.76 56.334 1640.67 55.8359 1640.67 55.3086V55.0156C1640.67 54.415 1640.76 53.8657 1640.93 53.3677C1641.1 52.8696 1641.34 52.4375 1641.66 52.0713C1641.98 51.7051 1642.38 51.4243 1642.83 51.229C1643.29 51.0288 1643.81 50.9287 1644.39 50.9287C1644.95 50.9287 1645.45 51.0215 1645.88 51.207C1646.32 51.3926 1646.68 51.6562 1646.97 51.998C1647.27 52.3398 1647.49 52.75 1647.65 53.2285C1647.8 53.7021 1647.87 54.2295 1647.87 54.8105V55.6895H1641.57V54.2832H1645.8V54.1221C1645.8 53.8291 1645.75 53.5679 1645.64 53.3384C1645.54 53.104 1645.38 52.9185 1645.17 52.7817C1644.96 52.645 1644.69 52.5767 1644.36 52.5767C1644.09 52.5767 1643.85 52.6377 1643.65 52.7598C1643.45 52.8818 1643.28 53.0527 1643.16 53.2725C1643.03 53.4922 1642.94 53.751 1642.88 54.0488C1642.82 54.3418 1642.79 54.6641 1642.79 55.0156V55.3086C1642.79 55.626 1642.83 55.9189 1642.92 56.1875C1643.01 56.4561 1643.14 56.688 1643.31 56.8833C1643.48 57.0786 1643.69 57.23 1643.93 57.3374C1644.17 57.4448 1644.45 57.4985 1644.75 57.4985C1645.13 57.4985 1645.49 57.4253 1645.81 57.2788C1646.15 57.1274 1646.43 56.9004 1646.67 56.5977L1647.7 57.7109C1647.53 57.9502 1647.3 58.1797 1647.02 58.3994C1646.73 58.6191 1646.39 58.7998 1645.99 58.9414C1645.59 59.0781 1645.13 59.1465 1644.62 59.1465ZM1652.94 48.3359H1656.92C1657.73 48.3359 1658.43 48.458 1659.02 48.7021C1659.61 48.9463 1660.07 49.3076 1660.38 49.7861C1660.7 50.2646 1660.86 50.853 1660.86 51.5513C1660.86 52.1226 1660.76 52.6133 1660.57 53.0234C1660.38 53.4287 1660.1 53.7681 1659.75 54.0415C1659.41 54.3101 1659 54.5249 1658.53 54.686L1657.83 55.0522H1654.38L1654.36 53.3384H1656.93C1657.32 53.3384 1657.64 53.27 1657.89 53.1333C1658.15 52.9966 1658.34 52.8062 1658.46 52.562C1658.6 52.3179 1658.66 52.0347 1658.66 51.7124C1658.66 51.3706 1658.6 51.0752 1658.47 50.8262C1658.34 50.5771 1658.15 50.3867 1657.89 50.2549C1657.63 50.123 1657.31 50.0571 1656.92 50.0571H1655.14V59H1652.94V48.3359ZM1658.9 59L1656.47 54.2466L1658.79 54.2319L1661.25 58.8975V59H1658.9ZM1662.08 55.1182V54.9644C1662.08 54.3833 1662.17 53.8486 1662.33 53.3604C1662.5 52.8672 1662.74 52.4399 1663.06 52.0786C1663.37 51.7173 1663.76 51.4365 1664.23 51.2363C1664.69 51.0312 1665.22 50.9287 1665.82 50.9287C1666.43 50.9287 1666.96 51.0312 1667.43 51.2363C1667.9 51.4365 1668.29 51.7173 1668.61 52.0786C1668.93 52.4399 1669.17 52.8672 1669.34 53.3604C1669.51 53.8486 1669.59 54.3833 1669.59 54.9644V55.1182C1669.59 55.6943 1669.51 56.229 1669.34 56.7222C1669.17 57.2104 1668.93 57.6377 1668.61 58.0039C1668.29 58.3652 1667.9 58.646 1667.44 58.8462C1666.97 59.0464 1666.44 59.1465 1665.84 59.1465C1665.24 59.1465 1664.7 59.0464 1664.24 58.8462C1663.77 58.646 1663.38 58.3652 1663.06 58.0039C1662.74 57.6377 1662.5 57.2104 1662.33 56.7222C1662.17 56.229 1662.08 55.6943 1662.08 55.1182ZM1664.19 54.9644V55.1182C1664.19 55.4502 1664.22 55.7603 1664.28 56.0483C1664.34 56.3364 1664.43 56.5903 1664.56 56.8101C1664.69 57.0249 1664.86 57.1934 1665.07 57.3154C1665.28 57.4375 1665.54 57.4985 1665.84 57.4985C1666.13 57.4985 1666.38 57.4375 1666.59 57.3154C1666.8 57.1934 1666.97 57.0249 1667.1 56.8101C1667.23 56.5903 1667.32 56.3364 1667.38 56.0483C1667.44 55.7603 1667.47 55.4502 1667.47 55.1182V54.9644C1667.47 54.6421 1667.44 54.3394 1667.38 54.0562C1667.32 53.7681 1667.22 53.5142 1667.09 53.2944C1666.96 53.0698 1666.8 52.894 1666.59 52.7671C1666.38 52.6401 1666.12 52.5767 1665.82 52.5767C1665.53 52.5767 1665.27 52.6401 1665.06 52.7671C1664.86 52.894 1664.69 53.0698 1664.56 53.2944C1664.43 53.5142 1664.34 53.7681 1664.28 54.0562C1664.22 54.3394 1664.19 54.6421 1664.19 54.9644ZM1675.57 57.103V51.0752H1677.68V59H1675.7L1675.57 57.103ZM1675.81 55.4771L1676.43 55.4624C1676.43 55.9897 1676.37 56.4805 1676.25 56.9346C1676.12 57.3838 1675.94 57.7744 1675.7 58.1064C1675.45 58.4336 1675.15 58.6899 1674.77 58.8755C1674.4 59.0562 1673.97 59.1465 1673.46 59.1465C1673.08 59.1465 1672.72 59.0928 1672.39 58.9854C1672.07 58.873 1671.79 58.6997 1671.56 58.4653C1671.33 58.2261 1671.15 57.9209 1671.02 57.5498C1670.89 57.1738 1670.83 56.7222 1670.83 56.1948V51.0752H1672.94V56.2095C1672.94 56.4438 1672.96 56.6416 1673.02 56.8027C1673.08 56.9639 1673.16 57.0957 1673.26 57.1982C1673.36 57.3008 1673.48 57.374 1673.62 57.418C1673.76 57.4619 1673.92 57.4839 1674.09 57.4839C1674.52 57.4839 1674.86 57.396 1675.11 57.2202C1675.37 57.0444 1675.54 56.8052 1675.65 56.5024C1675.75 56.1948 1675.81 55.853 1675.81 55.4771ZM1683.18 51.0752V52.5693H1678.56V51.0752H1683.18ZM1679.7 49.1196H1681.81V56.6123C1681.81 56.8418 1681.84 57.0176 1681.9 57.1396C1681.96 57.2617 1682.06 57.3472 1682.18 57.396C1682.3 57.4399 1682.46 57.4619 1682.64 57.4619C1682.77 57.4619 1682.89 57.457 1682.99 57.4473C1683.1 57.4326 1683.19 57.418 1683.26 57.4033L1683.27 58.9561C1683.09 59.0146 1682.9 59.061 1682.69 59.0952C1682.48 59.1294 1682.24 59.1465 1681.99 59.1465C1681.53 59.1465 1681.12 59.0708 1680.77 58.9194C1680.43 58.7632 1680.17 58.5142 1679.98 58.1724C1679.8 57.8306 1679.7 57.3813 1679.7 56.8247V49.1196ZM1688.02 59.1465C1687.41 59.1465 1686.86 59.0488 1686.37 58.8535C1685.88 58.6533 1685.47 58.3774 1685.12 58.0259C1684.79 57.6743 1684.53 57.2666 1684.35 56.8027C1684.17 56.334 1684.08 55.8359 1684.08 55.3086V55.0156C1684.08 54.415 1684.16 53.8657 1684.33 53.3677C1684.5 52.8696 1684.75 52.4375 1685.07 52.0713C1685.39 51.7051 1685.78 51.4243 1686.24 51.229C1686.7 51.0288 1687.21 50.9287 1687.79 50.9287C1688.35 50.9287 1688.85 51.0215 1689.28 51.207C1689.72 51.3926 1690.08 51.6562 1690.38 51.998C1690.67 52.3398 1690.9 52.75 1691.05 53.2285C1691.2 53.7021 1691.28 54.2295 1691.28 54.8105V55.6895H1684.98V54.2832H1689.2V54.1221C1689.2 53.8291 1689.15 53.5679 1689.04 53.3384C1688.94 53.104 1688.78 52.9185 1688.57 52.7817C1688.36 52.645 1688.1 52.5767 1687.77 52.5767C1687.49 52.5767 1687.25 52.6377 1687.05 52.7598C1686.85 52.8818 1686.69 53.0527 1686.56 53.2725C1686.44 53.4922 1686.34 53.751 1686.28 54.0488C1686.22 54.3418 1686.19 54.6641 1686.19 55.0156V55.3086C1686.19 55.626 1686.24 55.9189 1686.33 56.1875C1686.42 56.4561 1686.55 56.688 1686.71 56.8833C1686.88 57.0786 1687.09 57.23 1687.33 57.3374C1687.57 57.4448 1687.85 57.4985 1688.16 57.4985C1688.54 57.4985 1688.89 57.4253 1689.22 57.2788C1689.55 57.1274 1689.84 56.9004 1690.08 56.5977L1691.1 57.7109C1690.93 57.9502 1690.71 58.1797 1690.42 58.3994C1690.14 58.6191 1689.79 58.7998 1689.39 58.9414C1688.99 59.0781 1688.54 59.1465 1688.02 59.1465Z" fill="white"/>
<rect x="1469" y="31" width="90" height="46" fill="white"/>
<rect x="1469" y="31" width="90" height="46" stroke="#D2D2D2" stroke-width="2"/>
<path d="M1498.13 55.4624H1500.32C1500.28 56.1802 1500.08 56.8174 1499.73 57.374C1499.38 57.9307 1498.9 58.3652 1498.27 58.6777C1497.65 58.9902 1496.91 59.1465 1496.03 59.1465C1495.35 59.1465 1494.74 59.0293 1494.19 58.7949C1493.65 58.5557 1493.19 58.2139 1492.8 57.7695C1492.42 57.3252 1492.13 56.7881 1491.93 56.1582C1491.73 55.5283 1491.63 54.8228 1491.63 54.0415V53.3018C1491.63 52.5205 1491.73 51.8149 1491.94 51.1851C1492.15 50.5503 1492.45 50.0107 1492.83 49.5664C1493.22 49.1221 1493.69 48.7803 1494.23 48.541C1494.77 48.3018 1495.38 48.1821 1496.05 48.1821C1496.94 48.1821 1497.68 48.3433 1498.29 48.6655C1498.91 48.9878 1499.39 49.4321 1499.72 49.9985C1500.06 50.5649 1500.27 51.2095 1500.34 51.9321H1498.14C1498.12 51.5024 1498.03 51.1387 1497.88 50.8408C1497.74 50.5381 1497.52 50.311 1497.22 50.1597C1496.93 50.0034 1496.53 49.9253 1496.05 49.9253C1495.68 49.9253 1495.36 49.9937 1495.09 50.1304C1494.81 50.2671 1494.58 50.4746 1494.4 50.7529C1494.21 51.0312 1494.07 51.3828 1493.98 51.8076C1493.89 52.2275 1493.85 52.7207 1493.85 53.2871V54.0415C1493.85 54.5933 1493.89 55.0791 1493.97 55.499C1494.06 55.9141 1494.18 56.2656 1494.35 56.5537C1494.53 56.8369 1494.75 57.0518 1495.03 57.1982C1495.31 57.3398 1495.64 57.4106 1496.03 57.4106C1496.49 57.4106 1496.87 57.3374 1497.17 57.1909C1497.46 57.0444 1497.69 56.8271 1497.85 56.5391C1498.01 56.251 1498.1 55.8921 1498.13 55.4624ZM1505.91 57.2129V53.6826C1505.91 53.4287 1505.87 53.2114 1505.79 53.0308C1505.7 52.8452 1505.58 52.7012 1505.4 52.5986C1505.23 52.4961 1505.01 52.4448 1504.73 52.4448C1504.5 52.4448 1504.3 52.4863 1504.12 52.5693C1503.95 52.6475 1503.82 52.7622 1503.73 52.9136C1503.64 53.0601 1503.59 53.2334 1503.59 53.4336H1501.48C1501.48 53.0967 1501.56 52.7769 1501.72 52.4741C1501.87 52.1714 1502.1 51.9053 1502.4 51.6758C1502.69 51.4414 1503.05 51.2583 1503.46 51.1265C1503.87 50.9946 1504.34 50.9287 1504.85 50.9287C1505.47 50.9287 1506.01 51.0312 1506.49 51.2363C1506.97 51.4414 1507.35 51.749 1507.62 52.1592C1507.9 52.5693 1508.04 53.082 1508.04 53.6973V57.0884C1508.04 57.5229 1508.06 57.8794 1508.12 58.1577C1508.17 58.4312 1508.25 58.6704 1508.35 58.8755V59H1506.22C1506.12 58.7852 1506.04 58.5166 1505.99 58.1943C1505.94 57.8672 1505.91 57.54 1505.91 57.2129ZM1506.19 54.1733L1506.21 55.3672H1505.03C1504.75 55.3672 1504.51 55.3989 1504.3 55.4624C1504.1 55.5259 1503.93 55.6162 1503.8 55.7334C1503.66 55.8457 1503.57 55.9775 1503.5 56.1289C1503.44 56.2803 1503.41 56.4463 1503.41 56.627C1503.41 56.8076 1503.46 56.9712 1503.54 57.1177C1503.62 57.2593 1503.74 57.3716 1503.9 57.4546C1504.05 57.5327 1504.24 57.5718 1504.45 57.5718C1504.76 57.5718 1505.04 57.5083 1505.27 57.3813C1505.51 57.2544 1505.69 57.0981 1505.82 56.9126C1505.95 56.7271 1506.02 56.5513 1506.02 56.3853L1506.58 57.2788C1506.5 57.479 1506.39 57.6865 1506.26 57.9014C1506.12 58.1162 1505.96 58.3188 1505.75 58.5093C1505.55 58.6948 1505.3 58.8486 1505.01 58.9707C1504.72 59.0879 1504.38 59.1465 1503.99 59.1465C1503.48 59.1465 1503.03 59.0464 1502.62 58.8462C1502.21 58.6411 1501.89 58.3604 1501.65 58.0039C1501.42 57.6426 1501.3 57.2324 1501.3 56.7734C1501.3 56.3584 1501.38 55.9897 1501.53 55.6675C1501.69 55.3452 1501.92 55.0742 1502.22 54.8545C1502.53 54.6299 1502.91 54.4614 1503.37 54.3491C1503.83 54.2319 1504.36 54.1733 1504.97 54.1733H1506.19ZM1511.73 52.7671V59H1509.62V51.0752H1511.6L1511.73 52.7671ZM1511.42 54.7593H1510.85C1510.85 54.1733 1510.92 53.646 1511.08 53.1772C1511.23 52.7036 1511.44 52.3008 1511.71 51.9688C1511.99 51.6318 1512.31 51.3755 1512.69 51.1997C1513.07 51.019 1513.49 50.9287 1513.96 50.9287C1514.33 50.9287 1514.67 50.9824 1514.98 51.0898C1515.29 51.1973 1515.55 51.3682 1515.77 51.6025C1516 51.8369 1516.17 52.147 1516.28 52.5327C1516.41 52.9185 1516.47 53.3896 1516.47 53.9463V59H1514.34V53.939C1514.34 53.5874 1514.29 53.314 1514.2 53.1187C1514.1 52.9233 1513.95 52.7866 1513.76 52.7085C1513.58 52.6255 1513.35 52.584 1513.08 52.584C1512.79 52.584 1512.55 52.6401 1512.34 52.7524C1512.13 52.8647 1511.96 53.021 1511.82 53.2212C1511.69 53.4165 1511.59 53.646 1511.52 53.9097C1511.45 54.1733 1511.42 54.4565 1511.42 54.7593ZM1521.34 57.4985C1521.6 57.4985 1521.83 57.4497 1522.03 57.3521C1522.23 57.2495 1522.39 57.1079 1522.5 56.9272C1522.62 56.7417 1522.68 56.5244 1522.68 56.2754H1524.67C1524.66 56.832 1524.52 57.3276 1524.22 57.7622C1523.93 58.1919 1523.54 58.5312 1523.04 58.7803C1522.55 59.0244 1522 59.1465 1521.39 59.1465C1520.77 59.1465 1520.24 59.0439 1519.78 58.8389C1519.32 58.6338 1518.94 58.3506 1518.64 57.9893C1518.34 57.623 1518.11 57.1982 1517.96 56.7148C1517.81 56.2266 1517.73 55.7041 1517.73 55.1475V54.9351C1517.73 54.3735 1517.81 53.8511 1517.96 53.3677C1518.11 52.8794 1518.34 52.4546 1518.64 52.0933C1518.94 51.7271 1519.32 51.4414 1519.78 51.2363C1520.23 51.0312 1520.76 50.9287 1521.37 50.9287C1522.02 50.9287 1522.59 51.0532 1523.08 51.3022C1523.57 51.5513 1523.96 51.9077 1524.24 52.3716C1524.52 52.8306 1524.66 53.375 1524.67 54.0049H1522.68C1522.68 53.7412 1522.62 53.502 1522.52 53.2871C1522.41 53.0723 1522.26 52.9014 1522.06 52.7744C1521.87 52.6426 1521.62 52.5767 1521.34 52.5767C1521.03 52.5767 1520.78 52.6426 1520.58 52.7744C1520.39 52.9014 1520.24 53.0771 1520.13 53.3018C1520.02 53.5215 1519.95 53.7729 1519.9 54.0562C1519.86 54.3345 1519.84 54.6274 1519.84 54.9351V55.1475C1519.84 55.4551 1519.86 55.7505 1519.9 56.0337C1519.94 56.3169 1520.01 56.5684 1520.12 56.7881C1520.23 57.0078 1520.39 57.1812 1520.58 57.3081C1520.78 57.4351 1521.03 57.4985 1521.34 57.4985ZM1529.54 59.1465C1528.92 59.1465 1528.37 59.0488 1527.88 58.8535C1527.4 58.6533 1526.98 58.3774 1526.64 58.0259C1526.3 57.6743 1526.04 57.2666 1525.86 56.8027C1525.68 56.334 1525.59 55.8359 1525.59 55.3086V55.0156C1525.59 54.415 1525.68 53.8657 1525.85 53.3677C1526.02 52.8696 1526.26 52.4375 1526.58 52.0713C1526.9 51.7051 1527.29 51.4243 1527.75 51.229C1528.21 51.0288 1528.73 50.9287 1529.31 50.9287C1529.87 50.9287 1530.37 51.0215 1530.8 51.207C1531.23 51.3926 1531.6 51.6562 1531.89 51.998C1532.19 52.3398 1532.41 52.75 1532.56 53.2285C1532.72 53.7021 1532.79 54.2295 1532.79 54.8105V55.6895H1526.49V54.2832H1530.72V54.1221C1530.72 53.8291 1530.67 53.5679 1530.56 53.3384C1530.46 53.104 1530.3 52.9185 1530.09 52.7817C1529.88 52.645 1529.61 52.5767 1529.28 52.5767C1529.01 52.5767 1528.77 52.6377 1528.57 52.7598C1528.37 52.8818 1528.2 53.0527 1528.08 53.2725C1527.95 53.4922 1527.86 53.751 1527.8 54.0488C1527.74 54.3418 1527.71 54.6641 1527.71 55.0156V55.3086C1527.71 55.626 1527.75 55.9189 1527.84 56.1875C1527.93 56.4561 1528.06 56.688 1528.23 56.8833C1528.4 57.0786 1528.6 57.23 1528.84 57.3374C1529.09 57.4448 1529.36 57.4985 1529.67 57.4985C1530.05 57.4985 1530.41 57.4253 1530.73 57.2788C1531.07 57.1274 1531.35 56.9004 1531.59 56.5977L1532.62 57.7109C1532.45 57.9502 1532.22 58.1797 1531.94 58.3994C1531.65 58.6191 1531.31 58.7998 1530.91 58.9414C1530.51 59.0781 1530.05 59.1465 1529.54 59.1465ZM1536.22 47.75V59H1534.1V47.75H1536.22Z" fill="#7A7A7A"/>
</svg>
