<svg width="1777" height="112" viewBox="0 0 1777 112" fill="none" xmlns="http://www.w3.org/2000/svg">
<g filter="url(#filter0_d_1364_10410)">
<path d="M2 2H1767V102H2V2Z" fill="white"/>
</g>
<path d="M36.536 46.456C36.536 44.968 35.696 44.032 33.824 44.032H31.016V48.952H33.824C35.696 48.952 36.536 47.968 36.536 46.456ZM27.656 41.248H33.944C37.976 41.248 39.992 43.576 39.992 46.384C39.992 48.424 38.864 50.488 36.176 51.208L40.184 58H36.296L32.6 51.472H31.016V58H27.656V41.248ZM55.871 51.352C55.871 55.528 52.799 58.216 48.935 58.216C45.095 58.216 42.191 55.528 42.191 51.352C42.191 47.152 45.191 44.488 49.031 44.488C52.871 44.488 55.871 47.152 55.871 51.352ZM45.599 51.352C45.599 53.992 47.135 55.288 48.935 55.288C50.711 55.288 52.415 53.992 52.415 51.352C52.415 48.688 50.759 47.416 48.983 47.416C47.207 47.416 45.599 48.688 45.599 51.352ZM70.8877 44.704V58H67.5037V56.32C66.6637 57.448 65.1997 58.168 63.5437 58.168C60.4477 58.168 58.2157 56.152 58.2157 52.504V44.704H61.5757V52.024C61.5757 54.16 62.7517 55.312 64.5277 55.312C66.3517 55.312 67.5037 54.16 67.5037 52.024V44.704H70.8877ZM74.7309 53.872V47.464H73.1469V44.704H74.7309V41.416H78.1149V44.704H81.0909V47.464H78.1149V53.896C78.1149 54.784 78.4749 55.168 79.5309 55.168H81.0909V58H78.9789C76.4349 58 74.7309 56.92 74.7309 53.872ZM89.2196 47.248C87.6116 47.248 86.3396 48.28 86.0756 50.104H92.3876C92.3396 48.352 90.9476 47.248 89.2196 47.248ZM95.5316 53.824C94.8116 56.272 92.6036 58.216 89.3156 58.216C85.4516 58.216 82.6436 55.528 82.6436 51.352C82.6436 47.152 85.3796 44.488 89.3156 44.488C93.1556 44.488 95.8676 47.104 95.8676 51.064C95.8676 51.496 95.8436 51.928 95.7716 52.36H86.0516C86.2196 54.328 87.5636 55.432 89.2436 55.432C90.6836 55.432 91.4756 54.712 91.9076 53.824H95.5316ZM104.039 41.248H107.399V55.336H112.919V58H104.039V41.248ZM115.054 58V44.704H118.414V58H115.054ZM116.758 43.12C115.558 43.12 114.694 42.256 114.694 41.152C114.694 40.048 115.558 39.184 116.758 39.184C117.934 39.184 118.822 40.048 118.822 41.152C118.822 42.256 117.934 43.12 116.758 43.12ZM132.054 54.208C132.054 56.488 130.062 58.216 126.822 58.216C123.486 58.216 121.158 56.272 121.014 53.8H124.398C124.518 54.808 125.454 55.576 126.798 55.576C128.118 55.576 128.838 54.976 128.838 54.208C128.838 51.832 121.326 53.344 121.326 48.472C121.326 46.264 123.294 44.488 126.582 44.488C129.798 44.488 131.742 46.24 131.934 48.88H128.718C128.622 47.848 127.806 47.152 126.486 47.152C125.238 47.152 124.59 47.656 124.59 48.424C124.59 50.848 131.958 49.336 132.054 54.208ZM135.34 53.872V47.464H133.756V44.704H135.34V41.416H138.724V44.704H141.7V47.464H138.724V53.896C138.724 54.784 139.084 55.168 140.14 55.168H141.7V58H139.588C137.044 58 135.34 56.92 135.34 53.872ZM156.724 54.568L161.308 41.248H164.884L158.74 58H154.66L148.516 41.248H152.116L156.724 54.568ZM166.898 58V44.704H170.258V58H166.898ZM168.602 43.12C167.402 43.12 166.538 42.256 166.538 41.152C166.538 40.048 167.402 39.184 168.602 39.184C169.778 39.184 170.666 40.048 170.666 41.152C170.666 42.256 169.778 43.12 168.602 43.12ZM179.29 47.248C177.682 47.248 176.41 48.28 176.146 50.104H182.458C182.41 48.352 181.018 47.248 179.29 47.248ZM185.602 53.824C184.882 56.272 182.674 58.216 179.386 58.216C175.522 58.216 172.714 55.528 172.714 51.352C172.714 47.152 175.45 44.488 179.386 44.488C183.226 44.488 185.938 47.104 185.938 51.064C185.938 51.496 185.914 51.928 185.842 52.36H176.122C176.29 54.328 177.634 55.432 179.314 55.432C180.754 55.432 181.546 54.712 181.978 53.824H185.602ZM190.814 58L186.902 44.704H190.31L192.662 54.832L195.206 44.704H198.758L201.254 54.808L203.606 44.704H206.822L202.934 58H199.31L196.886 48.712L194.462 58H190.814Z" fill="#002850"/>
<rect x="1411" y="27" width="91" height="46" fill="white"/>
<rect x="1411" y="27" width="91" height="46" stroke="#256EB5" stroke-width="2"/>
<path d="M1434.11 53.2861V55H1428.43V53.2861H1434.11ZM1429.15 44.3359V55H1426.95V44.3359H1429.15ZM1433.37 48.6792V50.3491H1428.43V48.6792H1433.37ZM1434.1 44.3359V46.0571H1428.43V44.3359H1434.1ZM1436.96 47.0752L1438.27 49.4849L1439.62 47.0752H1441.86L1439.62 50.9497L1441.97 55H1439.71L1438.28 52.4512L1436.85 55H1434.6L1436.94 50.9497L1434.7 47.0752H1436.96ZM1445 48.5986V58.0469H1442.89V47.0752H1444.85L1445 48.5986ZM1450.02 50.9497V51.1035C1450.02 51.6797 1449.95 52.2144 1449.81 52.7075C1449.68 53.2007 1449.48 53.6304 1449.23 53.9966C1448.97 54.3579 1448.64 54.6411 1448.26 54.8462C1447.88 55.0464 1447.44 55.1465 1446.94 55.1465C1446.46 55.1465 1446.04 55.0488 1445.68 54.8535C1445.32 54.6582 1445.02 54.3848 1444.78 54.0332C1444.54 53.6768 1444.35 53.2642 1444.2 52.7954C1444.05 52.3267 1443.94 51.8237 1443.86 51.2866V50.8838C1443.94 50.3076 1444.05 49.7803 1444.2 49.3018C1444.35 48.8184 1444.54 48.4009 1444.78 48.0493C1445.02 47.6929 1445.32 47.417 1445.67 47.2217C1446.03 47.0264 1446.45 46.9287 1446.93 46.9287C1447.43 46.9287 1447.87 47.0239 1448.25 47.2144C1448.64 47.4048 1448.96 47.6782 1449.22 48.0347C1449.48 48.3911 1449.68 48.8159 1449.81 49.3091C1449.95 49.8022 1450.02 50.3491 1450.02 50.9497ZM1447.9 51.1035V50.9497C1447.9 50.6128 1447.87 50.3027 1447.81 50.0195C1447.76 49.7314 1447.67 49.48 1447.55 49.2651C1447.43 49.0503 1447.27 48.8843 1447.08 48.7671C1446.89 48.645 1446.66 48.584 1446.38 48.584C1446.1 48.584 1445.85 48.6304 1445.64 48.7231C1445.44 48.8159 1445.28 48.9502 1445.15 49.126C1445.03 49.3018 1444.93 49.5117 1444.87 49.7559C1444.8 50 1444.76 50.2759 1444.75 50.5835V51.6016C1444.77 51.9629 1444.84 52.2876 1444.96 52.5757C1445.07 52.8589 1445.24 53.0835 1445.48 53.2495C1445.71 53.4155 1446.02 53.4985 1446.4 53.4985C1446.68 53.4985 1446.91 53.4375 1447.1 53.3154C1447.29 53.1885 1447.45 53.0151 1447.56 52.7954C1447.68 52.5757 1447.77 52.3218 1447.82 52.0337C1447.87 51.7456 1447.9 51.4355 1447.9 51.1035ZM1450.99 51.1182V50.9644C1450.99 50.3833 1451.07 49.8486 1451.24 49.3604C1451.41 48.8672 1451.65 48.4399 1451.96 48.0786C1452.28 47.7173 1452.67 47.4365 1453.14 47.2363C1453.6 47.0312 1454.13 46.9287 1454.73 46.9287C1455.33 46.9287 1455.87 47.0312 1456.34 47.2363C1456.81 47.4365 1457.2 47.7173 1457.52 48.0786C1457.84 48.4399 1458.08 48.8672 1458.25 49.3604C1458.41 49.8486 1458.5 50.3833 1458.5 50.9644V51.1182C1458.5 51.6943 1458.41 52.229 1458.25 52.7222C1458.08 53.2104 1457.84 53.6377 1457.52 54.0039C1457.2 54.3652 1456.81 54.646 1456.34 54.8462C1455.88 55.0464 1455.35 55.1465 1454.75 55.1465C1454.15 55.1465 1453.61 55.0464 1453.14 54.8462C1452.68 54.646 1452.29 54.3652 1451.96 54.0039C1451.65 53.6377 1451.41 53.2104 1451.24 52.7222C1451.07 52.229 1450.99 51.6943 1450.99 51.1182ZM1453.1 50.9644V51.1182C1453.1 51.4502 1453.13 51.7603 1453.19 52.0483C1453.25 52.3364 1453.34 52.5903 1453.47 52.8101C1453.6 53.0249 1453.77 53.1934 1453.98 53.3154C1454.19 53.4375 1454.44 53.4985 1454.75 53.4985C1455.04 53.4985 1455.29 53.4375 1455.5 53.3154C1455.71 53.1934 1455.88 53.0249 1456.01 52.8101C1456.13 52.5903 1456.23 52.3364 1456.29 52.0483C1456.35 51.7603 1456.38 51.4502 1456.38 51.1182V50.9644C1456.38 50.6421 1456.35 50.3394 1456.29 50.0562C1456.23 49.7681 1456.13 49.5142 1456 49.2944C1455.87 49.0698 1455.7 48.894 1455.49 48.7671C1455.28 48.6401 1455.03 48.5767 1454.73 48.5767C1454.44 48.5767 1454.18 48.6401 1453.97 48.7671C1453.77 48.894 1453.6 49.0698 1453.47 49.2944C1453.34 49.5142 1453.25 49.7681 1453.19 50.0562C1453.13 50.3394 1453.1 50.6421 1453.1 50.9644ZM1461.9 48.8037V55H1459.79V47.0752H1461.78L1461.9 48.8037ZM1464.29 47.0239L1464.25 48.9795C1464.15 48.9648 1464.03 48.9526 1463.88 48.9429C1463.74 48.9282 1463.61 48.9209 1463.49 48.9209C1463.19 48.9209 1462.94 48.96 1462.72 49.0381C1462.5 49.1113 1462.32 49.2212 1462.17 49.3677C1462.03 49.5142 1461.93 49.6924 1461.85 49.9023C1461.78 50.1123 1461.74 50.3516 1461.73 50.6201L1461.31 50.4883C1461.31 49.9756 1461.36 49.5044 1461.46 49.0747C1461.57 48.6401 1461.72 48.2617 1461.91 47.9395C1462.11 47.6172 1462.35 47.3682 1462.64 47.1924C1462.93 47.0166 1463.26 46.9287 1463.63 46.9287C1463.75 46.9287 1463.87 46.9385 1463.99 46.958C1464.11 46.9727 1464.21 46.9946 1464.29 47.0239ZM1469.54 47.0752V48.5693H1464.92V47.0752H1469.54ZM1466.06 45.1196H1468.17V52.6123C1468.17 52.8418 1468.2 53.0176 1468.26 53.1396C1468.32 53.2617 1468.42 53.3472 1468.54 53.396C1468.66 53.4399 1468.81 53.4619 1469 53.4619C1469.13 53.4619 1469.25 53.457 1469.35 53.4473C1469.46 53.4326 1469.55 53.418 1469.62 53.4033L1469.63 54.9561C1469.45 55.0146 1469.25 55.061 1469.04 55.0952C1468.83 55.1294 1468.6 55.1465 1468.35 55.1465C1467.88 55.1465 1467.48 55.0708 1467.13 54.9194C1466.79 54.7632 1466.53 54.5142 1466.34 54.1724C1466.16 53.8306 1466.06 53.3813 1466.06 52.8247V45.1196Z" fill="#256EB5"/>
<path d="M1487 50L1482.5 52.5981L1482.5 47.4019L1487 50Z" fill="#256EB5"/>
<rect x="1677" y="27" width="61" height="46" fill="white"/>
<rect x="1677" y="27" width="61" height="46" stroke="#E4E5E5" stroke-width="2"/>
<circle cx="1699" cy="50" r="3" fill="black"/>
<circle cx="1708" cy="50" r="3" fill="black"/>
<circle cx="1717" cy="50" r="3" fill="black"/>
<rect x="1516.5" y="26.5" width="147" height="47" fill="#256EB5"/>
<rect x="1516.5" y="26.5" width="147" height="47" stroke="#256EB5"/>
<path d="M1556.22 49.0601V50.8984H1548.91V49.0601H1556.22ZM1553.57 46.167V53.9307H1551.57V46.167H1553.57ZM1565.7 46.1597L1562.8 55H1560.46L1564.42 44.3359H1565.91L1565.7 46.1597ZM1568.11 55L1565.2 46.1597L1564.96 44.3359H1566.47L1570.45 55H1568.11ZM1567.98 51.0303V52.7515H1562.34V51.0303H1567.98ZM1575.99 53.2715V43.75H1578.11V55H1576.2L1575.99 53.2715ZM1570.98 51.1328V50.979C1570.98 50.3735 1571.05 49.8242 1571.18 49.3311C1571.32 48.833 1571.52 48.4058 1571.78 48.0493C1572.05 47.6929 1572.37 47.417 1572.76 47.2217C1573.14 47.0264 1573.58 46.9287 1574.08 46.9287C1574.54 46.9287 1574.95 47.0264 1575.29 47.2217C1575.64 47.417 1575.94 47.6953 1576.19 48.0566C1576.43 48.4131 1576.63 48.8354 1576.79 49.3237C1576.94 49.8071 1577.05 50.3369 1577.12 50.9131V51.25C1577.05 51.8018 1576.94 52.3145 1576.79 52.7881C1576.63 53.2617 1576.43 53.6768 1576.19 54.0332C1575.94 54.3848 1575.64 54.6582 1575.29 54.8535C1574.94 55.0488 1574.53 55.1465 1574.06 55.1465C1573.57 55.1465 1573.13 55.0464 1572.74 54.8462C1572.36 54.646 1572.04 54.3652 1571.78 54.0039C1571.52 53.6426 1571.32 53.2178 1571.18 52.7295C1571.05 52.2412 1570.98 51.709 1570.98 51.1328ZM1573.09 50.979V51.1328C1573.09 51.46 1573.11 51.7651 1573.16 52.0483C1573.21 52.3315 1573.3 52.583 1573.42 52.8027C1573.54 53.0176 1573.7 53.186 1573.89 53.3081C1574.08 53.4253 1574.32 53.4839 1574.6 53.4839C1574.96 53.4839 1575.26 53.4033 1575.49 53.2422C1575.72 53.0762 1575.9 52.8491 1576.02 52.561C1576.15 52.2729 1576.22 51.9409 1576.24 51.5649V50.6055C1576.23 50.2979 1576.19 50.022 1576.11 49.7778C1576.04 49.5288 1575.94 49.3164 1575.8 49.1406C1575.67 48.9648 1575.51 48.8281 1575.31 48.7305C1575.11 48.6328 1574.88 48.584 1574.61 48.584C1574.34 48.584 1574.1 48.6475 1573.91 48.7744C1573.71 48.8965 1573.55 49.0649 1573.43 49.2798C1573.31 49.4946 1573.23 49.7485 1573.17 50.0415C1573.11 50.3296 1573.09 50.6421 1573.09 50.979ZM1584.44 53.2715V43.75H1586.56V55H1584.65L1584.44 53.2715ZM1579.43 51.1328V50.979C1579.43 50.3735 1579.5 49.8242 1579.64 49.3311C1579.77 48.833 1579.97 48.4058 1580.24 48.0493C1580.5 47.6929 1580.82 47.417 1581.21 47.2217C1581.6 47.0264 1582.04 46.9287 1582.53 46.9287C1582.99 46.9287 1583.4 47.0264 1583.74 47.2217C1584.1 47.417 1584.39 47.6953 1584.64 48.0566C1584.89 48.4131 1585.09 48.8354 1585.24 49.3237C1585.39 49.8071 1585.5 50.3369 1585.57 50.9131V51.25C1585.5 51.8018 1585.39 52.3145 1585.24 52.7881C1585.09 53.2617 1584.89 53.6768 1584.64 54.0332C1584.39 54.3848 1584.1 54.6582 1583.74 54.8535C1583.39 55.0488 1582.98 55.1465 1582.51 55.1465C1582.02 55.1465 1581.58 55.0464 1581.2 54.8462C1580.81 54.646 1580.49 54.3652 1580.23 54.0039C1579.97 53.6426 1579.77 53.2178 1579.64 52.7295C1579.5 52.2412 1579.43 51.709 1579.43 51.1328ZM1581.54 50.979V51.1328C1581.54 51.46 1581.56 51.7651 1581.61 52.0483C1581.67 52.3315 1581.75 52.583 1581.87 52.8027C1581.99 53.0176 1582.15 53.186 1582.34 53.3081C1582.53 53.4253 1582.77 53.4839 1583.05 53.4839C1583.41 53.4839 1583.71 53.4033 1583.94 53.2422C1584.18 53.0762 1584.35 52.8491 1584.48 52.561C1584.6 52.2729 1584.68 51.9409 1584.7 51.5649V50.6055C1584.68 50.2979 1584.64 50.022 1584.56 49.7778C1584.5 49.5288 1584.39 49.3164 1584.26 49.1406C1584.12 48.9648 1583.96 48.8281 1583.76 48.7305C1583.56 48.6328 1583.33 48.584 1583.06 48.584C1582.79 48.584 1582.56 48.6475 1582.36 48.7744C1582.16 48.8965 1582.01 49.0649 1581.88 49.2798C1581.77 49.4946 1581.68 49.7485 1581.62 50.0415C1581.57 50.3296 1581.54 50.6421 1581.54 50.979ZM1592.08 44.3359H1596.06C1596.87 44.3359 1597.57 44.458 1598.16 44.7021C1598.75 44.9463 1599.2 45.3076 1599.52 45.7861C1599.84 46.2646 1600 46.853 1600 47.5513C1600 48.1226 1599.9 48.6133 1599.7 49.0234C1599.51 49.4287 1599.24 49.7681 1598.89 50.0415C1598.54 50.3101 1598.14 50.5249 1597.67 50.686L1596.97 51.0522H1593.51L1593.5 49.3384H1596.07C1596.46 49.3384 1596.78 49.27 1597.03 49.1333C1597.28 48.9966 1597.47 48.8062 1597.6 48.562C1597.73 48.3179 1597.8 48.0347 1597.8 47.7124C1597.8 47.3706 1597.74 47.0752 1597.61 46.8262C1597.48 46.5771 1597.29 46.3867 1597.03 46.2549C1596.77 46.123 1596.45 46.0571 1596.06 46.0571H1594.28V55H1592.08V44.3359ZM1598.04 55L1595.61 50.2466L1597.93 50.2319L1600.39 54.8975V55H1598.04ZM1601.22 51.1182V50.9644C1601.22 50.3833 1601.3 49.8486 1601.47 49.3604C1601.63 48.8672 1601.88 48.4399 1602.19 48.0786C1602.51 47.7173 1602.9 47.4365 1603.37 47.2363C1603.83 47.0312 1604.36 46.9287 1604.96 46.9287C1605.56 46.9287 1606.1 47.0312 1606.57 47.2363C1607.04 47.4365 1607.43 47.7173 1607.75 48.0786C1608.07 48.4399 1608.31 48.8672 1608.48 49.3604C1608.64 49.8486 1608.73 50.3833 1608.73 50.9644V51.1182C1608.73 51.6943 1608.64 52.229 1608.48 52.7222C1608.31 53.2104 1608.07 53.6377 1607.75 54.0039C1607.43 54.3652 1607.04 54.646 1606.57 54.8462C1606.11 55.0464 1605.58 55.1465 1604.98 55.1465C1604.38 55.1465 1603.84 55.0464 1603.37 54.8462C1602.91 54.646 1602.52 54.3652 1602.19 54.0039C1601.88 53.6377 1601.63 53.2104 1601.47 52.7222C1601.3 52.229 1601.22 51.6943 1601.22 51.1182ZM1603.33 50.9644V51.1182C1603.33 51.4502 1603.36 51.7603 1603.42 52.0483C1603.48 52.3364 1603.57 52.5903 1603.7 52.8101C1603.83 53.0249 1604 53.1934 1604.21 53.3154C1604.42 53.4375 1604.67 53.4985 1604.98 53.4985C1605.27 53.4985 1605.52 53.4375 1605.73 53.3154C1605.94 53.1934 1606.11 53.0249 1606.24 52.8101C1606.36 52.5903 1606.46 52.3364 1606.52 52.0483C1606.58 51.7603 1606.61 51.4502 1606.61 51.1182V50.9644C1606.61 50.6421 1606.58 50.3394 1606.52 50.0562C1606.46 49.7681 1606.36 49.5142 1606.23 49.2944C1606.1 49.0698 1605.93 48.894 1605.72 48.7671C1605.51 48.6401 1605.26 48.5767 1604.96 48.5767C1604.66 48.5767 1604.41 48.6401 1604.2 48.7671C1604 48.894 1603.83 49.0698 1603.7 49.2944C1603.57 49.5142 1603.48 49.7681 1603.42 50.0562C1603.36 50.3394 1603.33 50.6421 1603.33 50.9644ZM1614.71 53.103V47.0752H1616.82V55H1614.84L1614.71 53.103ZM1614.95 51.4771L1615.57 51.4624C1615.57 51.9897 1615.51 52.4805 1615.38 52.9346C1615.26 53.3838 1615.08 53.7744 1614.84 54.1064C1614.59 54.4336 1614.28 54.6899 1613.91 54.8755C1613.54 55.0562 1613.1 55.1465 1612.6 55.1465C1612.22 55.1465 1611.86 55.0928 1611.53 54.9854C1611.21 54.873 1610.93 54.6997 1610.7 54.4653C1610.47 54.2261 1610.29 53.9209 1610.16 53.5498C1610.03 53.1738 1609.96 52.7222 1609.96 52.1948V47.0752H1612.07V52.2095C1612.07 52.4438 1612.1 52.6416 1612.15 52.8027C1612.21 52.9639 1612.29 53.0957 1612.4 53.1982C1612.5 53.3008 1612.62 53.374 1612.76 53.418C1612.9 53.4619 1613.05 53.4839 1613.22 53.4839C1613.66 53.4839 1614 53.396 1614.25 53.2202C1614.5 53.0444 1614.68 52.8052 1614.78 52.5024C1614.89 52.1948 1614.95 51.853 1614.95 51.4771ZM1622.31 47.0752V48.5693H1617.7V47.0752H1622.31ZM1618.84 45.1196H1620.95V52.6123C1620.95 52.8418 1620.98 53.0176 1621.04 53.1396C1621.1 53.2617 1621.2 53.3472 1621.32 53.396C1621.44 53.4399 1621.59 53.4619 1621.78 53.4619C1621.91 53.4619 1622.03 53.457 1622.13 53.4473C1622.24 53.4326 1622.33 53.418 1622.4 53.4033L1622.41 54.9561C1622.23 55.0146 1622.03 55.061 1621.82 55.0952C1621.61 55.1294 1621.38 55.1465 1621.13 55.1465C1620.66 55.1465 1620.26 55.0708 1619.91 54.9194C1619.57 54.7632 1619.31 54.5142 1619.12 54.1724C1618.93 53.8306 1618.84 53.3813 1618.84 52.8247V45.1196ZM1627.16 55.1465C1626.55 55.1465 1626 55.0488 1625.51 54.8535C1625.02 54.6533 1624.6 54.3774 1624.26 54.0259C1623.92 53.6743 1623.67 53.2666 1623.49 52.8027C1623.3 52.334 1623.21 51.8359 1623.21 51.3086V51.0156C1623.21 50.415 1623.3 49.8657 1623.47 49.3677C1623.64 48.8696 1623.89 48.4375 1624.2 48.0713C1624.53 47.7051 1624.92 47.4243 1625.38 47.229C1625.83 47.0288 1626.35 46.9287 1626.93 46.9287C1627.49 46.9287 1627.99 47.0215 1628.42 47.207C1628.86 47.3926 1629.22 47.6562 1629.51 47.998C1629.81 48.3398 1630.04 48.75 1630.19 49.2285C1630.34 49.7021 1630.41 50.2295 1630.41 50.8105V51.6895H1624.12V50.2832H1628.34V50.1221C1628.34 49.8291 1628.29 49.5679 1628.18 49.3384C1628.08 49.104 1627.92 48.9185 1627.71 48.7817C1627.5 48.645 1627.23 48.5767 1626.91 48.5767C1626.63 48.5767 1626.39 48.6377 1626.19 48.7598C1625.99 48.8818 1625.82 49.0527 1625.7 49.2725C1625.58 49.4922 1625.48 49.751 1625.42 50.0488C1625.36 50.3418 1625.33 50.6641 1625.33 51.0156V51.3086C1625.33 51.626 1625.38 51.9189 1625.46 52.1875C1625.56 52.4561 1625.69 52.688 1625.85 52.8833C1626.02 53.0786 1626.23 53.23 1626.47 53.3374C1626.71 53.4448 1626.99 53.4985 1627.29 53.4985C1627.67 53.4985 1628.03 53.4253 1628.36 53.2788C1628.69 53.1274 1628.97 52.9004 1629.21 52.5977L1630.24 53.7109C1630.07 53.9502 1629.85 54.1797 1629.56 54.3994C1629.27 54.6191 1628.93 54.7998 1628.53 54.9414C1628.13 55.0781 1627.67 55.1465 1627.16 55.1465Z" fill="white"/>
<defs>
<filter id="filter0_d_1364_10410" x="0" y="0" width="1777" height="112" filterUnits="userSpaceOnUse" color-interpolation-filters="sRGB">
<feFlood flood-opacity="0" result="BackgroundImageFix"/>
<feColorMatrix in="SourceAlpha" type="matrix" values="0 0 0 0 0 0 0 0 0 0 0 0 0 0 0 0 0 0 127 0" result="hardAlpha"/>
<feOffset dx="4" dy="4"/>
<feGaussianBlur stdDeviation="3"/>
<feComposite in2="hardAlpha" operator="out"/>
<feColorMatrix type="matrix" values="0 0 0 0 0 0 0 0 0 0 0 0 0 0 0 0 0 0 0.1 0"/>
<feBlend mode="normal" in2="BackgroundImageFix" result="effect1_dropShadow_1364_10410"/>
<feBlend mode="normal" in="SourceGraphic" in2="effect1_dropShadow_1364_10410" result="shape"/>
</filter>
</defs>
</svg>
