<svg width="857" height="458" viewBox="0 0 857 458" fill="none" xmlns="http://www.w3.org/2000/svg">
<g filter="url(#filter0_d_1749_1846)">
<rect x="12" y="8" width="833" height="434" fill="white"/>
</g>
<path d="M48.94 184.24C48.2 183.95 47.78 183.39 47.78 182.58C47.78 181.52 48.58 180.66 50.15 180.66C51.72 180.66 52.53 181.53 52.53 182.58C52.53 183.36 52.08 183.96 51.37 184.24C52.19 184.49 52.72 185.15 52.72 186.05C52.72 187.36 51.68 188.2 50.15 188.2C48.63 188.2 47.6 187.36 47.6 186.05C47.6 185.14 48.13 184.48 48.94 184.24ZM50.15 183.94C51.04 183.94 51.65 183.44 51.65 182.69C51.65 181.86 51.06 181.42 50.15 181.42C49.26 181.42 48.66 181.85 48.66 182.7C48.66 183.45 49.27 183.94 50.15 183.94ZM50.15 184.64C49.22 184.64 48.47 185.06 48.47 186.02C48.47 186.87 49.12 187.44 50.15 187.44C51.18 187.44 51.82 186.86 51.82 186.02C51.82 185.09 51.1 184.64 50.15 184.64ZM53.9086 182.59C53.9986 181.35 54.9386 180.63 56.2786 180.63C57.6886 180.63 58.4586 181.45 58.4586 182.49C58.4586 183.32 57.9386 183.97 57.1786 184.14V184.19C58.0186 184.39 58.5886 185.01 58.5886 186.05C58.5886 187.17 57.8086 188.05 56.2986 188.05C54.9286 188.05 53.9086 187.32 53.7986 185.92H54.6786C54.7686 186.69 55.3286 187.28 56.2886 187.28C57.2586 187.28 57.7186 186.71 57.7186 185.97C57.7186 184.95 57.0086 184.56 55.7086 184.56H55.4786V183.8H55.7186C56.9286 183.79 57.5786 183.42 57.5786 182.58C57.5786 181.89 57.1186 181.41 56.2486 181.41C55.3986 181.41 54.8886 181.89 54.7986 182.59H53.9086ZM59.1773 189.43L59.9073 186.74H60.9073L59.7873 189.43H59.1773ZM61.7797 182.59C61.8697 181.35 62.8097 180.63 64.1497 180.63C65.5597 180.63 66.3297 181.45 66.3297 182.49C66.3297 183.32 65.8097 183.97 65.0497 184.14V184.19C65.8897 184.39 66.4597 185.01 66.4597 186.05C66.4597 187.17 65.6797 188.05 64.1697 188.05C62.7997 188.05 61.7797 187.32 61.6697 185.92H62.5497C62.6397 186.69 63.1997 187.28 64.1597 187.28C65.1297 187.28 65.5897 186.71 65.5897 185.97C65.5897 184.95 64.8797 184.56 63.5797 184.56H63.3497V183.8H63.5897C64.7997 183.79 65.4497 183.42 65.4497 182.58C65.4497 181.89 64.9897 181.41 64.1197 181.41C63.2697 181.41 62.7597 181.89 62.6697 182.59H61.7797ZM72.5584 182.49H71.7184C71.5784 181.79 71.1684 181.38 70.3484 181.38C69.1984 181.38 68.5784 182.17 68.5884 184.32C68.8984 183.61 69.6884 183.21 70.5484 183.21C71.8984 183.21 72.8084 184.1 72.8084 185.62C72.8084 186.94 72.0284 188.02 70.4484 188.02C68.3084 188.02 67.7984 186.48 67.7984 184.29C67.7984 182.02 68.5284 180.62 70.3584 180.62C71.7384 180.62 72.4384 181.48 72.5584 182.49ZM70.3584 183.98C69.5284 183.98 68.6984 184.47 68.6984 185.55C68.6984 186.51 69.2584 187.26 70.3984 187.26C71.3384 187.26 71.9284 186.63 71.9284 185.65C71.9284 184.63 71.3984 183.98 70.3584 183.98ZM75.356 184.24C74.616 183.95 74.196 183.39 74.196 182.58C74.196 181.52 74.996 180.66 76.566 180.66C78.136 180.66 78.946 181.53 78.946 182.58C78.946 183.36 78.496 183.96 77.786 184.24C78.606 184.49 79.136 185.15 79.136 186.05C79.136 187.36 78.096 188.2 76.566 188.2C75.046 188.2 74.016 187.36 74.016 186.05C74.016 185.14 74.546 184.48 75.356 184.24ZM76.566 183.94C77.456 183.94 78.066 183.44 78.066 182.69C78.066 181.86 77.476 181.42 76.566 181.42C75.676 181.42 75.076 181.85 75.076 182.7C75.076 183.45 75.686 183.94 76.566 183.94ZM76.566 184.64C75.636 184.64 74.886 185.06 74.886 186.02C74.886 186.87 75.536 187.44 76.566 187.44C77.596 187.44 78.236 186.86 78.236 186.02C78.236 185.09 77.516 184.64 76.566 184.64ZM81.3846 187.44C81.3846 187.79 81.1146 188.06 80.7846 188.06C80.4346 188.06 80.1646 187.79 80.1646 187.44C80.1646 187.09 80.4346 186.82 80.7846 186.82C81.1146 186.82 81.3846 187.09 81.3846 187.44ZM82.4442 184.31C82.4442 182.24 82.9642 180.66 84.9642 180.66C86.9542 180.66 87.4742 182.24 87.4742 184.31C87.4742 186.41 86.9542 188 84.9642 188C82.9642 188 82.4442 186.41 82.4442 184.31ZM86.5742 184.31C86.5742 182.81 86.3842 181.49 84.9642 181.49C83.5342 181.49 83.3442 182.81 83.3442 184.31C83.3442 185.87 83.5342 187.17 84.9642 187.17C86.3842 187.17 86.5742 185.87 86.5742 184.31ZM88.7235 184.31C88.7235 182.24 89.2435 180.66 91.2435 180.66C93.2335 180.66 93.7535 182.24 93.7535 184.31C93.7535 186.41 93.2335 188 91.2435 188C89.2435 188 88.7235 186.41 88.7235 184.31ZM92.8535 184.31C92.8535 182.81 92.6635 181.49 91.2435 181.49C89.8135 181.49 89.6235 182.81 89.6235 184.31C89.6235 185.87 89.8135 187.17 91.2435 187.17C92.6635 187.17 92.8535 185.87 92.8535 184.31Z" fill="#A6A6A6"/>
<path d="M39.2974 180.914C39.1403 180.962 39.0229 181.098 39.0023 181.254C38.9896 181.347 39.0308 181.488 39.0943 181.56C39.1213 181.59 39.18 181.634 39.2244 181.658L39.3053 181.701L40.0192 181.709L40.733 181.717L40.8599 181.761C41.0614 181.833 41.2232 181.936 41.3755 182.09C41.5135 182.231 41.65 182.44 41.6706 182.546L41.6817 182.597H40.5014C39.5575 182.599 39.3101 182.604 39.2609 182.619C39.1705 182.653 39.1022 182.711 39.0531 182.805C38.9658 182.965 38.9991 183.16 39.134 183.279C39.264 183.394 39.2276 183.39 40.522 183.39C41.4358 183.39 41.6769 183.395 41.6769 183.409C41.6769 183.441 41.5881 183.622 41.5262 183.714C41.4088 183.892 41.1804 184.084 40.9837 184.171C40.7711 184.265 40.7457 184.268 40.0985 184.277C39.4132 184.288 39.4274 184.285 39.3021 184.428C39.2165 184.526 39.1974 184.601 39.2054 184.829C39.2101 184.993 39.2149 185.026 39.2498 185.088C39.2894 185.158 39.3846 185.248 41.5976 187.306C42.0624 187.739 42.294 187.942 42.3432 187.966C42.6763 188.115 43.019 187.751 42.8524 187.425C42.8302 187.379 42.4606 187.025 41.5944 186.221L40.3698 185.08L40.5427 185.07C41.0678 185.039 41.5104 184.855 41.8752 184.514C42.1687 184.239 42.3559 183.931 42.4654 183.541L42.5082 183.39H43.0729C43.7059 183.39 43.7472 183.386 43.8614 183.287C44.0882 183.094 44.02 182.719 43.7408 182.619C43.698 182.604 43.533 182.599 43.0951 182.597H42.5066L42.478 182.481C42.4209 182.243 42.3337 182.048 42.183 181.825C42.1402 181.761 42.1052 181.706 42.1052 181.701C42.1052 181.696 42.4622 181.693 42.8984 181.693C43.7551 181.693 43.744 181.695 43.8582 181.607C43.8852 181.587 43.928 181.531 43.9534 181.485C44.039 181.327 44.0041 181.13 43.8693 181.011C43.736 180.893 43.8868 180.9 41.4881 180.901C40.3047 180.901 39.3196 180.908 39.2974 180.914Z" fill="#A6A6A6"/>
<path d="M52.49 209.49H51.65C51.51 208.79 51.1 208.38 50.28 208.38C49.13 208.38 48.51 209.17 48.52 211.32C48.83 210.61 49.62 210.21 50.48 210.21C51.83 210.21 52.74 211.1 52.74 212.62C52.74 213.94 51.96 215.02 50.38 215.02C48.24 215.02 47.73 213.48 47.73 211.29C47.73 209.02 48.46 207.62 50.29 207.62C51.67 207.62 52.37 208.48 52.49 209.49ZM50.29 210.98C49.46 210.98 48.63 211.47 48.63 212.55C48.63 213.51 49.19 214.26 50.33 214.26C51.27 214.26 51.86 213.63 51.86 212.65C51.86 211.63 51.33 210.98 50.29 210.98ZM53.8577 214.92V214.27C55.7577 212.74 57.5577 211.3 57.5577 209.82C57.5577 209.02 57.2077 208.42 56.2277 208.42C55.2877 208.42 54.8077 209.07 54.7677 209.98H53.8877C53.9477 208.44 54.9177 207.64 56.2177 207.64C57.5777 207.64 58.4577 208.44 58.4577 209.78C58.4577 211.58 56.5177 213.11 55.2277 214.16H58.6677V214.92H53.8577ZM59.0796 216.43L59.8096 213.74H60.8096L59.6896 216.43H59.0796ZM61.962 207.76H66.312V208.56H62.802V210.84C63.102 210.43 63.742 210.11 64.452 210.11C66.212 210.11 66.772 211.38 66.772 212.5C66.772 213.9 65.992 215.02 64.302 215.02C62.862 215.02 61.992 214.21 61.812 213.04H62.702C62.872 213.8 63.462 214.25 64.312 214.25C65.412 214.25 65.902 213.51 65.902 212.52C65.902 211.49 65.372 210.89 64.322 210.89C63.592 210.89 63.062 211.27 62.822 211.84H61.962V207.76ZM67.8713 214.92V214.27C69.7713 212.74 71.5713 211.3 71.5713 209.82C71.5713 209.02 71.2213 208.42 70.2413 208.42C69.3013 208.42 68.8213 209.07 68.7813 209.98H67.9013C67.9613 208.44 68.9313 207.64 70.2313 207.64C71.5913 207.64 72.4713 208.44 72.4713 209.78C72.4713 211.58 70.5313 213.11 69.2413 214.16H72.6813V214.92H67.8713ZM78.6033 209.49H77.7633C77.6233 208.79 77.2133 208.38 76.3933 208.38C75.2433 208.38 74.6233 209.17 74.6333 211.32C74.9433 210.61 75.7333 210.21 76.5933 210.21C77.9433 210.21 78.8533 211.1 78.8533 212.62C78.8533 213.94 78.0733 215.02 76.4933 215.02C74.3533 215.02 73.8433 213.48 73.8433 211.29C73.8433 209.02 74.5733 207.62 76.4033 207.62C77.7833 207.62 78.4833 208.48 78.6033 209.49ZM76.4033 210.98C75.5733 210.98 74.7433 211.47 74.7433 212.55C74.7433 213.51 75.3033 214.26 76.4433 214.26C77.3833 214.26 77.9733 213.63 77.9733 212.65C77.9733 211.63 77.4433 210.98 76.4033 210.98ZM81.1209 214.44C81.1209 214.79 80.8509 215.06 80.5209 215.06C80.1709 215.06 79.9009 214.79 79.9009 214.44C79.9009 214.09 80.1709 213.82 80.5209 213.82C80.8509 213.82 81.1209 214.09 81.1209 214.44ZM82.1805 211.31C82.1805 209.24 82.7005 207.66 84.7005 207.66C86.6905 207.66 87.2105 209.24 87.2105 211.31C87.2105 213.41 86.6905 215 84.7005 215C82.7005 215 82.1805 213.41 82.1805 211.31ZM86.3105 211.31C86.3105 209.81 86.1205 208.49 84.7005 208.49C83.2705 208.49 83.0805 209.81 83.0805 211.31C83.0805 212.87 83.2705 214.17 84.7005 214.17C86.1205 214.17 86.3105 212.87 86.3105 211.31ZM88.4598 211.31C88.4598 209.24 88.9798 207.66 90.9798 207.66C92.9698 207.66 93.4898 209.24 93.4898 211.31C93.4898 213.41 92.9698 215 90.9798 215C88.9798 215 88.4598 213.41 88.4598 211.31ZM92.5898 211.31C92.5898 209.81 92.3998 208.49 90.9798 208.49C89.5498 208.49 89.3598 209.81 89.3598 211.31C89.3598 212.87 89.5498 214.17 90.9798 214.17C92.3998 214.17 92.5898 212.87 92.5898 211.31Z" fill="#A6A6A6"/>
<path d="M39.2974 207.914C39.1403 207.962 39.0229 208.098 39.0023 208.254C38.9896 208.347 39.0308 208.488 39.0943 208.56C39.1213 208.59 39.18 208.634 39.2244 208.658L39.3053 208.701L40.0192 208.709L40.733 208.717L40.8599 208.761C41.0614 208.833 41.2232 208.936 41.3755 209.09C41.5135 209.231 41.65 209.44 41.6706 209.546L41.6817 209.597H40.5014C39.5575 209.599 39.3101 209.604 39.2609 209.619C39.1705 209.653 39.1022 209.711 39.0531 209.805C38.9658 209.965 38.9991 210.16 39.134 210.279C39.264 210.394 39.2276 210.39 40.522 210.39C41.4358 210.39 41.6769 210.395 41.6769 210.409C41.6769 210.441 41.5881 210.622 41.5262 210.714C41.4088 210.892 41.1804 211.084 40.9837 211.171C40.7711 211.265 40.7457 211.268 40.0985 211.277C39.4132 211.288 39.4274 211.285 39.3021 211.428C39.2165 211.526 39.1974 211.601 39.2054 211.829C39.2101 211.993 39.2149 212.026 39.2498 212.088C39.2894 212.158 39.3846 212.248 41.5976 214.306C42.0624 214.739 42.294 214.942 42.3432 214.966C42.6763 215.115 43.019 214.751 42.8524 214.425C42.8302 214.379 42.4606 214.025 41.5944 213.221L40.3698 212.08L40.5427 212.07C41.0678 212.039 41.5104 211.855 41.8752 211.514C42.1687 211.239 42.3559 210.931 42.4654 210.541L42.5082 210.39H43.0729C43.7059 210.39 43.7472 210.386 43.8614 210.287C44.0882 210.094 44.02 209.719 43.7408 209.619C43.698 209.604 43.533 209.599 43.0951 209.597H42.5066L42.478 209.481C42.4209 209.243 42.3337 209.048 42.183 208.825C42.1402 208.761 42.1052 208.706 42.1052 208.701C42.1052 208.696 42.4622 208.693 42.8984 208.693C43.7551 208.693 43.744 208.695 43.8582 208.607C43.8852 208.587 43.928 208.531 43.9534 208.485C44.039 208.327 44.0041 208.13 43.8693 208.011C43.736 207.893 43.8868 207.9 41.4881 207.901C40.3047 207.901 39.3196 207.908 39.2974 207.914Z" fill="#A6A6A6"/>
<path d="M53.1 242V240.39H49.4V239.7L52.91 234.84H54V239.6H55V240.39H54V242H53.1ZM50.45 239.6H53.14V235.79L50.45 239.6ZM56.6291 242V235.6H55.6691V234.77H57.5491V242H56.6291ZM58.4722 243.43L59.2022 240.74H60.2022L59.0822 243.43H58.4722ZM65.9646 236.49H65.1246C64.9846 235.79 64.5746 235.38 63.7546 235.38C62.6046 235.38 61.9846 236.17 61.9946 238.32C62.3046 237.61 63.0946 237.21 63.9546 237.21C65.3046 237.21 66.2146 238.1 66.2146 239.62C66.2146 240.94 65.4346 242.02 63.8546 242.02C61.7146 242.02 61.2046 240.48 61.2046 238.29C61.2046 236.02 61.9346 234.62 63.7646 234.62C65.1446 234.62 65.8446 235.48 65.9646 236.49ZM63.7646 237.98C62.9346 237.98 62.1046 238.47 62.1046 239.55C62.1046 240.51 62.6646 241.26 63.8046 241.26C64.7446 241.26 65.3346 240.63 65.3346 239.65C65.3346 238.63 64.8046 237.98 63.7646 237.98ZM68.7623 238.24C68.0223 237.95 67.6023 237.39 67.6023 236.58C67.6023 235.52 68.4023 234.66 69.9723 234.66C71.5423 234.66 72.3523 235.53 72.3523 236.58C72.3523 237.36 71.9023 237.96 71.1923 238.24C72.0123 238.49 72.5423 239.15 72.5423 240.05C72.5423 241.36 71.5023 242.2 69.9723 242.2C68.4523 242.2 67.4223 241.36 67.4223 240.05C67.4223 239.14 67.9523 238.48 68.7623 238.24ZM69.9723 237.94C70.8623 237.94 71.4723 237.44 71.4723 236.69C71.4723 235.86 70.8823 235.42 69.9723 235.42C69.0823 235.42 68.4823 235.85 68.4823 236.7C68.4823 237.45 69.0923 237.94 69.9723 237.94ZM69.9723 238.64C69.0423 238.64 68.2923 239.06 68.2923 240.02C68.2923 240.87 68.9423 241.44 69.9723 241.44C71.0023 241.44 71.6423 240.86 71.6423 240.02C71.6423 239.09 70.9223 238.64 69.9723 238.64ZM77.2309 242V240.39H73.5309V239.7L77.0409 234.84H78.1309V239.6H79.1309V240.39H78.1309V242H77.2309ZM74.5809 239.6H77.2709V235.79L74.5809 239.6ZM81.0799 241.44C81.0799 241.79 80.8099 242.06 80.4799 242.06C80.1299 242.06 79.8599 241.79 79.8599 241.44C79.8599 241.09 80.1299 240.82 80.4799 240.82C80.8099 240.82 81.0799 241.09 81.0799 241.44ZM82.1395 238.31C82.1395 236.24 82.6595 234.66 84.6595 234.66C86.6495 234.66 87.1695 236.24 87.1695 238.31C87.1695 240.41 86.6495 242 84.6595 242C82.6595 242 82.1395 240.41 82.1395 238.31ZM86.2695 238.31C86.2695 236.81 86.0795 235.49 84.6595 235.49C83.2295 235.49 83.0395 236.81 83.0395 238.31C83.0395 239.87 83.2295 241.17 84.6595 241.17C86.0795 241.17 86.2695 239.87 86.2695 238.31ZM88.4188 238.31C88.4188 236.24 88.9388 234.66 90.9388 234.66C92.9288 234.66 93.4488 236.24 93.4488 238.31C93.4488 240.41 92.9288 242 90.9388 242C88.9388 242 88.4188 240.41 88.4188 238.31ZM92.5488 238.31C92.5488 236.81 92.3588 235.49 90.9388 235.49C89.5088 235.49 89.3188 236.81 89.3188 238.31C89.3188 239.87 89.5088 241.17 90.9388 241.17C92.3588 241.17 92.5488 239.87 92.5488 238.31Z" fill="#A6A6A6"/>
<path d="M41.2974 234.914C41.1403 234.962 41.0229 235.098 41.0023 235.254C40.9896 235.347 41.0308 235.488 41.0943 235.56C41.1213 235.59 41.18 235.634 41.2244 235.658L41.3053 235.701L42.0192 235.709L42.733 235.717L42.8599 235.761C43.0614 235.833 43.2232 235.936 43.3755 236.09C43.5135 236.231 43.65 236.44 43.6706 236.546L43.6817 236.597H42.5014C41.5575 236.599 41.3101 236.604 41.2609 236.619C41.1705 236.653 41.1022 236.711 41.0531 236.805C40.9658 236.965 40.9991 237.16 41.134 237.279C41.264 237.394 41.2276 237.39 42.522 237.39C43.4358 237.39 43.6769 237.395 43.6769 237.409C43.6769 237.441 43.5881 237.622 43.5262 237.714C43.4088 237.892 43.1804 238.084 42.9837 238.171C42.7711 238.265 42.7457 238.268 42.0985 238.277C41.4132 238.288 41.4274 238.285 41.3021 238.428C41.2165 238.526 41.1974 238.601 41.2054 238.829C41.2101 238.993 41.2149 239.026 41.2498 239.088C41.2894 239.158 41.3846 239.248 43.5976 241.306C44.0624 241.739 44.294 241.942 44.3432 241.966C44.6763 242.115 45.019 241.751 44.8524 241.425C44.8302 241.379 44.4606 241.025 43.5944 240.221L42.3698 239.08L42.5427 239.07C43.0678 239.039 43.5104 238.855 43.8752 238.514C44.1687 238.239 44.3559 237.931 44.4654 237.541L44.5082 237.39H45.0729C45.7059 237.39 45.7472 237.386 45.8614 237.287C46.0882 237.094 46.02 236.719 45.7408 236.619C45.698 236.604 45.533 236.599 45.0951 236.597H44.5066L44.478 236.481C44.4209 236.243 44.3337 236.048 44.183 235.825C44.1402 235.761 44.1052 235.706 44.1052 235.701C44.1052 235.696 44.4622 235.693 44.8984 235.693C45.7551 235.693 45.744 235.695 45.8582 235.607C45.8852 235.587 45.928 235.531 45.9534 235.485C46.039 235.327 46.0041 235.13 45.8693 235.011C45.736 234.893 45.8868 234.9 43.4881 234.901C42.3047 234.901 41.3196 234.908 41.2974 234.914Z" fill="#A6A6A6"/>
<path d="M47.51 268.92V268.27C49.41 266.74 51.21 265.3 51.21 263.82C51.21 263.02 50.86 262.42 49.88 262.42C48.94 262.42 48.46 263.07 48.42 263.98H47.54C47.6 262.44 48.57 261.64 49.87 261.64C51.23 261.64 52.11 262.44 52.11 263.78C52.11 265.58 50.17 267.11 48.88 268.16H52.32V268.92H47.51ZM53.372 265.31C53.372 263.24 53.892 261.66 55.892 261.66C57.882 261.66 58.402 263.24 58.402 265.31C58.402 267.41 57.882 269 55.892 269C53.892 269 53.372 267.41 53.372 265.31ZM57.502 265.31C57.502 263.81 57.312 262.49 55.892 262.49C54.462 262.49 54.272 263.81 54.272 265.31C54.272 266.87 54.462 268.17 55.892 268.17C57.312 268.17 57.502 266.87 57.502 265.31ZM59.0112 270.43L59.7413 267.74H60.7413L59.6213 270.43H59.0112ZM62.9537 265.24C62.2137 264.95 61.7937 264.39 61.7937 263.58C61.7937 262.52 62.5937 261.66 64.1637 261.66C65.7337 261.66 66.5437 262.53 66.5437 263.58C66.5437 264.36 66.0937 264.96 65.3837 265.24C66.2037 265.49 66.7337 266.15 66.7337 267.05C66.7337 268.36 65.6937 269.2 64.1637 269.2C62.6437 269.2 61.6137 268.36 61.6137 267.05C61.6137 266.14 62.1437 265.48 62.9537 265.24ZM64.1637 264.94C65.0537 264.94 65.6637 264.44 65.6637 263.69C65.6637 262.86 65.0737 262.42 64.1637 262.42C63.2737 262.42 62.6737 262.85 62.6737 263.7C62.6737 264.45 63.2837 264.94 64.1637 264.94ZM64.1637 265.64C63.2337 265.64 62.4837 266.06 62.4837 267.02C62.4837 267.87 63.1337 268.44 64.1637 268.44C65.1937 268.44 65.8337 267.86 65.8337 267.02C65.8337 266.09 65.1137 265.64 64.1637 265.64ZM71.4223 269V267.39H67.7223V266.7L71.2323 261.84H72.3223V266.6H73.3223V267.39H72.3223V269H71.4223ZM68.7723 266.6H71.4623V262.79L68.7723 266.6ZM74.1213 268.92V268.27C76.0213 266.74 77.8213 265.3 77.8213 263.82C77.8213 263.02 77.4713 262.42 76.4913 262.42C75.5513 262.42 75.0713 263.07 75.0313 263.98H74.1513C74.2113 262.44 75.1813 261.64 76.4813 261.64C77.8413 261.64 78.7213 262.44 78.7213 263.78C78.7213 265.58 76.7813 267.11 75.4913 268.16H78.9313V268.92H74.1213ZM81.0233 268.44C81.0233 268.79 80.7533 269.06 80.4233 269.06C80.0733 269.06 79.8033 268.79 79.8033 268.44C79.8033 268.09 80.0733 267.82 80.4233 267.82C80.7533 267.82 81.0233 268.09 81.0233 268.44ZM82.0829 265.31C82.0829 263.24 82.6029 261.66 84.6029 261.66C86.5929 261.66 87.1129 263.24 87.1129 265.31C87.1129 267.41 86.5929 269 84.6029 269C82.6029 269 82.0829 267.41 82.0829 265.31ZM86.2129 265.31C86.2129 263.81 86.0229 262.49 84.6029 262.49C83.1729 262.49 82.9829 263.81 82.9829 265.31C82.9829 266.87 83.1729 268.17 84.6029 268.17C86.0229 268.17 86.2129 266.87 86.2129 265.31ZM88.3622 265.31C88.3622 263.24 88.8822 261.66 90.8822 261.66C92.8722 261.66 93.3922 263.24 93.3922 265.31C93.3922 267.41 92.8722 269 90.8822 269C88.8822 269 88.3622 267.41 88.3622 265.31ZM92.4922 265.31C92.4922 263.81 92.3022 262.49 90.8822 262.49C89.4522 262.49 89.2622 263.81 89.2622 265.31C89.2622 266.87 89.4522 268.17 90.8822 268.17C92.3022 268.17 92.4922 266.87 92.4922 265.31Z" fill="#A6A6A6"/>
<path d="M39.2974 261.914C39.1403 261.962 39.0229 262.098 39.0023 262.254C38.9896 262.347 39.0308 262.488 39.0943 262.56C39.1213 262.59 39.18 262.634 39.2244 262.658L39.3053 262.701L40.0192 262.709L40.733 262.717L40.8599 262.761C41.0614 262.833 41.2232 262.936 41.3755 263.09C41.5135 263.231 41.65 263.44 41.6706 263.546L41.6817 263.597H40.5014C39.5575 263.599 39.3101 263.604 39.2609 263.619C39.1705 263.653 39.1022 263.711 39.0531 263.805C38.9658 263.965 38.9991 264.16 39.134 264.279C39.264 264.394 39.2276 264.39 40.522 264.39C41.4358 264.39 41.6769 264.395 41.6769 264.409C41.6769 264.441 41.5881 264.622 41.5262 264.714C41.4088 264.892 41.1804 265.084 40.9837 265.171C40.7711 265.265 40.7457 265.268 40.0985 265.277C39.4132 265.288 39.4274 265.285 39.3021 265.428C39.2165 265.526 39.1974 265.601 39.2054 265.829C39.2101 265.993 39.2149 266.026 39.2498 266.088C39.2894 266.158 39.3846 266.248 41.5976 268.306C42.0624 268.739 42.294 268.942 42.3432 268.966C42.6763 269.115 43.019 268.751 42.8524 268.425C42.8302 268.379 42.4606 268.025 41.5944 267.221L40.3698 266.08L40.5427 266.07C41.0678 266.039 41.5104 265.855 41.8752 265.514C42.1687 265.239 42.3559 264.931 42.4654 264.541L42.5082 264.39H43.0729C43.7059 264.39 43.7472 264.386 43.8614 264.287C44.0882 264.094 44.02 263.719 43.7408 263.619C43.698 263.604 43.533 263.599 43.0951 263.597H42.5066L42.478 263.481C42.4209 263.243 42.3337 263.048 42.183 262.825C42.1402 262.761 42.1052 262.706 42.1052 262.701C42.1052 262.696 42.4622 262.693 42.8984 262.693C43.7551 262.693 43.744 262.695 43.8582 262.607C43.8852 262.587 43.928 262.531 43.9534 262.485C44.039 262.327 44.0041 262.13 43.8693 262.011C43.736 261.893 43.8868 261.9 41.4881 261.901C40.3047 261.901 39.3196 261.908 39.2974 261.914Z" fill="#A6A6A6"/>
<path d="M74.62 292.31C74.62 290.24 75.14 288.66 77.14 288.66C79.13 288.66 79.65 290.24 79.65 292.31C79.65 294.41 79.13 296 77.14 296C75.14 296 74.62 294.41 74.62 292.31ZM78.75 292.31C78.75 290.81 78.56 289.49 77.14 289.49C75.71 289.49 75.52 290.81 75.52 292.31C75.52 293.87 75.71 295.17 77.14 295.17C78.56 295.17 78.75 293.87 78.75 292.31ZM81.9393 295.44C81.9393 295.79 81.6693 296.06 81.3393 296.06C80.9893 296.06 80.7193 295.79 80.7193 295.44C80.7193 295.09 80.9893 294.82 81.3393 294.82C81.6693 294.82 81.9393 295.09 81.9393 295.44ZM82.9989 292.31C82.9989 290.24 83.5189 288.66 85.5189 288.66C87.5089 288.66 88.0289 290.24 88.0289 292.31C88.0289 294.41 87.5089 296 85.5189 296C83.5189 296 82.9989 294.41 82.9989 292.31ZM87.1289 292.31C87.1289 290.81 86.9389 289.49 85.5189 289.49C84.0889 289.49 83.8989 290.81 83.8989 292.31C83.8989 293.87 84.0889 295.17 85.5189 295.17C86.9389 295.17 87.1289 293.87 87.1289 292.31ZM89.2782 292.31C89.2782 290.24 89.7982 288.66 91.7982 288.66C93.7882 288.66 94.3082 290.24 94.3082 292.31C94.3082 294.41 93.7882 296 91.7982 296C89.7982 296 89.2782 294.41 89.2782 292.31ZM93.4082 292.31C93.4082 290.81 93.2182 289.49 91.7982 289.49C90.3682 289.49 90.1782 290.81 90.1782 292.31C90.1782 293.87 90.3682 295.17 91.7982 295.17C93.2182 295.17 93.4082 293.87 93.4082 292.31Z" fill="#A6A6A6"/>
<path d="M66.2974 288.914C66.1403 288.962 66.0229 289.098 66.0023 289.254C65.9896 289.347 66.0308 289.488 66.0943 289.56C66.1213 289.59 66.18 289.634 66.2244 289.658L66.3053 289.701L67.0192 289.709L67.733 289.717L67.8599 289.761C68.0614 289.833 68.2232 289.936 68.3755 290.09C68.5135 290.231 68.65 290.44 68.6706 290.546L68.6817 290.597H67.5014C66.5575 290.599 66.3101 290.604 66.2609 290.619C66.1705 290.653 66.1022 290.711 66.0531 290.805C65.9658 290.965 65.9991 291.16 66.134 291.279C66.264 291.394 66.2276 291.39 67.522 291.39C68.4358 291.39 68.6769 291.395 68.6769 291.409C68.6769 291.441 68.5881 291.622 68.5262 291.714C68.4088 291.892 68.1804 292.084 67.9837 292.171C67.7711 292.265 67.7457 292.268 67.0985 292.277C66.4132 292.288 66.4274 292.285 66.3021 292.428C66.2165 292.526 66.1974 292.601 66.2054 292.829C66.2101 292.993 66.2149 293.026 66.2498 293.088C66.2894 293.158 66.3846 293.248 68.5976 295.306C69.0624 295.739 69.294 295.942 69.3432 295.966C69.6763 296.115 70.019 295.751 69.8524 295.425C69.8302 295.379 69.4606 295.025 68.5944 294.221L67.3698 293.08L67.5427 293.07C68.0678 293.039 68.5104 292.855 68.8752 292.514C69.1687 292.239 69.3559 291.931 69.4654 291.541L69.5082 291.39H70.0729C70.7059 291.39 70.7472 291.386 70.8614 291.287C71.0882 291.094 71.02 290.719 70.7408 290.619C70.698 290.604 70.533 290.599 70.0951 290.597H69.5066L69.478 290.481C69.4209 290.243 69.3337 290.048 69.183 289.825C69.1402 289.761 69.1052 289.706 69.1052 289.701C69.1052 289.696 69.4622 289.693 69.8984 289.693C70.7551 289.693 70.744 289.695 70.8582 289.607C70.8852 289.587 70.928 289.531 70.9534 289.485C71.039 289.327 71.0041 289.13 70.8693 289.011C70.736 288.893 70.8868 288.9 68.4881 288.901C67.3047 288.901 66.3196 288.908 66.2974 288.914Z" fill="#A6A6A6"/>
<path d="M136.44 311L135.94 309.58H133.03L132.53 311H131.34L133.83 304.04H135.15L137.64 311H136.44ZM135.62 308.65L134.49 305.42L133.35 308.65H135.62ZM143.713 305.49V311H142.573V310.34C142.213 310.81 141.593 311.08 140.943 311.08C139.653 311.08 138.673 310.27 138.673 308.73V305.49H139.803V308.56C139.803 309.57 140.353 310.09 141.183 310.09C142.023 310.09 142.573 309.57 142.573 308.56V305.49H143.713ZM144.837 308.22C144.837 306.52 145.987 305.4 147.437 305.4C148.337 305.4 149.007 305.82 149.347 306.29V305.49H150.497V311.09C150.497 312.59 149.527 313.72 147.807 313.72C146.337 313.72 145.247 312.99 145.107 311.77H146.237C146.407 312.34 147.017 312.73 147.807 312.73C148.687 312.73 149.347 312.19 149.347 311.09V310.17C148.997 310.64 148.337 311.09 147.437 311.09C145.987 311.09 144.837 309.92 144.837 308.22ZM149.347 308.24C149.347 307.06 148.537 306.39 147.677 306.39C146.827 306.39 146.007 307.03 146.007 308.22C146.007 309.41 146.827 310.1 147.677 310.1C148.537 310.1 149.347 309.43 149.347 308.24ZM154.352 310.9V310.07C156.072 308.56 157.882 307.24 157.882 305.81C157.882 305.05 157.552 304.53 156.702 304.53C155.902 304.53 155.472 305.09 155.442 305.91H154.342C154.382 304.33 155.402 303.56 156.692 303.56C158.172 303.56 159.012 304.45 159.012 305.76C159.012 307.53 157.212 308.88 156.042 309.95H159.212V310.9H154.352ZM160.193 305.51C160.273 304.25 161.253 303.54 162.583 303.54C164.033 303.54 164.823 304.38 164.823 305.44C164.823 306.31 164.273 306.9 163.703 307.09V307.13C164.463 307.36 164.953 307.99 164.953 309C164.953 310.16 164.133 311.04 162.613 311.04C161.233 311.04 160.163 310.32 160.093 308.89H161.193C161.243 309.57 161.743 310.09 162.603 310.09C163.453 310.09 163.873 309.57 163.873 308.89C163.873 307.93 163.253 307.6 162.063 307.6H161.803V306.66H162.073C163.103 306.65 163.733 306.35 163.733 305.57C163.733 304.94 163.323 304.52 162.543 304.52C161.743 304.52 161.373 305 161.303 305.51H160.193Z" fill="#474747"/>
<path d="M242.44 309.03C242.44 310.07 241.59 311.07 240.04 311.07C238.65 311.07 237.58 310.31 237.58 309.08H238.8C238.85 309.65 239.25 310.11 240.04 310.11C240.84 310.11 241.29 309.68 241.29 309.09C241.29 307.41 237.6 308.5 237.6 305.94C237.6 304.72 238.57 303.96 239.99 303.96C241.32 303.96 242.26 304.66 242.36 305.85H241.1C241.06 305.38 240.65 304.95 239.93 304.93C239.27 304.91 238.76 305.23 238.76 305.9C238.76 307.47 242.44 306.49 242.44 309.03ZM246.105 306.36C245.335 306.36 244.715 306.88 244.595 307.75H247.645C247.625 306.9 246.955 306.36 246.105 306.36ZM248.685 309.36C248.375 310.32 247.505 311.09 246.155 311.09C244.575 311.09 243.405 309.97 243.405 308.24C243.405 306.51 244.525 305.4 246.155 305.4C247.725 305.4 248.835 306.49 248.835 308.11C248.835 308.3 248.825 308.48 248.795 308.67H244.585C244.665 309.58 245.315 310.13 246.155 310.13C246.855 310.13 247.245 309.79 247.455 309.36H248.685ZM251.097 306.3C251.447 305.84 252.117 305.4 253.017 305.4C254.467 305.4 255.607 306.52 255.607 308.22C255.607 309.92 254.467 311.09 253.017 311.09C252.107 311.09 251.457 310.63 251.097 310.2V313.62H249.957V305.49H251.097V306.3ZM254.447 308.22C254.447 307.03 253.627 306.39 252.767 306.39C251.917 306.39 251.097 307.06 251.097 308.24C251.097 309.43 251.917 310.1 252.767 310.1C253.627 310.1 254.447 309.41 254.447 308.22ZM259.092 310.9V310.07C260.812 308.56 262.622 307.24 262.622 305.81C262.622 305.05 262.292 304.53 261.442 304.53C260.642 304.53 260.212 305.09 260.182 305.91H259.082C259.122 304.33 260.142 303.56 261.432 303.56C262.912 303.56 263.752 304.45 263.752 305.76C263.752 307.53 261.952 308.88 260.782 309.95H263.952V310.9H259.092ZM264.934 305.51C265.014 304.25 265.994 303.54 267.324 303.54C268.774 303.54 269.564 304.38 269.564 305.44C269.564 306.31 269.014 306.9 268.444 307.09V307.13C269.204 307.36 269.694 307.99 269.694 309C269.694 310.16 268.874 311.04 267.354 311.04C265.974 311.04 264.904 310.32 264.834 308.89H265.934C265.984 309.57 266.484 310.09 267.344 310.09C268.194 310.09 268.614 309.57 268.614 308.89C268.614 307.93 267.994 307.6 266.804 307.6H266.544V306.66H266.814C267.844 306.65 268.474 306.35 268.474 305.57C268.474 304.94 268.064 304.52 267.284 304.52C266.484 304.52 266.114 305 266.044 305.51H264.934Z" fill="#474747"/>
<path d="M349.47 307.51C349.47 309.6 347.9 311.07 345.92 311.07C343.96 311.07 342.37 309.6 342.37 307.51C342.37 305.43 343.96 303.96 345.92 303.96C347.9 303.96 349.47 305.43 349.47 307.51ZM343.54 307.51C343.54 309.08 344.54 310.08 345.92 310.08C347.3 310.08 348.3 309.08 348.3 307.51C348.3 305.94 347.3 304.96 345.92 304.96C344.54 304.96 343.54 305.94 343.54 307.51ZM350.212 308.24C350.212 306.52 351.332 305.4 352.912 305.4C354.262 305.4 355.142 306.07 355.452 307.23H354.222C354.032 306.7 353.592 306.36 352.912 306.36C351.992 306.36 351.382 307.04 351.382 308.24C351.382 309.45 351.992 310.13 352.912 310.13C353.592 310.13 354.012 309.83 354.222 309.26H355.452C355.142 310.34 354.262 311.09 352.912 311.09C351.332 311.09 350.212 309.97 350.212 308.24ZM356.768 309.47V306.42H356.118V305.49H356.768V304.12H357.918V305.49H359.258V306.42H357.918V309.47C357.918 309.88 358.078 310.05 358.558 310.05H359.258V311H358.358C357.378 311 356.768 310.59 356.768 309.47ZM362.666 310.9V310.07C364.386 308.56 366.196 307.24 366.196 305.81C366.196 305.05 365.866 304.53 365.016 304.53C364.216 304.53 363.786 305.09 363.756 305.91H362.656C362.696 304.33 363.716 303.56 365.006 303.56C366.486 303.56 367.326 304.45 367.326 305.76C367.326 307.53 365.526 308.88 364.356 309.95H367.526V310.9H362.666ZM368.508 305.51C368.588 304.25 369.568 303.54 370.898 303.54C372.348 303.54 373.138 304.38 373.138 305.44C373.138 306.31 372.588 306.9 372.018 307.09V307.13C372.778 307.36 373.268 307.99 373.268 309C373.268 310.16 372.448 311.04 370.928 311.04C369.548 311.04 368.478 310.32 368.408 308.89H369.508C369.558 309.57 370.058 310.09 370.918 310.09C371.768 310.09 372.188 309.57 372.188 308.89C372.188 307.93 371.568 307.6 370.378 307.6H370.118V306.66H370.388C371.418 306.65 372.048 306.35 372.048 305.57C372.048 304.94 371.638 304.52 370.858 304.52C370.058 304.52 369.688 305 369.618 305.51H368.508Z" fill="#474747"/>
<path d="M450.32 304.04H451.46V311H450.32L446.89 305.81V311H445.75V304.04H446.89L450.32 309.22V304.04ZM458.207 308.24C458.207 309.97 456.927 311.09 455.347 311.09C453.777 311.09 452.587 309.97 452.587 308.24C452.587 306.51 453.827 305.4 455.397 305.4C456.967 305.4 458.207 306.51 458.207 308.24ZM453.747 308.24C453.747 309.49 454.487 310.1 455.347 310.1C456.197 310.1 457.037 309.49 457.037 308.24C457.037 306.99 456.227 306.39 455.377 306.39C454.517 306.39 453.747 306.99 453.747 308.24ZM458.684 305.49H459.904L461.464 309.98L463.024 305.49H464.234L462.134 311H460.774L458.684 305.49ZM467.453 310.9V310.07C469.173 308.56 470.983 307.24 470.983 305.81C470.983 305.05 470.653 304.53 469.803 304.53C469.003 304.53 468.573 305.09 468.543 305.91H467.443C467.483 304.33 468.503 303.56 469.793 303.56C471.273 303.56 472.113 304.45 472.113 305.76C472.113 307.53 470.313 308.88 469.143 309.95H472.313V310.9H467.453ZM473.295 305.51C473.375 304.25 474.355 303.54 475.685 303.54C477.135 303.54 477.925 304.38 477.925 305.44C477.925 306.31 477.375 306.9 476.805 307.09V307.13C477.565 307.36 478.055 307.99 478.055 309C478.055 310.16 477.235 311.04 475.715 311.04C474.335 311.04 473.265 310.32 473.195 308.89H474.295C474.345 309.57 474.845 310.09 475.705 310.09C476.555 310.09 476.975 309.57 476.975 308.89C476.975 307.93 476.355 307.6 475.165 307.6H474.905V306.66H475.175C476.205 306.65 476.835 306.35 476.835 305.57C476.835 304.94 476.425 304.52 475.645 304.52C474.845 304.52 474.475 305 474.405 305.51H473.295Z" fill="#474747"/>
<path d="M553.02 304.05C555.25 304.05 556.71 305.4 556.71 307.55C556.71 309.69 555.25 311 553.02 311H550.75V304.05H553.02ZM551.89 310.07H553.02C554.66 310.07 555.54 309.13 555.54 307.55C555.54 305.96 554.66 304.98 553.02 304.98H551.89V310.07ZM560.16 306.36C559.39 306.36 558.77 306.88 558.65 307.75H561.7C561.68 306.9 561.01 306.36 560.16 306.36ZM562.74 309.36C562.43 310.32 561.56 311.09 560.21 311.09C558.63 311.09 557.46 309.97 557.46 308.24C557.46 306.51 558.58 305.4 560.21 305.4C561.78 305.4 562.89 306.49 562.89 308.11C562.89 308.3 562.88 308.48 562.85 308.67H558.64C558.72 309.58 559.37 310.13 560.21 310.13C560.91 310.13 561.3 309.79 561.51 309.36H562.74ZM563.632 308.24C563.632 306.52 564.752 305.4 566.332 305.4C567.682 305.4 568.562 306.07 568.872 307.23H567.642C567.452 306.7 567.012 306.36 566.332 306.36C565.412 306.36 564.802 307.04 564.802 308.24C564.802 309.45 565.412 310.13 566.332 310.13C567.012 310.13 567.432 309.83 567.642 309.26H568.872C568.562 310.34 567.682 311.09 566.332 311.09C564.752 311.09 563.632 309.97 563.632 308.24ZM572.365 310.9V310.07C574.085 308.56 575.895 307.24 575.895 305.81C575.895 305.05 575.565 304.53 574.715 304.53C573.915 304.53 573.485 305.09 573.455 305.91H572.355C572.395 304.33 573.415 303.56 574.705 303.56C576.185 303.56 577.025 304.45 577.025 305.76C577.025 307.53 575.225 308.88 574.055 309.95H577.225V310.9H572.365ZM578.207 305.51C578.287 304.25 579.267 303.54 580.597 303.54C582.047 303.54 582.837 304.38 582.837 305.44C582.837 306.31 582.287 306.9 581.717 307.09V307.13C582.477 307.36 582.967 307.99 582.967 309C582.967 310.16 582.147 311.04 580.627 311.04C579.247 311.04 578.177 310.32 578.107 308.89H579.207C579.257 309.57 579.757 310.09 580.617 310.09C581.467 310.09 581.887 309.57 581.887 308.89C581.887 307.93 581.267 307.6 580.077 307.6H579.817V306.66H580.087C581.117 306.65 581.747 306.35 581.747 305.57C581.747 304.94 581.337 304.52 580.557 304.52C579.757 304.52 579.387 305 579.317 305.51H578.207Z" fill="#474747"/>
<path d="M658.39 309.06V304.05H659.54V309.06C659.54 310.32 658.69 311.07 657.49 311.07C656.29 311.07 655.44 310.32 655.44 309.06H656.59C656.6 309.64 656.88 310.06 657.49 310.06C658.1 310.06 658.39 309.64 658.39 309.06ZM661.015 308.22C661.015 306.52 662.165 305.4 663.615 305.4C664.545 305.4 665.185 305.84 665.525 306.29V305.49H666.675V311H665.525V310.18C665.175 310.65 664.515 311.09 663.595 311.09C662.165 311.09 661.015 309.92 661.015 308.22ZM665.525 308.24C665.525 307.06 664.715 306.39 663.855 306.39C663.005 306.39 662.185 307.03 662.185 308.22C662.185 309.41 663.005 310.1 663.855 310.1C664.715 310.1 665.525 309.43 665.525 308.24ZM672.082 311V307.92C672.082 306.91 671.532 306.39 670.702 306.39C669.862 306.39 669.312 306.91 669.312 307.92V311H668.172V305.49H669.312V306.12C669.682 305.67 670.292 305.4 670.952 305.4C672.242 305.4 673.212 306.21 673.212 307.75V311H672.082ZM677.024 310.9V310.07C678.744 308.56 680.554 307.24 680.554 305.81C680.554 305.05 680.224 304.53 679.374 304.53C678.574 304.53 678.144 305.09 678.114 305.91H677.014C677.054 304.33 678.074 303.56 679.364 303.56C680.844 303.56 681.684 304.45 681.684 305.76C681.684 307.53 679.884 308.88 678.714 309.95H681.884V310.9H677.024ZM686.365 311V309.48H682.745V308.62L686.105 303.8H687.485V308.49H688.415V309.48H687.485V311H686.365ZM684.055 308.49H686.415V304.96L684.055 308.49Z" fill="#474747"/>
<path d="M760.75 311V304.05H764.84V304.98H761.89V307.03H764.19V307.96H761.89V311H760.75ZM768.216 306.36C767.446 306.36 766.826 306.88 766.706 307.75H769.756C769.736 306.9 769.066 306.36 768.216 306.36ZM770.796 309.36C770.486 310.32 769.616 311.09 768.266 311.09C766.686 311.09 765.516 309.97 765.516 308.24C765.516 306.51 766.636 305.4 768.266 305.4C769.836 305.4 770.946 306.49 770.946 308.11C770.946 308.3 770.936 308.48 770.906 308.67H766.696C766.776 309.58 767.426 310.13 768.266 310.13C768.966 310.13 769.356 309.79 769.566 309.36H770.796ZM773.208 306.31C773.568 305.81 774.258 305.4 775.128 305.4C776.588 305.4 777.718 306.52 777.718 308.22C777.718 309.92 776.578 311.09 775.128 311.09C774.218 311.09 773.568 310.68 773.208 310.2V311H772.068V303.6H773.208V306.31ZM776.558 308.22C776.558 307.03 775.738 306.39 774.878 306.39C774.028 306.39 773.208 307.06 773.208 308.24C773.208 309.43 774.028 310.1 774.878 310.1C775.738 310.1 776.558 309.41 776.558 308.22ZM781.203 310.9V310.07C782.923 308.56 784.733 307.24 784.733 305.81C784.733 305.05 784.403 304.53 783.553 304.53C782.753 304.53 782.323 305.09 782.293 305.91H781.193C781.233 304.33 782.253 303.56 783.543 303.56C785.023 303.56 785.863 304.45 785.863 305.76C785.863 307.53 784.063 308.88 782.893 309.95H786.063V310.9H781.203ZM790.545 311V309.48H786.925V308.62L790.285 303.8H791.665V308.49H792.595V309.48H791.665V311H790.545ZM788.235 308.49H790.595V304.96L788.235 308.49Z" fill="#474747"/>
<path d="M811 184L104 184" stroke="#E5E5E5"/>
<path d="M811 211L104 211" stroke="#E5E5E5"/>
<path d="M811 238L104 238" stroke="#E5E5E5"/>
<path d="M811 265L104 265" stroke="#E5E5E5"/>
<path d="M811 292L104 292" stroke="#E5E5E5"/>
<path d="M37.56 44.4C37.56 41.056 40.008 38.688 43.224 38.688C45.704 38.688 47.72 40.016 48.472 42.304H45.896C45.368 41.232 44.408 40.704 43.208 40.704C41.256 40.704 39.864 42.128 39.864 44.4C39.864 46.656 41.256 48.096 43.208 48.096C44.408 48.096 45.368 47.568 45.896 46.48H48.472C47.72 48.784 45.704 50.096 43.224 50.096C40.008 50.096 37.56 47.744 37.56 44.4ZM58.9453 45.568C58.9453 48.352 56.8973 50.144 54.3213 50.144C51.7613 50.144 49.8253 48.352 49.8253 45.568C49.8253 42.768 51.8253 40.992 54.3853 40.992C56.9453 40.992 58.9453 42.768 58.9453 45.568ZM52.0973 45.568C52.0973 47.328 53.1213 48.192 54.3213 48.192C55.5053 48.192 56.6413 47.328 56.6413 45.568C56.6413 43.792 55.5373 42.944 54.3533 42.944C53.1693 42.944 52.0973 43.792 52.0973 45.568ZM67.4684 47.472C67.4684 48.992 66.1404 50.144 63.9804 50.144C61.7564 50.144 60.2044 48.848 60.1084 47.2H62.3644C62.4444 47.872 63.0684 48.384 63.9644 48.384C64.8444 48.384 65.3244 47.984 65.3244 47.472C65.3244 45.888 60.3164 46.896 60.3164 43.648C60.3164 42.176 61.6284 40.992 63.8204 40.992C65.9644 40.992 67.2604 42.16 67.3884 43.92H65.2444C65.1804 43.232 64.6364 42.768 63.7564 42.768C62.9244 42.768 62.4924 43.104 62.4924 43.616C62.4924 45.232 67.4044 44.224 67.4684 47.472ZM69.6591 47.248V42.976H68.6031V41.136H69.6591V38.944H71.9151V41.136H73.8991V42.976H71.9151V47.264C71.9151 47.856 72.1551 48.112 72.8591 48.112H73.8991V50H72.4911C70.7951 50 69.6591 49.28 69.6591 47.248ZM87.8828 45.568C87.8828 48.352 85.8348 50.144 83.2588 50.144C80.6988 50.144 78.7628 48.352 78.7628 45.568C78.7628 42.768 80.7628 40.992 83.3228 40.992C85.8828 40.992 87.8828 42.768 87.8828 45.568ZM81.0348 45.568C81.0348 47.328 82.0588 48.192 83.2588 48.192C84.4428 48.192 85.5788 47.328 85.5788 45.568C85.5788 43.792 84.4748 42.944 83.2908 42.944C82.1068 42.944 81.0348 43.792 81.0348 45.568ZM89.7659 50V42.976H88.7579V41.136H89.7659V40.688C89.7659 38.512 90.9979 37.504 93.4939 37.568V39.456C92.4059 39.424 92.0379 39.776 92.0379 40.768V41.136H93.5899V42.976H92.0379V50H89.7659ZM109.75 44.384C109.75 47.744 107.206 50.112 104.038 50.112C100.886 50.112 98.31 47.744 98.31 44.384C98.31 41.04 100.886 38.672 104.038 38.672C107.222 38.672 109.75 41.04 109.75 44.384ZM100.614 44.384C100.614 46.656 102.006 48.112 104.038 48.112C106.054 48.112 107.446 46.656 107.446 44.384C107.446 42.112 106.054 40.688 104.038 40.688C102.006 40.688 100.614 42.112 100.614 44.384ZM113.033 50L110.425 41.136H112.697L114.265 47.888L115.961 41.136H118.329L119.993 47.872L121.561 41.136H123.705L121.113 50H118.697L117.081 43.808L115.465 50H113.033ZM131.125 50V45.104C131.125 43.68 130.341 42.912 129.157 42.912C127.941 42.912 127.157 43.68 127.157 45.104V50H124.917V41.136H127.157V42.24C127.733 41.488 128.693 41.008 129.829 41.008C131.892 41.008 133.365 42.352 133.365 44.8V50H131.125ZM139.303 42.832C138.231 42.832 137.383 43.52 137.207 44.736H141.415C141.383 43.568 140.455 42.832 139.303 42.832ZM143.511 47.216C143.031 48.848 141.559 50.144 139.367 50.144C136.791 50.144 134.919 48.352 134.919 45.568C134.919 42.768 136.743 40.992 139.367 40.992C141.927 40.992 143.735 42.736 143.735 45.376C143.735 45.664 143.719 45.952 143.671 46.24H137.191C137.303 47.552 138.199 48.288 139.319 48.288C140.279 48.288 140.807 47.808 141.095 47.216H143.511ZM147.61 45.584V50H145.37V41.136H147.61V42.512C148.17 41.6 149.098 41.008 150.33 41.008V43.36H149.738C148.41 43.36 147.61 43.872 147.61 45.584ZM158.718 47.472C158.718 48.992 157.39 50.144 155.23 50.144C153.006 50.144 151.454 48.848 151.358 47.2H153.614C153.694 47.872 154.318 48.384 155.214 48.384C156.094 48.384 156.574 47.984 156.574 47.472C156.574 45.888 151.566 46.896 151.566 43.648C151.566 42.176 152.878 40.992 155.07 40.992C157.214 40.992 158.51 42.16 158.638 43.92H156.494C156.43 43.232 155.886 42.768 155.006 42.768C154.174 42.768 153.742 43.104 153.742 43.616C153.742 45.232 158.654 44.224 158.718 47.472ZM160.557 50V38.16H162.797V42.24C163.373 41.488 164.365 41.008 165.549 41.008C167.549 41.008 169.005 42.352 169.005 44.8V50H166.765V45.104C166.765 43.68 165.981 42.912 164.797 42.912C163.581 42.912 162.797 43.68 162.797 45.104V50H160.557ZM171.135 50V41.136H173.375V50H171.135ZM172.271 40.08C171.471 40.08 170.895 39.504 170.895 38.768C170.895 38.032 171.471 37.456 172.271 37.456C173.055 37.456 173.647 38.032 173.647 38.768C173.647 39.504 173.055 40.08 172.271 40.08ZM177.828 42.416C178.356 41.664 179.38 40.992 180.756 40.992C183.028 40.992 184.804 42.768 184.804 45.536C184.804 48.304 183.028 50.144 180.756 50.144C179.364 50.144 178.372 49.456 177.828 48.736V54.224H175.588V41.136H177.828V42.416ZM182.516 45.536C182.516 43.856 181.38 42.96 180.164 42.96C178.964 42.96 177.828 43.888 177.828 45.568C177.828 47.248 178.964 48.176 180.164 48.176C181.38 48.176 182.516 47.216 182.516 45.536Z" fill="#002850"/>
<path d="M58.408 97.524V96.636H64.072V97.524H61.792V105H60.7V97.524H58.408ZM71.6562 101.7C71.6562 103.788 70.1562 105.108 68.2842 105.108C66.4242 105.108 65.0082 103.788 65.0082 101.7C65.0082 99.624 66.4722 98.316 68.3322 98.316C70.2042 98.316 71.6562 99.624 71.6562 101.7ZM66.1242 101.7C66.1242 103.368 67.1442 104.148 68.2842 104.148C69.4242 104.148 70.5402 103.368 70.5402 101.7C70.5402 100.044 69.4482 99.264 68.3202 99.264C67.1682 99.264 66.1242 100.044 66.1242 101.7ZM73.332 103.2V99.324H72.48V98.424H73.332V96.768H74.424V98.424H76.14V99.324H74.424V103.2C74.424 103.848 74.664 104.076 75.336 104.076H76.14V105H75.156C73.992 105 73.332 104.52 73.332 103.2ZM77.0551 101.688C77.0551 99.636 78.4111 98.316 80.1751 98.316C81.3991 98.316 82.2391 98.94 82.6231 99.624V98.424H83.7271V105H82.6231V103.776C82.2271 104.484 81.3751 105.108 80.1631 105.108C78.4111 105.108 77.0551 103.728 77.0551 101.688ZM82.6231 101.7C82.6231 100.176 81.5911 99.264 80.3911 99.264C79.1911 99.264 78.1711 100.14 78.1711 101.688C78.1711 103.236 79.1911 104.148 80.3911 104.148C81.5911 104.148 82.6231 103.248 82.6231 101.7ZM85.5724 105V96.12H86.6644V105H85.5724ZM91.3168 100.812C91.3168 98.304 93.1528 96.528 95.4928 96.528C97.3048 96.528 98.7448 97.44 99.3688 99.06H98.0608C97.6048 98.052 96.7168 97.488 95.4928 97.488C93.7408 97.488 92.4328 98.76 92.4328 100.812C92.4328 102.852 93.7408 104.124 95.4928 104.124C96.7168 104.124 97.6048 103.56 98.0608 102.564H99.3688C98.7448 104.172 97.3048 105.072 95.4928 105.072C93.1528 105.072 91.3168 103.32 91.3168 100.812ZM107.234 101.7C107.234 103.788 105.734 105.108 103.862 105.108C102.002 105.108 100.586 103.788 100.586 101.7C100.586 99.624 102.05 98.316 103.91 98.316C105.782 98.316 107.234 99.624 107.234 101.7ZM101.702 101.7C101.702 103.368 102.722 104.148 103.862 104.148C105.002 104.148 106.118 103.368 106.118 101.7C106.118 100.044 105.026 99.264 103.898 99.264C102.746 99.264 101.702 100.044 101.702 101.7ZM113.398 103.212C113.398 104.292 112.45 105.108 110.998 105.108C109.462 105.108 108.382 104.268 108.31 103.068H109.438C109.498 103.704 110.062 104.184 110.986 104.184C111.85 104.184 112.33 103.752 112.33 103.212C112.33 101.748 108.442 102.6 108.442 100.152C108.442 99.144 109.39 98.316 110.854 98.316C112.306 98.316 113.266 99.096 113.338 100.38H112.246C112.198 99.72 111.694 99.24 110.818 99.24C110.014 99.24 109.534 99.624 109.534 100.152C109.534 101.712 113.35 100.86 113.398 103.212ZM115.18 103.2V99.324H114.328V98.424H115.18V96.768H116.272V98.424H117.988V99.324H116.272V103.2C116.272 103.848 116.512 104.076 117.184 104.076H117.988V105H117.004C115.84 105 115.18 104.52 115.18 103.2Z" fill="#A6A6A6"/>
<path d="M72.7 127.9H75.3C75.52 129.06 76.26 129.72 77.56 129.72C79.2 129.72 79.92 128.5 79.92 125.22C79.3 126.08 78.12 126.58 76.84 126.58C74.32 126.58 72.3 125 72.3 121.92C72.3 119 74.14 117.08 77.22 117.08C81.18 117.08 82.4 119.76 82.4 124.38C82.4 129.34 81.3 132.02 77.44 132.02C74.34 132.02 72.86 130.04 72.7 127.9ZM77.42 124.3C78.82 124.3 79.66 123.36 79.66 121.94C79.66 120.34 78.74 119.46 77.32 119.46C75.86 119.46 74.98 120.44 74.98 121.9C74.98 123.22 75.72 124.3 77.42 124.3ZM94.7395 121.06H92.1395C91.8795 119.98 91.2995 119.38 90.0395 119.38C88.2195 119.38 87.3795 120.74 87.3395 124.1C87.9995 123 89.3195 122.4 90.7395 122.4C93.3395 122.4 95.1595 124.12 95.1595 127.16C95.1595 129.98 93.4195 132.04 90.2995 132.04C85.9795 132.04 84.8995 129 84.8995 124.48C84.8995 119.72 86.4395 117.08 90.1395 117.08C93.1195 117.08 94.5195 119 94.7395 121.06ZM90.0995 124.7C88.7995 124.7 87.5995 125.46 87.5995 127.12C87.5995 128.68 88.5195 129.66 90.1595 129.66C91.5995 129.66 92.4995 128.72 92.4995 127.22C92.4995 125.72 91.7195 124.7 90.0995 124.7ZM96.5525 134.88L97.8925 128.92H100.853L98.3725 134.88H96.5525ZM104.07 132V120H102.13V117.42H106.95V132H104.07ZM110.356 127.9H112.956C113.176 129.06 113.916 129.72 115.216 129.72C116.856 129.72 117.576 128.5 117.576 125.22C116.956 126.08 115.776 126.58 114.496 126.58C111.976 126.58 109.956 125 109.956 121.92C109.956 119 111.796 117.08 114.876 117.08C118.836 117.08 120.056 119.76 120.056 124.38C120.056 129.34 118.956 132.02 115.096 132.02C111.996 132.02 110.516 130.04 110.356 127.9ZM115.076 124.3C116.476 124.3 117.316 123.36 117.316 121.94C117.316 120.34 116.396 119.46 114.976 119.46C113.516 119.46 112.636 120.44 112.636 121.9C112.636 123.22 113.376 124.3 115.076 124.3ZM122.236 124.52C122.236 120.3 123.516 117.14 127.636 117.14C131.756 117.14 133.036 120.3 133.036 124.52C133.036 128.78 131.756 131.96 127.636 131.96C123.516 131.96 122.236 128.78 122.236 124.52ZM130.276 124.52C130.276 122.02 129.996 119.74 127.636 119.74C125.276 119.74 124.996 122.02 124.996 124.52C124.996 127.12 125.276 129.36 127.636 129.36C129.996 129.36 130.276 127.12 130.276 124.52ZM138.425 130.5C138.425 131.42 137.705 132.14 136.725 132.14C135.705 132.14 134.985 131.42 134.985 130.5C134.985 129.58 135.705 128.86 136.725 128.86C137.705 128.86 138.425 129.58 138.425 130.5ZM140.361 124.52C140.361 120.3 141.641 117.14 145.761 117.14C149.881 117.14 151.161 120.3 151.161 124.52C151.161 128.78 149.881 131.96 145.761 131.96C141.641 131.96 140.361 128.78 140.361 124.52ZM148.401 124.52C148.401 122.02 148.121 119.74 145.761 119.74C143.401 119.74 143.121 122.02 143.121 124.52C143.121 127.12 143.401 129.36 145.761 129.36C148.121 129.36 148.401 127.12 148.401 124.52ZM153.29 124.52C153.29 120.3 154.57 117.14 158.69 117.14C162.81 117.14 164.09 120.3 164.09 124.52C164.09 128.78 162.81 131.96 158.69 131.96C154.57 131.96 153.29 128.78 153.29 124.52ZM161.33 124.52C161.33 122.02 161.05 119.74 158.69 119.74C156.33 119.74 156.05 122.02 156.05 124.52C156.05 127.12 156.33 129.36 158.69 129.36C161.05 129.36 161.33 127.12 161.33 124.52Z" fill="#212121"/>
<path d="M459.66 132V120H457.72V117.42H462.54V132H459.66ZM465.306 124.52C465.306 120.3 466.586 117.14 470.706 117.14C474.826 117.14 476.106 120.3 476.106 124.52C476.106 128.78 474.826 131.96 470.706 131.96C466.586 131.96 465.306 128.78 465.306 124.52ZM473.346 124.52C473.346 122.02 473.066 119.74 470.706 119.74C468.346 119.74 468.066 122.02 468.066 124.52C468.066 127.12 468.346 129.36 470.706 129.36C473.066 129.36 473.346 127.12 473.346 124.52ZM481.496 130.5C481.496 131.42 480.776 132.14 479.796 132.14C478.776 132.14 478.056 131.42 478.056 130.5C478.056 129.58 478.776 128.86 479.796 128.86C480.776 128.86 481.496 129.58 481.496 130.5ZM483.431 124.52C483.431 120.3 484.711 117.14 488.831 117.14C492.951 117.14 494.231 120.3 494.231 124.52C494.231 128.78 492.951 131.96 488.831 131.96C484.711 131.96 483.431 128.78 483.431 124.52ZM491.471 124.52C491.471 122.02 491.191 119.74 488.831 119.74C486.471 119.74 486.191 122.02 486.191 124.52C486.191 127.12 486.471 129.36 488.831 129.36C491.191 129.36 491.471 127.12 491.471 124.52ZM496.361 124.52C496.361 120.3 497.641 117.14 501.761 117.14C505.881 117.14 507.161 120.3 507.161 124.52C507.161 128.78 505.881 131.96 501.761 131.96C497.641 131.96 496.361 128.78 496.361 124.52ZM504.401 124.52C504.401 122.02 504.121 119.74 501.761 119.74C499.401 119.74 499.121 122.02 499.121 124.52C499.121 127.12 499.401 129.36 501.761 129.36C504.121 129.36 504.401 127.12 504.401 124.52ZM513.736 135.62L519.136 113.06H521.876L516.476 135.62H513.736ZM544.368 132V125.88C544.368 124.12 543.388 123.2 541.908 123.2C540.408 123.2 539.428 124.12 539.428 125.88V132H536.628V125.88C536.628 124.12 535.648 123.2 534.168 123.2C532.648 123.2 531.668 124.12 531.668 125.88V132H528.868V120.92H531.668V122.26C532.368 121.34 533.548 120.76 534.928 120.76C536.648 120.76 538.068 121.5 538.828 122.88C539.548 121.62 541.008 120.76 542.628 120.76C545.288 120.76 547.168 122.44 547.168 125.5V132H544.368ZM549.825 132V120.92H552.625V132H549.825ZM551.245 119.6C550.245 119.6 549.525 118.88 549.525 117.96C549.525 117.04 550.245 116.32 551.245 116.32C552.225 116.32 552.965 117.04 552.965 117.96C552.965 118.88 552.225 119.6 551.245 119.6Z" fill="#212121"/>
<path d="M446.528 96.636C449.276 96.636 450.968 98.244 450.968 100.836C450.968 103.428 449.276 105 446.528 105H443.924V96.636H446.528ZM445.016 104.1H446.528C448.712 104.1 449.852 102.876 449.852 100.836C449.852 98.796 448.712 97.524 446.528 97.524H445.016V104.1ZM458.24 98.424V105H457.148V104.028C456.728 104.712 455.924 105.096 455.048 105.096C453.536 105.096 452.348 104.16 452.348 102.276V98.424H453.428V102.132C453.428 103.464 454.16 104.148 455.264 104.148C456.392 104.148 457.148 103.452 457.148 102.036V98.424H458.24ZM462.88 99.24C461.812 99.24 460.924 99.948 460.804 101.232H464.956C464.968 99.948 464.008 99.24 462.88 99.24ZM465.952 102.972C465.616 104.172 464.56 105.108 462.928 105.108C461.056 105.108 459.676 103.788 459.676 101.7C459.676 99.624 461.008 98.316 462.928 98.316C464.836 98.316 466.084 99.66 466.084 101.46C466.084 101.7 466.072 101.892 466.048 102.12H460.792C460.876 103.452 461.812 104.184 462.928 104.184C463.912 104.184 464.536 103.68 464.776 102.972H465.952ZM476.161 102.72C476.161 103.908 475.189 105.084 473.377 105.084C471.697 105.084 470.509 104.148 470.485 102.768H471.649C471.721 103.464 472.213 104.16 473.377 104.16C474.433 104.16 475.057 103.56 475.057 102.768C475.057 100.512 470.533 101.952 470.533 98.844C470.533 97.464 471.649 96.528 473.305 96.528C474.901 96.528 475.945 97.404 476.077 98.676H474.877C474.805 98.112 474.277 97.476 473.257 97.464C472.357 97.44 471.649 97.908 471.649 98.808C471.649 100.968 476.161 99.624 476.161 102.72ZM484.008 101.7C484.008 103.788 482.508 105.108 480.636 105.108C478.776 105.108 477.36 103.788 477.36 101.7C477.36 99.624 478.824 98.316 480.684 98.316C482.556 98.316 484.008 99.624 484.008 101.7ZM478.476 101.7C478.476 103.368 479.496 104.148 480.636 104.148C481.776 104.148 482.892 103.368 482.892 101.7C482.892 100.044 481.8 99.264 480.672 99.264C479.52 99.264 478.476 100.044 478.476 101.7ZM491.684 101.7C491.684 103.788 490.184 105.108 488.312 105.108C486.452 105.108 485.036 103.788 485.036 101.7C485.036 99.624 486.5 98.316 488.36 98.316C490.232 98.316 491.684 99.624 491.684 101.7ZM486.152 101.7C486.152 103.368 487.172 104.148 488.312 104.148C489.452 104.148 490.568 103.368 490.568 101.7C490.568 100.044 489.476 99.264 488.348 99.264C487.196 99.264 486.152 100.044 486.152 101.7ZM497.931 105V101.28C497.931 99.936 497.199 99.252 496.095 99.252C494.979 99.252 494.211 99.948 494.211 101.364V105H493.119V98.424H494.211V99.36C494.643 98.676 495.435 98.304 496.323 98.304C497.847 98.304 499.011 99.24 499.011 101.124V105H497.931Z" fill="#A6A6A6"/>
<path d="M755.63 50L754.846 47.83H750.59L749.806 50H748.462L751.99 40.298H753.46L756.974 50H755.63ZM754.482 46.794L752.718 41.866L750.954 46.794H754.482ZM758.512 50V39.64H759.786V50H758.512ZM761.957 50V39.64H763.231V50H761.957ZM768.533 41.278V40.242H775.141V41.278H772.481V50H771.207V41.278H768.533ZM776.709 50V42.328H777.983V50H776.709ZM777.367 41.082C776.877 41.082 776.499 40.704 776.499 40.214C776.499 39.724 776.877 39.346 777.367 39.346C777.829 39.346 778.207 39.724 778.207 40.214C778.207 40.704 777.829 41.082 777.367 41.082ZM791.228 50V45.66C791.228 44.092 790.388 43.294 789.128 43.294C787.84 43.294 786.958 44.12 786.958 45.772V50H785.698V45.66C785.698 44.092 784.858 43.294 783.598 43.294C782.31 43.294 781.428 44.12 781.428 45.772V50H780.154V42.328H781.428V43.434C781.932 42.622 782.842 42.188 783.85 42.188C785.11 42.188 786.16 42.748 786.664 43.896C787.112 42.79 788.204 42.188 789.38 42.188C791.13 42.188 792.488 43.28 792.488 45.478V50H791.228ZM797.84 43.28C796.594 43.28 795.558 44.106 795.418 45.604H800.262C800.276 44.106 799.156 43.28 797.84 43.28ZM801.424 47.634C801.032 49.034 799.8 50.126 797.896 50.126C795.712 50.126 794.102 48.586 794.102 46.15C794.102 43.728 795.656 42.202 797.896 42.202C800.122 42.202 801.578 43.77 801.578 45.87C801.578 46.15 801.564 46.374 801.536 46.64H795.404C795.502 48.194 796.594 49.048 797.896 49.048C799.044 49.048 799.772 48.46 800.052 47.634H801.424Z" fill="#076FD5"/>
<rect x="37.5" y="75.5" width="773" height="76" stroke="#ECECEC"/>
<line x1="424.5" y1="75" x2="424.5" y2="152" stroke="#ECECEC"/>
<path d="M808 49L811 46L808 43" stroke="#0479EB" stroke-linecap="round"/>
<path d="M67.6249 120C67.7244 120 67.8198 119.96 67.8901 119.89C67.9605 119.82 68 119.724 68 119.625V118.375C68 118.276 67.9605 118.18 67.8901 118.11C67.8198 118.04 67.7244 118 67.6249 118H58.3751C58.2756 118 58.1802 118.04 58.1099 118.11C58.0395 118.18 58 118.276 58 118.375V119.773C58 119.823 58.0097 119.871 58.0286 119.917C58.0474 119.962 58.075 120.004 58.1099 120.039C58.1447 120.073 58.1861 120.101 58.2316 120.12C58.2771 120.139 58.3259 120.148 58.3751 120.148H61.0418C61.4042 120.127 61.7665 120.193 62.0979 120.341C62.4294 120.489 62.7201 120.715 62.9453 121H58.3751C58.2756 121 58.1802 121.04 58.1099 121.11C58.0395 121.18 58 121.276 58 121.375V122.625C58 122.725 58.0395 122.82 58.1099 122.891C58.1802 122.961 58.2756 123 58.3751 123H63.336C63.1418 124.128 62.3058 124.833 61 124.833H58.3751C58.2758 124.833 58.1805 124.872 58.1102 124.942C58.0399 125.013 58.0002 125.108 58 125.207V126.864C58 126.915 58.0107 126.967 58.0314 127.014C58.0521 127.061 58.0824 127.104 58.1204 127.139L63.2787 131.9C63.3479 131.964 63.4387 132 63.5329 132H66.1129C66.1883 132 66.262 131.977 66.3243 131.935C66.3865 131.892 66.4345 131.832 66.462 131.761C66.4894 131.691 66.4951 131.614 66.4781 131.541C66.4612 131.467 66.4225 131.401 66.3671 131.349L61.652 126.997C62.747 127.01 63.8053 126.603 64.6094 125.859C65.4134 125.116 65.902 124.093 65.9747 123H67.6249C67.7244 123 67.8198 122.96 67.8901 122.89C67.9605 122.82 68 122.724 68 122.625V121.375C68 121.326 67.9903 121.277 67.9714 121.232C67.9526 121.186 67.925 121.145 67.8901 121.11C67.8553 121.075 67.8139 121.047 67.7684 121.029C67.7229 121.01 67.6741 121 67.6249 121H65.7911C65.6864 120.649 65.537 120.313 65.3467 120H67.6249Z" fill="black"/>
<path d="M453.625 120C453.724 120 453.82 119.96 453.89 119.89C453.96 119.82 454 119.724 454 119.625V118.375C454 118.276 453.96 118.18 453.89 118.11C453.82 118.04 453.724 118 453.625 118H444.375C444.276 118 444.18 118.04 444.11 118.11C444.04 118.18 444 118.276 444 118.375V119.773C444 119.823 444.01 119.871 444.029 119.917C444.047 119.962 444.075 120.004 444.11 120.039C444.145 120.073 444.186 120.101 444.232 120.12C444.277 120.139 444.326 120.148 444.375 120.148H447.042C447.404 120.127 447.767 120.193 448.098 120.341C448.429 120.489 448.72 120.715 448.945 121H444.375C444.276 121 444.18 121.04 444.11 121.11C444.04 121.18 444 121.276 444 121.375V122.625C444 122.725 444.04 122.82 444.11 122.891C444.18 122.961 444.276 123 444.375 123H449.336C449.142 124.128 448.306 124.833 447 124.833H444.375C444.276 124.833 444.181 124.872 444.11 124.942C444.04 125.013 444 125.108 444 125.207V126.864C444 126.915 444.011 126.967 444.031 127.014C444.052 127.061 444.082 127.104 444.12 127.139L449.279 131.9C449.348 131.964 449.439 132 449.533 132H452.113C452.188 132 452.262 131.977 452.324 131.935C452.387 131.892 452.435 131.832 452.462 131.761C452.489 131.691 452.495 131.614 452.478 131.541C452.461 131.467 452.423 131.401 452.367 131.349L447.652 126.997C448.747 127.01 449.805 126.603 450.609 125.859C451.413 125.116 451.902 124.093 451.975 123H453.625C453.724 123 453.82 122.96 453.89 122.89C453.96 122.82 454 122.724 454 122.625V121.375C454 121.326 453.99 121.277 453.971 121.232C453.953 121.186 453.925 121.145 453.89 121.11C453.855 121.075 453.814 121.047 453.768 121.029C453.723 121.01 453.674 121 453.625 121H451.791C451.686 120.649 451.537 120.313 451.347 120H453.625Z" fill="black"/>
<path d="M123 198C123 194.686 125.686 192 129 192H168C171.314 192 174 194.686 174 198V292H123V198Z" fill="#947ECD"/>
<path d="M437 286C437 282.686 439.686 280 443 280H482C485.314 280 488 282.686 488 286V292H437V286Z" fill="#FFCC35"/>
<path d="M748 286C748 282.686 750.686 280 754 280H793C796.314 280 799 282.686 799 286V292H748V286Z" fill="#00A7B9"/>
<path d="M65.924 373V364.636H70.652V365.524H67.016V368.344H69.968V369.232H67.016V373H65.924ZM77.8029 366.424V373H76.7109V372.028C76.2909 372.712 75.4869 373.096 74.6109 373.096C73.0989 373.096 71.9109 372.16 71.9109 370.276V366.424H72.9909V370.132C72.9909 371.464 73.7229 372.148 74.8269 372.148C75.9549 372.148 76.7109 371.452 76.7109 370.036V366.424H77.8029ZM82.4427 367.24C81.3747 367.24 80.4867 367.948 80.3667 369.232H84.5187C84.5307 367.948 83.5707 367.24 82.4427 367.24ZM85.5147 370.972C85.1787 372.172 84.1227 373.108 82.4907 373.108C80.6187 373.108 79.2387 371.788 79.2387 369.7C79.2387 367.624 80.5707 366.316 82.4907 366.316C84.3987 366.316 85.6467 367.66 85.6467 369.46C85.6467 369.7 85.6347 369.892 85.6107 370.12H80.3547C80.4387 371.452 81.3747 372.184 82.4907 372.184C83.4747 372.184 84.0987 371.68 84.3387 370.972H85.5147ZM87.0881 373V364.12H88.1801V373H87.0881ZM92.8324 368.812C92.8324 366.304 94.6684 364.528 97.0084 364.528C98.8204 364.528 100.26 365.44 100.884 367.06H99.5764C99.1204 366.052 98.2324 365.488 97.0084 365.488C95.2564 365.488 93.9484 366.76 93.9484 368.812C93.9484 370.852 95.2564 372.124 97.0084 372.124C98.2324 372.124 99.1204 371.56 99.5764 370.564H100.884C100.26 372.172 98.8204 373.072 97.0084 373.072C94.6684 373.072 92.8324 371.32 92.8324 368.812ZM108.75 369.7C108.75 371.788 107.25 373.108 105.378 373.108C103.518 373.108 102.102 371.788 102.102 369.7C102.102 367.624 103.566 366.316 105.426 366.316C107.298 366.316 108.75 367.624 108.75 369.7ZM103.218 369.7C103.218 371.368 104.238 372.148 105.378 372.148C106.518 372.148 107.634 371.368 107.634 369.7C107.634 368.044 106.542 367.264 105.414 367.264C104.262 367.264 103.218 368.044 103.218 369.7ZM114.914 371.212C114.914 372.292 113.966 373.108 112.514 373.108C110.978 373.108 109.898 372.268 109.826 371.068H110.954C111.014 371.704 111.578 372.184 112.502 372.184C113.366 372.184 113.846 371.752 113.846 371.212C113.846 369.748 109.958 370.6 109.958 368.152C109.958 367.144 110.906 366.316 112.37 366.316C113.822 366.316 114.782 367.096 114.854 368.38H113.762C113.714 367.72 113.21 367.24 112.334 367.24C111.53 367.24 111.05 367.624 111.05 368.152C111.05 369.712 114.866 368.86 114.914 371.212ZM116.695 371.2V367.324H115.843V366.424H116.695V364.768H117.787V366.424H119.503V367.324H117.787V371.2C117.787 371.848 118.027 372.076 118.699 372.076H119.503V373H118.519C117.355 373 116.695 372.52 116.695 371.2ZM125.554 371.212C125.554 372.292 124.606 373.108 123.154 373.108C121.618 373.108 120.538 372.268 120.466 371.068H121.594C121.654 371.704 122.218 372.184 123.142 372.184C124.006 372.184 124.486 371.752 124.486 371.212C124.486 369.748 120.598 370.6 120.598 368.152C120.598 367.144 121.546 366.316 123.01 366.316C124.462 366.316 125.422 367.096 125.494 368.38H124.402C124.354 367.72 123.85 367.24 122.974 367.24C122.17 367.24 121.69 367.624 121.69 368.152C121.69 369.712 125.506 368.86 125.554 371.212Z" fill="#A6A6A6"/>
<path d="M72.7 395.9H75.3C75.52 397.06 76.26 397.72 77.56 397.72C79.2 397.72 79.92 396.5 79.92 393.22C79.3 394.08 78.12 394.58 76.84 394.58C74.32 394.58 72.3 393 72.3 389.92C72.3 387 74.14 385.08 77.22 385.08C81.18 385.08 82.4 387.76 82.4 392.38C82.4 397.34 81.3 400.02 77.44 400.02C74.34 400.02 72.86 398.04 72.7 395.9ZM77.42 392.3C78.82 392.3 79.66 391.36 79.66 389.94C79.66 388.34 78.74 387.46 77.32 387.46C75.86 387.46 74.98 388.44 74.98 389.9C74.98 391.22 75.72 392.3 77.42 392.3ZM94.7395 389.06H92.1395C91.8795 387.98 91.2995 387.38 90.0395 387.38C88.2195 387.38 87.3795 388.74 87.3395 392.1C87.9995 391 89.3195 390.4 90.7395 390.4C93.3395 390.4 95.1595 392.12 95.1595 395.16C95.1595 397.98 93.4195 400.04 90.2995 400.04C85.9795 400.04 84.8995 397 84.8995 392.48C84.8995 387.72 86.4395 385.08 90.1395 385.08C93.1195 385.08 94.5195 387 94.7395 389.06ZM90.0995 392.7C88.7995 392.7 87.5995 393.46 87.5995 395.12C87.5995 396.68 88.5195 397.66 90.1595 397.66C91.5995 397.66 92.4995 396.72 92.4995 395.22C92.4995 393.72 91.7195 392.7 90.0995 392.7ZM96.5525 402.88L97.8925 396.92H100.853L98.3725 402.88H96.5525ZM104.07 400V388H102.13V385.42H106.95V400H104.07ZM110.356 395.9H112.956C113.176 397.06 113.916 397.72 115.216 397.72C116.856 397.72 117.576 396.5 117.576 393.22C116.956 394.08 115.776 394.58 114.496 394.58C111.976 394.58 109.956 393 109.956 389.92C109.956 387 111.796 385.08 114.876 385.08C118.836 385.08 120.056 387.76 120.056 392.38C120.056 397.34 118.956 400.02 115.096 400.02C111.996 400.02 110.516 398.04 110.356 395.9ZM115.076 392.3C116.476 392.3 117.316 391.36 117.316 389.94C117.316 388.34 116.396 387.46 114.976 387.46C113.516 387.46 112.636 388.44 112.636 389.9C112.636 391.22 113.376 392.3 115.076 392.3ZM122.236 392.52C122.236 388.3 123.516 385.14 127.636 385.14C131.756 385.14 133.036 388.3 133.036 392.52C133.036 396.78 131.756 399.96 127.636 399.96C123.516 399.96 122.236 396.78 122.236 392.52ZM130.276 392.52C130.276 390.02 129.996 387.74 127.636 387.74C125.276 387.74 124.996 390.02 124.996 392.52C124.996 395.12 125.276 397.36 127.636 397.36C129.996 397.36 130.276 395.12 130.276 392.52ZM138.425 398.5C138.425 399.42 137.705 400.14 136.725 400.14C135.705 400.14 134.985 399.42 134.985 398.5C134.985 397.58 135.705 396.86 136.725 396.86C137.705 396.86 138.425 397.58 138.425 398.5ZM140.361 392.52C140.361 388.3 141.641 385.14 145.761 385.14C149.881 385.14 151.161 388.3 151.161 392.52C151.161 396.78 149.881 399.96 145.761 399.96C141.641 399.96 140.361 396.78 140.361 392.52ZM148.401 392.52C148.401 390.02 148.121 387.74 145.761 387.74C143.401 387.74 143.121 390.02 143.121 392.52C143.121 395.12 143.401 397.36 145.761 397.36C148.121 397.36 148.401 395.12 148.401 392.52ZM153.29 392.52C153.29 388.3 154.57 385.14 158.69 385.14C162.81 385.14 164.09 388.3 164.09 392.52C164.09 396.78 162.81 399.96 158.69 399.96C154.57 399.96 153.29 396.78 153.29 392.52ZM161.33 392.52C161.33 390.02 161.05 387.74 158.69 387.74C156.33 387.74 156.05 390.02 156.05 392.52C156.05 395.12 156.33 397.36 158.69 397.36C161.05 397.36 161.33 395.12 161.33 392.52Z" fill="#212121"/>
<path d="M67.6249 388C67.7244 388 67.8198 387.96 67.8901 387.89C67.9605 387.82 68 387.724 68 387.625V386.375C68 386.276 67.9605 386.18 67.8901 386.11C67.8198 386.04 67.7244 386 67.6249 386H58.3751C58.2756 386 58.1802 386.04 58.1099 386.11C58.0395 386.18 58 386.276 58 386.375V387.773C58 387.823 58.0097 387.871 58.0286 387.917C58.0474 387.962 58.075 388.004 58.1099 388.039C58.1447 388.073 58.1861 388.101 58.2316 388.12C58.2771 388.139 58.3259 388.148 58.3751 388.148H61.0418C61.4042 388.127 61.7665 388.193 62.0979 388.341C62.4294 388.489 62.7201 388.715 62.9453 389H58.3751C58.2756 389 58.1802 389.04 58.1099 389.11C58.0395 389.18 58 389.276 58 389.375V390.625C58 390.725 58.0395 390.82 58.1099 390.891C58.1802 390.961 58.2756 391 58.3751 391H63.336C63.1418 392.128 62.3058 392.833 61 392.833H58.3751C58.2758 392.833 58.1805 392.872 58.1102 392.942C58.0399 393.013 58.0002 393.108 58 393.207V394.864C58 394.915 58.0107 394.967 58.0314 395.014C58.0521 395.061 58.0824 395.104 58.1204 395.139L63.2787 399.9C63.3479 399.964 63.4387 400 63.5329 400H66.1129C66.1883 400 66.262 399.977 66.3243 399.935C66.3865 399.892 66.4345 399.832 66.462 399.761C66.4894 399.691 66.4951 399.614 66.4781 399.541C66.4612 399.467 66.4225 399.401 66.3671 399.349L61.652 394.997C62.747 395.01 63.8053 394.603 64.6094 393.859C65.4134 393.116 65.902 392.093 65.9747 391H67.6249C67.7244 391 67.8198 390.96 67.8901 390.89C67.9605 390.82 68 390.724 68 390.625V389.375C68 389.326 67.9903 389.277 67.9714 389.232C67.9526 389.186 67.925 389.145 67.8901 389.11C67.8553 389.075 67.8139 389.047 67.7684 389.029C67.7229 389.01 67.6741 389 67.6249 389H65.7911C65.6864 388.649 65.537 388.313 65.3467 388H67.6249Z" fill="black"/>
<circle cx="59.5" cy="368.5" r="2.5" fill="#00A7B9"/>
<path d="M331.36 370.72C331.36 371.908 330.388 373.084 328.576 373.084C326.896 373.084 325.708 372.148 325.684 370.768H326.848C326.92 371.464 327.412 372.16 328.576 372.16C329.632 372.16 330.256 371.56 330.256 370.768C330.256 368.512 325.732 369.952 325.732 366.844C325.732 365.464 326.848 364.528 328.504 364.528C330.1 364.528 331.144 365.404 331.276 366.676H330.076C330.004 366.112 329.476 365.476 328.456 365.464C327.556 365.44 326.848 365.908 326.848 366.808C326.848 368.968 331.36 367.624 331.36 370.72ZM335.763 367.24C334.695 367.24 333.807 367.948 333.687 369.232H337.839C337.851 367.948 336.891 367.24 335.763 367.24ZM338.835 370.972C338.499 372.172 337.443 373.108 335.811 373.108C333.939 373.108 332.559 371.788 332.559 369.7C332.559 367.624 333.891 366.316 335.811 366.316C337.719 366.316 338.967 367.66 338.967 369.46C338.967 369.7 338.955 369.892 338.931 370.12H333.675C333.759 371.452 334.695 372.184 335.811 372.184C336.795 372.184 337.419 371.68 337.659 370.972H338.835ZM341.5 369.424V373H340.408V366.424H341.5V367.492C341.872 366.76 342.58 366.304 343.624 366.304V367.432H343.336C342.292 367.432 341.5 367.9 341.5 369.424ZM344.105 366.424H345.281L347.333 371.992L349.373 366.424H350.537L347.957 373H346.685L344.105 366.424ZM351.612 373V366.424H352.704V373H351.612ZM352.176 365.356C351.756 365.356 351.432 365.032 351.432 364.612C351.432 364.192 351.756 363.868 352.176 363.868C352.572 363.868 352.896 364.192 352.896 364.612C352.896 365.032 352.572 365.356 352.176 365.356ZM354.157 369.7C354.157 367.636 355.489 366.316 357.361 366.316C358.993 366.316 360.061 367.156 360.397 368.536H359.221C358.993 367.744 358.333 367.24 357.361 367.24C356.161 367.24 355.273 368.092 355.273 369.7C355.273 371.332 356.161 372.184 357.361 372.184C358.333 372.184 358.981 371.716 359.221 370.888H360.397C360.061 372.196 358.993 373.108 357.361 373.108C355.489 373.108 354.157 371.788 354.157 369.7ZM364.65 367.24C363.582 367.24 362.694 367.948 362.574 369.232H366.726C366.738 367.948 365.778 367.24 364.65 367.24ZM367.722 370.972C367.386 372.172 366.33 373.108 364.698 373.108C362.826 373.108 361.446 371.788 361.446 369.7C361.446 367.624 362.778 366.316 364.698 366.316C366.606 366.316 367.854 367.66 367.854 369.46C367.854 369.7 367.842 369.892 367.818 370.12H362.562C362.646 371.452 363.582 372.184 364.698 372.184C365.682 372.184 366.306 371.68 366.546 370.972H367.722ZM372.086 368.812C372.086 366.304 373.922 364.528 376.262 364.528C378.074 364.528 379.514 365.44 380.138 367.06H378.83C378.374 366.052 377.486 365.488 376.262 365.488C374.51 365.488 373.202 366.76 373.202 368.812C373.202 370.852 374.51 372.124 376.262 372.124C377.486 372.124 378.374 371.56 378.83 370.564H380.138C379.514 372.172 378.074 373.072 376.262 373.072C373.922 373.072 372.086 371.32 372.086 368.812ZM388.004 369.7C388.004 371.788 386.504 373.108 384.632 373.108C382.772 373.108 381.356 371.788 381.356 369.7C381.356 367.624 382.82 366.316 384.68 366.316C386.552 366.316 388.004 367.624 388.004 369.7ZM382.472 369.7C382.472 371.368 383.492 372.148 384.632 372.148C385.772 372.148 386.888 371.368 386.888 369.7C386.888 368.044 385.796 367.264 384.668 367.264C383.516 367.264 382.472 368.044 382.472 369.7ZM394.168 371.212C394.168 372.292 393.22 373.108 391.768 373.108C390.232 373.108 389.152 372.268 389.08 371.068H390.208C390.268 371.704 390.832 372.184 391.756 372.184C392.62 372.184 393.1 371.752 393.1 371.212C393.1 369.748 389.212 370.6 389.212 368.152C389.212 367.144 390.16 366.316 391.624 366.316C393.076 366.316 394.036 367.096 394.108 368.38H393.016C392.968 367.72 392.464 367.24 391.588 367.24C390.784 367.24 390.304 367.624 390.304 368.152C390.304 369.712 394.12 368.86 394.168 371.212ZM395.949 371.2V367.324H395.097V366.424H395.949V364.768H397.041V366.424H398.757V367.324H397.041V371.2C397.041 371.848 397.281 372.076 397.953 372.076H398.757V373H397.773C396.609 373 395.949 372.52 395.949 371.2Z" fill="#A6A6A6"/>
<path d="M331.7 385.46H341.34V387.54L336.02 400H333.18L338.54 387.86H331.7V385.46ZM342.197 402.88L343.537 396.92H346.497L344.017 402.88H342.197ZM350.555 392.28C349.355 391.66 348.555 390.64 348.555 389.06C348.555 386.96 350.155 385.14 353.475 385.14C356.795 385.14 358.395 386.98 358.395 389.06C358.395 390.6 357.555 391.7 356.415 392.28C357.855 392.9 358.755 394.16 358.755 395.86C358.755 398.64 356.475 400.32 353.475 400.32C350.495 400.32 348.215 398.64 348.215 395.86C348.215 394.14 349.115 392.88 350.555 392.28ZM353.475 391.46C354.755 391.46 355.675 390.66 355.675 389.46C355.675 388.14 354.815 387.4 353.475 387.4C352.175 387.4 351.295 388.12 351.295 389.48C351.295 390.68 352.215 391.46 353.475 391.46ZM353.475 393.5C352.015 393.5 350.915 394.26 350.915 395.74C350.915 397.04 351.875 398 353.475 398C355.075 398 356.015 397.02 356.015 395.74C356.015 394.3 354.975 393.5 353.475 393.5ZM361.006 389.26C361.146 386.56 363.066 385.08 365.866 385.08C368.866 385.08 370.466 386.78 370.466 388.94C370.466 390.76 369.326 391.88 368.266 392.24V392.32C369.746 392.78 370.726 393.98 370.726 395.96C370.726 398.34 369.046 400.1 365.986 400.1C363.106 400.1 360.926 398.66 360.806 395.6H363.526C363.586 396.86 364.426 397.76 365.926 397.76C367.326 397.76 368.046 396.88 368.046 395.72C368.046 394.08 367.006 393.48 364.926 393.48H364.346V391.18H364.926C366.566 391.18 367.766 390.72 367.766 389.28C367.766 388.14 367.066 387.46 365.786 387.46C364.426 387.46 363.846 388.34 363.746 389.26H361.006ZM383.099 389.06H380.499C380.239 387.98 379.659 387.38 378.399 387.38C376.579 387.38 375.739 388.74 375.699 392.1C376.359 391 377.679 390.4 379.099 390.4C381.699 390.4 383.519 392.12 383.519 395.16C383.519 397.98 381.779 400.04 378.659 400.04C374.339 400.04 373.259 397 373.259 392.48C373.259 387.72 374.799 385.08 378.499 385.08C381.479 385.08 382.879 387 383.099 389.06ZM378.459 392.7C377.159 392.7 375.959 393.46 375.959 395.12C375.959 396.68 376.879 397.66 378.519 397.66C379.959 397.66 380.859 396.72 380.859 395.22C380.859 393.72 380.079 392.7 378.459 392.7ZM388.992 398.5C388.992 399.42 388.272 400.14 387.292 400.14C386.272 400.14 385.552 399.42 385.552 398.5C385.552 397.58 386.272 396.86 387.292 396.86C388.272 396.86 388.992 397.58 388.992 398.5ZM391.687 385.38H400.727V387.84H394.247V391.26C394.787 390.6 395.887 390.08 397.107 390.08C400.507 390.08 401.667 392.64 401.667 394.9C401.667 397.88 399.947 400 396.627 400C393.487 400 391.687 398.26 391.447 395.88H394.167C394.407 396.9 395.227 397.64 396.587 397.64C398.227 397.64 398.967 396.48 398.967 394.94C398.967 393.3 398.147 392.4 396.567 392.4C395.407 392.4 394.667 393.04 394.367 393.94H391.687V385.38ZM404.438 395.9H407.038C407.258 397.06 407.998 397.72 409.298 397.72C410.938 397.72 411.658 396.5 411.658 393.22C411.038 394.08 409.858 394.58 408.578 394.58C406.058 394.58 404.038 393 404.038 389.92C404.038 387 405.878 385.08 408.958 385.08C412.918 385.08 414.138 387.76 414.138 392.38C414.138 397.34 413.038 400.02 409.178 400.02C406.078 400.02 404.598 398.04 404.438 395.9ZM409.158 392.3C410.558 392.3 411.398 391.36 411.398 389.94C411.398 388.34 410.478 387.46 409.058 387.46C407.598 387.46 406.718 388.44 406.718 389.9C406.718 391.22 407.458 392.3 409.158 392.3Z" fill="#212121"/>
<path d="M327.625 388C327.724 388 327.82 387.96 327.89 387.89C327.96 387.82 328 387.724 328 387.625V386.375C328 386.276 327.96 386.18 327.89 386.11C327.82 386.04 327.724 386 327.625 386H318.375C318.276 386 318.18 386.04 318.11 386.11C318.04 386.18 318 386.276 318 386.375V387.773C318 387.823 318.01 387.871 318.029 387.917C318.047 387.962 318.075 388.004 318.11 388.039C318.145 388.073 318.186 388.101 318.232 388.12C318.277 388.139 318.326 388.148 318.375 388.148H321.042C321.404 388.127 321.767 388.193 322.098 388.341C322.429 388.489 322.72 388.715 322.945 389H318.375C318.276 389 318.18 389.04 318.11 389.11C318.04 389.18 318 389.276 318 389.375V390.625C318 390.725 318.04 390.82 318.11 390.891C318.18 390.961 318.276 391 318.375 391H323.336C323.142 392.128 322.306 392.833 321 392.833H318.375C318.276 392.833 318.181 392.872 318.11 392.942C318.04 393.013 318 393.108 318 393.207V394.864C318 394.915 318.011 394.967 318.031 395.014C318.052 395.061 318.082 395.104 318.12 395.139L323.279 399.9C323.348 399.964 323.439 400 323.533 400H326.113C326.188 400 326.262 399.977 326.324 399.935C326.387 399.892 326.435 399.832 326.462 399.761C326.489 399.691 326.495 399.614 326.478 399.541C326.461 399.467 326.423 399.401 326.367 399.349L321.652 394.997C322.747 395.01 323.805 394.603 324.609 393.859C325.413 393.116 325.902 392.093 325.975 391H327.625C327.724 391 327.82 390.96 327.89 390.89C327.96 390.82 328 390.724 328 390.625V389.375C328 389.326 327.99 389.277 327.971 389.232C327.953 389.186 327.925 389.145 327.89 389.11C327.855 389.075 327.814 389.047 327.768 389.029C327.723 389.01 327.674 389 327.625 389H325.791C325.686 388.649 325.537 388.313 325.347 388H327.625Z" fill="black"/>
<circle cx="319.5" cy="368.5" r="2.5" fill="#FC9B42"/>
<path d="M595.916 368.812C595.916 371.32 594.08 373.084 591.716 373.084C589.364 373.084 587.516 371.32 587.516 368.812C587.516 366.304 589.364 364.54 591.716 364.54C594.08 364.54 595.916 366.304 595.916 368.812ZM588.632 368.812C588.632 370.852 589.952 372.136 591.716 372.136C593.48 372.136 594.8 370.852 594.8 368.812C594.8 366.76 593.48 365.488 591.716 365.488C589.952 365.488 588.632 366.76 588.632 368.812ZM597.598 371.2V367.324H596.746V366.424H597.598V364.768H598.69V366.424H600.406V367.324H598.69V371.2C598.69 371.848 598.93 372.076 599.602 372.076H600.406V373H599.422C598.258 373 597.598 372.52 597.598 371.2ZM601.729 373V364.12H602.821V367.372C603.253 366.676 604.069 366.304 604.993 366.304C606.457 366.304 607.621 367.24 607.621 369.124V373H606.541V369.28C606.541 367.936 605.809 367.252 604.705 367.252C603.589 367.252 602.821 367.948 602.821 369.364V373H601.729ZM612.2 367.24C611.132 367.24 610.244 367.948 610.124 369.232H614.276C614.288 367.948 613.328 367.24 612.2 367.24ZM615.272 370.972C614.936 372.172 613.88 373.108 612.248 373.108C610.376 373.108 608.996 371.788 608.996 369.7C608.996 367.624 610.328 366.316 612.248 366.316C614.156 366.316 615.404 367.66 615.404 369.46C615.404 369.7 615.392 369.892 615.368 370.12H610.112C610.196 371.452 611.132 372.184 612.248 372.184C613.232 372.184 613.856 371.68 614.096 370.972H615.272ZM617.938 369.424V373H616.846V366.424H617.938V367.492C618.31 366.76 619.018 366.304 620.062 366.304V367.432H619.774C618.73 367.432 617.938 367.9 617.938 369.424ZM624.114 368.812C624.114 366.304 625.95 364.528 628.29 364.528C630.102 364.528 631.542 365.44 632.166 367.06H630.858C630.402 366.052 629.514 365.488 628.29 365.488C626.538 365.488 625.23 366.76 625.23 368.812C625.23 370.852 626.538 372.124 628.29 372.124C629.514 372.124 630.402 371.56 630.858 370.564H632.166C631.542 372.172 630.102 373.072 628.29 373.072C625.95 373.072 624.114 371.32 624.114 368.812ZM640.031 369.7C640.031 371.788 638.531 373.108 636.659 373.108C634.799 373.108 633.383 371.788 633.383 369.7C633.383 367.624 634.847 366.316 636.707 366.316C638.579 366.316 640.031 367.624 640.031 369.7ZM634.499 369.7C634.499 371.368 635.519 372.148 636.659 372.148C637.799 372.148 638.915 371.368 638.915 369.7C638.915 368.044 637.823 367.264 636.695 367.264C635.543 367.264 634.499 368.044 634.499 369.7ZM646.195 371.212C646.195 372.292 645.247 373.108 643.795 373.108C642.259 373.108 641.179 372.268 641.107 371.068H642.235C642.295 371.704 642.859 372.184 643.783 372.184C644.647 372.184 645.127 371.752 645.127 371.212C645.127 369.748 641.239 370.6 641.239 368.152C641.239 367.144 642.187 366.316 643.651 366.316C645.103 366.316 646.063 367.096 646.135 368.38H645.043C644.995 367.72 644.491 367.24 643.615 367.24C642.811 367.24 642.331 367.624 642.331 368.152C642.331 369.712 646.147 368.86 646.195 371.212ZM647.977 371.2V367.324H647.125V366.424H647.977V364.768H649.069V366.424H650.785V367.324H649.069V371.2C649.069 371.848 649.309 372.076 649.98 372.076H650.785V373H649.801C648.637 373 647.977 372.52 647.977 371.2Z" fill="#A6A6A6"/>
<path d="M593.7 385.46H603.34V387.54L598.02 400H595.18L600.54 387.86H593.7V385.46ZM607.457 392.28C606.257 391.66 605.457 390.64 605.457 389.06C605.457 386.96 607.057 385.14 610.377 385.14C613.697 385.14 615.297 386.98 615.297 389.06C615.297 390.6 614.457 391.7 613.317 392.28C614.757 392.9 615.657 394.16 615.657 395.86C615.657 398.64 613.377 400.32 610.377 400.32C607.397 400.32 605.117 398.64 605.117 395.86C605.117 394.14 606.017 392.88 607.457 392.28ZM610.377 391.46C611.657 391.46 612.577 390.66 612.577 389.46C612.577 388.14 611.717 387.4 610.377 387.4C609.077 387.4 608.197 388.12 608.197 389.48C608.197 390.68 609.117 391.46 610.377 391.46ZM610.377 393.5C608.917 393.5 607.817 394.26 607.817 395.74C607.817 397.04 608.777 398 610.377 398C611.977 398 612.917 397.02 612.917 395.74C612.917 394.3 611.877 393.5 610.377 393.5ZM617.049 402.88L618.389 396.92H621.349L618.869 402.88H617.049ZM622.966 392.52C622.966 388.3 624.246 385.14 628.366 385.14C632.486 385.14 633.766 388.3 633.766 392.52C633.766 396.78 632.486 399.96 628.366 399.96C624.246 399.96 622.966 396.78 622.966 392.52ZM631.006 392.52C631.006 390.02 630.726 387.74 628.366 387.74C626.006 387.74 625.726 390.02 625.726 392.52C625.726 395.12 626.006 397.36 628.366 397.36C630.726 397.36 631.006 395.12 631.006 392.52ZM638.336 392.28C637.136 391.66 636.336 390.64 636.336 389.06C636.336 386.96 637.936 385.14 641.256 385.14C644.576 385.14 646.176 386.98 646.176 389.06C646.176 390.6 645.336 391.7 644.196 392.28C645.636 392.9 646.536 394.16 646.536 395.86C646.536 398.64 644.256 400.32 641.256 400.32C638.276 400.32 635.996 398.64 635.996 395.86C635.996 394.14 636.896 392.88 638.336 392.28ZM641.256 391.46C642.536 391.46 643.456 390.66 643.456 389.46C643.456 388.14 642.596 387.4 641.256 387.4C639.956 387.4 639.076 388.12 639.076 389.48C639.076 390.68 639.996 391.46 641.256 391.46ZM641.256 393.5C639.796 393.5 638.696 394.26 638.696 395.74C638.696 397.04 639.656 398 641.256 398C642.856 398 643.796 397.02 643.796 395.74C643.796 394.3 642.756 393.5 641.256 393.5ZM649.388 395.9H651.988C652.208 397.06 652.948 397.72 654.248 397.72C655.888 397.72 656.608 396.5 656.608 393.22C655.988 394.08 654.808 394.58 653.528 394.58C651.008 394.58 648.988 393 648.988 389.92C648.988 387 650.828 385.08 653.908 385.08C657.868 385.08 659.088 387.76 659.088 392.38C659.088 397.34 657.988 400.02 654.128 400.02C651.028 400.02 649.548 398.04 649.388 395.9ZM654.108 392.3C655.508 392.3 656.348 391.36 656.348 389.94C656.348 388.34 655.428 387.46 654.008 387.46C652.548 387.46 651.668 388.44 651.668 389.9C651.668 391.22 652.408 392.3 654.108 392.3ZM664.527 398.5C664.527 399.42 663.807 400.14 662.827 400.14C661.807 400.14 661.087 399.42 661.087 398.5C661.087 397.58 661.807 396.86 662.827 396.86C663.807 396.86 664.527 397.58 664.527 398.5ZM667.102 395.9H669.702C669.922 397.06 670.662 397.72 671.962 397.72C673.602 397.72 674.322 396.5 674.322 393.22C673.702 394.08 672.522 394.58 671.242 394.58C668.722 394.58 666.702 393 666.702 389.92C666.702 387 668.542 385.08 671.622 385.08C675.582 385.08 676.802 387.76 676.802 392.38C676.802 397.34 675.702 400.02 671.842 400.02C668.742 400.02 667.262 398.04 667.102 395.9ZM671.822 392.3C673.222 392.3 674.062 391.36 674.062 389.94C674.062 388.34 673.142 387.46 671.722 387.46C670.262 387.46 669.382 388.44 669.382 389.9C669.382 391.22 670.122 392.3 671.822 392.3ZM678.622 385.46H688.262V387.54L682.942 400H680.102L685.462 387.86H678.622V385.46Z" fill="#212121"/>
<path d="M589.625 388C589.724 388 589.82 387.96 589.89 387.89C589.96 387.82 590 387.724 590 387.625V386.375C590 386.276 589.96 386.18 589.89 386.11C589.82 386.04 589.724 386 589.625 386H580.375C580.276 386 580.18 386.04 580.11 386.11C580.04 386.18 580 386.276 580 386.375V387.773C580 387.823 580.01 387.871 580.029 387.917C580.047 387.962 580.075 388.004 580.11 388.039C580.145 388.073 580.186 388.101 580.232 388.12C580.277 388.139 580.326 388.148 580.375 388.148H583.042C583.404 388.127 583.767 388.193 584.098 388.341C584.429 388.489 584.72 388.715 584.945 389H580.375C580.276 389 580.18 389.04 580.11 389.11C580.04 389.18 580 389.276 580 389.375V390.625C580 390.725 580.04 390.82 580.11 390.891C580.18 390.961 580.276 391 580.375 391H585.336C585.142 392.128 584.306 392.833 583 392.833H580.375C580.276 392.833 580.181 392.872 580.11 392.942C580.04 393.013 580 393.108 580 393.207V394.864C580 394.915 580.011 394.967 580.031 395.014C580.052 395.061 580.082 395.104 580.12 395.139L585.279 399.9C585.348 399.964 585.439 400 585.533 400H588.113C588.188 400 588.262 399.977 588.324 399.935C588.387 399.892 588.435 399.832 588.462 399.761C588.489 399.691 588.495 399.614 588.478 399.541C588.461 399.467 588.423 399.401 588.367 399.349L583.652 394.997C584.747 395.01 585.805 394.603 586.609 393.859C587.413 393.116 587.902 392.093 587.975 391H589.625C589.724 391 589.82 390.96 589.89 390.89C589.96 390.82 590 390.724 590 390.625V389.375C590 389.326 589.99 389.277 589.971 389.232C589.953 389.186 589.925 389.145 589.89 389.11C589.855 389.075 589.814 389.047 589.768 389.029C589.723 389.01 589.674 389 589.625 389H587.791C587.686 388.649 587.537 388.313 587.347 388H589.625Z" fill="black"/>
<circle cx="581.5" cy="368.5" r="2.5" fill="#256EB5"/>
<rect x="37.5" y="345.5" width="773" height="76" stroke="#ECECEC"/>
<line x1="294.5" y1="345" x2="294.5" y2="422" stroke="#ECECEC"/>
<line x1="553.5" y1="345" x2="553.5" y2="422" stroke="#ECECEC"/>
<defs>
<filter id="filter0_d_1749_1846" x="0" y="0" width="857" height="458" filterUnits="userSpaceOnUse" color-interpolation-filters="sRGB">
<feFlood flood-opacity="0" result="BackgroundImageFix"/>
<feColorMatrix in="SourceAlpha" type="matrix" values="0 0 0 0 0 0 0 0 0 0 0 0 0 0 0 0 0 0 127 0" result="hardAlpha"/>
<feOffset dy="4"/>
<feGaussianBlur stdDeviation="6"/>
<feComposite in2="hardAlpha" operator="out"/>
<feColorMatrix type="matrix" values="0 0 0 0 0 0 0 0 0 0 0 0 0 0 0 0 0 0 0.1 0"/>
<feBlend mode="normal" in2="BackgroundImageFix" result="effect1_dropShadow_1749_1846"/>
<feBlend mode="normal" in="SourceGraphic" in2="effect1_dropShadow_1749_1846" result="shape"/>
</filter>
</defs>
</svg>
