<svg width="857" height="185" viewBox="0 0 857 185" fill="none" xmlns="http://www.w3.org/2000/svg">
<g filter="url(#filter0_d_1749_1581)">
<rect x="12" y="8" width="833" height="161" fill="white"/>
</g>
<path d="M37.56 44.4C37.56 41.056 40.008 38.688 43.224 38.688C45.704 38.688 47.72 40.016 48.472 42.304H45.896C45.368 41.232 44.408 40.704 43.208 40.704C41.256 40.704 39.864 42.128 39.864 44.4C39.864 46.656 41.256 48.096 43.208 48.096C44.408 48.096 45.368 47.568 45.896 46.48H48.472C47.72 48.784 45.704 50.096 43.224 50.096C40.008 50.096 37.56 47.744 37.56 44.4ZM52.6253 45.584V50H50.3853V41.136H52.6253V42.512C53.1853 41.6 54.1133 41.008 55.3453 41.008V43.36H54.7533C53.4253 43.36 52.6253 43.872 52.6253 45.584ZM56.854 50V41.136H59.094V50H56.854ZM57.99 40.08C57.19 40.08 56.614 39.504 56.614 38.768C56.614 38.032 57.19 37.456 57.99 37.456C58.774 37.456 59.366 38.032 59.366 38.768C59.366 39.504 58.774 40.08 57.99 40.08ZM61.6591 47.248V42.976H60.6031V41.136H61.6591V38.944H63.9151V41.136H65.8991V42.976H63.9151V47.264C63.9151 47.856 64.1551 48.112 64.8591 48.112H65.8991V50H64.4911C62.7951 50 61.6591 49.28 61.6591 47.248ZM67.5103 50V41.136H69.7503V50H67.5103ZM68.6463 40.08C67.8463 40.08 67.2703 39.504 67.2703 38.768C67.2703 38.032 67.8463 37.456 68.6463 37.456C69.4303 37.456 70.0223 38.032 70.0223 38.768C70.0223 39.504 69.4303 40.08 68.6463 40.08ZM71.3874 45.568C71.3874 42.784 73.2114 40.992 75.7714 40.992C77.9794 40.992 79.4674 42.144 79.9474 44.128H77.5314C77.2754 43.376 76.6834 42.896 75.7554 42.896C74.5074 42.896 73.6754 43.84 73.6754 45.568C73.6754 47.296 74.5074 48.224 75.7554 48.224C76.6834 48.224 77.2594 47.808 77.5314 47.008H79.9474C79.4674 48.896 77.9794 50.144 75.7714 50.144C73.2114 50.144 71.3874 48.352 71.3874 45.568ZM81.0124 45.536C81.0124 42.768 82.8044 40.992 85.0604 40.992C86.4844 40.992 87.4604 41.664 87.9884 42.4V41.136H90.2444V50H87.9884V48.704C87.4604 49.472 86.4524 50.144 85.0444 50.144C82.8044 50.144 81.0124 48.304 81.0124 45.536ZM87.9884 45.568C87.9884 43.888 86.8684 42.96 85.6364 42.96C84.4364 42.96 83.3004 43.856 83.3004 45.536C83.3004 47.216 84.4364 48.176 85.6364 48.176C86.8684 48.176 87.9884 47.248 87.9884 45.568ZM92.4321 50V38.16H94.6721V50H92.4321ZM100.698 50V38.832H107.594V40.64H102.938V43.504H106.506V45.28H102.938V50H100.698ZM108.606 45.536C108.606 42.768 110.398 40.992 112.654 40.992C114.078 40.992 115.054 41.664 115.582 42.4V41.136H117.838V50H115.582V48.704C115.054 49.472 114.046 50.144 112.638 50.144C110.398 50.144 108.606 48.304 108.606 45.536ZM115.582 45.568C115.582 43.888 114.462 42.96 113.23 42.96C112.03 42.96 110.894 43.856 110.894 45.536C110.894 47.216 112.03 48.176 113.23 48.176C114.462 48.176 115.582 47.248 115.582 45.568ZM128.394 41.136V50H126.138V48.88C125.578 49.632 124.602 50.112 123.498 50.112C121.434 50.112 119.946 48.768 119.946 46.336V41.136H122.186V46.016C122.186 47.44 122.97 48.208 124.154 48.208C125.37 48.208 126.138 47.44 126.138 46.016V41.136H128.394ZM130.604 50V38.16H132.844V50H130.604ZM135.409 47.248V42.976H134.353V41.136H135.409V38.944H137.665V41.136H139.649V42.976H137.665V47.264C137.665 47.856 137.905 48.112 138.609 48.112H139.649V50H138.241C136.545 50 135.409 49.28 135.409 47.248ZM148.14 47.472C148.14 48.992 146.812 50.144 144.652 50.144C142.428 50.144 140.876 48.848 140.78 47.2H143.036C143.116 47.872 143.74 48.384 144.636 48.384C145.516 48.384 145.996 47.984 145.996 47.472C145.996 45.888 140.988 46.896 140.988 43.648C140.988 42.176 142.3 40.992 144.492 40.992C146.636 40.992 147.932 42.16 148.06 43.92H145.916C145.852 43.232 145.308 42.768 144.428 42.768C143.596 42.768 143.164 43.104 143.164 43.616C143.164 45.232 148.076 44.224 148.14 47.472Z" fill="#002850"/>
<path d="M304.408 108.524V107.636H310.072V108.524H307.792V116H306.7V108.524H304.408ZM311.416 116V107.12H312.508V110.372C312.94 109.676 313.756 109.304 314.68 109.304C316.144 109.304 317.308 110.24 317.308 112.124V116H316.228V112.28C316.228 110.936 315.496 110.252 314.392 110.252C313.276 110.252 312.508 110.948 312.508 112.364V116H311.416ZM321.888 110.24C320.82 110.24 319.932 110.948 319.812 112.232H323.964C323.976 110.948 323.016 110.24 321.888 110.24ZM324.96 113.972C324.624 115.172 323.568 116.108 321.936 116.108C320.064 116.108 318.684 114.788 318.684 112.7C318.684 110.624 320.016 109.316 321.936 109.316C323.844 109.316 325.092 110.66 325.092 112.46C325.092 112.7 325.08 112.892 325.056 113.12H319.8C319.884 114.452 320.82 115.184 321.936 115.184C322.92 115.184 323.544 114.68 323.784 113.972H324.96ZM327.625 112.424V116H326.533V109.424H327.625V110.492C327.997 109.76 328.705 109.304 329.749 109.304V110.432H329.461C328.417 110.432 327.625 110.9 327.625 112.424ZM333.806 110.24C332.738 110.24 331.85 110.948 331.73 112.232H335.882C335.894 110.948 334.934 110.24 333.806 110.24ZM336.878 113.972C336.542 115.172 335.486 116.108 333.854 116.108C331.982 116.108 330.602 114.788 330.602 112.7C330.602 110.624 331.934 109.316 333.854 109.316C335.762 109.316 337.01 110.66 337.01 112.46C337.01 112.7 336.998 112.892 336.974 113.12H331.718C331.802 114.452 332.738 115.184 333.854 115.184C334.838 115.184 335.462 114.68 335.702 113.972H336.878ZM341.243 112.688C341.243 110.636 342.599 109.316 344.363 109.316C345.587 109.316 346.427 109.94 346.811 110.624V109.424H347.915V116H346.811V114.776C346.415 115.484 345.563 116.108 344.351 116.108C342.599 116.108 341.243 114.728 341.243 112.688ZM346.811 112.7C346.811 111.176 345.779 110.264 344.579 110.264C343.379 110.264 342.359 111.14 342.359 112.688C342.359 114.236 343.379 115.148 344.579 115.148C345.779 115.148 346.811 114.248 346.811 112.7ZM350.852 112.424V116H349.76V109.424H350.852V110.492C351.224 109.76 351.932 109.304 352.976 109.304V110.432H352.688C351.644 110.432 350.852 110.9 350.852 112.424ZM357.033 110.24C355.965 110.24 355.076 110.948 354.957 112.232H359.109C359.121 110.948 358.161 110.24 357.033 110.24ZM360.105 113.972C359.769 115.172 358.713 116.108 357.081 116.108C355.209 116.108 353.829 114.788 353.829 112.7C353.829 110.624 355.161 109.316 357.081 109.316C358.989 109.316 360.237 110.66 360.237 112.46C360.237 112.7 360.225 112.892 360.201 113.12H354.945C355.029 114.452 355.965 115.184 357.081 115.184C358.065 115.184 358.689 114.68 358.929 113.972H360.105ZM369.689 116V112.28C369.689 110.936 368.957 110.252 367.853 110.252C366.737 110.252 365.969 110.948 365.969 112.364V116H364.877V109.424H365.969V110.36C366.401 109.676 367.193 109.304 368.081 109.304C369.605 109.304 370.769 110.24 370.769 112.124V116H369.689ZM378.793 112.7C378.793 114.788 377.293 116.108 375.421 116.108C373.561 116.108 372.145 114.788 372.145 112.7C372.145 110.624 373.609 109.316 375.469 109.316C377.341 109.316 378.793 110.624 378.793 112.7ZM373.261 112.7C373.261 114.368 374.281 115.148 375.421 115.148C376.561 115.148 377.677 114.368 377.677 112.7C377.677 111.044 376.585 110.264 375.457 110.264C374.305 110.264 373.261 111.044 373.261 112.7ZM379.821 111.812C379.821 109.304 381.657 107.528 383.997 107.528C385.809 107.528 387.249 108.44 387.873 110.06H386.565C386.109 109.052 385.221 108.488 383.997 108.488C382.245 108.488 380.937 109.76 380.937 111.812C380.937 113.852 382.245 115.124 383.997 115.124C385.221 115.124 386.109 114.56 386.565 113.564H387.873C387.249 115.172 385.809 116.072 383.997 116.072C381.657 116.072 379.821 114.32 379.821 111.812ZM390.59 112.424V116H389.498V109.424H390.59V110.492C390.962 109.76 391.67 109.304 392.714 109.304V110.432H392.426C391.382 110.432 390.59 110.9 390.59 112.424ZM393.975 116V109.424H395.067V116H393.975ZM394.539 108.356C394.119 108.356 393.795 108.032 393.795 107.612C393.795 107.192 394.119 106.868 394.539 106.868C394.935 106.868 395.259 107.192 395.259 107.612C395.259 108.032 394.935 108.356 394.539 108.356ZM397.168 114.2V110.324H396.316V109.424H397.168V107.768H398.26V109.424H399.976V110.324H398.26V114.2C398.26 114.848 398.5 115.076 399.172 115.076H399.976V116H398.992C397.828 116 397.168 115.52 397.168 114.2ZM401.299 116V109.424H402.391V116H401.299ZM401.863 108.356C401.443 108.356 401.119 108.032 401.119 107.612C401.119 107.192 401.443 106.868 401.863 106.868C402.259 106.868 402.583 107.192 402.583 107.612C402.583 108.032 402.259 108.356 401.863 108.356ZM403.844 112.7C403.844 110.636 405.176 109.316 407.048 109.316C408.68 109.316 409.748 110.156 410.084 111.536H408.908C408.68 110.744 408.02 110.24 407.048 110.24C405.848 110.24 404.96 111.092 404.96 112.7C404.96 114.332 405.848 115.184 407.048 115.184C408.02 115.184 408.668 114.716 408.908 113.888H410.084C409.748 115.196 408.68 116.108 407.048 116.108C405.176 116.108 403.844 114.788 403.844 112.7ZM411.133 112.688C411.133 110.636 412.489 109.316 414.253 109.316C415.477 109.316 416.317 109.94 416.701 110.624V109.424H417.805V116H416.701V114.776C416.305 115.484 415.453 116.108 414.241 116.108C412.489 116.108 411.133 114.728 411.133 112.688ZM416.701 112.7C416.701 111.176 415.669 110.264 414.469 110.264C413.269 110.264 412.249 111.14 412.249 112.688C412.249 114.236 413.269 115.148 414.469 115.148C415.669 115.148 416.701 114.248 416.701 112.7ZM419.651 116V107.12H420.743V116H419.651ZM425.803 116V107.636H430.531V108.524H426.895V111.344H429.847V112.232H426.895V116H425.803ZM431.442 112.688C431.442 110.636 432.798 109.316 434.562 109.316C435.786 109.316 436.626 109.94 437.01 110.624V109.424H438.114V116H437.01V114.776C436.614 115.484 435.762 116.108 434.55 116.108C432.798 116.108 431.442 114.728 431.442 112.688ZM437.01 112.7C437.01 111.176 435.978 110.264 434.778 110.264C433.578 110.264 432.558 111.14 432.558 112.688C432.558 114.236 433.578 115.148 434.778 115.148C435.978 115.148 437.01 114.248 437.01 112.7ZM445.791 109.424V116H444.699V115.028C444.279 115.712 443.475 116.096 442.599 116.096C441.087 116.096 439.899 115.16 439.899 113.276V109.424H440.979V113.132C440.979 114.464 441.711 115.148 442.815 115.148C443.943 115.148 444.699 114.452 444.699 113.036V109.424H445.791ZM447.635 116V107.12H448.727V116H447.635ZM450.828 114.2V110.324H449.976V109.424H450.828V107.768H451.92V109.424H453.636V110.324H451.92V114.2C451.92 114.848 452.16 115.076 452.832 115.076H453.636V116H452.652C451.488 116 450.828 115.52 450.828 114.2ZM459.687 114.212C459.687 115.292 458.739 116.108 457.287 116.108C455.751 116.108 454.671 115.268 454.599 114.068H455.727C455.787 114.704 456.351 115.184 457.275 115.184C458.139 115.184 458.619 114.752 458.619 114.212C458.619 112.748 454.731 113.6 454.731 111.152C454.731 110.144 455.679 109.316 457.143 109.316C458.595 109.316 459.555 110.096 459.627 111.38H458.535C458.487 110.72 457.983 110.24 457.107 110.24C456.303 110.24 455.823 110.624 455.823 111.152C455.823 112.712 459.639 111.86 459.687 114.212ZM464.632 116V110.324H463.78V109.424H464.632V108.956C464.632 107.492 465.352 106.832 467.032 106.832V107.744C466.048 107.744 465.724 108.104 465.724 108.956V109.424H467.104V110.324H465.724V116H464.632ZM474.617 112.7C474.617 114.788 473.117 116.108 471.245 116.108C469.385 116.108 467.969 114.788 467.969 112.7C467.969 110.624 469.433 109.316 471.293 109.316C473.165 109.316 474.617 110.624 474.617 112.7ZM469.085 112.7C469.085 114.368 470.105 115.148 471.245 115.148C472.385 115.148 473.501 114.368 473.501 112.7C473.501 111.044 472.409 110.264 471.281 110.264C470.129 110.264 469.085 111.044 469.085 112.7ZM477.145 112.424V116H476.053V109.424H477.145V110.492C477.517 109.76 478.225 109.304 479.269 109.304V110.432H478.981C477.937 110.432 477.145 110.9 477.145 112.424ZM483.969 114.2V110.324H483.117V109.424H483.969V107.768H485.061V109.424H486.777V110.324H485.061V114.2C485.061 114.848 485.301 115.076 485.973 115.076H486.777V116H485.793C484.629 116 483.969 115.52 483.969 114.2ZM488.1 116V107.12H489.192V110.372C489.624 109.676 490.44 109.304 491.364 109.304C492.828 109.304 493.992 110.24 493.992 112.124V116H492.912V112.28C492.912 110.936 492.18 110.252 491.076 110.252C489.96 110.252 489.192 110.948 489.192 112.364V116H488.1ZM495.776 116V109.424H496.868V116H495.776ZM496.34 108.356C495.92 108.356 495.596 108.032 495.596 107.612C495.596 107.192 495.92 106.868 496.34 106.868C496.736 106.868 497.06 107.192 497.06 107.612C497.06 108.032 496.736 108.356 496.34 108.356ZM503.457 114.212C503.457 115.292 502.509 116.108 501.057 116.108C499.521 116.108 498.441 115.268 498.369 114.068H499.497C499.557 114.704 500.121 115.184 501.045 115.184C501.909 115.184 502.389 114.752 502.389 114.212C502.389 112.748 498.501 113.6 498.501 111.152C498.501 110.144 499.449 109.316 500.913 109.316C502.365 109.316 503.325 110.096 503.397 111.38H502.305C502.257 110.72 501.753 110.24 500.877 110.24C500.073 110.24 499.593 110.624 499.593 111.152C499.593 112.712 503.409 111.86 503.457 114.212ZM511.329 114.848L513.957 107.636H515.109L511.953 116H510.693L507.537 107.636H508.701L511.329 114.848ZM519.103 110.24C518.035 110.24 517.147 110.948 517.027 112.232H521.179C521.191 110.948 520.231 110.24 519.103 110.24ZM522.175 113.972C521.839 115.172 520.783 116.108 519.151 116.108C517.279 116.108 515.899 114.788 515.899 112.7C515.899 110.624 517.231 109.316 519.151 109.316C521.059 109.316 522.307 110.66 522.307 112.46C522.307 112.7 522.295 112.892 522.271 113.12H517.015C517.099 114.452 518.035 115.184 519.151 115.184C520.135 115.184 520.759 114.68 520.999 113.972H522.175ZM523.748 116V107.12H524.84V110.372C525.272 109.676 526.088 109.304 527.012 109.304C528.476 109.304 529.64 110.24 529.64 112.124V116H528.56V112.28C528.56 110.936 527.828 110.252 526.724 110.252C525.608 110.252 524.84 110.948 524.84 112.364V116H523.748ZM531.424 116V109.424H532.516V116H531.424ZM531.988 108.356C531.568 108.356 531.244 108.032 531.244 107.612C531.244 107.192 531.568 106.868 531.988 106.868C532.384 106.868 532.708 107.192 532.708 107.612C532.708 108.032 532.384 108.356 531.988 108.356ZM533.969 112.7C533.969 110.636 535.301 109.316 537.173 109.316C538.805 109.316 539.873 110.156 540.209 111.536H539.033C538.805 110.744 538.145 110.24 537.173 110.24C535.973 110.24 535.085 111.092 535.085 112.7C535.085 114.332 535.973 115.184 537.173 115.184C538.145 115.184 538.793 114.716 539.033 113.888H540.209C539.873 115.196 538.805 116.108 537.173 116.108C535.301 116.108 533.969 114.788 533.969 112.7ZM541.666 116V107.12H542.758V116H541.666ZM547.415 110.24C546.347 110.24 545.459 110.948 545.339 112.232H549.491C549.503 110.948 548.543 110.24 547.415 110.24ZM550.487 113.972C550.151 115.172 549.095 116.108 547.463 116.108C545.591 116.108 544.211 114.788 544.211 112.7C544.211 110.624 545.543 109.316 547.463 109.316C549.371 109.316 550.619 110.66 550.619 112.46C550.619 112.7 550.607 112.892 550.583 113.12H545.327C545.411 114.452 546.347 115.184 547.463 115.184C548.447 115.184 549.071 114.68 549.311 113.972H550.487Z" fill="#818181"/>
<path d="M761.732 48.656L764.798 40.242H766.142L762.46 50H760.99L757.308 40.242H758.666L761.732 48.656ZM767.539 50V42.328H768.813V50H767.539ZM768.197 41.082C767.707 41.082 767.329 40.704 767.329 40.214C767.329 39.724 767.707 39.346 768.197 39.346C768.659 39.346 769.037 39.724 769.037 40.214C769.037 40.704 768.659 41.082 768.197 41.082ZM774.246 43.28C773 43.28 771.964 44.106 771.824 45.604H776.668C776.682 44.106 775.562 43.28 774.246 43.28ZM777.83 47.634C777.438 49.034 776.206 50.126 774.302 50.126C772.118 50.126 770.508 48.586 770.508 46.15C770.508 43.728 772.062 42.202 774.302 42.202C776.528 42.202 777.984 43.77 777.984 45.87C777.984 46.15 777.97 46.374 777.942 46.64H771.81C771.908 48.194 773 49.048 774.302 49.048C775.45 49.048 776.178 48.46 776.458 47.634H777.83ZM781.164 50L778.756 42.328H780.058L781.822 48.768L783.726 42.328H785.028L786.89 48.782L788.626 42.328H789.886L787.492 50H786.176L784.328 43.91L782.48 50H781.164ZM801.435 50L800.651 47.83H796.395L795.611 50H794.267L797.795 40.298H799.265L802.779 50H801.435ZM800.287 46.794L798.523 41.866L796.759 46.794H800.287ZM804.316 50V39.64H805.59V50H804.316ZM807.762 50V39.64H809.036V50H807.762Z" fill="#076FD5"/>
<defs>
<filter id="filter0_d_1749_1581" x="0" y="0" width="857" height="185" filterUnits="userSpaceOnUse" color-interpolation-filters="sRGB">
<feFlood flood-opacity="0" result="BackgroundImageFix"/>
<feColorMatrix in="SourceAlpha" type="matrix" values="0 0 0 0 0 0 0 0 0 0 0 0 0 0 0 0 0 0 127 0" result="hardAlpha"/>
<feOffset dy="4"/>
<feGaussianBlur stdDeviation="6"/>
<feComposite in2="hardAlpha" operator="out"/>
<feColorMatrix type="matrix" values="0 0 0 0 0 0 0 0 0 0 0 0 0 0 0 0 0 0 0.1 0"/>
<feBlend mode="normal" in2="BackgroundImageFix" result="effect1_dropShadow_1749_1581"/>
<feBlend mode="normal" in="SourceGraphic" in2="effect1_dropShadow_1749_1581" result="shape"/>
</filter>
</defs>
</svg>
