<svg width="177" height="49" viewBox="0 0 177 49" fill="none" xmlns="http://www.w3.org/2000/svg">
<path d="M156.743 18.975C156.325 18.8427 155.9 18.7382 155.465 18.6827C154.232 18.527 153.106 18.7723 152.15 19.6064C151.154 20.4768 150.614 21.6288 150.174 22.8426C150.132 22.962 150.206 22.9706 150.294 22.9834C150.806 23.0559 151.32 23.1028 151.96 23.1092C152.126 23.1156 152.412 23.0922 152.698 23.0623C153.69 22.9535 154.603 22.6442 155.356 21.9573C156.192 21.1957 156.61 20.208 156.879 19.1371C156.913 18.9963 156.815 18.9963 156.743 18.9729V18.975ZM154.202 20.6197C153.901 21.36 153.513 22.017 152.677 22.2559C152.276 22.369 151.881 22.3157 151.486 22.2154C151.38 22.1877 151.375 22.1343 151.395 22.0426C151.608 21.0058 152.308 20.4277 153.353 20.4277C153.613 20.4235 153.869 20.464 154.123 20.5131C154.185 20.5259 154.24 20.5323 154.204 20.6176L154.202 20.6197Z" fill="#F5811F"/>
<path d="M148.182 22.7042C147.947 22.1474 147.698 21.5992 147.38 21.0829C146.834 20.1976 146.166 19.4403 145.2 18.9987C143.999 18.4484 142.781 18.5636 141.556 18.9155C141.435 18.9497 141.467 19.0158 141.484 19.0947C141.569 19.5043 141.686 19.9032 141.842 20.2894C142.243 21.2813 142.862 22.0856 143.837 22.5741C144.585 22.9495 145.39 23.0711 146.328 23.069C146.847 23.0733 147.465 22.9879 148.084 22.8834C148.208 22.8621 148.231 22.8173 148.182 22.6999V22.7042ZM146.832 22.2157C146.574 22.2882 146.316 22.3437 146.1 22.3394C145.392 22.3437 144.91 22.0408 144.549 21.5138C144.37 21.2515 144.244 20.9613 144.142 20.6627C144.116 20.588 144.078 20.507 144.208 20.4899C144.754 20.4195 145.298 20.4024 145.816 20.6328C146.441 20.9101 146.749 21.4349 146.921 22.0642C146.945 22.1538 146.921 22.1922 146.832 22.2178V22.2157Z" fill="#0093D9"/>
<path d="M151.011 17.6034C150.832 16.3747 150.149 15.4339 149.285 14.5977C149.2 14.5145 149.157 14.5571 149.093 14.6169C148.754 14.9283 148.436 15.259 148.159 15.6301C147.325 16.7458 147.026 17.9703 147.414 19.3292C147.736 20.4513 148.387 21.3857 149.129 22.2646C149.228 22.3819 149.262 22.303 149.317 22.2326C149.635 21.8251 149.936 21.4027 150.194 20.9547C150.687 20.0972 151.043 19.1969 151.056 18.1858C151.041 17.9917 151.037 17.7975 151.009 17.6055L151.011 17.6034ZM149.234 20.831C149.174 20.8907 149.134 20.8843 149.076 20.8289C148.332 20.1228 148.073 19.3036 148.605 18.3543C148.739 18.1154 148.905 17.8999 149.082 17.693C149.138 17.6269 149.181 17.597 149.249 17.6845C149.626 18.1751 149.929 18.6978 149.946 19.3271C149.938 19.9457 149.652 20.4193 149.234 20.8332V20.831Z" fill="#EC1B24"/>
<path d="M154.138 15.005C154.123 14.8941 154.076 14.8515 153.963 14.892C153.729 14.9773 153.483 15.0434 153.257 15.1458C152.459 15.5042 151.885 16.0738 151.659 16.9442C151.525 17.4647 151.516 17.9959 151.597 18.5228C151.696 19.167 151.64 19.0668 152.156 18.8876C152.688 18.7041 153.157 18.4204 153.539 18.0065C154.055 17.4498 154.251 16.7756 154.23 15.9842C154.251 15.6813 154.185 15.3442 154.138 15.0029V15.005ZM152.201 18.2668C152.114 18.2945 152.075 18.254 152.052 18.1687C152.022 18.062 152.031 17.9553 152.026 17.8487C152.018 17.2428 152.41 16.7948 152.976 16.5837C153.069 16.5495 153.099 16.5794 153.125 16.6647C153.372 17.4754 152.982 18.0215 152.203 18.2668H152.201Z" fill="#D0E188"/>
<path d="M146.766 17.9298C146.783 17.0253 146.495 16.3192 145.868 15.7561C145.526 15.4489 145.134 15.2206 144.711 15.0606C144.125 14.8388 144.197 14.7662 144.076 15.3934C144.074 15.4083 144.065 15.4211 144.063 15.4339C143.903 16.3235 144.014 17.1555 144.622 17.8637C145.123 18.4482 145.797 18.7682 146.503 19.0263C146.582 19.0541 146.619 19.0391 146.636 18.9474C146.698 18.5869 146.794 18.2328 146.768 17.9277L146.766 17.9298ZM146.13 18.2925C145.987 18.3672 145.814 18.2157 145.669 18.1218C145.219 17.8253 144.98 17.1896 145.121 16.6819C145.147 16.5902 145.202 16.5902 145.266 16.6115C145.831 16.795 146.252 17.0509 146.241 17.8189C146.235 17.9896 146.273 18.22 146.128 18.2946L146.13 18.2925Z" fill="#D0E188"/>
<path d="M77.9767 13.8599H115.121C115.827 13.8599 116.401 14.4337 116.401 15.1398V21.258C116.401 21.9641 115.827 22.5379 115.121 22.5379H76.6968V15.1398C76.6968 14.4337 77.2706 13.8599 77.9767 13.8599Z" fill="#F68723"/>
<path d="M83.7323 42.8168L83.0945 41.7417H82.6721V42.8168H82.3223V40.1865H83.1862C83.3889 40.1865 83.5596 40.2207 83.7004 40.2889C83.8411 40.3572 83.9435 40.4489 84.0139 40.5641C84.0822 40.6793 84.1185 40.8116 84.1185 40.9609C84.1185 41.1422 84.0651 41.3022 83.9585 41.4409C83.8518 41.5795 83.6918 41.6713 83.4806 41.7161L84.1526 42.819H83.7345L83.7323 42.8168ZM82.6721 41.4665H83.1862C83.3761 41.4665 83.519 41.4217 83.6129 41.3278C83.7068 41.2361 83.7558 41.1124 83.7558 40.9609C83.7558 40.8094 83.7089 40.6836 83.615 40.5982C83.5212 40.5129 83.3782 40.4702 83.1862 40.4702H82.6721V41.4665Z" fill="#212121"/>
<path d="M85.0847 40.4657V41.3446H86.0617V41.6283H85.0847V42.5349H86.1769V42.8186H84.7349V40.1841H86.1769V40.4678H85.0847V40.4657Z" fill="#212121"/>
<path d="M88.9973 40.186L87.9861 42.8163H87.5829L86.5718 40.186H86.9451L87.7877 42.4537L88.6304 40.186H88.9994H88.9973Z" fill="#212121"/>
<path d="M89.9937 42.6715C89.7889 42.5563 89.6268 42.3963 89.5073 42.1916C89.3879 41.9868 89.3281 41.7564 89.3281 41.4982C89.3281 41.2401 89.3879 41.0097 89.5073 40.8049C89.6268 40.6001 89.7889 40.4402 89.9937 40.325C90.1985 40.2098 90.4246 40.1543 90.6742 40.1543C90.9238 40.1543 91.1542 40.2119 91.359 40.325C91.5638 40.4402 91.7259 40.598 91.8432 40.8028C91.9606 41.0076 92.0203 41.238 92.0203 41.4961C92.0203 41.7542 91.9606 41.9868 91.8432 42.1916C91.7259 42.3963 91.5638 42.5542 91.359 42.6694C91.1542 42.7846 90.9259 42.8422 90.6742 42.8422C90.4225 42.8422 90.1985 42.7846 89.9937 42.6694V42.6715ZM91.1798 42.4177C91.3291 42.3323 91.4486 42.2108 91.5339 42.0508C91.6192 41.8908 91.6619 41.7094 91.6619 41.5004C91.6619 41.2913 91.6192 41.1057 91.5339 40.9479C91.4486 40.79 91.3312 40.6684 91.1819 40.5831C91.0326 40.4977 90.8641 40.4551 90.6742 40.4551C90.4843 40.4551 90.3158 40.4977 90.1665 40.5831C90.0172 40.6684 89.8998 40.79 89.8145 40.9479C89.7292 41.1057 89.6865 41.2892 89.6865 41.5004C89.6865 41.7116 89.7292 41.8929 89.8145 42.0508C89.8998 42.2086 90.0193 42.3323 90.1686 42.4177C90.318 42.503 90.4865 42.5457 90.6742 42.5457C90.8619 42.5457 91.0305 42.503 91.1798 42.4177Z" fill="#212121"/>
<path d="M92.9075 42.5369H93.8461V42.8163H92.5576V40.186H92.9075V42.5369Z" fill="#212121"/>
<path d="M94.6374 40.186V41.85C94.6374 42.0846 94.695 42.2574 94.8124 42.3705C94.9297 42.4835 95.0918 42.5411 95.2988 42.5411C95.5057 42.5411 95.6635 42.4857 95.7809 42.3705C95.8982 42.2574 95.9558 42.0846 95.9558 41.85V40.186H96.3057V41.8457C96.3057 42.0654 96.2609 42.2489 96.1713 42.3982C96.0817 42.5475 95.9601 42.6585 95.8086 42.7331C95.6571 42.8057 95.4844 42.8419 95.2945 42.8419C95.1046 42.8419 94.934 42.8057 94.7804 42.7331C94.6289 42.6606 94.5073 42.5497 94.4199 42.3982C94.3303 42.2489 94.2876 42.0633 94.2876 41.8457V40.186H94.6374Z" fill="#212121"/>
<path d="M98.616 40.186V40.4655H97.8864V42.8163H97.5366V40.4655H96.8027V40.186H98.6181H98.616Z" fill="#212121"/>
<path d="M99.4739 40.186V42.8163H99.124V40.186H99.4739Z" fill="#212121"/>
<path d="M100.681 42.6715C100.476 42.5563 100.314 42.3963 100.195 42.1916C100.075 41.9868 100.016 41.7564 100.016 41.4982C100.016 41.2401 100.075 41.0097 100.195 40.8049C100.314 40.6001 100.476 40.4402 100.681 40.325C100.886 40.2098 101.112 40.1543 101.362 40.1543C101.611 40.1543 101.842 40.2119 102.046 40.325C102.251 40.4402 102.413 40.598 102.531 40.8028C102.648 41.0076 102.708 41.238 102.708 41.4961C102.708 41.7542 102.648 41.9868 102.531 42.1916C102.413 42.3963 102.251 42.5542 102.046 42.6694C101.842 42.7846 101.613 42.8422 101.362 42.8422C101.11 42.8422 100.886 42.7846 100.681 42.6694V42.6715ZM101.867 42.4177C102.017 42.3323 102.136 42.2108 102.221 42.0508C102.307 41.8908 102.349 41.7094 102.349 41.5004C102.349 41.2913 102.307 41.1057 102.221 40.9479C102.136 40.79 102.019 40.6684 101.869 40.5831C101.72 40.4977 101.552 40.4551 101.362 40.4551C101.172 40.4551 101.003 40.4977 100.854 40.5831C100.705 40.6684 100.587 40.79 100.502 40.9479C100.417 41.1057 100.374 41.2892 100.374 41.5004C100.374 41.7116 100.417 41.8929 100.502 42.0508C100.587 42.2086 100.707 42.3323 100.856 42.4177C101.005 42.503 101.174 42.5457 101.362 42.5457C101.549 42.5457 101.718 42.503 101.867 42.4177Z" fill="#212121"/>
<path d="M105.351 42.8167H105.001L103.593 40.7218V42.8167H103.243V40.1821H103.593L105.001 42.2727V40.1821H105.351V42.8167Z" fill="#212121"/>
<path d="M106.373 40.186V42.8163H106.023V40.186H106.373Z" fill="#212121"/>
<path d="M107.341 42.5201H108.649V42.8188H106.927V42.5479L108.226 40.4871H106.942V40.1885H108.64V40.4594L107.341 42.5201Z" fill="#212121"/>
<path d="M109.553 40.186V42.8163H109.204V40.186H109.553Z" fill="#212121"/>
<path d="M112.333 42.8167H111.983L110.575 40.7218V42.8167H110.225V40.1821H110.575L111.983 42.2727V40.1821H112.333V42.8167Z" fill="#212121"/>
<path d="M115.034 40.9477C114.959 40.7941 114.853 40.6746 114.712 40.5914C114.571 40.5082 114.407 40.4656 114.219 40.4656C114.031 40.4656 113.863 40.5082 113.713 40.5914C113.564 40.6768 113.447 40.7962 113.359 40.9541C113.274 41.1119 113.231 41.2933 113.231 41.5002C113.231 41.7071 113.274 41.8885 113.359 42.0442C113.445 42.1999 113.564 42.3194 113.713 42.4047C113.863 42.49 114.031 42.5306 114.219 42.5306C114.481 42.5306 114.695 42.4538 114.865 42.3002C115.036 42.1466 115.132 41.9396 115.162 41.6773H114.093V41.3978H115.535V41.6623C115.514 41.8778 115.446 42.0762 115.328 42.2575C115.211 42.4367 115.055 42.5796 114.863 42.6842C114.671 42.7887 114.458 42.8399 114.221 42.8399C113.971 42.8399 113.745 42.7823 113.541 42.6692C113.336 42.554 113.174 42.3962 113.054 42.1914C112.935 41.9866 112.875 41.7583 112.875 41.5002C112.875 41.2421 112.935 41.0117 113.054 40.8069C113.174 40.6021 113.336 40.4421 113.541 40.3269C113.745 40.2117 113.971 40.1562 114.221 40.1562C114.505 40.1562 114.757 40.2245 114.976 40.3632C115.196 40.5018 115.354 40.696 115.454 40.9477H115.036H115.034Z" fill="#212121"/>
<path d="M118.824 40.186V40.4655H118.095V42.8163H117.745V40.4655H117.011V40.186H118.827H118.824Z" fill="#212121"/>
<path d="M120.742 42.8163L120.104 41.7412H119.682V42.8163H119.332V40.186H120.196C120.399 40.186 120.569 40.2202 120.71 40.2884C120.849 40.3567 120.953 40.4484 121.024 40.5636C121.092 40.6788 121.128 40.8111 121.128 40.9604C121.128 41.1417 121.075 41.3017 120.968 41.4404C120.862 41.579 120.702 41.6708 120.49 41.7156L121.162 42.8185H120.744L120.742 42.8163ZM119.682 41.466H120.198C120.388 41.466 120.531 41.4212 120.625 41.3273C120.719 41.2335 120.768 41.1119 120.768 40.9604C120.768 40.8089 120.721 40.6831 120.627 40.5978C120.533 40.5124 120.39 40.4698 120.198 40.4698H119.682V41.466Z" fill="#212121"/>
<path d="M123.33 42.232H122.161L121.945 42.8165H121.576L122.545 40.2012H122.948L123.912 42.8165H123.543L123.328 42.232H123.33ZM123.229 41.9526L122.745 40.6236L122.261 41.9526H123.229Z" fill="#212121"/>
<path d="M126.521 42.8167H126.171L124.763 40.7218V42.8167H124.414V40.1821H124.763L126.171 42.2727V40.1821H126.521V42.8167Z" fill="#212121"/>
<path d="M127.568 42.7503C127.428 42.6885 127.319 42.6031 127.24 42.4943C127.161 42.3856 127.12 42.2576 127.116 42.1146H127.49C127.502 42.2384 127.554 42.3408 127.645 42.4261C127.737 42.5114 127.869 42.5519 128.044 42.5519C128.219 42.5519 128.343 42.5114 128.439 42.4282C128.535 42.3472 128.584 42.2405 128.584 42.1125C128.584 42.0122 128.556 41.9312 128.499 41.8672C128.441 41.8032 128.373 41.7562 128.287 41.7242C128.202 41.6922 128.089 41.656 127.946 41.6176C127.769 41.5728 127.628 41.528 127.522 41.4811C127.415 41.4363 127.325 41.3637 127.248 41.2677C127.172 41.1717 127.135 41.0416 127.135 40.8773C127.135 40.7344 127.172 40.6064 127.246 40.4955C127.321 40.3846 127.426 40.2992 127.56 40.2395C127.694 40.1798 127.848 40.1499 128.023 40.1499C128.275 40.1499 128.479 40.2118 128.639 40.3355C128.799 40.4592 128.889 40.6214 128.91 40.8261H128.526C128.513 40.7259 128.46 40.6363 128.364 40.5595C128.27 40.4827 128.144 40.4443 127.987 40.4443C127.842 40.4443 127.722 40.4806 127.628 40.5552C127.536 40.6299 127.49 40.7323 127.49 40.8667C127.49 40.9627 127.517 41.0395 127.573 41.1013C127.628 41.1611 127.696 41.208 127.778 41.24C127.859 41.272 127.972 41.3083 128.117 41.3467C128.294 41.3936 128.437 41.4427 128.543 41.4875C128.65 41.5344 128.744 41.6048 128.821 41.7029C128.897 41.801 128.936 41.9312 128.936 42.0976C128.936 42.2256 128.902 42.3472 128.831 42.4602C128.761 42.5733 128.659 42.665 128.524 42.7354C128.388 42.8058 128.228 42.8421 128.044 42.8421C127.861 42.8421 127.709 42.8122 127.568 42.7503Z" fill="#212121"/>
<path d="M131.089 41.5026C130.937 41.6476 130.702 41.7202 130.391 41.7202H129.875V42.8188H129.525V40.1885H130.389C130.692 40.1885 130.922 40.261 131.078 40.4039C131.236 40.5469 131.315 40.7325 131.315 40.9586C131.315 41.1847 131.238 41.3596 131.086 41.5047L131.089 41.5026ZM130.822 41.3127C130.914 41.2295 130.961 41.1122 130.961 40.9586C130.961 40.6343 130.771 40.4722 130.391 40.4722H129.875V41.4386H130.391C130.585 41.4386 130.728 41.398 130.822 41.3148V41.3127Z" fill="#212121"/>
<path d="M132.364 42.6715C132.16 42.5563 131.997 42.3963 131.878 42.1916C131.758 41.9868 131.699 41.7564 131.699 41.4982C131.699 41.2401 131.758 41.0097 131.878 40.8049C131.997 40.6001 132.16 40.4402 132.364 40.325C132.569 40.2098 132.795 40.1543 133.045 40.1543C133.294 40.1543 133.525 40.2119 133.73 40.325C133.934 40.4402 134.097 40.598 134.214 40.8028C134.331 41.0076 134.391 41.238 134.391 41.4961C134.391 41.7542 134.331 41.9868 134.214 42.1916C134.097 42.3963 133.934 42.5542 133.73 42.6694C133.525 42.7846 133.297 42.8422 133.045 42.8422C132.793 42.8422 132.569 42.7846 132.364 42.6694V42.6715ZM133.55 42.4177C133.7 42.3323 133.819 42.2108 133.905 42.0508C133.99 41.8908 134.033 41.7094 134.033 41.5004C134.033 41.2913 133.99 41.1057 133.905 40.9479C133.819 40.79 133.702 40.6684 133.553 40.5831C133.403 40.4977 133.235 40.4551 133.045 40.4551C132.855 40.4551 132.686 40.4977 132.537 40.5831C132.388 40.6684 132.27 40.79 132.185 40.9479C132.1 41.1057 132.057 41.2892 132.057 41.5004C132.057 41.7116 132.1 41.8929 132.185 42.0508C132.27 42.2086 132.39 42.3323 132.539 42.4177C132.689 42.503 132.857 42.5457 133.045 42.5457C133.233 42.5457 133.401 42.503 133.55 42.4177Z" fill="#212121"/>
<path d="M136.338 42.8163L135.7 41.7412H135.278V42.8163H134.928V40.186H135.792C135.995 40.186 136.166 40.2202 136.306 40.2884C136.445 40.3567 136.549 40.4484 136.62 40.5636C136.688 40.6788 136.724 40.8111 136.724 40.9604C136.724 41.1417 136.671 41.3017 136.564 41.4404C136.458 41.579 136.298 41.6708 136.087 41.7156L136.759 42.8185H136.34L136.338 42.8163ZM135.278 41.466H135.794C135.984 41.466 136.127 41.4212 136.221 41.3273C136.315 41.2335 136.364 41.1119 136.364 40.9604C136.364 40.8089 136.317 40.6831 136.223 40.5978C136.129 40.5124 135.986 40.4698 135.794 40.4698H135.278V41.466Z" fill="#212121"/>
<path d="M138.99 40.186V40.4655H138.26V42.8163H137.911V40.4655H137.177V40.186H138.992H138.99Z" fill="#212121"/>
<path d="M142.115 40.186V40.4655H140.95V41.3529H141.895V41.6324H140.95V42.8185H140.601V40.1882H142.115V40.186Z" fill="#212121"/>
<path d="M143.15 42.6715C142.945 42.5563 142.783 42.3963 142.664 42.1916C142.544 41.9868 142.484 41.7564 142.484 41.4982C142.484 41.2401 142.544 41.0097 142.664 40.8049C142.783 40.6001 142.945 40.4402 143.15 40.325C143.355 40.2098 143.581 40.1543 143.83 40.1543C144.08 40.1543 144.31 40.2119 144.515 40.325C144.72 40.4402 144.882 40.598 144.999 40.8028C145.117 41.0076 145.177 41.238 145.177 41.4961C145.177 41.7542 145.117 41.9868 144.999 42.1916C144.882 42.3963 144.72 42.5542 144.515 42.6694C144.31 42.7846 144.082 42.8422 143.83 42.8422C143.579 42.8422 143.355 42.7846 143.15 42.6694V42.6715ZM144.336 42.4177C144.485 42.3323 144.605 42.2108 144.69 42.0508C144.775 41.8908 144.818 41.7094 144.818 41.5004C144.818 41.2913 144.775 41.1057 144.69 40.9479C144.605 40.79 144.487 40.6684 144.338 40.5831C144.189 40.4977 144.02 40.4551 143.83 40.4551C143.641 40.4551 143.472 40.4977 143.323 40.5831C143.173 40.6684 143.056 40.79 142.971 40.9479C142.885 41.1057 142.843 41.2892 142.843 41.5004C142.843 41.7116 142.885 41.8929 142.971 42.0508C143.056 42.2086 143.176 42.3323 143.325 42.4177C143.474 42.503 143.643 42.5457 143.83 42.5457C144.018 42.5457 144.187 42.503 144.336 42.4177Z" fill="#212121"/>
<path d="M147.124 42.8163L146.486 41.7412H146.064V42.8163H145.714V40.186H146.578C146.78 40.186 146.951 40.2202 147.092 40.2884C147.231 40.3567 147.335 40.4484 147.406 40.5636C147.474 40.6788 147.51 40.8111 147.51 40.9604C147.51 41.1417 147.457 41.3017 147.35 41.4404C147.243 41.579 147.083 41.6708 146.872 41.7156L147.544 42.8185H147.126L147.124 42.8163ZM146.064 41.466H146.58C146.77 41.466 146.913 41.4212 147.007 41.3273C147.1 41.2335 147.15 41.1119 147.15 40.9604C147.15 40.8089 147.103 40.6831 147.009 40.5978C146.915 40.5124 146.772 40.4698 146.58 40.4698H146.064V41.466Z" fill="#212121"/>
<path d="M150.793 41.5026C150.642 41.6476 150.407 41.7202 150.096 41.7202H149.579V42.8188H149.229V40.1885H150.093C150.396 40.1885 150.627 40.261 150.783 40.4039C150.94 40.5469 151.019 40.7325 151.019 40.9586C151.019 41.1847 150.942 41.3596 150.791 41.5047L150.793 41.5026ZM150.527 41.3127C150.618 41.2295 150.665 41.1122 150.665 40.9586C150.665 40.6343 150.475 40.4722 150.096 40.4722H149.579V41.4386H150.096C150.29 41.4386 150.433 41.398 150.527 41.3148V41.3127Z" fill="#212121"/>
<path d="M151.877 40.186V41.85C151.877 42.0846 151.935 42.2574 152.052 42.3705C152.169 42.4835 152.332 42.5411 152.539 42.5411C152.745 42.5411 152.903 42.4857 153.021 42.3705C153.138 42.2574 153.196 42.0846 153.196 41.85V40.186H153.545V41.8457C153.545 42.0654 153.501 42.2489 153.411 42.3982C153.321 42.5475 153.2 42.6585 153.048 42.7331C152.897 42.8057 152.724 42.8419 152.534 42.8419C152.344 42.8419 152.174 42.8057 152.02 42.7331C151.869 42.6606 151.747 42.5497 151.66 42.3982C151.57 42.2489 151.527 42.0633 151.527 41.8457V40.186H151.877Z" fill="#212121"/>
<path d="M155.815 41.5794C155.896 41.6412 155.96 41.7202 156.007 41.814C156.054 41.9079 156.078 42.006 156.078 42.1127C156.078 42.2449 156.043 42.3665 155.973 42.4732C155.905 42.5799 155.802 42.6652 155.67 42.727C155.538 42.7889 155.382 42.8188 155.203 42.8188H154.205V40.1885H155.165C155.346 40.1885 155.502 40.2183 155.63 40.2781C155.758 40.3378 155.854 40.4167 155.918 40.517C155.982 40.6173 156.014 40.7303 156.014 40.8562C156.014 41.0119 155.971 41.142 155.886 41.2423C155.8 41.3426 155.687 41.4172 155.546 41.4642C155.645 41.4791 155.732 41.5175 155.813 41.5815L155.815 41.5794ZM154.557 41.3234H155.145C155.31 41.3234 155.435 41.285 155.525 41.2103C155.615 41.1356 155.659 41.0311 155.659 40.8967C155.659 40.7623 155.615 40.6578 155.525 40.5831C155.435 40.5085 155.305 40.4701 155.137 40.4701H154.557V41.3234ZM155.583 42.4135C155.681 42.3324 155.728 42.2215 155.728 42.0785C155.728 41.9356 155.677 41.8183 155.574 41.7329C155.472 41.6498 155.335 41.6071 155.162 41.6071H154.554V42.5351H155.173C155.348 42.5351 155.482 42.4945 155.581 42.4135H155.583Z" fill="#212121"/>
<path d="M156.989 42.5369H157.927V42.8163H156.639V40.186H156.989V42.5369Z" fill="#212121"/>
<path d="M158.727 40.186V42.8163H158.377V40.186H158.727Z" fill="#212121"/>
<path d="M159.446 40.8068C159.563 40.602 159.725 40.442 159.928 40.3247C160.133 40.2095 160.359 40.1519 160.606 40.1519C160.898 40.1519 161.152 40.2201 161.372 40.3588C161.59 40.4974 161.75 40.6937 161.848 40.9476H161.43C161.355 40.7897 161.248 40.6681 161.11 40.5806C160.969 40.4953 160.802 40.4526 160.608 40.4526C160.414 40.4526 160.254 40.4953 160.105 40.5806C159.955 40.666 159.84 40.7876 159.755 40.9454C159.67 41.1033 159.629 41.2867 159.629 41.4979C159.629 41.7091 159.672 41.8905 159.755 42.0462C159.84 42.204 159.955 42.3256 160.105 42.411C160.254 42.4963 160.421 42.539 160.608 42.539C160.796 42.539 160.971 42.4963 161.11 42.4131C161.248 42.3299 161.357 42.2083 161.43 42.0483H161.848C161.747 42.3 161.59 42.4942 161.372 42.6307C161.154 42.7672 160.898 42.8355 160.606 42.8355C160.357 42.8355 160.13 42.7779 159.928 42.6648C159.723 42.5496 159.563 42.3918 159.446 42.187C159.328 41.9822 159.269 41.7539 159.269 41.4958C159.269 41.2377 159.328 41.0073 159.446 40.8025V40.8068Z" fill="#212121"/>
<path d="M165.577 40.9477C165.502 40.7941 165.395 40.6746 165.255 40.5914C165.114 40.5082 164.95 40.4656 164.762 40.4656C164.574 40.4656 164.406 40.5082 164.256 40.5914C164.107 40.6768 163.99 40.7962 163.902 40.9541C163.817 41.1119 163.774 41.2933 163.774 41.5002C163.774 41.7071 163.817 41.8885 163.902 42.0442C163.988 42.1999 164.107 42.3194 164.256 42.4047C164.406 42.49 164.574 42.5306 164.762 42.5306C165.024 42.5306 165.238 42.4538 165.408 42.3002C165.579 42.1466 165.675 41.9396 165.705 41.6773H164.636V41.3978H166.078V41.6623C166.057 41.8778 165.989 42.0762 165.871 42.2575C165.754 42.4367 165.598 42.5796 165.406 42.6842C165.214 42.7887 165.001 42.8399 164.764 42.8399C164.514 42.8399 164.288 42.7823 164.084 42.6692C163.879 42.554 163.717 42.3962 163.597 42.1914C163.478 41.9866 163.418 41.7583 163.418 41.5002C163.418 41.2421 163.478 41.0117 163.597 40.8069C163.717 40.6021 163.879 40.4421 164.084 40.3269C164.288 40.2117 164.514 40.1562 164.764 40.1562C165.048 40.1562 165.299 40.2245 165.519 40.3632C165.739 40.5018 165.897 40.696 165.997 40.9477H165.579H165.577Z" fill="#212121"/>
<path d="M167.149 42.6715C166.944 42.5563 166.782 42.3963 166.663 42.1916C166.543 41.9868 166.483 41.7564 166.483 41.4982C166.483 41.2401 166.543 41.0097 166.663 40.8049C166.782 40.6001 166.944 40.4402 167.149 40.325C167.354 40.2098 167.58 40.1543 167.829 40.1543C168.079 40.1543 168.309 40.2119 168.514 40.325C168.719 40.4402 168.881 40.598 168.998 40.8028C169.116 41.0076 169.176 41.238 169.176 41.4961C169.176 41.7542 169.116 41.9868 168.998 42.1916C168.881 42.3963 168.719 42.5542 168.514 42.6694C168.309 42.7846 168.081 42.8422 167.829 42.8422C167.578 42.8422 167.354 42.7846 167.149 42.6694V42.6715ZM168.335 42.4177C168.484 42.3323 168.604 42.2108 168.689 42.0508C168.775 41.8908 168.817 41.7094 168.817 41.5004C168.817 41.2913 168.775 41.1057 168.689 40.9479C168.604 40.79 168.487 40.6684 168.337 40.5831C168.188 40.4977 168.019 40.4551 167.829 40.4551C167.64 40.4551 167.471 40.4977 167.322 40.5831C167.172 40.6684 167.055 40.79 166.97 40.9479C166.884 41.1057 166.842 41.2892 166.842 41.5004C166.842 41.7116 166.884 41.8929 166.97 42.0508C167.055 42.2086 167.175 42.3323 167.324 42.4177C167.473 42.503 167.642 42.5457 167.829 42.5457C168.017 42.5457 168.186 42.503 168.335 42.4177Z" fill="#212121"/>
<path d="M170.247 42.6715C170.042 42.5563 169.88 42.3963 169.76 42.1916C169.641 41.9868 169.581 41.7564 169.581 41.4982C169.581 41.2401 169.641 41.0097 169.76 40.8049C169.88 40.6001 170.042 40.4402 170.247 40.325C170.451 40.2098 170.678 40.1543 170.927 40.1543C171.177 40.1543 171.407 40.2119 171.612 40.325C171.817 40.4402 171.979 40.598 172.096 40.8028C172.213 41.0076 172.273 41.238 172.273 41.4961C172.273 41.7542 172.213 41.9868 172.096 42.1916C171.979 42.3963 171.817 42.5542 171.612 42.6694C171.407 42.7846 171.179 42.8422 170.927 42.8422C170.675 42.8422 170.451 42.7846 170.247 42.6694V42.6715ZM171.433 42.4177C171.582 42.3323 171.701 42.2108 171.787 42.0508C171.872 41.8908 171.915 41.7094 171.915 41.5004C171.915 41.2913 171.872 41.1057 171.787 40.9479C171.701 40.79 171.584 40.6684 171.435 40.5831C171.286 40.4977 171.117 40.4551 170.927 40.4551C170.737 40.4551 170.569 40.4977 170.419 40.5831C170.27 40.6684 170.153 40.79 170.067 40.9479C169.982 41.1057 169.939 41.2892 169.939 41.5004C169.939 41.7116 169.982 41.8929 170.067 42.0508C170.153 42.2086 170.272 42.3323 170.422 42.4177C170.571 42.503 170.739 42.5457 170.927 42.5457C171.115 42.5457 171.283 42.503 171.433 42.4177Z" fill="#212121"/>
<path d="M174.404 40.3462C174.617 40.4529 174.782 40.6065 174.897 40.8049C175.012 41.0033 175.068 41.2379 175.068 41.5067C175.068 41.7755 175.01 42.0101 174.897 42.2064C174.784 42.4048 174.62 42.5541 174.404 42.6587C174.189 42.7632 173.937 42.8144 173.645 42.8144H172.811V40.1841H173.645C173.937 40.1841 174.191 40.2374 174.404 40.3441V40.3462ZM174.436 42.264C174.617 42.0848 174.709 41.831 174.709 41.5067C174.709 41.1824 174.617 40.9243 174.434 40.7409C174.251 40.5574 173.988 40.4657 173.645 40.4657H173.16V42.5349H173.645C173.99 42.5349 174.255 42.4453 174.436 42.2661V42.264Z" fill="#212121"/>
<path d="M175.718 42.7715C175.671 42.7267 175.65 42.6713 175.65 42.6051C175.65 42.539 175.673 42.4835 175.718 42.4387C175.765 42.394 175.821 42.3705 175.887 42.3705C175.953 42.3705 176.006 42.394 176.051 42.4387C176.096 42.4835 176.119 42.539 176.119 42.6051C176.119 42.6713 176.096 42.7267 176.051 42.7715C176.006 42.8163 175.951 42.8398 175.887 42.8398C175.823 42.8398 175.763 42.8163 175.718 42.7715ZM176.059 40.186L176.017 42.074H175.725L175.682 40.186H176.059Z" fill="#212121"/>
<path d="M81.6436 16.3857V18.6001C81.6436 18.8432 81.7076 19.0288 81.8378 19.1568C81.9658 19.2848 82.1471 19.3488 82.3796 19.3488C82.6121 19.3488 82.7999 19.2848 82.9279 19.1568C83.0558 19.0288 83.122 18.8432 83.122 18.6001V16.3857H83.8579V18.5958C83.8579 18.9008 83.7918 19.1568 83.6574 19.368C83.523 19.5792 83.3438 19.7371 83.1198 19.8416C82.8959 19.9461 82.6463 19.9995 82.3711 19.9995C82.0959 19.9995 81.8527 19.9461 81.633 19.8416C81.4111 19.7349 81.2362 19.5771 81.1082 19.368C80.9802 19.1568 80.9141 18.9008 80.9141 18.5958V16.3857H81.6458H81.6436Z" fill="white"/>
<path d="M87.3436 18.03C87.2519 18.1985 87.1068 18.3329 86.9105 18.4353C86.7143 18.5377 86.4668 18.5889 86.166 18.5889H85.5559V19.9627H84.8242V16.3853H86.166C86.4476 16.3853 86.6887 16.4322 86.8871 16.5282C87.0855 16.6242 87.2348 16.7564 87.3329 16.9228C87.4311 17.0914 87.4822 17.2791 87.4822 17.4924C87.4822 17.6844 87.4353 17.8636 87.3436 18.03ZM86.5842 17.8743C86.6823 17.7847 86.7292 17.6567 86.7292 17.4924C86.7292 17.1447 86.5308 16.9698 86.134 16.9698H85.5538V18.0108H86.134C86.3367 18.0108 86.486 17.966 86.5842 17.8743Z" fill="white"/>
<path d="M88.8306 19.8711C88.628 19.7858 88.4658 19.662 88.3485 19.502C88.2312 19.3421 88.1693 19.1522 88.165 18.9325H88.9479C88.9586 19.0797 89.0119 19.1949 89.1079 19.2802C89.2039 19.3655 89.3362 19.4082 89.5026 19.4082C89.669 19.4082 89.8076 19.3676 89.9036 19.2887C89.9996 19.2098 90.0508 19.1031 90.0508 18.973C90.0508 18.8663 90.0167 18.7789 89.9527 18.7106C89.8866 18.6423 89.8034 18.589 89.7052 18.5485C89.6071 18.5101 89.4685 18.4653 89.2957 18.4184C89.0589 18.3501 88.8669 18.2818 88.7197 18.2157C88.5725 18.1496 88.4445 18.0472 88.3378 17.9128C88.2312 17.7784 88.1778 17.5971 88.1778 17.3709C88.1778 17.1597 88.2312 16.9741 88.34 16.8184C88.4488 16.6606 88.5981 16.5411 88.7944 16.4579C88.9906 16.3747 89.2125 16.332 89.4621 16.332C89.8375 16.332 90.1426 16.4216 90.3772 16.6008C90.6119 16.78 90.742 17.0296 90.7655 17.3517H89.9612C89.9548 17.228 89.9015 17.1277 89.8012 17.0467C89.701 16.9656 89.5709 16.9272 89.4066 16.9272C89.2637 16.9272 89.1506 16.9635 89.0653 17.0339C88.9799 17.1064 88.9373 17.2109 88.9373 17.3453C88.9373 17.4413 88.9693 17.5203 89.0333 17.5843C89.0973 17.6482 89.1783 17.6994 89.2722 17.7378C89.3682 17.7762 89.5026 17.8232 89.6775 17.8744C89.9143 17.9426 90.1063 18.0109 90.2578 18.0792C90.4092 18.1474 90.5372 18.2498 90.6439 18.3864C90.7505 18.5229 90.806 18.7021 90.806 18.9239C90.806 19.1159 90.7548 19.293 90.6545 19.4572C90.5543 19.6215 90.405 19.7516 90.2108 19.8498C90.0167 19.9479 89.7842 19.9948 89.5175 19.9948C89.2637 19.9948 89.0354 19.9522 88.8306 19.8668V19.8711Z" fill="white"/>
<path d="M93.5793 19.9627L92.775 18.5676H92.4295V19.9627H91.6978V16.3853H93.0652C93.3468 16.3853 93.5878 16.4343 93.7862 16.5303C93.9846 16.6284 94.1339 16.7586 94.2321 16.925C94.3302 17.0914 94.3814 17.277 94.3814 17.4817C94.3814 17.7185 94.311 17.9297 94.1723 18.1196C94.0337 18.3094 93.8267 18.4396 93.5516 18.5121L94.424 19.9627H93.5793ZM92.4316 18.03H93.0417C93.2401 18.03 93.3873 17.9831 93.4854 17.8892C93.5835 17.7953 93.6326 17.6652 93.6326 17.4967C93.6326 17.3282 93.5835 17.2044 93.4854 17.1148C93.3873 17.0252 93.2401 16.9783 93.0417 16.9783H92.4316V18.03Z" fill="white"/>
<path d="M97.7858 16.3853V16.9634H96.8151V19.9627H96.0834V16.9634H95.1128V16.3853H97.7858Z" fill="white"/>
<path d="M98.6455 17.2235C98.8077 16.944 99.0274 16.7286 99.309 16.5729C99.5884 16.4171 99.9042 16.3403 100.252 16.3403C100.659 16.3403 101.016 16.4427 101.323 16.6475C101.63 16.8523 101.843 17.136 101.965 17.4987H101.124C101.041 17.328 100.924 17.2 100.772 17.1147C100.621 17.0294 100.446 16.9867 100.248 16.9867C100.034 16.9867 99.8466 17.0358 99.6802 17.1318C99.5159 17.2299 99.3858 17.3664 99.294 17.5435C99.2023 17.7205 99.1554 17.9296 99.1554 18.1685C99.1554 18.4075 99.2023 18.6122 99.294 18.7914C99.3858 18.9706 99.5159 19.1093 99.6802 19.2074C99.8466 19.3056 100.034 19.3525 100.248 19.3525C100.446 19.3525 100.621 19.3098 100.772 19.2224C100.924 19.1349 101.041 19.0069 101.124 18.8362H101.965C101.843 19.201 101.63 19.4869 101.325 19.6895C101.02 19.8922 100.664 19.9946 100.252 19.9946C99.9042 19.9946 99.5906 19.9178 99.309 19.7621C99.0295 19.6063 98.8077 19.3909 98.6455 19.1136C98.4834 18.8362 98.4023 18.5226 98.4023 18.1707C98.4023 17.8187 98.4834 17.503 98.6455 17.2256V17.2235Z" fill="white"/>
<path d="M105.086 16.9632V17.8613H106.313V18.4309H105.086V19.3781H106.47V19.9626H104.356V16.3809H106.47V16.9654H105.086V16.9632Z" fill="white"/>
<path d="M109.274 19.9627L108.469 18.5676H108.124V19.9627H107.392V16.3853H108.759C109.041 16.3853 109.282 16.4343 109.481 16.5303C109.679 16.6284 109.828 16.7586 109.926 16.925C110.025 17.0914 110.076 17.277 110.076 17.4817C110.076 17.7185 110.005 17.9297 109.867 18.1196C109.728 18.3094 109.521 18.4396 109.246 18.5121L110.118 19.9627H109.274ZM108.126 18.03H108.736C108.934 18.03 109.082 17.9831 109.18 17.8892C109.278 17.7953 109.327 17.6652 109.327 17.4967C109.327 17.3282 109.278 17.2044 109.18 17.1148C109.082 17.0252 108.934 16.9783 108.736 16.9783H108.126V18.03Z" fill="white"/>
<path d="M113.518 18.03C113.427 18.1985 113.282 18.3329 113.085 18.4353C112.889 18.5377 112.642 18.5889 112.341 18.5889H111.731V19.9627H110.999V16.3853H112.341C112.622 16.3853 112.863 16.4322 113.062 16.5282C113.26 16.6242 113.41 16.7564 113.508 16.9228C113.606 17.0914 113.657 17.2791 113.657 17.4924C113.657 17.6844 113.61 17.8636 113.518 18.03ZM112.759 17.8743C112.857 17.7847 112.904 17.6567 112.904 17.4924C112.904 17.1447 112.706 16.9698 112.309 16.9698H111.729V18.0108H112.309C112.512 18.0108 112.661 17.966 112.759 17.8743Z" fill="white"/>
<path d="M8.43046 41.0334C6.3612 42.0169 4.24075 43.3203 2.11816 45.0226L9.42029 46.4306C9.42029 46.4306 13.2345 43.3054 19.0242 41.4046C18.9794 41.3705 18.9389 41.3278 18.8962 41.2873C18.7298 41.1209 18.5719 40.931 18.4226 40.7241C17.6781 40.7455 15.8179 40.7924 14.2265 40.7924C13.1641 40.7924 12.4538 40.9118 12.057 40.8862L8.42832 41.0356L8.43046 41.0334Z" fill="#DDDDDD"/>
<path d="M13.7573 46.9552L21.9853 48.5402C21.9853 48.5402 32.5875 39.8536 45.7732 41.4621C45.7732 41.4621 29.8399 34.064 13.7573 46.9573V46.9552Z" fill="#DDDDDD"/>
<path d="M32.9567 8.33045L33.3748 5.72362C33.426 5.00258 32.4618 4.3882 31.6106 4.465C27.5169 4.83619 15.1867 6.25053 10.6344 6.66225C9.40989 6.77318 8.45206 7.59235 8.34113 8.62484C7.83129 13.3969 7.78862 18.2202 7.27877 22.971C7.16998 23.9821 7.89955 24.9378 9.04724 25.2578C10.613 25.6951 12.4476 25.8786 15.5963 25.9789C19.4063 26.1004 26.2263 25.4989 28.9611 24.6477C29.919 24.349 30.6805 23.8307 30.7445 22.9688L32.7711 9.65094L32.9567 8.32832V8.33045ZM15.3638 25.117L9.05577 16.7995L9.1987 14.8091L17.032 25.1597L15.3638 25.117ZM17.9813 25.0381L9.38216 13.9452L10.0093 9.17735L22.0195 24.8781C22.0195 24.8781 18.7343 25.1639 17.9813 25.0381Z" fill="#DDDDDD"/>
<path d="M37.7628 0.0042666C36.389 8.8914 35.092 17.4863 33.6713 26.0619C33.5582 26.7425 32.6729 27.6405 31.986 27.8176C29.1402 28.5514 26.2412 29.4794 23.3463 29.5391C17.7508 29.6522 12.1446 29.2597 6.54484 29.0037C4.54172 28.912 3.78868 27.792 4.10227 25.7505C4.71878 21.7442 5.19662 17.7145 5.7342 13.6955C5.907 13.7189 6.07979 13.7403 6.25472 13.7637C6.04779 16.4922 5.7342 19.2163 5.65954 21.9469C5.54008 26.3563 6.62377 27.5104 10.9415 27.7664C17.066 28.1312 23.1586 27.9989 29.1936 26.6678C31.4356 26.1729 32.4596 25.0081 32.7689 22.685C33.4985 17.1833 34.4904 11.718 35.3736 6.23763C35.4248 5.91551 35.4611 5.58912 35.5059 5.26273C32.6196 4.89155 31.3588 5.74058 30.962 8.34955C30.7402 9.80656 30.6079 11.2849 30.5439 12.7568C30.465 14.5509 29.2597 14.7898 27.9136 14.7002C26.3073 14.5936 26.5526 13.4118 26.7467 12.343C26.911 11.4449 27.0838 10.5447 27.2971 9.65723C28.3637 5.2094 29.4666 4.29424 34.0083 4.02118C34.4606 3.99345 34.9086 3.88465 35.5187 3.78652C33.2681 2.09272 25.8422 2.69003 9.96018 5.2222C11.2124 4.52036 12.3921 3.44307 13.7296 3.18495C19.3038 2.11192 24.9143 1.20529 30.5354 0.407452C33.0164 0.0554649 35.5549 0.113062 37.765 0L37.7628 0.0042666Z" fill="black"/>
<path d="M5.41834 36.3593C6.20124 38.0851 7.45986 38.5373 9.0406 38.5821C17.3133 38.821 25.5861 39.0685 33.8354 39.3138C33.2807 40.5895 32.1267 41.558 29.9891 41.5239C23.8774 41.43 17.7613 41.5153 11.656 41.3041C6.67695 41.1313 4.01466 38.484 3.95492 34.1108C3.93572 32.7626 3.95279 31.4165 3.95279 29.6353C4.57997 30.1216 4.94262 30.2624 5.01088 30.4779C6.11164 33.8847 8.0529 35.3012 11.9354 35.474C12.3557 35.4932 12.7845 35.4612 13.1983 35.5166C20.4364 36.4659 27.0367 35.491 32.372 30.6016C32.596 30.3968 32.9352 30.2902 33.6285 29.9211C33.381 31.8944 33.2423 33.537 32.9501 35.1561C32.677 36.6686 31.2392 36.7923 29.8867 36.916C22.2966 37.6136 14.7278 37.4067 7.17613 36.5001C6.70469 36.4446 6.22897 36.4211 5.42047 36.3571L5.41834 36.3593Z" fill="black"/>
<path d="M66.2758 21.3562C63.0546 21.0746 59.9102 20.8357 56.7786 20.4816C56.4223 20.441 55.9424 19.7968 55.8592 19.3659C55.569 17.8747 55.4304 16.3559 55.2341 14.8477C54.6624 18.1734 55.1829 21.7679 51.646 23.9908C51.7783 24.0868 51.9105 24.1849 52.0428 24.2809C52.3329 24.0953 52.655 23.9438 52.911 23.7199C54.56 22.2671 56.4757 21.7295 58.658 21.8106C61.459 21.9151 64.262 21.9002 67.0651 21.9215C69.0725 21.9365 71.0821 21.9237 72.9892 21.9237C72.0719 21.8319 71.0458 21.7103 70.0176 21.6293L66.2737 21.3562H66.2758Z" fill="#7C7C7C"/>
<path d="M6.81136 9.88316C4.08506 10.3141 3.36616 12.2852 2.96937 14.5464C2.82431 15.3699 2.68778 16.2274 2.33153 16.9634C2.1566 17.3239 1.47396 17.6269 1.03878 17.6077C0.710259 17.5927 0.215345 17.0658 0.123615 16.6882C-0.748885 13.0852 3.1571 8.98506 6.81136 9.88316Z" fill="black"/>
<path d="M73.7507 15.3061C62.3954 10.406 54.5088 6.26534 42.7844 1.25647C41.033 0.507695 40.1349 0.936478 39.7723 2.74974C38.808 7.56663 37.7585 12.3686 36.8988 17.2047C36.4103 19.9608 36.2268 22.7703 35.9175 25.4625C37.5644 19.4872 39.1259 13.448 40.92 7.47916C41.8714 4.30915 42.6778 4.04889 45.7134 5.19018C54.257 8.40073 58.515 10.743 67.0587 13.9515C69.2837 14.7877 71.5172 15.6026 73.7507 16.4154V15.3061Z" fill="black"/>
<path d="M43.894 36.9244C43.0769 36.5895 42.4263 36.0903 41.9378 35.4311C41.4493 34.772 41.1911 33.9784 41.1655 33.0504H44.8177C44.871 33.5752 45.0523 33.9763 45.3595 34.2515C45.6667 34.5266 46.0677 34.6653 46.5627 34.6653C47.0576 34.6653 47.4714 34.548 47.7658 34.3112C48.0602 34.0765 48.2074 33.7501 48.2074 33.332C48.2074 32.9822 48.0901 32.6942 47.8554 32.4638C47.6207 32.2355 47.3328 32.0478 46.9936 31.8985C46.6523 31.7513 46.168 31.5828 45.5387 31.3929C44.6299 31.1113 43.8876 30.8276 43.3116 30.546C42.7356 30.2623 42.2407 29.8463 41.8268 29.2938C41.413 28.7434 41.2039 28.0224 41.2039 27.1349C41.2039 25.8166 41.6796 24.7841 42.6289 24.0374C43.5782 23.2908 44.8155 22.9175 46.3408 22.9175C47.8661 22.9175 49.1439 23.2908 50.0932 24.0374C51.0425 24.7841 51.5502 25.823 51.6185 27.1563H47.9066C47.8789 26.6997 47.7125 26.3392 47.4053 26.0768C47.0981 25.8144 46.7035 25.6843 46.2213 25.6843C45.8075 25.6843 45.4726 25.7952 45.2187 26.0171C44.9648 26.239 44.8369 26.5589 44.8369 26.9749C44.8369 27.4314 45.0502 27.7898 45.479 28.0437C45.9077 28.2997 46.5755 28.5749 47.4864 28.8714C48.3951 29.1807 49.1354 29.4772 49.7028 29.7588C50.2702 30.0425 50.763 30.4521 51.1769 30.9897C51.5907 31.5273 51.7998 32.2206 51.7998 33.0675C51.7998 33.9144 51.595 34.6077 51.1875 35.2669C50.7801 35.9261 50.1871 36.4508 49.4127 36.8412C48.6362 37.2316 47.721 37.4257 46.6629 37.4257C45.6048 37.4257 44.7089 37.2572 43.894 36.9201V36.9244Z" fill="#212121"/>
<path d="M64.9619 26.0259V37.2873H61.5316V35.7535C61.1839 36.2506 60.7125 36.6516 60.1173 36.9545C59.5221 37.2575 58.8629 37.4089 58.1419 37.4089C57.2865 37.4089 56.5292 37.2169 55.8743 36.8329C55.2193 36.4489 54.7095 35.8943 54.349 35.169C53.9885 34.4437 53.8071 33.5883 53.8071 32.6048V26.0259H57.2182V32.1419C57.2182 32.895 57.4123 33.4816 57.8006 33.8976C58.1888 34.3157 58.7093 34.5226 59.3664 34.5226C60.0234 34.5226 60.5631 34.3136 60.9514 33.8976C61.3396 33.4816 61.5338 32.895 61.5338 32.1419V26.0259H64.964H64.9619Z" fill="#212121"/>
<path d="M73.7593 26.348C74.3544 26.6701 74.8131 27.0946 75.1331 27.6194V26.0258H78.5633V37.2681C78.5633 38.3048 78.3585 39.2435 77.9511 40.084C77.5436 40.9245 76.9207 41.5943 76.0845 42.0914C75.2483 42.5884 74.2094 42.838 72.9657 42.838C71.306 42.838 69.9621 42.4434 68.9338 41.6562C67.9035 40.869 67.3147 39.8024 67.1675 38.4584H70.5594C70.666 38.8894 70.9199 39.2285 71.3209 39.4781C71.722 39.7277 72.2169 39.8515 72.8057 39.8515C73.5139 39.8515 74.0792 39.6467 74.5016 39.2371C74.924 38.8254 75.1331 38.1704 75.1331 37.2702V35.6767C74.7981 36.2015 74.3374 36.6281 73.7486 36.9588C73.1598 37.2894 72.4708 37.4537 71.6815 37.4537C70.7578 37.4537 69.9215 37.2148 69.1728 36.7369C68.424 36.2591 67.8309 35.5807 67.3979 34.6996C66.9627 33.8186 66.7451 32.7989 66.7451 31.6427C66.7451 30.4865 66.9627 29.471 67.3979 28.5943C67.8331 27.7196 68.424 27.0477 69.1728 26.5762C69.9215 26.1048 70.7578 25.8701 71.6815 25.8701C72.4708 25.8701 73.1619 26.0322 73.7571 26.3544L73.7593 26.348ZM74.4206 29.6182C73.9448 29.1212 73.3667 28.8716 72.6841 28.8716C72.0014 28.8716 71.4233 29.1169 70.9476 29.6076C70.4719 30.0982 70.2351 30.7745 70.2351 31.6363C70.2351 32.4981 70.4719 33.1808 70.9476 33.6842C71.4212 34.1898 72.0014 34.4415 72.6841 34.4415C73.3667 34.4415 73.9448 34.1919 74.4206 33.6949C74.8963 33.1978 75.1331 32.5173 75.1331 31.6576C75.1331 30.7979 74.8963 30.1174 74.4206 29.6182Z" fill="#212121"/>
<path d="M81.0234 28.5874C81.4586 27.7128 82.0495 27.0408 82.7982 26.5694C83.547 26.0979 84.3833 25.8633 85.307 25.8633C86.0963 25.8633 86.7874 26.0254 87.3826 26.3475C87.9778 26.6697 88.4364 27.0942 88.7564 27.6189V26.0254H92.1867V37.2868H88.7564V35.6933C88.4215 36.2181 87.9565 36.6426 87.3613 36.9647C86.7661 37.2868 86.0728 37.449 85.2856 37.449C84.3747 37.449 83.547 37.21 82.7982 36.7322C82.0495 36.2544 81.4564 35.576 81.0234 34.6949C80.5882 33.8139 80.3706 32.7942 80.3706 31.638C80.3706 30.4818 80.5882 29.4663 81.0234 28.5896V28.5874ZM88.046 29.6157C87.5703 29.1186 86.9922 28.869 86.3096 28.869C85.6269 28.869 85.0488 29.1144 84.5731 29.605C84.0974 30.0957 83.8606 30.7719 83.8606 31.6337C83.8606 32.4956 84.0974 33.1782 84.5731 33.6817C85.0467 34.1872 85.6269 34.439 86.3096 34.439C86.9922 34.439 87.5703 34.1894 88.046 33.6923C88.5218 33.1953 88.7586 32.5148 88.7586 31.6551C88.7586 30.7954 88.5218 30.1149 88.046 29.6157Z" fill="#212121"/>
<path d="M112.282 27.1752C113.105 28.0221 113.515 29.1997 113.515 30.7079V37.2868H110.104V31.1708C110.104 30.4434 109.914 29.8823 109.532 29.4855C109.15 29.0888 108.625 28.8904 107.958 28.8904C107.29 28.8904 106.763 29.0888 106.383 29.4855C106.002 29.8823 105.812 30.4434 105.812 31.1708V37.2868H102.401V31.1708C102.401 30.4434 102.211 29.8823 101.829 29.4855C101.447 29.0888 100.922 28.8904 100.255 28.8904C99.5868 28.8904 99.0599 29.0888 98.6802 29.4855C98.2984 29.8823 98.1085 30.4434 98.1085 31.1708V37.2868H94.6782V26.0254H98.1085V27.4376C98.4562 26.9662 98.9106 26.5928 99.4738 26.3177C100.037 26.0425 100.671 25.9038 101.381 25.9038C102.224 25.9038 102.977 26.0851 103.638 26.4478C104.299 26.8104 104.818 27.3288 105.193 28.0029C105.581 27.3843 106.108 26.8787 106.778 26.4883C107.446 26.0979 108.175 25.9038 108.965 25.9038C110.355 25.9038 111.463 26.3283 112.286 27.1752H112.282Z" fill="#212121"/>
<path d="M132.255 23.1201L127.381 32.6046V37.287H123.951V32.6046L119.076 23.1201H122.969L125.698 29.0527L128.407 23.1201H132.26H132.255Z" fill="#212121"/>
<path d="M133.61 28.5874C134.045 27.7128 134.636 27.0408 135.385 26.5694C136.133 26.0979 136.97 25.8633 137.893 25.8633C138.683 25.8633 139.374 26.0254 139.969 26.3475C140.564 26.6697 141.023 27.0942 141.343 27.6189V26.0254H144.773V37.2868H141.343V35.6933C141.008 36.2181 140.543 36.6426 139.948 36.9647C139.353 37.2868 138.659 37.449 137.872 37.449C136.961 37.449 136.133 37.21 135.385 36.7322C134.636 36.2544 134.043 35.576 133.61 34.6949C133.175 33.8139 132.957 32.7942 132.957 31.638C132.957 30.4818 133.175 29.4663 133.61 28.5896V28.5874ZM140.632 29.6157C140.157 29.1186 139.579 28.869 138.896 28.869C138.213 28.869 137.635 29.1144 137.16 29.605C136.684 30.0957 136.447 30.7719 136.447 31.6337C136.447 32.4956 136.684 33.1782 137.16 33.6817C137.633 34.1872 138.213 34.439 138.896 34.439C139.579 34.439 140.157 34.1894 140.632 33.6923C141.108 33.1953 141.345 32.5148 141.345 31.6551C141.345 30.7954 141.108 30.1149 140.632 29.6157Z" fill="#212121"/>
<path d="M153.503 34.3604V37.2872H151.758C150.514 37.2872 149.543 36.9822 148.848 36.3699C148.152 35.7577 147.805 34.7593 147.805 33.3727V28.8929H146.439V26.0258H147.805V23.2803H151.235V26.0258H153.481V28.8929H151.235V33.4132C151.235 33.7503 151.316 33.9913 151.476 34.1407C151.636 34.29 151.905 34.3625 152.278 34.3625H153.503V34.3604Z" fill="#212121"/>
<path d="M160.346 26.4393C160.947 26.083 161.617 25.9038 162.353 25.9038V29.5559H161.41C160.555 29.5559 159.913 29.7415 159.484 30.1106C159.055 30.4818 158.842 31.1303 158.842 32.0582V37.2847H155.412V26.0233H158.842V27.9005C159.243 27.2819 159.744 26.7934 160.346 26.4371V26.4393Z" fill="#212121"/>
<path d="M163.966 28.5874C164.401 27.7128 164.992 27.0408 165.741 26.5694C166.49 26.0979 167.326 25.8633 168.25 25.8633C169.039 25.8633 169.73 26.0254 170.325 26.3475C170.921 26.6697 171.379 27.0942 171.699 27.6189V26.0254H175.13V37.2868H171.699V35.6933C171.364 36.2181 170.899 36.6426 170.304 36.9647C169.709 37.2868 169.016 37.449 168.228 37.449C167.318 37.449 166.49 37.21 165.741 36.7322C164.992 36.2544 164.399 35.576 163.966 34.6949C163.531 33.8139 163.313 32.7942 163.313 31.638C163.313 30.4818 163.531 29.4663 163.966 28.5896V28.5874ZM170.989 29.6157C170.513 29.1186 169.935 28.869 169.252 28.869C168.57 28.869 167.992 29.1144 167.516 29.605C167.04 30.0957 166.803 30.7719 166.803 31.6337C166.803 32.4956 167.04 33.1782 167.516 33.6817C167.99 34.1872 168.57 34.439 169.252 34.439C169.935 34.439 170.513 34.1894 170.989 33.6923C171.465 33.1953 171.701 32.5148 171.701 31.6551C171.701 30.7954 171.465 30.1149 170.989 29.6157Z" fill="#212121"/>
</svg>
