<svg width="857" height="185" viewBox="0 0 857 185" fill="none" xmlns="http://www.w3.org/2000/svg">
<g filter="url(#filter0_d_1749_1574)">
<rect x="12" y="8" width="833" height="161" fill="white"/>
</g>
<path d="M38.104 50V38.832H40.344V50H38.104ZM48.7651 50V45.104C48.7651 43.68 47.9811 42.912 46.7971 42.912C45.5811 42.912 44.7971 43.68 44.7971 45.104V50H42.5571V41.136H44.7971V42.24C45.3731 41.488 46.3331 41.008 47.4691 41.008C49.5331 41.008 51.0051 42.352 51.0051 44.8V50H48.7651ZM52.5592 45.568C52.5592 42.784 54.3832 40.992 56.9433 40.992C59.1513 40.992 60.6393 42.144 61.1193 44.128H58.7033C58.4473 43.376 57.8553 42.896 56.9273 42.896C55.6793 42.896 54.8473 43.84 54.8473 45.568C54.8473 47.296 55.6793 48.224 56.9273 48.224C57.8553 48.224 58.4313 47.808 58.7033 47.008H61.1193C60.6393 48.896 59.1513 50.144 56.9433 50.144C54.3832 50.144 52.5592 48.352 52.5592 45.568ZM71.3203 45.568C71.3203 48.352 69.2723 50.144 66.6963 50.144C64.1363 50.144 62.2003 48.352 62.2003 45.568C62.2003 42.768 64.2003 40.992 66.7603 40.992C69.3203 40.992 71.3203 42.768 71.3203 45.568ZM64.4723 45.568C64.4723 47.328 65.4963 48.192 66.6963 48.192C67.8803 48.192 69.0163 47.328 69.0163 45.568C69.0163 43.792 67.9123 42.944 66.7283 42.944C65.5443 42.944 64.4723 43.792 64.4723 45.568ZM85.3634 50V45.104C85.3634 43.696 84.5794 42.96 83.3954 42.96C82.1954 42.96 81.4114 43.696 81.4114 45.104V50H79.1714V45.104C79.1714 43.696 78.3874 42.96 77.2034 42.96C75.9874 42.96 75.2034 43.696 75.2034 45.104V50H72.9634V41.136H75.2034V42.208C75.7634 41.472 76.7074 41.008 77.8114 41.008C79.1874 41.008 80.3234 41.6 80.9314 42.704C81.5074 41.696 82.6754 41.008 83.9714 41.008C86.0994 41.008 87.6034 42.352 87.6034 44.8V50H85.3634ZM91.969 42.416C92.497 41.664 93.521 40.992 94.897 40.992C97.169 40.992 98.945 42.768 98.945 45.536C98.945 48.304 97.169 50.144 94.897 50.144C93.505 50.144 92.513 49.456 91.969 48.736V54.224H89.729V41.136H91.969V42.416ZM96.657 45.536C96.657 43.856 95.521 42.96 94.305 42.96C93.105 42.96 91.969 43.888 91.969 45.568C91.969 47.248 93.105 48.176 94.305 48.176C95.521 48.176 96.657 47.216 96.657 45.536ZM100.573 50V38.16H102.813V50H100.573ZM108.834 42.832C107.762 42.832 106.914 43.52 106.738 44.736H110.946C110.914 43.568 109.986 42.832 108.834 42.832ZM113.042 47.216C112.562 48.848 111.09 50.144 108.898 50.144C106.322 50.144 104.45 48.352 104.45 45.568C104.45 42.768 106.274 40.992 108.898 40.992C111.458 40.992 113.266 42.736 113.266 45.376C113.266 45.664 113.25 45.952 113.202 46.24H106.722C106.834 47.552 107.73 48.288 108.85 48.288C109.81 48.288 110.338 47.808 110.626 47.216H113.042ZM115.253 47.248V42.976H114.197V41.136H115.253V38.944H117.509V41.136H119.493V42.976H117.509V47.264C117.509 47.856 117.749 48.112 118.453 48.112H119.493V50H118.085C116.389 50 115.253 49.28 115.253 47.248ZM124.912 42.832C123.84 42.832 122.992 43.52 122.816 44.736H127.024C126.992 43.568 126.064 42.832 124.912 42.832ZM129.12 47.216C128.64 48.848 127.168 50.144 124.976 50.144C122.4 50.144 120.528 48.352 120.528 45.568C120.528 42.768 122.352 40.992 124.976 40.992C127.536 40.992 129.344 42.736 129.344 45.376C129.344 45.664 129.328 45.952 129.28 46.24H122.8C122.912 47.552 123.808 48.288 124.928 48.288C125.888 48.288 126.416 47.808 126.704 47.216H129.12Z" fill="#002850"/>
<path d="M280.408 108.524V107.636H286.072V108.524H283.792V116H282.7V108.524H280.408ZM287.416 116V107.12H288.508V110.372C288.94 109.676 289.756 109.304 290.68 109.304C292.144 109.304 293.308 110.24 293.308 112.124V116H292.228V112.28C292.228 110.936 291.496 110.252 290.392 110.252C289.276 110.252 288.508 110.948 288.508 112.364V116H287.416ZM297.888 110.24C296.82 110.24 295.932 110.948 295.812 112.232H299.964C299.976 110.948 299.016 110.24 297.888 110.24ZM300.96 113.972C300.624 115.172 299.568 116.108 297.936 116.108C296.064 116.108 294.684 114.788 294.684 112.7C294.684 110.624 296.016 109.316 297.936 109.316C299.844 109.316 301.092 110.66 301.092 112.46C301.092 112.7 301.08 112.892 301.056 113.12H295.8C295.884 114.452 296.82 115.184 297.936 115.184C298.92 115.184 299.544 114.68 299.784 113.972H300.96ZM303.625 112.424V116H302.533V109.424H303.625V110.492C303.997 109.76 304.705 109.304 305.749 109.304V110.432H305.461C304.417 110.432 303.625 110.9 303.625 112.424ZM309.806 110.24C308.738 110.24 307.85 110.948 307.73 112.232H311.882C311.894 110.948 310.934 110.24 309.806 110.24ZM312.878 113.972C312.542 115.172 311.486 116.108 309.854 116.108C307.982 116.108 306.602 114.788 306.602 112.7C306.602 110.624 307.934 109.316 309.854 109.316C311.762 109.316 313.01 110.66 313.01 112.46C313.01 112.7 312.998 112.892 312.974 113.12H307.718C307.802 114.452 308.738 115.184 309.854 115.184C310.838 115.184 311.462 114.68 311.702 113.972H312.878ZM317.243 112.688C317.243 110.636 318.599 109.316 320.363 109.316C321.587 109.316 322.427 109.94 322.811 110.624V109.424H323.915V116H322.811V114.776C322.415 115.484 321.563 116.108 320.351 116.108C318.599 116.108 317.243 114.728 317.243 112.688ZM322.811 112.7C322.811 111.176 321.779 110.264 320.579 110.264C319.379 110.264 318.359 111.14 318.359 112.688C318.359 114.236 319.379 115.148 320.579 115.148C321.779 115.148 322.811 114.248 322.811 112.7ZM326.852 112.424V116H325.76V109.424H326.852V110.492C327.224 109.76 327.932 109.304 328.976 109.304V110.432H328.688C327.644 110.432 326.852 110.9 326.852 112.424ZM333.033 110.24C331.965 110.24 331.076 110.948 330.957 112.232H335.109C335.121 110.948 334.161 110.24 333.033 110.24ZM336.105 113.972C335.769 115.172 334.713 116.108 333.081 116.108C331.209 116.108 329.829 114.788 329.829 112.7C329.829 110.624 331.161 109.316 333.081 109.316C334.989 109.316 336.237 110.66 336.237 112.46C336.237 112.7 336.225 112.892 336.201 113.12H330.945C331.029 114.452 331.965 115.184 333.081 115.184C334.065 115.184 334.689 114.68 334.929 113.972H336.105ZM345.689 116V112.28C345.689 110.936 344.957 110.252 343.853 110.252C342.737 110.252 341.969 110.948 341.969 112.364V116H340.877V109.424H341.969V110.36C342.401 109.676 343.193 109.304 344.081 109.304C345.605 109.304 346.769 110.24 346.769 112.124V116H345.689ZM354.793 112.7C354.793 114.788 353.293 116.108 351.421 116.108C349.561 116.108 348.145 114.788 348.145 112.7C348.145 110.624 349.609 109.316 351.469 109.316C353.341 109.316 354.793 110.624 354.793 112.7ZM349.261 112.7C349.261 114.368 350.281 115.148 351.421 115.148C352.561 115.148 353.677 114.368 353.677 112.7C353.677 111.044 352.585 110.264 351.457 110.264C350.305 110.264 349.261 111.044 349.261 112.7ZM359.428 116V107.636H360.52V116H359.428ZM367.193 116V112.28C367.193 110.936 366.461 110.252 365.357 110.252C364.241 110.252 363.473 110.948 363.473 112.364V116H362.381V109.424H363.473V110.36C363.905 109.676 364.697 109.304 365.585 109.304C367.109 109.304 368.273 110.24 368.273 112.124V116H367.193ZM374.785 114.212C374.785 115.292 373.837 116.108 372.385 116.108C370.849 116.108 369.769 115.268 369.697 114.068H370.825C370.885 114.704 371.449 115.184 372.373 115.184C373.237 115.184 373.717 114.752 373.717 114.212C373.717 112.748 369.829 113.6 369.829 111.152C369.829 110.144 370.777 109.316 372.241 109.316C373.693 109.316 374.653 110.096 374.725 111.38H373.633C373.585 110.72 373.081 110.24 372.205 110.24C371.401 110.24 370.921 110.624 370.921 111.152C370.921 112.712 374.737 111.86 374.785 114.212ZM377.418 110.636C377.814 109.94 378.678 109.316 379.878 109.316C381.642 109.316 382.998 110.636 382.998 112.688C382.998 114.728 381.642 116.108 379.878 116.108C378.678 116.108 377.826 115.46 377.418 114.788V119.12H376.326V109.424H377.418V110.636ZM381.882 112.688C381.882 111.14 380.862 110.264 379.65 110.264C378.462 110.264 377.418 111.176 377.418 112.7C377.418 114.248 378.462 115.148 379.65 115.148C380.862 115.148 381.882 114.236 381.882 112.688ZM387.232 110.24C386.164 110.24 385.276 110.948 385.156 112.232H389.308C389.32 110.948 388.36 110.24 387.232 110.24ZM390.304 113.972C389.968 115.172 388.912 116.108 387.28 116.108C385.408 116.108 384.028 114.788 384.028 112.7C384.028 110.624 385.36 109.316 387.28 109.316C389.188 109.316 390.436 110.66 390.436 112.46C390.436 112.7 390.424 112.892 390.4 113.12H385.144C385.228 114.452 386.164 115.184 387.28 115.184C388.264 115.184 388.888 114.68 389.128 113.972H390.304ZM391.469 112.7C391.469 110.636 392.801 109.316 394.673 109.316C396.305 109.316 397.373 110.156 397.709 111.536H396.533C396.305 110.744 395.645 110.24 394.673 110.24C393.473 110.24 392.585 111.092 392.585 112.7C392.585 114.332 393.473 115.184 394.673 115.184C395.645 115.184 396.293 114.716 396.533 113.888H397.709C397.373 115.196 396.305 116.108 394.673 116.108C392.801 116.108 391.469 114.788 391.469 112.7ZM399.406 114.2V110.324H398.554V109.424H399.406V107.768H400.498V109.424H402.214V110.324H400.498V114.2C400.498 114.848 400.738 115.076 401.41 115.076H402.214V116H401.23C400.066 116 399.406 115.52 399.406 114.2ZM403.537 116V109.424H404.629V116H403.537ZM404.101 108.356C403.681 108.356 403.357 108.032 403.357 107.612C403.357 107.192 403.681 106.868 404.101 106.868C404.497 106.868 404.821 107.192 404.821 107.612C404.821 108.032 404.497 108.356 404.101 108.356ZM412.73 112.7C412.73 114.788 411.23 116.108 409.358 116.108C407.498 116.108 406.082 114.788 406.082 112.7C406.082 110.624 407.546 109.316 409.406 109.316C411.278 109.316 412.73 110.624 412.73 112.7ZM407.198 112.7C407.198 114.368 408.218 115.148 409.358 115.148C410.498 115.148 411.614 114.368 411.614 112.7C411.614 111.044 410.522 110.264 409.394 110.264C408.242 110.264 407.198 111.044 407.198 112.7ZM418.978 116V112.28C418.978 110.936 418.246 110.252 417.142 110.252C416.026 110.252 415.258 110.948 415.258 112.364V116H414.166V109.424H415.258V110.36C415.69 109.676 416.482 109.304 417.37 109.304C418.894 109.304 420.058 110.24 420.058 112.124V116H418.978ZM426.57 114.212C426.57 115.292 425.622 116.108 424.17 116.108C422.634 116.108 421.554 115.268 421.482 114.068H422.61C422.67 114.704 423.234 115.184 424.158 115.184C425.022 115.184 425.502 114.752 425.502 114.212C425.502 112.748 421.614 113.6 421.614 111.152C421.614 110.144 422.562 109.316 424.026 109.316C425.478 109.316 426.438 110.096 426.51 111.38H425.418C425.37 110.72 424.866 110.24 423.99 110.24C423.186 110.24 422.706 110.624 422.706 111.152C422.706 112.712 426.522 111.86 426.57 114.212ZM433.915 107.636C436.663 107.636 438.355 109.244 438.355 111.836C438.355 114.428 436.663 116 433.915 116H431.311V107.636H433.915ZM432.403 115.1H433.915C436.099 115.1 437.239 113.876 437.239 111.836C437.239 109.796 436.099 108.524 433.915 108.524H432.403V115.1ZM445.627 109.424V116H444.535V115.028C444.115 115.712 443.311 116.096 442.435 116.096C440.923 116.096 439.735 115.16 439.735 113.276V109.424H440.815V113.132C440.815 114.464 441.547 115.148 442.651 115.148C443.779 115.148 444.535 114.452 444.535 113.036V109.424H445.627ZM450.267 110.24C449.199 110.24 448.311 110.948 448.191 112.232H452.343C452.355 110.948 451.395 110.24 450.267 110.24ZM453.339 113.972C453.003 115.172 451.947 116.108 450.315 116.108C448.443 116.108 447.063 114.788 447.063 112.7C447.063 110.624 448.395 109.316 450.315 109.316C452.223 109.316 453.471 110.66 453.471 112.46C453.471 112.7 453.459 112.892 453.435 113.12H448.179C448.263 114.452 449.199 115.184 450.315 115.184C451.299 115.184 451.923 114.68 452.163 113.972H453.339ZM462.84 114.212C462.84 115.292 461.892 116.108 460.44 116.108C458.904 116.108 457.824 115.268 457.752 114.068H458.88C458.94 114.704 459.504 115.184 460.428 115.184C461.292 115.184 461.772 114.752 461.772 114.212C461.772 112.748 457.884 113.6 457.884 111.152C457.884 110.144 458.832 109.316 460.296 109.316C461.748 109.316 462.708 110.096 462.78 111.38H461.688C461.64 110.72 461.136 110.24 460.26 110.24C459.456 110.24 458.976 110.624 458.976 111.152C458.976 112.712 462.792 111.86 462.84 114.212ZM470.621 112.7C470.621 114.788 469.121 116.108 467.249 116.108C465.389 116.108 463.973 114.788 463.973 112.7C463.973 110.624 465.437 109.316 467.297 109.316C469.169 109.316 470.621 110.624 470.621 112.7ZM465.089 112.7C465.089 114.368 466.109 115.148 467.249 115.148C468.389 115.148 469.505 114.368 469.505 112.7C469.505 111.044 468.413 110.264 467.285 110.264C466.133 110.264 465.089 111.044 465.089 112.7ZM478.297 112.7C478.297 114.788 476.797 116.108 474.925 116.108C473.065 116.108 471.649 114.788 471.649 112.7C471.649 110.624 473.113 109.316 474.973 109.316C476.845 109.316 478.297 110.624 478.297 112.7ZM472.765 112.7C472.765 114.368 473.785 115.148 474.925 115.148C476.065 115.148 477.181 114.368 477.181 112.7C477.181 111.044 476.089 110.264 474.961 110.264C473.809 110.264 472.765 111.044 472.765 112.7ZM484.545 116V112.28C484.545 110.936 483.813 110.252 482.709 110.252C481.593 110.252 480.825 110.948 480.825 112.364V116H479.733V109.424H480.825V110.36C481.257 109.676 482.049 109.304 482.937 109.304C484.461 109.304 485.625 110.24 485.625 112.124V116H484.545ZM490.812 116V110.324H489.96V109.424H490.812V108.956C490.812 107.492 491.532 106.832 493.212 106.832V107.744C492.228 107.744 491.904 108.104 491.904 108.956V109.424H493.284V110.324H491.904V116H490.812ZM500.797 112.7C500.797 114.788 499.297 116.108 497.425 116.108C495.565 116.108 494.149 114.788 494.149 112.7C494.149 110.624 495.613 109.316 497.473 109.316C499.345 109.316 500.797 110.624 500.797 112.7ZM495.265 112.7C495.265 114.368 496.285 115.148 497.425 115.148C498.565 115.148 499.681 114.368 499.681 112.7C499.681 111.044 498.589 110.264 497.461 110.264C496.309 110.264 495.265 111.044 495.265 112.7ZM503.325 112.424V116H502.233V109.424H503.325V110.492C503.697 109.76 504.405 109.304 505.449 109.304V110.432H505.161C504.117 110.432 503.325 110.9 503.325 112.424ZM510.148 114.2V110.324H509.296V109.424H510.148V107.768H511.24V109.424H512.956V110.324H511.24V114.2C511.24 114.848 511.48 115.076 512.152 115.076H512.956V116H511.972C510.808 116 510.148 115.52 510.148 114.2ZM514.279 116V107.12H515.371V110.372C515.803 109.676 516.619 109.304 517.543 109.304C519.007 109.304 520.171 110.24 520.171 112.124V116H519.091V112.28C519.091 110.936 518.359 110.252 517.255 110.252C516.139 110.252 515.371 110.948 515.371 112.364V116H514.279ZM521.955 116V109.424H523.047V116H521.955ZM522.519 108.356C522.099 108.356 521.775 108.032 521.775 107.612C521.775 107.192 522.099 106.868 522.519 106.868C522.915 106.868 523.239 107.192 523.239 107.612C523.239 108.032 522.915 108.356 522.519 108.356ZM529.636 114.212C529.636 115.292 528.688 116.108 527.236 116.108C525.7 116.108 524.62 115.268 524.548 114.068H525.676C525.736 114.704 526.3 115.184 527.224 115.184C528.088 115.184 528.568 114.752 528.568 114.212C528.568 112.748 524.68 113.6 524.68 111.152C524.68 110.144 525.628 109.316 527.092 109.316C528.544 109.316 529.504 110.096 529.576 111.38H528.484C528.436 110.72 527.932 110.24 527.056 110.24C526.252 110.24 525.772 110.624 525.772 111.152C525.772 112.712 529.588 111.86 529.636 114.212ZM533.597 109.424H534.773L536.825 114.992L538.865 109.424H540.029L537.449 116H536.177L533.597 109.424ZM543.9 110.24C542.832 110.24 541.944 110.948 541.824 112.232H545.976C545.988 110.948 545.028 110.24 543.9 110.24ZM546.972 113.972C546.636 115.172 545.58 116.108 543.948 116.108C542.076 116.108 540.696 114.788 540.696 112.7C540.696 110.624 542.028 109.316 543.948 109.316C545.856 109.316 547.104 110.66 547.104 112.46C547.104 112.7 547.092 112.892 547.068 113.12H541.812C541.896 114.452 542.832 115.184 543.948 115.184C544.932 115.184 545.556 114.68 545.796 113.972H546.972ZM548.545 116V107.12H549.637V110.372C550.069 109.676 550.885 109.304 551.809 109.304C553.273 109.304 554.437 110.24 554.437 112.124V116H553.357V112.28C553.357 110.936 552.625 110.252 551.521 110.252C550.405 110.252 549.637 110.948 549.637 112.364V116H548.545ZM556.221 116V109.424H557.313V116H556.221ZM556.785 108.356C556.365 108.356 556.041 108.032 556.041 107.612C556.041 107.192 556.365 106.868 556.785 106.868C557.181 106.868 557.505 107.192 557.505 107.612C557.505 108.032 557.181 108.356 556.785 108.356ZM558.766 112.7C558.766 110.636 560.098 109.316 561.97 109.316C563.602 109.316 564.67 110.156 565.006 111.536H563.83C563.602 110.744 562.942 110.24 561.97 110.24C560.77 110.24 559.882 111.092 559.882 112.7C559.882 114.332 560.77 115.184 561.97 115.184C562.942 115.184 563.59 114.716 563.83 113.888H565.006C564.67 115.196 563.602 116.108 561.97 116.108C560.098 116.108 558.766 114.788 558.766 112.7ZM566.463 116V107.12H567.555V116H566.463ZM572.212 110.24C571.144 110.24 570.256 110.948 570.136 112.232H574.288C574.3 110.948 573.34 110.24 572.212 110.24ZM575.284 113.972C574.948 115.172 573.892 116.108 572.26 116.108C570.388 116.108 569.008 114.788 569.008 112.7C569.008 110.624 570.34 109.316 572.26 109.316C574.168 109.316 575.416 110.66 575.416 112.46C575.416 112.7 575.404 112.892 575.38 113.12H570.124C570.208 114.452 571.144 115.184 572.26 115.184C573.244 115.184 573.868 114.68 574.108 113.972H575.284Z" fill="#818181"/>
<path d="M761.732 48.656L764.798 40.242H766.142L762.46 50H760.99L757.308 40.242H758.666L761.732 48.656ZM767.539 50V42.328H768.813V50H767.539ZM768.197 41.082C767.707 41.082 767.329 40.704 767.329 40.214C767.329 39.724 767.707 39.346 768.197 39.346C768.659 39.346 769.037 39.724 769.037 40.214C769.037 40.704 768.659 41.082 768.197 41.082ZM774.246 43.28C773 43.28 771.964 44.106 771.824 45.604H776.668C776.682 44.106 775.562 43.28 774.246 43.28ZM777.83 47.634C777.438 49.034 776.206 50.126 774.302 50.126C772.118 50.126 770.508 48.586 770.508 46.15C770.508 43.728 772.062 42.202 774.302 42.202C776.528 42.202 777.984 43.77 777.984 45.87C777.984 46.15 777.97 46.374 777.942 46.64H771.81C771.908 48.194 773 49.048 774.302 49.048C775.45 49.048 776.178 48.46 776.458 47.634H777.83ZM781.164 50L778.756 42.328H780.058L781.822 48.768L783.726 42.328H785.028L786.89 48.782L788.626 42.328H789.886L787.492 50H786.176L784.328 43.91L782.48 50H781.164ZM801.435 50L800.651 47.83H796.395L795.611 50H794.267L797.795 40.298H799.265L802.779 50H801.435ZM800.287 46.794L798.523 41.866L796.759 46.794H800.287ZM804.316 50V39.64H805.59V50H804.316ZM807.762 50V39.64H809.036V50H807.762Z" fill="#076FD5"/>
<defs>
<filter id="filter0_d_1749_1574" x="0" y="0" width="857" height="185" filterUnits="userSpaceOnUse" color-interpolation-filters="sRGB">
<feFlood flood-opacity="0" result="BackgroundImageFix"/>
<feColorMatrix in="SourceAlpha" type="matrix" values="0 0 0 0 0 0 0 0 0 0 0 0 0 0 0 0 0 0 127 0" result="hardAlpha"/>
<feOffset dy="4"/>
<feGaussianBlur stdDeviation="6"/>
<feComposite in2="hardAlpha" operator="out"/>
<feColorMatrix type="matrix" values="0 0 0 0 0 0 0 0 0 0 0 0 0 0 0 0 0 0 0.1 0"/>
<feBlend mode="normal" in2="BackgroundImageFix" result="effect1_dropShadow_1749_1574"/>
<feBlend mode="normal" in="SourceGraphic" in2="effect1_dropShadow_1749_1574" result="shape"/>
</filter>
</defs>
</svg>
