<svg width="314" height="68" viewBox="0 0 314 68" fill="none" xmlns="http://www.w3.org/2000/svg">
<path d="M268.148 11.8684C267.178 11.5615 266.193 11.319 265.184 11.1903C262.323 10.829 259.71 11.3982 257.492 13.3334C255.181 15.3527 253.929 18.0253 252.909 20.8415C252.81 21.1187 252.984 21.1385 253.186 21.1682C254.374 21.3364 255.567 21.4453 257.052 21.4602C257.438 21.475 258.101 21.4206 258.764 21.3513C261.066 21.0989 263.184 20.3812 264.931 18.7875C266.871 17.0206 267.841 14.7291 268.465 12.2445C268.544 11.9179 268.317 11.9179 268.148 11.8634V11.8684ZM262.254 15.6843C261.556 17.4017 260.655 18.9261 258.715 19.4804C257.784 19.7428 256.869 19.619 255.953 19.3864C255.706 19.3221 255.696 19.1983 255.74 18.9855C256.235 16.5801 257.859 15.2389 260.284 15.2389C260.888 15.229 261.482 15.323 262.071 15.4368C262.214 15.4665 262.343 15.4814 262.259 15.6794L262.254 15.6843Z" fill="#F5811F"/>
<path d="M248.287 20.5197C247.743 19.2279 247.164 17.956 246.427 16.7582C245.159 14.7042 243.61 12.9472 241.368 11.9227C238.582 10.6458 235.756 10.913 232.915 11.7297C232.633 11.8089 232.707 11.9623 232.747 12.1454C232.944 13.0957 233.217 14.0212 233.578 14.9171C234.508 17.2185 235.944 19.0844 238.206 20.2178C239.943 21.0889 241.809 21.371 243.986 21.3661C245.189 21.376 246.624 21.178 248.06 20.9355C248.347 20.886 248.401 20.782 248.287 20.5098V20.5197ZM245.155 19.3863C244.556 19.5546 243.957 19.6833 243.457 19.6734C241.814 19.6833 240.695 18.9805 239.859 17.758C239.443 17.1492 239.151 16.4761 238.913 15.7832C238.854 15.61 238.765 15.4219 239.067 15.3823C240.334 15.219 241.596 15.1794 242.799 15.7139C244.249 16.3573 244.961 17.5749 245.362 19.0349C245.417 19.2428 245.362 19.3319 245.155 19.3913V19.3863Z" fill="#0093D9"/>
<path d="M254.85 8.68585C254.434 5.83503 252.851 3.65237 250.846 1.71223C250.648 1.51921 250.549 1.6182 250.401 1.75678C249.614 2.47938 248.876 3.24653 248.233 4.10771C246.298 6.69622 245.605 9.53714 246.506 12.6899C247.253 15.2932 248.763 17.461 250.485 19.5002C250.713 19.7724 250.792 19.5892 250.92 19.4259C251.658 18.4806 252.356 17.5006 252.955 16.4613C254.098 14.4716 254.924 12.383 254.954 10.037C254.92 9.58663 254.91 9.13624 254.845 8.6908L254.85 8.68585ZM250.727 16.1742C250.589 16.3128 250.495 16.2979 250.361 16.1692C248.634 14.531 248.035 12.6305 249.267 10.428C249.579 9.87369 249.965 9.37381 250.376 8.89372C250.505 8.74029 250.604 8.671 250.762 8.87393C251.638 10.0123 252.341 11.2249 252.381 12.6849C252.361 14.1202 251.698 15.219 250.727 16.1792V16.1742Z" fill="#EC1B24"/>
<path d="M262.105 2.65761C262.071 2.40024 261.962 2.30125 261.699 2.39529C261.155 2.59326 260.586 2.74669 260.061 2.98426C258.21 3.81575 256.879 5.13722 256.354 7.15656C256.042 8.36419 256.023 9.59658 256.211 10.8191C256.438 12.3138 256.31 12.0811 257.507 11.6654C258.74 11.2398 259.829 10.5815 260.715 9.62133C261.912 8.32955 262.368 6.76556 262.318 4.92935C262.368 4.22655 262.214 3.44455 262.105 2.65266V2.65761ZM257.611 10.2251C257.408 10.2895 257.319 10.1954 257.265 9.99747C257.196 9.75001 257.215 9.50254 257.205 9.25507C257.186 7.84946 258.096 6.8101 259.408 6.32012C259.626 6.24093 259.695 6.31022 259.754 6.50819C260.329 8.38894 259.423 9.65597 257.616 10.2251H257.611Z" fill="#D0E188"/>
<path d="M245.002 9.44328C245.041 7.34476 244.373 5.70653 242.918 4.3999C242.126 3.6872 241.215 3.15762 240.235 2.78642C238.874 2.27168 239.043 2.10341 238.76 3.55852C238.755 3.59316 238.736 3.62285 238.731 3.65255C238.36 5.71642 238.617 7.64667 240.027 9.28985C241.191 10.646 242.755 11.3884 244.393 11.9872C244.576 12.0516 244.66 12.0169 244.7 11.8041C244.843 10.9677 245.066 10.1461 245.006 9.43833L245.002 9.44328ZM243.527 10.2847C243.195 10.4579 242.794 10.1065 242.458 9.88872C241.413 9.20076 240.859 7.72586 241.186 6.54792C241.245 6.3351 241.374 6.33509 241.522 6.38459C242.834 6.81023 243.809 7.40415 243.784 9.18591C243.769 9.58186 243.858 10.1164 243.522 10.2896L243.527 10.2847Z" fill="#D0E188"/>
<path d="M85.4066 0H171.584C173.223 0 174.554 1.33137 174.554 2.9696V17.1643C174.554 18.8025 173.223 20.1339 171.584 20.1339H82.437V2.9696C82.437 1.33137 83.7684 0 85.4066 0Z" fill="#F68723"/>
<path d="M98.7578 67.1823L97.278 64.6878H96.298V67.1823H95.4863V61.0797H97.4908C97.961 61.0797 98.357 61.1589 98.6836 61.3173C99.0103 61.4757 99.2478 61.6885 99.4112 61.9558C99.5695 62.223 99.6537 62.5299 99.6537 62.8764C99.6537 63.297 99.5299 63.6682 99.2825 63.99C99.035 64.3117 98.6638 64.5245 98.1738 64.6284L99.7329 67.1872H98.7628L98.7578 67.1823ZM96.298 64.0493H97.4908C97.9313 64.0493 98.2629 63.9454 98.4807 63.7276C98.6985 63.5148 98.8123 63.2278 98.8123 62.8764C98.8123 62.525 98.7034 62.2329 98.4856 62.035C98.2679 61.837 97.9363 61.738 97.4908 61.738H96.298V64.0493Z" fill="#212121"/>
<path d="M101.896 61.7281V63.7672H104.163V64.4255H101.896V66.5289H104.43V67.1872H101.084V61.0748H104.43V61.733H101.896V61.7281Z" fill="#212121"/>
<path d="M110.972 61.0797L108.626 67.1823H107.69L105.344 61.0797H106.21L108.165 66.3409L110.12 61.0797H110.977H110.972Z" fill="#212121"/>
<path d="M113.284 66.8458C112.809 66.5785 112.433 66.2073 112.156 65.7322C111.879 65.257 111.74 64.7225 111.74 64.1236C111.74 63.5248 111.879 62.9902 112.156 62.5151C112.433 62.04 112.809 61.6688 113.284 61.4015C113.76 61.1342 114.284 61.0056 114.863 61.0056C115.442 61.0056 115.977 61.1392 116.452 61.4015C116.927 61.6688 117.303 62.035 117.576 62.5101C117.848 62.9853 117.986 63.5198 117.986 64.1187C117.986 64.7176 117.848 65.257 117.576 65.7322C117.303 66.2073 116.927 66.5736 116.452 66.8408C115.977 67.1081 115.447 67.2417 114.863 67.2417C114.279 67.2417 113.76 67.1081 113.284 66.8408V66.8458ZM116.036 66.2568C116.383 66.0588 116.66 65.7767 116.858 65.4055C117.056 65.0343 117.155 64.6136 117.155 64.1286C117.155 63.6436 117.056 63.213 116.858 62.8467C116.66 62.4805 116.388 62.1983 116.041 62.0004C115.695 61.8024 115.304 61.7034 114.863 61.7034C114.423 61.7034 114.032 61.8024 113.685 62.0004C113.339 62.1983 113.067 62.4805 112.869 62.8467C112.671 63.213 112.572 63.6386 112.572 64.1286C112.572 64.6186 112.671 65.0393 112.869 65.4055C113.067 65.7718 113.344 66.0588 113.69 66.2568C114.037 66.4548 114.428 66.5538 114.863 66.5538C115.299 66.5538 115.69 66.4548 116.036 66.2568Z" fill="#212121"/>
<path d="M120.044 66.5339H122.222V67.1823H119.232V61.0797H120.044V66.5339Z" fill="#212121"/>
<path d="M124.057 61.0797V64.9402C124.057 65.4847 124.191 65.8856 124.463 66.1479C124.735 66.4102 125.111 66.5438 125.592 66.5438C126.072 66.5438 126.438 66.4151 126.71 66.1479C126.982 65.8856 127.116 65.4847 127.116 64.9402V61.0797H127.928V64.9303C127.928 65.4401 127.824 65.8658 127.616 66.2122C127.408 66.5587 127.126 66.816 126.774 66.9893C126.423 67.1575 126.022 67.2417 125.582 67.2417C125.141 67.2417 124.745 67.1575 124.389 66.9893C124.037 66.821 123.755 66.5636 123.552 66.2122C123.345 65.8658 123.246 65.4352 123.246 64.9303V61.0797H124.057Z" fill="#212121"/>
<path d="M133.289 61.0797V61.7281H131.596V67.1823H130.785V61.7281H129.082V61.0797H133.294H133.289Z" fill="#212121"/>
<path d="M135.278 61.0797V67.1823H134.467V61.0797H135.278Z" fill="#212121"/>
<path d="M138.081 66.8458C137.606 66.5785 137.23 66.2073 136.953 65.7322C136.676 65.257 136.537 64.7225 136.537 64.1236C136.537 63.5248 136.676 62.9902 136.953 62.5151C137.23 62.04 137.606 61.6688 138.081 61.4015C138.557 61.1342 139.081 61.0056 139.66 61.0056C140.239 61.0056 140.774 61.1392 141.249 61.4015C141.724 61.6688 142.1 62.035 142.373 62.5101C142.645 62.9853 142.783 63.5198 142.783 64.1187C142.783 64.7176 142.645 65.257 142.373 65.7322C142.1 66.2073 141.724 66.5736 141.249 66.8408C140.774 67.1081 140.244 67.2417 139.66 67.2417C139.076 67.2417 138.557 67.1081 138.081 66.8408V66.8458ZM140.833 66.2568C141.18 66.0588 141.457 65.7767 141.655 65.4055C141.853 65.0343 141.952 64.6136 141.952 64.1286C141.952 63.6436 141.853 63.213 141.655 62.8467C141.457 62.4805 141.185 62.1983 140.838 62.0004C140.492 61.8024 140.101 61.7034 139.66 61.7034C139.22 61.7034 138.829 61.8024 138.482 62.0004C138.136 62.1983 137.864 62.4805 137.666 62.8467C137.468 63.213 137.369 63.6386 137.369 64.1286C137.369 64.6186 137.468 65.0393 137.666 65.4055C137.864 65.7718 138.141 66.0588 138.487 66.2568C138.834 66.4548 139.225 66.5538 139.66 66.5538C140.096 66.5538 140.487 66.4548 140.833 66.2568Z" fill="#212121"/>
<path d="M148.914 67.1822H148.102L144.836 62.322V67.1822H144.024V61.0698H144.836L148.102 65.9201V61.0698H148.914V67.1822Z" fill="#212121"/>
<path d="M151.285 61.0797V67.1823H150.474V61.0797H151.285Z" fill="#212121"/>
<path d="M153.533 66.4943H156.567V67.1872H152.573V66.5587L155.587 61.7776H152.607V61.0847H156.547V61.7133L153.533 66.4943Z" fill="#212121"/>
<path d="M158.664 61.0797V67.1823H157.852V61.0797H158.664Z" fill="#212121"/>
<path d="M165.114 67.1822H164.302L161.035 62.322V67.1822H160.224V61.0698H161.035L164.302 65.9201V61.0698H165.114V67.1822Z" fill="#212121"/>
<path d="M171.378 62.8467C171.205 62.4904 170.958 62.2132 170.631 62.0202C170.304 61.8272 169.923 61.7282 169.488 61.7282C169.052 61.7282 168.661 61.8272 168.315 62.0202C167.968 62.2182 167.696 62.4953 167.493 62.8616C167.295 63.2278 167.196 63.6485 167.196 64.1286C167.196 64.6087 167.295 65.0294 167.493 65.3907C167.691 65.752 167.968 66.0292 168.315 66.2271C168.661 66.4251 169.052 66.5191 169.488 66.5191C170.097 66.5191 170.592 66.341 170.987 65.9846C171.383 65.6283 171.606 65.1482 171.675 64.5394H169.196V63.891H172.542V64.5048C172.492 65.0046 172.334 65.4649 172.061 65.8856C171.789 66.3014 171.428 66.633 170.983 66.8755C170.537 67.118 170.042 67.2368 169.493 67.2368C168.914 67.2368 168.389 67.1032 167.914 66.8408C167.439 66.5736 167.063 66.2073 166.785 65.7322C166.508 65.2571 166.37 64.7275 166.37 64.1286C166.37 63.5297 166.508 62.9952 166.785 62.5201C167.063 62.0449 167.439 61.6737 167.914 61.4065C168.389 61.1392 168.914 61.0105 169.493 61.0105C170.151 61.0105 170.735 61.1689 171.245 61.4906C171.755 61.8123 172.121 62.2627 172.353 62.8467H171.383H171.378Z" fill="#212121"/>
<path d="M180.173 61.0797V61.7281H178.481V67.1823H177.669V61.7281H175.966V61.0797H180.178H180.173Z" fill="#212121"/>
<path d="M184.623 67.1823L183.143 64.6878H182.163V67.1823H181.351V61.0797H183.356C183.826 61.0797 184.222 61.1589 184.549 61.3173C184.87 61.4757 185.113 61.6885 185.276 61.9558C185.435 62.223 185.519 62.5299 185.519 62.8764C185.519 63.297 185.395 63.6682 185.147 63.99C184.9 64.3117 184.529 64.5245 184.039 64.6284L185.598 67.1872H184.628L184.623 67.1823ZM182.163 64.0493H183.361C183.801 64.0493 184.133 63.9454 184.351 63.7276C184.568 63.5099 184.682 63.2278 184.682 62.8764C184.682 62.525 184.573 62.2329 184.356 62.035C184.138 61.837 183.806 61.738 183.361 61.738H182.163V64.0493Z" fill="#212121"/>
<path d="M190.628 65.8259H187.916L187.416 67.1821H186.56L188.807 61.1142H189.743L191.98 67.1821H191.123L190.624 65.8259H190.628ZM190.396 65.1776L189.272 62.0941L188.149 65.1776H190.396Z" fill="#212121"/>
<path d="M198.031 67.1822H197.219L193.952 62.322V67.1822H193.141V61.0698H193.952L197.219 65.9201V61.0698H198.031V67.1822Z" fill="#212121"/>
<path d="M200.461 67.0289C200.134 66.8853 199.882 66.6873 199.699 66.4349C199.516 66.1825 199.422 65.8856 199.412 65.5539H200.278C200.307 65.841 200.426 66.0786 200.639 66.2765C200.852 66.4745 201.159 66.5686 201.565 66.5686C201.97 66.5686 202.257 66.4745 202.48 66.2815C202.703 66.0934 202.817 65.846 202.817 65.549C202.817 65.3164 202.752 65.1283 202.619 64.9798C202.485 64.8313 202.327 64.7225 202.129 64.6482C201.931 64.574 201.668 64.4898 201.337 64.4008C200.926 64.2968 200.599 64.1929 200.352 64.084C200.105 63.9801 199.897 63.8118 199.718 63.5891C199.54 63.3663 199.456 63.0644 199.456 62.6833C199.456 62.3517 199.54 62.0548 199.714 61.7974C199.887 61.54 200.129 61.3421 200.441 61.2035C200.753 61.0649 201.109 60.9956 201.515 60.9956C202.099 60.9956 202.574 61.1391 202.945 61.4262C203.317 61.7133 203.525 62.0894 203.574 62.5645H202.683C202.653 62.3319 202.53 62.1241 202.307 61.9459C202.089 61.7677 201.797 61.6786 201.431 61.6786C201.094 61.6786 200.817 61.7628 200.599 61.936C200.387 62.1092 200.278 62.3468 200.278 62.6586C200.278 62.8813 200.342 63.0595 200.471 63.203C200.599 63.3416 200.758 63.4505 200.946 63.5247C201.134 63.599 201.396 63.6831 201.733 63.7722C202.144 63.8811 202.475 63.9949 202.723 64.0988C202.97 64.2077 203.188 64.3711 203.366 64.5987C203.544 64.8264 203.633 65.1283 203.633 65.5144C203.633 65.8113 203.554 66.0934 203.391 66.3557C203.228 66.6181 202.99 66.8309 202.678 66.9942C202.361 67.1575 201.99 67.2417 201.565 67.2417C201.139 67.2417 200.788 67.1724 200.461 67.0289Z" fill="#212121"/>
<path d="M208.629 64.1335C208.277 64.4701 207.733 64.6383 207.01 64.6383H205.813V67.1872H205.001V61.0847H207.005C207.708 61.0847 208.243 61.253 208.604 61.5846C208.97 61.9162 209.153 62.3468 209.153 62.8714C209.153 63.3961 208.975 63.8019 208.624 64.1385L208.629 64.1335ZM208.01 63.693C208.223 63.5 208.332 63.2278 208.332 62.8714C208.332 62.1191 207.891 61.743 207.01 61.743H205.813V63.985H207.01C207.461 63.985 207.792 63.891 208.01 63.698V63.693Z" fill="#212121"/>
<path d="M211.586 66.8458C211.111 66.5785 210.735 66.2073 210.458 65.7322C210.181 65.257 210.042 64.7225 210.042 64.1236C210.042 63.5248 210.181 62.9902 210.458 62.5151C210.735 62.04 211.111 61.6688 211.586 61.4015C212.061 61.1342 212.586 61.0056 213.165 61.0056C213.744 61.0056 214.279 61.1392 214.754 61.4015C215.229 61.6688 215.605 62.035 215.877 62.5101C216.15 62.9853 216.288 63.5198 216.288 64.1187C216.288 64.7176 216.15 65.257 215.877 65.7322C215.605 66.2073 215.229 66.5736 214.754 66.8408C214.279 67.1081 213.749 67.2417 213.165 67.2417C212.581 67.2417 212.061 67.1081 211.586 66.8408V66.8458ZM214.338 66.2568C214.685 66.0588 214.962 65.7767 215.16 65.4055C215.358 65.0343 215.457 64.6136 215.457 64.1286C215.457 63.6436 215.358 63.213 215.16 62.8467C214.962 62.4805 214.69 62.1983 214.343 62.0004C213.997 61.8024 213.606 61.7034 213.165 61.7034C212.725 61.7034 212.334 61.8024 211.987 62.0004C211.641 62.1983 211.369 62.4805 211.171 62.8467C210.973 63.213 210.874 63.6386 210.874 64.1286C210.874 64.6186 210.973 65.0393 211.171 65.4055C211.369 65.7718 211.646 66.0588 211.992 66.2568C212.339 66.4548 212.73 66.5538 213.165 66.5538C213.601 66.5538 213.992 66.4548 214.338 66.2568Z" fill="#212121"/>
<path d="M220.809 67.1823L219.329 64.6878H218.349V67.1823H217.537V61.0797H219.542C220.012 61.0797 220.408 61.1589 220.734 61.3173C221.056 61.4757 221.299 61.6885 221.462 61.9558C221.62 62.223 221.705 62.5299 221.705 62.8764C221.705 63.297 221.581 63.6682 221.333 63.99C221.086 64.3117 220.715 64.5245 220.225 64.6284L221.784 67.1872H220.814L220.809 67.1823ZM218.349 64.0493H219.547C219.987 64.0493 220.319 63.9454 220.536 63.7276C220.754 63.5099 220.868 63.2278 220.868 62.8764C220.868 62.525 220.759 62.2329 220.541 62.035C220.324 61.837 219.992 61.738 219.547 61.738H218.349V64.0493Z" fill="#212121"/>
<path d="M226.961 61.0797V61.7281H225.269V67.1823H224.457V61.7281H222.754V61.0797H226.966H226.961Z" fill="#212121"/>
<path d="M234.212 61.0797V61.7281H231.51V63.787H233.702V64.4354H231.51V67.1872H230.698V61.0847H234.212V61.0797Z" fill="#212121"/>
<path d="M236.611 66.8458C236.135 66.5785 235.759 66.2073 235.482 65.7322C235.205 65.257 235.066 64.7225 235.066 64.1236C235.066 63.5248 235.205 62.9902 235.482 62.5151C235.759 62.04 236.135 61.6688 236.611 61.4015C237.086 61.1342 237.61 61.0056 238.189 61.0056C238.768 61.0056 239.303 61.1392 239.778 61.4015C240.253 61.6688 240.629 62.035 240.902 62.5101C241.174 62.9853 241.312 63.5198 241.312 64.1187C241.312 64.7176 241.174 65.257 240.902 65.7322C240.629 66.2073 240.253 66.5736 239.778 66.8408C239.303 67.1081 238.773 67.2417 238.189 67.2417C237.605 67.2417 237.086 67.1081 236.611 66.8408V66.8458ZM239.362 66.2568C239.709 66.0588 239.986 65.7767 240.184 65.4055C240.382 65.0343 240.481 64.6136 240.481 64.1286C240.481 63.6436 240.382 63.213 240.184 62.8467C239.986 62.4805 239.714 62.1983 239.367 62.0004C239.021 61.8024 238.63 61.7034 238.189 61.7034C237.749 61.7034 237.358 61.8024 237.011 62.0004C236.665 62.1983 236.393 62.4805 236.195 62.8467C235.997 63.213 235.898 63.6386 235.898 64.1286C235.898 64.6186 235.997 65.0393 236.195 65.4055C236.393 65.7718 236.67 66.0588 237.016 66.2568C237.363 66.4548 237.754 66.5538 238.189 66.5538C238.625 66.5538 239.016 66.4548 239.362 66.2568Z" fill="#212121"/>
<path d="M245.833 67.1823L244.353 64.6878H243.373V67.1823H242.561V61.0797H244.566C245.036 61.0797 245.432 61.1589 245.759 61.3173C246.08 61.4757 246.323 61.6885 246.486 61.9558C246.645 62.223 246.729 62.5299 246.729 62.8764C246.729 63.297 246.605 63.6682 246.358 63.99C246.11 64.3117 245.739 64.5245 245.249 64.6284L246.808 67.1872H245.838L245.833 67.1823ZM243.373 64.0493H244.571C245.011 64.0493 245.343 63.9454 245.561 63.7276C245.778 63.5099 245.892 63.2278 245.892 62.8764C245.892 62.525 245.783 62.2329 245.566 62.035C245.348 61.837 245.016 61.738 244.571 61.738H243.373V64.0493Z" fill="#212121"/>
<path d="M254.346 64.1335C253.995 64.4701 253.45 64.6383 252.728 64.6383H251.53V67.1872H250.718V61.0847H252.723C253.425 61.0847 253.96 61.253 254.321 61.5846C254.688 61.9162 254.871 62.3468 254.871 62.8714C254.871 63.3961 254.692 63.8019 254.341 64.1385L254.346 64.1335ZM253.727 63.693C253.94 63.5 254.049 63.2278 254.049 62.8714C254.049 62.1191 253.609 61.743 252.728 61.743H251.53V63.985H252.728C253.178 63.985 253.51 63.891 253.727 63.698V63.693Z" fill="#212121"/>
<path d="M256.858 61.0797V64.9402C256.858 65.4847 256.992 65.8856 257.264 66.1479C257.536 66.4102 257.912 66.5438 258.392 66.5438C258.872 66.5438 259.239 66.4151 259.511 66.1479C259.783 65.8856 259.917 65.4847 259.917 64.9402V61.0797H260.728V64.9303C260.728 65.4401 260.624 65.8658 260.416 66.2122C260.209 66.5587 259.926 66.816 259.575 66.9893C259.224 67.1575 258.823 67.2417 258.382 67.2417C257.942 67.2417 257.546 67.1575 257.189 66.9893C256.838 66.821 256.556 66.5636 256.353 66.2122C256.145 65.8658 256.046 65.4352 256.046 64.9303V61.0797H256.858Z" fill="#212121"/>
<path d="M265.997 64.3117C266.185 64.4552 266.334 64.6383 266.443 64.8561C266.551 65.0739 266.606 65.3015 266.606 65.549C266.606 65.8559 266.527 66.138 266.363 66.3855C266.205 66.6329 265.967 66.8309 265.661 66.9744C265.354 67.118 264.992 67.1872 264.577 67.1872H262.26V61.0847H264.488C264.908 61.0847 265.27 61.154 265.567 61.2926C265.863 61.4312 266.086 61.6143 266.235 61.8469C266.383 62.0795 266.457 62.3418 266.457 62.6339C266.457 62.9952 266.358 63.2971 266.16 63.5297C265.962 63.7623 265.7 63.9355 265.373 64.0444C265.601 64.0791 265.804 64.1682 265.992 64.3166L265.997 64.3117ZM263.077 63.7178H264.443C264.824 63.7178 265.116 63.6287 265.324 63.4554C265.532 63.2822 265.636 63.0397 265.636 62.7279C265.636 62.4161 265.532 62.1736 265.324 62.0003C265.116 61.8271 264.814 61.738 264.423 61.738H263.077V63.7178ZM265.458 66.2469C265.685 66.0588 265.794 65.8014 265.794 65.4698C265.794 65.1382 265.675 64.866 265.438 64.668C265.2 64.475 264.884 64.376 264.483 64.376H263.072V66.529H264.507C264.913 66.529 265.225 66.4349 265.453 66.2469H265.458Z" fill="#212121"/>
<path d="M268.718 66.5339H270.896V67.1823H267.906V61.0797H268.718V66.5339Z" fill="#212121"/>
<path d="M272.751 61.0797V67.1823H271.939V61.0797H272.751Z" fill="#212121"/>
<path d="M274.421 62.52C274.693 62.0449 275.069 61.6737 275.539 61.4015C276.014 61.1342 276.539 61.0006 277.113 61.0006C277.791 61.0006 278.38 61.159 278.89 61.4807C279.395 61.8024 279.766 62.2577 279.994 62.8467H279.024C278.85 62.4804 278.603 62.1983 278.281 61.9954C277.955 61.7974 277.568 61.6984 277.118 61.6984C276.668 61.6984 276.296 61.7974 275.95 61.9954C275.604 62.1934 275.336 62.4755 275.138 62.8417C274.94 63.208 274.846 63.6336 274.846 64.1236C274.846 64.6136 274.945 65.0343 275.138 65.3956C275.336 65.7618 275.604 66.044 275.95 66.2419C276.296 66.4399 276.683 66.5389 277.118 66.5389C277.554 66.5389 277.959 66.4399 278.281 66.2469C278.603 66.0539 278.855 65.7717 279.024 65.4005H279.994C279.761 65.9846 279.395 66.435 278.89 66.7517C278.385 67.0685 277.791 67.2268 277.113 67.2268C276.534 67.2268 276.009 67.0932 275.539 66.8309C275.064 66.5636 274.693 66.1974 274.421 65.7223C274.148 65.2471 274.01 64.7175 274.01 64.1187C274.01 63.5198 274.148 62.9853 274.421 62.5101V62.52Z" fill="#212121"/>
<path d="M288.644 62.8467C288.471 62.4904 288.223 62.2132 287.896 62.0202C287.57 61.8272 287.189 61.7282 286.753 61.7282C286.318 61.7282 285.927 61.8272 285.58 62.0202C285.234 62.2182 284.961 62.4953 284.759 62.8616C284.561 63.2278 284.462 63.6485 284.462 64.1286C284.462 64.6087 284.561 65.0294 284.759 65.3907C284.956 65.752 285.234 66.0292 285.58 66.2271C285.927 66.4251 286.318 66.5191 286.753 66.5191C287.362 66.5191 287.857 66.341 288.253 65.9846C288.649 65.6283 288.871 65.1482 288.941 64.5394H286.461V63.891H289.807V64.5048C289.757 65.0046 289.599 65.4649 289.327 65.8856C289.055 66.3014 288.693 66.633 288.248 66.8755C287.802 67.118 287.307 67.2368 286.758 67.2368C286.179 67.2368 285.654 67.1032 285.179 66.8408C284.704 66.5736 284.328 66.2073 284.051 65.7322C283.774 65.2571 283.635 64.7275 283.635 64.1286C283.635 63.5297 283.774 62.9952 284.051 62.5201C284.328 62.0449 284.704 61.6737 285.179 61.4065C285.654 61.1392 286.179 61.0105 286.758 61.0105C287.416 61.0105 288 61.1689 288.51 61.4906C289.02 61.8123 289.386 62.2627 289.619 62.8467H288.649H288.644Z" fill="#212121"/>
<path d="M292.291 66.8458C291.816 66.5785 291.44 66.2073 291.162 65.7322C290.885 65.257 290.747 64.7225 290.747 64.1236C290.747 63.5248 290.885 62.9902 291.162 62.5151C291.44 62.04 291.816 61.6688 292.291 61.4015C292.766 61.1342 293.291 61.0056 293.87 61.0056C294.449 61.0056 294.983 61.1392 295.458 61.4015C295.934 61.6688 296.31 62.035 296.582 62.5101C296.854 62.9853 296.993 63.5198 296.993 64.1187C296.993 64.7176 296.854 65.257 296.582 65.7322C296.31 66.2073 295.934 66.5736 295.458 66.8408C294.983 67.1081 294.454 67.2417 293.87 67.2417C293.286 67.2417 292.766 67.1081 292.291 66.8408V66.8458ZM295.043 66.2568C295.389 66.0588 295.666 65.7767 295.864 65.4055C296.062 65.0343 296.161 64.6136 296.161 64.1286C296.161 63.6436 296.062 63.213 295.864 62.8467C295.666 62.4805 295.394 62.1983 295.048 62.0004C294.701 61.8024 294.31 61.7034 293.87 61.7034C293.429 61.7034 293.038 61.8024 292.692 62.0004C292.345 62.1983 292.073 62.4805 291.875 62.8467C291.677 63.213 291.578 63.6386 291.578 64.1286C291.578 64.6186 291.677 65.0393 291.875 65.4055C292.073 65.7718 292.35 66.0588 292.697 66.2568C293.043 66.4548 293.434 66.5538 293.87 66.5538C294.305 66.5538 294.696 66.4548 295.043 66.2568Z" fill="#212121"/>
<path d="M299.479 66.8458C299.004 66.5785 298.628 66.2073 298.351 65.7322C298.074 65.257 297.935 64.7225 297.935 64.1236C297.935 63.5248 298.074 62.9902 298.351 62.5151C298.628 62.04 299.004 61.6688 299.479 61.4015C299.954 61.1342 300.479 61.0056 301.058 61.0056C301.637 61.0056 302.172 61.1392 302.647 61.4015C303.122 61.6688 303.498 62.035 303.77 62.5101C304.042 62.9853 304.181 63.5198 304.181 64.1187C304.181 64.7176 304.042 65.257 303.77 65.7322C303.498 66.2073 303.122 66.5736 302.647 66.8408C302.172 67.1081 301.642 67.2417 301.058 67.2417C300.474 67.2417 299.954 67.1081 299.479 66.8408V66.8458ZM302.231 66.2568C302.577 66.0588 302.855 65.7767 303.053 65.4055C303.251 65.0343 303.35 64.6136 303.35 64.1286C303.35 63.6436 303.251 63.213 303.053 62.8467C302.855 62.4805 302.582 62.1983 302.236 62.0004C301.89 61.8024 301.499 61.7034 301.058 61.7034C300.618 61.7034 300.227 61.8024 299.88 62.0004C299.534 62.1983 299.261 62.4805 299.063 62.8467C298.865 63.213 298.766 63.6386 298.766 64.1286C298.766 64.6186 298.865 65.0393 299.063 65.4055C299.261 65.7718 299.539 66.0588 299.885 66.2568C300.231 66.4548 300.622 66.5538 301.058 66.5538C301.494 66.5538 301.885 66.4548 302.231 66.2568Z" fill="#212121"/>
<path d="M309.124 61.4509C309.619 61.6984 310 62.0547 310.268 62.515C310.535 62.9753 310.664 63.5197 310.664 64.1434C310.664 64.767 310.53 65.3114 310.268 65.7667C310.005 66.227 309.624 66.5735 309.124 66.816C308.624 67.0585 308.04 67.1773 307.362 67.1773H305.427V61.0748H307.362C308.04 61.0748 308.629 61.1985 309.124 61.446V61.4509ZM309.199 65.9004C309.619 65.4846 309.832 64.8957 309.832 64.1434C309.832 63.3911 309.619 62.7922 309.194 62.3665C308.768 61.9409 308.159 61.7281 307.362 61.7281H306.239V66.5289H307.362C308.164 66.5289 308.778 66.3211 309.199 65.9053V65.9004Z" fill="#212121"/>
<path d="M312.172 67.0783C312.063 66.9744 312.013 66.8457 312.013 66.6923C312.013 66.5389 312.068 66.4102 312.172 66.3062C312.281 66.2023 312.409 66.1479 312.563 66.1479C312.716 66.1479 312.84 66.2023 312.944 66.3062C313.048 66.4102 313.102 66.5389 313.102 66.6923C313.102 66.8457 313.048 66.9744 312.944 67.0783C312.84 67.1823 312.711 67.2367 312.563 67.2367C312.414 67.2367 312.276 67.1823 312.172 67.0783ZM312.964 61.0797L312.865 65.4599H312.187L312.088 61.0797H312.964Z" fill="#212121"/>
<path d="M93.9143 5.85983V10.9972C93.9143 11.5615 94.0628 11.9921 94.3647 12.289C94.6617 12.586 95.0824 12.7345 95.6219 12.7345C96.1614 12.7345 96.5969 12.586 96.8939 12.289C97.1908 11.9921 97.3442 11.5615 97.3442 10.9972V5.85983H99.0518V10.9873C99.0518 11.6951 98.8983 12.289 98.5865 12.779C98.2747 13.269 97.859 13.6352 97.3393 13.8778C96.8196 14.1203 96.2405 14.244 95.6021 14.244C94.9636 14.244 94.3994 14.1203 93.8896 13.8778C93.3749 13.6303 92.969 13.264 92.6721 12.779C92.3751 12.289 92.2217 11.6951 92.2217 10.9873V5.85983H93.9193H93.9143Z" fill="white"/>
<path d="M107.138 9.67578C106.925 10.0668 106.589 10.3786 106.133 10.6161C105.678 10.8537 105.104 10.9725 104.406 10.9725H102.991V14.1599H101.293V5.85983H104.406C105.059 5.85983 105.619 5.96872 106.079 6.19144C106.539 6.41416 106.886 6.72102 107.113 7.10707C107.341 7.49807 107.46 7.93361 107.46 8.42854C107.46 8.87398 107.351 9.28973 107.138 9.67578ZM105.376 9.31447C105.604 9.1066 105.713 8.80964 105.713 8.42854C105.713 7.6218 105.252 7.21595 104.332 7.21595H102.986V9.63123H104.332C104.802 9.63123 105.149 9.52729 105.376 9.31447Z" fill="white"/>
<path d="M110.588 13.9473C110.118 13.7493 109.741 13.4622 109.469 13.091C109.197 12.7198 109.054 12.2793 109.044 11.7695H110.86C110.885 12.111 111.009 12.3783 111.231 12.5763C111.454 12.7743 111.761 12.8732 112.147 12.8732C112.533 12.8732 112.855 12.7792 113.077 12.5961C113.3 12.413 113.419 12.1655 113.419 11.8636C113.419 11.6161 113.34 11.4132 113.191 11.2548C113.038 11.0964 112.845 10.9727 112.617 10.8787C112.389 10.7896 112.068 10.6856 111.667 10.5768C111.117 10.4184 110.672 10.26 110.33 10.1066C109.989 9.95314 109.692 9.71557 109.445 9.40376C109.197 9.09195 109.073 8.67126 109.073 8.14663C109.073 7.65664 109.197 7.22605 109.449 6.86475C109.702 6.4985 110.048 6.22133 110.504 6.02831C110.959 5.83529 111.474 5.7363 112.053 5.7363C112.924 5.7363 113.632 5.94417 114.176 6.35992C114.721 6.77566 115.022 7.35473 115.077 8.10208H113.211C113.196 7.81502 113.072 7.5824 112.84 7.39433C112.607 7.20625 112.305 7.11716 111.924 7.11716C111.593 7.11716 111.33 7.2013 111.132 7.36463C110.934 7.53291 110.835 7.77543 110.835 8.08723C110.835 8.30995 110.91 8.49308 111.058 8.64156C111.207 8.79004 111.395 8.90883 111.612 8.99791C111.835 9.087 112.147 9.19589 112.553 9.31467C113.102 9.47305 113.548 9.63143 113.899 9.78981C114.25 9.94819 114.547 10.1858 114.795 10.5025C115.042 10.8193 115.171 11.235 115.171 11.7497C115.171 12.1952 115.052 12.606 114.82 12.9871C114.587 13.3682 114.24 13.6701 113.79 13.8978C113.34 14.1254 112.8 14.2343 112.182 14.2343C111.593 14.2343 111.063 14.1353 110.588 13.9374V13.9473Z" fill="white"/>
<path d="M121.605 14.1599L119.74 10.923H118.938V14.1599H117.24V5.85983H120.413C121.066 5.85983 121.625 5.97367 122.086 6.19639C122.546 6.42406 122.892 6.72597 123.12 7.11202C123.348 7.49807 123.466 7.92866 123.466 8.4038C123.466 8.95317 123.303 9.44316 122.981 9.88365C122.66 10.3241 122.18 10.626 121.541 10.7943L123.565 14.1599H121.605ZM118.943 9.67578H120.358C120.819 9.67578 121.16 9.56689 121.388 9.34912C121.615 9.13135 121.729 8.82944 121.729 8.43844C121.729 8.04744 121.615 7.76038 121.388 7.55251C121.16 7.34464 120.819 7.23575 120.358 7.23575H118.943V9.67578Z" fill="white"/>
<path d="M131.366 5.85983V7.20111H129.114V14.1599H127.416V7.20111H125.164V5.85983H131.366Z" fill="white"/>
<path d="M133.36 7.80519C133.736 7.15683 134.246 6.65695 134.899 6.29564C135.547 5.93434 136.28 5.75616 137.087 5.75616C138.032 5.75616 138.858 5.99373 139.571 6.46887C140.284 6.94401 140.779 7.60227 141.061 8.44366H139.111C138.918 8.04771 138.646 7.75075 138.294 7.55278C137.943 7.3548 137.537 7.25581 137.077 7.25581C136.582 7.25581 136.146 7.36965 135.76 7.59237C135.379 7.82004 135.077 8.1368 134.864 8.54759C134.651 8.95839 134.543 9.44342 134.543 9.99775C134.543 10.5521 134.651 11.0272 134.864 11.443C135.077 11.8587 135.379 12.1804 135.76 12.4081C136.146 12.6357 136.582 12.7446 137.077 12.7446C137.537 12.7446 137.943 12.6456 138.294 12.4427C138.646 12.2398 138.918 11.9428 139.111 11.5469H141.061C140.779 12.3932 140.284 13.0564 139.576 13.5266C138.868 13.9968 138.042 14.2344 137.087 14.2344C136.28 14.2344 135.552 14.0562 134.899 13.6949C134.251 13.3336 133.736 12.8337 133.36 12.1903C132.984 11.5469 132.795 10.8193 132.795 10.0027C132.795 9.18606 132.984 8.45355 133.36 7.81014V7.80519Z" fill="white"/>
<path d="M148.302 7.20142V9.28509H151.148V10.6066H148.302V12.8041H151.515V14.1602H146.61V5.85025H151.515V7.20637H148.302V7.20142Z" fill="white"/>
<path d="M158.019 14.1599L156.153 10.923H155.351V14.1599H153.653V5.85983H156.826C157.479 5.85983 158.038 5.97367 158.499 6.19639C158.959 6.42406 159.305 6.72597 159.533 7.11202C159.761 7.49807 159.88 7.92866 159.88 8.4038C159.88 8.95317 159.716 9.44316 159.394 9.88365C159.073 10.3241 158.593 10.626 157.954 10.7943L159.978 14.1599H158.019ZM155.356 9.67578H156.771C157.232 9.67578 157.573 9.56689 157.801 9.34912C158.028 9.13135 158.142 8.82944 158.142 8.43844C158.142 8.04744 158.028 7.76038 157.801 7.55251C157.573 7.34464 157.232 7.23575 156.771 7.23575H155.356V9.67578Z" fill="white"/>
<path d="M167.868 9.67578C167.655 10.0668 167.319 10.3786 166.864 10.6161C166.408 10.8537 165.834 10.9725 165.136 10.9725H163.721V14.1599H162.023V5.85983H165.136C165.79 5.85983 166.349 5.96872 166.809 6.19144C167.269 6.41416 167.616 6.72102 167.843 7.10707C168.071 7.49807 168.19 7.93361 168.19 8.42854C168.19 8.87398 168.081 9.28973 167.868 9.67578ZM166.106 9.31447C166.334 9.1066 166.443 8.80964 166.443 8.42854C166.443 7.6218 165.983 7.21595 165.062 7.21595H163.716V9.63123H165.062C165.532 9.63123 165.879 9.52729 166.106 9.31447Z" fill="white"/>
<path d="M6.33021 53.512C4.43461 52.735 2.92506 51.5768 1.79167 50.0475C0.658267 48.5182 0.0593921 46.677 0 44.524H8.47327C8.59701 45.7416 9.0177 46.6721 9.7304 47.3105C10.4431 47.949 11.3736 48.2707 12.5218 48.2707C13.6701 48.2707 14.6302 47.9985 15.3133 47.4491C15.9963 46.9047 16.3378 46.1474 16.3378 45.1774C16.3378 44.3657 16.0656 43.6975 15.5211 43.163C14.9767 42.6334 14.3085 42.1978 13.5216 41.8514C12.7297 41.5099 11.6062 41.1189 10.1461 40.6784C8.03773 40.0251 6.31536 39.3668 4.97904 38.7135C3.64272 38.0552 2.49447 37.0901 1.5343 35.8083C0.574126 34.5313 0.089092 32.8584 0.089092 30.7995C0.089092 27.7408 1.19279 25.3453 3.39525 23.6131C5.5977 21.8808 8.46832 21.0147 12.0071 21.0147C15.5459 21.0147 18.5105 21.8808 20.713 23.6131C22.9154 25.3453 24.0934 27.7557 24.2518 30.849H15.6399C15.5756 29.7899 15.1895 28.9534 14.4768 28.3446C13.7641 27.7359 12.8485 27.434 11.7299 27.434C10.7698 27.434 9.99271 27.6913 9.40374 28.2061C8.81477 28.7208 8.51781 29.4632 8.51781 30.4283C8.51781 31.4875 9.01275 32.319 10.0076 32.9079C11.0024 33.5019 12.5515 34.1403 14.6649 34.8283C16.7733 35.5459 18.4907 36.2339 19.8073 36.8872C21.1238 37.5455 22.2671 38.4957 23.2272 39.743C24.1874 40.9902 24.6725 42.5987 24.6725 44.5636C24.6725 46.5285 24.1973 48.1371 23.252 49.6664C22.3067 51.1957 20.9308 52.4133 19.1341 53.319C17.3326 54.2247 15.2093 54.6751 12.7544 54.6751C10.2996 54.6751 8.22086 54.2841 6.33021 53.5021V53.512Z" fill="#212121"/>
<path d="M55.2099 28.2257V54.3533H47.2514V50.7947C46.4446 51.9479 45.3508 52.8784 43.97 53.5812C42.5891 54.284 41.0598 54.6354 39.3869 54.6354C37.4022 54.6354 35.6452 54.19 34.1257 53.2991C32.6063 52.4082 31.4234 51.1214 30.587 49.4386C29.7505 47.7558 29.3298 45.7711 29.3298 43.4895V28.2257H37.2438V42.4155C37.2438 44.1626 37.6942 45.5237 38.595 46.4888C39.4958 47.4589 40.7034 47.9389 42.2278 47.9389C43.7522 47.9389 45.0044 47.4539 45.9052 46.4888C46.8059 45.5237 47.2563 44.1626 47.2563 42.4155V28.2257H55.2149H55.2099Z" fill="#212121"/>
<path d="M75.6203 28.9733C77.0012 29.7207 78.0653 30.7056 78.8077 31.9231V28.226H86.7663V54.309C86.7663 56.7144 86.2911 58.8921 85.3458 60.8421C84.4005 62.7922 82.9553 64.3463 81.0151 65.4995C79.075 66.6527 76.6647 67.2317 73.7792 67.2317C69.9286 67.2317 66.8105 66.3161 64.4249 64.4898C62.0344 62.6635 60.6684 60.1888 60.3269 57.0707H68.1963C68.4438 58.0705 69.0328 58.8574 69.9633 59.4365C70.8937 60.0156 72.042 60.3027 73.408 60.3027C75.0512 60.3027 76.3628 59.8275 77.3427 58.8772C78.3227 57.922 78.8077 56.4026 78.8077 54.314V50.6168C78.0307 51.8343 76.9616 52.8242 75.5956 53.5914C74.2296 54.3585 72.631 54.7396 70.7997 54.7396C68.6566 54.7396 66.7165 54.1853 64.9793 53.0766C63.2421 51.968 61.8661 50.3941 60.8614 48.35C59.8518 46.3059 59.3469 43.9401 59.3469 41.2576C59.3469 38.5751 59.8518 36.2192 60.8614 34.185C61.8711 32.1558 63.2421 30.5967 64.9793 29.5029C66.7165 28.4091 68.6566 27.8647 70.7997 27.8647C72.631 27.8647 74.2345 28.2408 75.6154 28.9882L75.6203 28.9733ZM77.1546 36.5607C76.0509 35.4075 74.7097 34.8284 73.1259 34.8284C71.5421 34.8284 70.2008 35.3976 69.0971 36.5359C67.9934 37.6743 67.444 39.2432 67.444 41.2427C67.444 43.2423 67.9934 44.8261 69.0971 45.9941C70.1959 47.1671 71.5421 47.7511 73.1259 47.7511C74.7097 47.7511 76.0509 47.1721 77.1546 46.0189C78.2584 44.8657 78.8077 43.2868 78.8077 41.2922C78.8077 39.2977 78.2584 37.7188 77.1546 36.5607Z" fill="#212121"/>
<path d="M92.4747 34.1701C93.4844 32.1409 94.8553 30.5818 96.5926 29.488C98.3298 28.3942 100.27 27.8498 102.413 27.8498C104.244 27.8498 105.848 28.2259 107.229 28.9733C108.61 29.7206 109.674 30.7056 110.416 31.9231V28.2259H118.375V54.3535H110.416V50.6563C109.639 51.8739 108.56 52.8588 107.179 53.6062C105.798 54.3535 104.19 54.7296 102.363 54.7296C100.25 54.7296 98.3298 54.1753 96.5926 53.0667C94.8553 51.958 93.4794 50.3841 92.4747 48.3401C91.465 46.296 90.9602 43.9302 90.9602 41.2477C90.9602 38.5651 91.465 36.2092 92.4747 34.175V34.1701ZM108.768 36.5557C107.664 35.4025 106.323 34.8234 104.739 34.8234C103.155 34.8234 101.814 35.3926 100.71 36.5309C99.6067 37.6693 99.0573 39.2382 99.0573 41.2378C99.0573 43.2373 99.6067 44.8211 100.71 45.9891C101.809 47.1621 103.155 47.7461 104.739 47.7461C106.323 47.7461 107.664 47.1671 108.768 46.0139C109.872 44.8607 110.421 43.2818 110.421 41.2873C110.421 39.2927 109.872 37.7138 108.768 36.5557Z" fill="#212121"/>
<path d="M164.997 30.8937C166.908 32.8586 167.858 35.5906 167.858 39.0898V54.3535H159.944V40.1638C159.944 38.4761 159.504 37.1744 158.618 36.2538C157.732 35.3332 156.514 34.873 154.965 34.873C153.416 34.873 152.193 35.3332 151.312 36.2538C150.426 37.1744 149.986 38.4761 149.986 40.1638V54.3535H142.072V40.1638C142.072 38.4761 141.632 37.1744 140.746 36.2538C139.86 35.3332 138.642 34.873 137.093 34.873C135.544 34.873 134.321 35.3332 133.44 36.2538C132.554 37.1744 132.114 38.4761 132.114 40.1638V54.3535H124.155V28.226H132.114V31.5025C132.921 30.4086 133.975 29.5425 135.282 28.9041C136.588 28.2656 138.058 27.9439 139.706 27.9439C141.661 27.9439 143.408 28.3646 144.943 29.206C146.477 30.0473 147.68 31.25 148.551 32.814C149.451 31.3787 150.674 30.2057 152.228 29.3C153.777 28.3943 155.47 27.9439 157.301 27.9439C160.528 27.9439 163.097 28.9288 165.007 30.8937H164.997Z" fill="#212121"/>
<path d="M211.336 21.4847L200.027 43.4895V54.3533H192.068V43.4895L180.759 21.4847H189.791L196.121 35.2489L202.407 21.4847H211.346H211.336Z" fill="#212121"/>
<path d="M214.48 34.1701C215.49 32.1409 216.861 30.5818 218.598 29.488C220.335 28.3942 222.275 27.8498 224.418 27.8498C226.25 27.8498 227.853 28.2259 229.234 28.9733C230.615 29.7206 231.679 30.7056 232.421 31.9231V28.2259H240.38V54.3535H232.421V50.6563C231.644 51.8739 230.565 52.8588 229.185 53.6062C227.804 54.3535 226.195 54.7296 224.369 54.7296C222.256 54.7296 220.335 54.1753 218.598 53.0667C216.861 51.958 215.485 50.3841 214.48 48.3401C213.47 46.296 212.966 43.9302 212.966 41.2477C212.966 38.5651 213.47 36.2092 214.48 34.175V34.1701ZM230.773 36.5557C229.67 35.4025 228.328 34.8234 226.745 34.8234C225.161 34.8234 223.819 35.3926 222.716 36.5309C221.612 37.6693 221.063 39.2382 221.063 41.2378C221.063 43.2373 221.612 44.8211 222.716 45.9891C223.815 47.1621 225.161 47.7461 226.745 47.7461C228.328 47.7461 229.67 47.1671 230.773 46.0139C231.877 44.8607 232.426 43.2818 232.426 41.2873C232.426 39.2927 231.877 37.7138 230.773 36.5557Z" fill="#212121"/>
<path d="M260.631 47.5629V54.3534H256.582C253.697 54.3534 251.445 53.6457 249.832 52.2252C248.218 50.8048 247.411 48.4885 247.411 45.2714V34.8778H244.244V28.2259H247.411V21.8561H255.37V28.2259H260.581V34.8778H255.37V45.3654C255.37 46.1474 255.558 46.7067 255.929 47.0532C256.3 47.3996 256.924 47.5679 257.79 47.5679H260.631V47.5629Z" fill="#212121"/>
<path d="M276.51 29.1862C277.905 28.3596 279.459 27.9439 281.167 27.9439V36.4171H278.979C276.995 36.4171 275.505 36.8477 274.51 37.704C273.515 38.5652 273.02 40.0698 273.02 42.2227V54.3486H265.062V28.221H273.02V32.5765C273.951 31.1412 275.114 30.0078 276.51 29.1812V29.1862Z" fill="#212121"/>
<path d="M284.909 34.1701C285.919 32.1409 287.29 30.5818 289.027 29.488C290.764 28.3942 292.704 27.8498 294.847 27.8498C296.679 27.8498 298.282 28.2259 299.663 28.9733C301.044 29.7206 302.108 30.7056 302.85 31.9231V28.2259H310.809V54.3535H302.85V50.6563C302.073 51.8739 300.994 52.8588 299.614 53.6062C298.233 54.3535 296.624 54.7296 294.798 54.7296C292.684 54.7296 290.764 54.1753 289.027 53.0667C287.29 51.958 285.914 50.3841 284.909 48.3401C283.899 46.296 283.395 43.9302 283.395 41.2477C283.395 38.5651 283.899 36.2092 284.909 34.175V34.1701ZM301.202 36.5557C300.099 35.4025 298.757 34.8234 297.174 34.8234C295.59 34.8234 294.248 35.3926 293.145 36.5309C292.041 37.6693 291.492 39.2382 291.492 41.2378C291.492 43.2373 292.041 44.8211 293.145 45.9891C294.244 47.1621 295.59 47.7461 297.174 47.7461C298.757 47.7461 300.099 47.1671 301.202 46.0139C302.306 44.8607 302.855 43.2818 302.855 41.2873C302.855 39.2927 302.306 37.7138 301.202 36.5557Z" fill="#212121"/>
</svg>
