<svg width="220" height="61" viewBox="0 0 220 61" fill="none" xmlns="http://www.w3.org/2000/svg">
<path d="M195.492 23.6664C194.971 23.5014 194.442 23.371 193.899 23.3018C192.361 23.1076 190.956 23.4136 189.764 24.4539C188.522 25.5394 187.848 26.9762 187.3 28.4901C187.247 28.6391 187.34 28.6497 187.449 28.6657C188.088 28.7561 188.729 28.8147 189.527 28.8227C189.735 28.8306 190.091 28.8014 190.448 28.7641C191.685 28.6284 192.824 28.2426 193.763 27.3859C194.806 26.4361 195.328 25.2042 195.663 23.8686C195.705 23.693 195.583 23.693 195.492 23.6637V23.6664ZM192.324 25.7177C191.949 26.6409 191.464 27.4604 190.421 27.7584C189.921 27.8994 189.429 27.8329 188.937 27.7079C188.804 27.6733 188.798 27.6067 188.822 27.4923C189.088 26.1993 189.961 25.4782 191.265 25.4782C191.589 25.4729 191.909 25.5235 192.225 25.5847C192.302 25.6006 192.372 25.6086 192.326 25.715L192.324 25.7177Z" fill="#F5811F"/>
<path d="M184.815 28.3171C184.523 27.6227 184.211 26.9389 183.815 26.2951C183.134 25.1909 182.301 24.2464 181.096 23.6956C179.598 23.0092 178.079 23.1528 176.551 23.5919C176.4 23.6344 176.44 23.7169 176.461 23.8153C176.567 24.3262 176.714 24.8237 176.908 25.3053C177.408 26.5425 178.18 27.5455 179.396 28.1548C180.33 28.6231 181.333 28.7748 182.503 28.7721C183.15 28.7774 183.921 28.671 184.693 28.5406C184.847 28.514 184.877 28.4581 184.815 28.3118V28.3171ZM183.131 27.7079C182.809 27.7983 182.487 27.8675 182.219 27.8622C181.335 27.8675 180.734 27.4897 180.284 26.8325C180.061 26.5052 179.904 26.1434 179.776 25.7709C179.744 25.6778 179.696 25.5767 179.859 25.5554C180.54 25.4676 181.218 25.4463 181.865 25.7337C182.644 26.0795 183.027 26.7341 183.243 27.5189C183.272 27.6307 183.243 27.6786 183.131 27.7105V27.7079Z" fill="#0093D9"/>
<path d="M188.343 21.9556C188.12 20.4231 187.268 19.2497 186.191 18.2068C186.084 18.103 186.031 18.1562 185.951 18.2307C185.528 18.6192 185.132 19.0316 184.786 19.4945C183.746 20.886 183.373 22.4132 183.858 24.1081C184.259 25.5076 185.071 26.6729 185.997 27.7691C186.119 27.9154 186.162 27.817 186.231 27.7292C186.627 27.221 187.002 26.6942 187.324 26.1355C187.939 25.0659 188.383 23.9431 188.399 22.682C188.381 22.4398 188.375 22.1977 188.341 21.9583L188.343 21.9556ZM186.127 25.9811C186.053 26.0556 186.002 26.0477 185.93 25.9785C185.002 25.0978 184.68 24.0761 185.342 22.8922C185.51 22.5942 185.717 22.3254 185.938 22.0674C186.007 21.9849 186.061 21.9476 186.146 22.0567C186.617 22.6687 186.994 23.3205 187.016 24.1054C187.005 24.877 186.649 25.4676 186.127 25.9838V25.9811Z" fill="#EC1B24"/>
<path d="M192.244 18.7149C192.225 18.5766 192.167 18.5233 192.026 18.5739C191.733 18.6803 191.427 18.7628 191.145 18.8905C190.15 19.3375 189.434 20.0479 189.152 21.1334C188.985 21.7826 188.974 22.4451 189.075 23.1023C189.197 23.9058 189.128 23.7808 189.772 23.5573C190.435 23.3284 191.02 22.9746 191.496 22.4584C192.14 21.764 192.385 20.9232 192.358 19.9361C192.385 19.5583 192.302 19.1379 192.244 18.7122V18.7149ZM189.828 22.783C189.719 22.8176 189.671 22.7671 189.642 22.6606C189.604 22.5276 189.615 22.3946 189.61 22.2615C189.599 21.5059 190.089 20.9472 190.794 20.6838C190.911 20.6412 190.948 20.6785 190.98 20.7849C191.289 21.7959 190.802 22.477 189.831 22.783H189.828Z" fill="#D0E188"/>
<path d="M183.049 22.3627C183.07 21.2345 182.711 20.3539 181.928 19.6515C181.503 19.2683 181.013 18.9836 180.486 18.7841C179.755 18.5074 179.845 18.4169 179.694 19.1992C179.691 19.2178 179.68 19.2337 179.678 19.2497C179.478 20.3592 179.616 21.3968 180.375 22.2802C181 23.0092 181.841 23.4083 182.721 23.7302C182.82 23.7648 182.865 23.7462 182.886 23.6318C182.963 23.1821 183.083 22.7405 183.051 22.36L183.049 22.3627ZM182.256 22.815C182.077 22.9081 181.862 22.7192 181.681 22.6021C181.12 22.2323 180.822 21.4394 180.997 20.8062C181.029 20.6918 181.098 20.6918 181.178 20.7184C181.883 20.9472 182.407 21.2665 182.394 22.2243C182.386 22.4371 182.434 22.7245 182.253 22.8176L182.256 22.815Z" fill="#D0E188"/>
<path d="M97.2538 17.2861H143.581C144.461 17.2861 145.177 18.0018 145.177 18.8825V26.5132C145.177 27.3939 144.461 28.1096 143.581 28.1096H95.6575V18.8825C95.6575 18.0018 96.3732 17.2861 97.2538 17.2861Z" fill="#F68723"/>
<path d="M104.432 53.4017L103.637 52.0608H103.11V53.4017H102.674V50.1212H103.751C104.004 50.1212 104.217 50.1637 104.392 50.2489C104.568 50.334 104.696 50.4484 104.783 50.5921C104.869 50.7358 104.914 50.9007 104.914 51.087C104.914 51.3131 104.847 51.5127 104.714 51.6856C104.581 51.8585 104.382 51.973 104.118 52.0288L104.956 53.4044H104.435L104.432 53.4017ZM103.11 51.7175H103.751C103.988 51.7175 104.166 51.6617 104.283 51.5446C104.4 51.4302 104.462 51.2759 104.462 51.087C104.462 50.8981 104.403 50.7411 104.286 50.6347C104.169 50.5282 103.991 50.475 103.751 50.475H103.11V51.7175Z" fill="#212121"/>
<path d="M106.119 50.4695V51.5657H107.338V51.9195H106.119V53.0503H107.481V53.4042H105.683V50.1183H107.481V50.4722H106.119V50.4695Z" fill="#212121"/>
<path d="M110.999 50.121L109.738 53.4015H109.235L107.974 50.121H108.439L109.49 52.9492L110.541 50.121H111.001H110.999Z" fill="#212121"/>
<path d="M112.241 53.2206C111.986 53.077 111.784 52.8774 111.635 52.622C111.486 52.3666 111.411 52.0792 111.411 51.7573C111.411 51.4353 111.486 51.148 111.635 50.8926C111.784 50.6372 111.986 50.4376 112.241 50.2939C112.497 50.1503 112.779 50.0811 113.09 50.0811C113.401 50.0811 113.689 50.1529 113.944 50.2939C114.2 50.4376 114.402 50.6345 114.548 50.8899C114.694 51.1453 114.769 51.4327 114.769 51.7546C114.769 52.0766 114.694 52.3666 114.548 52.622C114.402 52.8774 114.2 53.0743 113.944 53.218C113.689 53.3616 113.404 53.4335 113.09 53.4335C112.776 53.4335 112.497 53.3616 112.241 53.218V53.2206ZM113.721 52.904C113.907 52.7976 114.056 52.6459 114.162 52.4464C114.269 52.2468 114.322 52.0207 114.322 51.7599C114.322 51.4992 114.269 51.2677 114.162 51.0708C114.056 50.874 113.91 50.7223 113.723 50.6159C113.537 50.5094 113.327 50.4562 113.09 50.4562C112.853 50.4562 112.643 50.5094 112.457 50.6159C112.271 50.7223 112.124 50.874 112.018 51.0708C111.911 51.2677 111.858 51.4965 111.858 51.7599C111.858 52.0233 111.911 52.2495 112.018 52.4464C112.124 52.6433 112.273 52.7976 112.46 52.904C112.646 53.0104 112.856 53.0637 113.09 53.0637C113.324 53.0637 113.534 53.0104 113.721 52.904Z" fill="#212121"/>
<path d="M115.876 53.053H117.046V53.4015H115.439V50.121H115.876V53.053Z" fill="#212121"/>
<path d="M118.033 50.121V52.1963C118.033 52.4889 118.105 52.7044 118.252 52.8455C118.398 52.9865 118.6 53.0583 118.858 53.0583C119.116 53.0583 119.313 52.9891 119.459 52.8455C119.606 52.7044 119.678 52.4889 119.678 52.1963V50.121H120.114V52.1909C120.114 52.465 120.058 52.6938 119.946 52.88C119.835 53.0663 119.683 53.2046 119.494 53.2978C119.305 53.3882 119.09 53.4335 118.853 53.4335C118.616 53.4335 118.403 53.3882 118.212 53.2978C118.023 53.2073 117.871 53.069 117.762 52.88C117.65 52.6938 117.597 52.4623 117.597 52.1909V50.121H118.033Z" fill="#212121"/>
<path d="M122.996 50.121V50.4695H122.086V53.4015H121.649V50.4695H120.734V50.121H122.998H122.996Z" fill="#212121"/>
<path d="M124.065 50.121V53.4015H123.629V50.121H124.065Z" fill="#212121"/>
<path d="M125.571 53.2206C125.316 53.077 125.113 52.8774 124.964 52.622C124.815 52.3666 124.741 52.0792 124.741 51.7573C124.741 51.4353 124.815 51.148 124.964 50.8926C125.113 50.6372 125.316 50.4376 125.571 50.2939C125.826 50.1503 126.108 50.0811 126.42 50.0811C126.731 50.0811 127.018 50.1529 127.274 50.2939C127.529 50.4376 127.731 50.6345 127.878 50.8899C128.024 51.1453 128.099 51.4327 128.099 51.7546C128.099 52.0766 128.024 52.3666 127.878 52.622C127.731 52.8774 127.529 53.0743 127.274 53.218C127.018 53.3616 126.734 53.4335 126.42 53.4335C126.106 53.4335 125.826 53.3616 125.571 53.218V53.2206ZM127.05 52.904C127.237 52.7976 127.386 52.6459 127.492 52.4464C127.598 52.2468 127.652 52.0207 127.652 51.7599C127.652 51.4992 127.598 51.2677 127.492 51.0708C127.386 50.874 127.239 50.7223 127.053 50.6159C126.867 50.5094 126.656 50.4562 126.42 50.4562C126.183 50.4562 125.973 50.5094 125.786 50.6159C125.6 50.7223 125.454 50.874 125.347 51.0708C125.241 51.2677 125.188 51.4965 125.188 51.7599C125.188 52.0233 125.241 52.2495 125.347 52.4464C125.454 52.6433 125.603 52.7976 125.789 52.904C125.975 53.0104 126.186 53.0637 126.42 53.0637C126.654 53.0637 126.864 53.0104 127.05 52.904Z" fill="#212121"/>
<path d="M131.395 53.4015H130.959L129.203 50.7888V53.4015H128.766V50.1157H129.203L130.959 52.7231V50.1157H131.395V53.4015Z" fill="#212121"/>
<path d="M132.67 50.121V53.4015H132.233V50.121H132.67Z" fill="#212121"/>
<path d="M133.877 53.0317H135.508V53.4042H133.361V53.0663L134.982 50.4961H133.38V50.1236H135.498V50.4615L133.877 53.0317Z" fill="#212121"/>
<path d="M136.637 50.121V53.4015H136.2V50.121H136.637Z" fill="#212121"/>
<path d="M140.103 53.4015H139.667L137.911 50.7888V53.4015H137.475V50.1157H137.911L139.667 52.7231V50.1157H140.103V53.4015Z" fill="#212121"/>
<path d="M143.472 51.0708C143.379 50.8793 143.246 50.7303 143.07 50.6265C142.894 50.5227 142.69 50.4695 142.455 50.4695C142.221 50.4695 142.011 50.5227 141.825 50.6265C141.639 50.7329 141.492 50.8819 141.383 51.0788C141.277 51.2757 141.223 51.5019 141.223 51.7599C141.223 52.018 141.277 52.2442 141.383 52.4384C141.49 52.6326 141.639 52.7816 141.825 52.888C142.011 52.9945 142.221 53.045 142.455 53.045C142.783 53.045 143.049 52.9492 143.262 52.7577C143.474 52.5661 143.594 52.308 143.631 51.9808H142.298V51.6322H144.097V51.9621C144.07 52.2309 143.985 52.4783 143.839 52.7045C143.693 52.928 143.498 53.1062 143.259 53.2366C143.019 53.367 142.753 53.4308 142.458 53.4308C142.147 53.4308 141.865 53.359 141.609 53.218C141.354 53.0743 141.152 52.8774 141.003 52.622C140.854 52.3666 140.779 52.0819 140.779 51.7599C140.779 51.438 140.854 51.1507 141.003 50.8952C141.152 50.6398 141.354 50.4403 141.609 50.2966C141.865 50.1529 142.147 50.0837 142.458 50.0837C142.812 50.0837 143.126 50.1689 143.4 50.3418C143.674 50.5148 143.871 50.7569 143.996 51.0708H143.474H143.472Z" fill="#212121"/>
<path d="M148.2 50.121V50.4695H147.29V53.4015H146.853V50.4695H145.938V50.121H148.202H148.2Z" fill="#212121"/>
<path d="M150.592 53.4015L149.796 52.0606H149.269V53.4015H148.833V50.121H149.911C150.163 50.121 150.376 50.1635 150.552 50.2487C150.725 50.3338 150.855 50.4482 150.943 50.5919C151.028 50.7356 151.073 50.9005 151.073 51.0868C151.073 51.3129 151.007 51.5125 150.874 51.6854C150.741 51.8584 150.541 51.9728 150.278 52.0286L151.116 53.4042H150.594L150.592 53.4015ZM149.269 51.7174H149.913C150.15 51.7174 150.328 51.6615 150.445 51.5444C150.562 51.4273 150.624 51.2757 150.624 51.0868C150.624 50.8979 150.565 50.7409 150.448 50.6345C150.331 50.5281 150.153 50.4748 149.913 50.4748H149.269V51.7174Z" fill="#212121"/>
<path d="M153.819 52.6725H152.361L152.092 53.4016H151.632L152.84 50.1396H153.343L154.545 53.4016H154.085L153.816 52.6725H153.819ZM153.694 52.324L153.09 50.6664L152.486 52.324H153.694Z" fill="#212121"/>
<path d="M157.799 53.4015H157.363L155.607 50.7888V53.4015H155.171V50.1157H155.607L157.363 52.7231V50.1157H157.799V53.4015Z" fill="#212121"/>
<path d="M159.106 53.3191C158.93 53.2419 158.794 53.1355 158.696 52.9998C158.597 52.8641 158.547 52.7045 158.542 52.5262H159.007C159.023 52.6805 159.087 52.8082 159.201 52.9146C159.316 53.0211 159.481 53.0716 159.699 53.0716C159.917 53.0716 160.071 53.0211 160.191 52.9173C160.311 52.8162 160.372 52.6832 160.372 52.5235C160.372 52.3985 160.337 52.2974 160.266 52.2176C160.194 52.1377 160.109 52.0792 160.002 52.0393C159.896 51.9994 159.755 51.9542 159.577 51.9063C159.356 51.8504 159.18 51.7945 159.047 51.736C158.914 51.6801 158.802 51.5896 158.707 51.4699C158.611 51.3502 158.566 51.1879 158.566 50.983C158.566 50.8048 158.611 50.6451 158.704 50.5068C158.797 50.3684 158.927 50.262 159.095 50.1875C159.263 50.113 159.454 50.0757 159.672 50.0757C159.986 50.0757 160.242 50.1529 160.441 50.3072C160.641 50.4615 160.753 50.6637 160.779 50.9192H160.3C160.284 50.7941 160.218 50.6824 160.098 50.5866C159.981 50.4908 159.824 50.4429 159.627 50.4429C159.446 50.4429 159.297 50.4881 159.18 50.5813C159.066 50.6744 159.007 50.8021 159.007 50.9697C159.007 51.0894 159.042 51.1852 159.111 51.2624C159.18 51.3369 159.265 51.3954 159.366 51.4353C159.467 51.4752 159.608 51.5205 159.789 51.5684C160.01 51.6269 160.188 51.6881 160.322 51.744C160.455 51.8025 160.572 51.8903 160.667 52.0127C160.763 52.1351 160.811 52.2974 160.811 52.5049C160.811 52.6645 160.769 52.8162 160.681 52.9572C160.593 53.0982 160.465 53.2126 160.298 53.3004C160.127 53.3882 159.928 53.4335 159.699 53.4335C159.47 53.4335 159.281 53.3962 159.106 53.3191Z" fill="#212121"/>
<path d="M163.496 51.7626C163.307 51.9435 163.014 52.034 162.626 52.034H161.982V53.4042H161.545V50.1236H162.623C163.001 50.1236 163.288 50.2141 163.482 50.3923C163.679 50.5706 163.778 50.8021 163.778 51.0841C163.778 51.3661 163.682 51.5843 163.493 51.7652L163.496 51.7626ZM163.163 51.5258C163.277 51.422 163.336 51.2757 163.336 51.0841C163.336 50.6797 163.099 50.4775 162.626 50.4775H161.982V51.6828H162.626C162.868 51.6828 163.046 51.6322 163.163 51.5284V51.5258Z" fill="#212121"/>
<path d="M165.087 53.2206C164.831 53.077 164.629 52.8774 164.48 52.622C164.331 52.3666 164.257 52.0792 164.257 51.7573C164.257 51.4353 164.331 51.148 164.48 50.8926C164.629 50.6372 164.831 50.4376 165.087 50.2939C165.342 50.1503 165.624 50.0811 165.936 50.0811C166.247 50.0811 166.534 50.1529 166.79 50.2939C167.045 50.4376 167.247 50.6345 167.394 50.8899C167.54 51.1453 167.614 51.4327 167.614 51.7546C167.614 52.0766 167.54 52.3666 167.394 52.622C167.247 52.8774 167.045 53.0743 166.79 53.218C166.534 53.3616 166.249 53.4335 165.936 53.4335C165.622 53.4335 165.342 53.3616 165.087 53.218V53.2206ZM166.566 52.904C166.752 52.7976 166.901 52.6459 167.008 52.4464C167.114 52.2468 167.167 52.0207 167.167 51.7599C167.167 51.4992 167.114 51.2677 167.008 51.0708C166.901 50.874 166.755 50.7223 166.569 50.6159C166.382 50.5094 166.172 50.4562 165.936 50.4562C165.699 50.4562 165.489 50.5094 165.302 50.6159C165.116 50.7223 164.97 50.874 164.863 51.0708C164.757 51.2677 164.704 51.4965 164.704 51.7599C164.704 52.0233 164.757 52.2495 164.863 52.4464C164.97 52.6433 165.119 52.7976 165.305 52.904C165.491 53.0104 165.701 53.0637 165.936 53.0637C166.17 53.0637 166.38 53.0104 166.566 52.904Z" fill="#212121"/>
<path d="M170.044 53.4015L169.248 52.0606H168.721V53.4015H168.285V50.121H169.362C169.615 50.121 169.828 50.1635 170.004 50.2487C170.177 50.3338 170.307 50.4482 170.395 50.5919C170.48 50.7356 170.525 50.9005 170.525 51.0868C170.525 51.3129 170.459 51.5125 170.326 51.6854C170.193 51.8584 169.993 51.9728 169.73 52.0286L170.568 53.4042H170.046L170.044 53.4015ZM168.721 51.7174H169.365C169.602 51.7174 169.78 51.6615 169.897 51.5444C170.014 51.4273 170.075 51.2757 170.075 51.0868C170.075 50.8979 170.017 50.7409 169.9 50.6345C169.783 50.5281 169.605 50.4748 169.365 50.4748H168.721V51.7174Z" fill="#212121"/>
<path d="M173.351 50.121V50.4695H172.441V53.4015H172.004V50.4695H171.089V50.121H173.353H173.351Z" fill="#212121"/>
<path d="M177.248 50.121V50.4695H175.796V51.5763H176.974V51.9249H175.796V53.4042H175.359V50.1236H177.248V50.121Z" fill="#212121"/>
<path d="M178.539 53.2206C178.283 53.077 178.081 52.8774 177.932 52.622C177.783 52.3666 177.709 52.0792 177.709 51.7573C177.709 51.4353 177.783 51.148 177.932 50.8926C178.081 50.6372 178.283 50.4376 178.539 50.2939C178.794 50.1503 179.076 50.0811 179.388 50.0811C179.699 50.0811 179.986 50.1529 180.242 50.2939C180.497 50.4376 180.699 50.6345 180.846 50.8899C180.992 51.1453 181.066 51.4327 181.066 51.7546C181.066 52.0766 180.992 52.3666 180.846 52.622C180.699 52.8774 180.497 53.0743 180.242 53.218C179.986 53.3616 179.701 53.4335 179.388 53.4335C179.074 53.4335 178.794 53.3616 178.539 53.218V53.2206ZM180.018 52.904C180.204 52.7976 180.353 52.6459 180.46 52.4464C180.566 52.2468 180.619 52.0207 180.619 51.7599C180.619 51.4992 180.566 51.2677 180.46 51.0708C180.353 50.874 180.207 50.7223 180.021 50.6159C179.835 50.5094 179.624 50.4562 179.388 50.4562C179.151 50.4562 178.941 50.5094 178.754 50.6159C178.568 50.7223 178.422 50.874 178.315 51.0708C178.209 51.2677 178.156 51.4965 178.156 51.7599C178.156 52.0233 178.209 52.2495 178.315 52.4464C178.422 52.6433 178.571 52.7976 178.757 52.904C178.943 53.0104 179.153 53.0637 179.388 53.0637C179.622 53.0637 179.832 53.0104 180.018 52.904Z" fill="#212121"/>
<path d="M183.496 53.4015L182.7 52.0606H182.173V53.4015H181.737V50.121H182.814C183.067 50.121 183.28 50.1635 183.456 50.2487C183.629 50.3338 183.759 50.4482 183.847 50.5919C183.932 50.7356 183.977 50.9005 183.977 51.0868C183.977 51.3129 183.911 51.5125 183.778 51.6854C183.645 51.8584 183.445 51.9728 183.182 52.0286L184.02 53.4042H183.498L183.496 53.4015ZM182.173 51.7174H182.817C183.054 51.7174 183.232 51.6615 183.349 51.5444C183.466 51.4273 183.527 51.2757 183.527 51.0868C183.527 50.8979 183.469 50.7409 183.352 50.6345C183.235 50.5281 183.057 50.4748 182.817 50.4748H182.173V51.7174Z" fill="#212121"/>
<path d="M188.072 51.7626C187.883 51.9435 187.59 52.034 187.202 52.034H186.558V53.4042H186.122V50.1236H187.199C187.577 50.1236 187.864 50.2141 188.059 50.3923C188.255 50.5706 188.354 50.8021 188.354 51.0841C188.354 51.3661 188.258 51.5843 188.069 51.7652L188.072 51.7626ZM187.739 51.5258C187.854 51.422 187.912 51.2757 187.912 51.0841C187.912 50.6797 187.675 50.4775 187.202 50.4775H186.558V51.6828H187.202C187.444 51.6828 187.622 51.6322 187.739 51.5284V51.5258Z" fill="#212121"/>
<path d="M189.424 50.121V52.1963C189.424 52.4889 189.495 52.7044 189.642 52.8455C189.788 52.9865 189.99 53.0583 190.248 53.0583C190.506 53.0583 190.703 52.9891 190.85 52.8455C190.996 52.7044 191.068 52.4889 191.068 52.1963V50.121H191.504V52.1909C191.504 52.465 191.448 52.6938 191.337 52.88C191.225 53.0663 191.073 53.2046 190.884 53.2978C190.695 53.3882 190.48 53.4335 190.243 53.4335C190.006 53.4335 189.793 53.3882 189.602 53.2978C189.413 53.2073 189.261 53.069 189.152 52.88C189.04 52.6938 188.987 52.4623 188.987 52.1909V50.121H189.424Z" fill="#212121"/>
<path d="M194.335 51.8584C194.436 51.9355 194.516 52.034 194.574 52.151C194.633 52.2681 194.662 52.3905 194.662 52.5235C194.662 52.6885 194.62 52.8401 194.532 52.9732C194.447 53.1062 194.319 53.2126 194.154 53.2898C193.989 53.3669 193.795 53.4042 193.571 53.4042H192.326V50.1236H193.524C193.75 50.1236 193.944 50.1609 194.104 50.2354C194.263 50.3099 194.383 50.4083 194.463 50.5334C194.543 50.6584 194.582 50.7994 194.582 50.9564C194.582 51.1506 194.529 51.3129 194.423 51.438C194.316 51.563 194.175 51.6561 194 51.7147C194.122 51.7333 194.231 51.7812 194.332 51.861L194.335 51.8584ZM192.765 51.5391H193.5C193.704 51.5391 193.861 51.4912 193.973 51.3981C194.085 51.3049 194.141 51.1746 194.141 51.007C194.141 50.8393 194.085 50.709 193.973 50.6158C193.861 50.5227 193.699 50.4748 193.489 50.4748H192.765V51.5391ZM194.045 52.8987C194.167 52.7976 194.226 52.6592 194.226 52.4809C194.226 52.3027 194.162 52.1563 194.034 52.0499C193.907 51.9462 193.736 51.8929 193.521 51.8929H192.763V53.0503H193.534C193.752 53.0503 193.92 52.9998 194.042 52.8987H194.045Z" fill="#212121"/>
<path d="M195.798 53.053H196.969V53.4015H195.362V50.121H195.798V53.053Z" fill="#212121"/>
<path d="M197.967 50.121V53.4015H197.53V50.121H197.967Z" fill="#212121"/>
<path d="M198.863 50.8952C199.01 50.6398 199.212 50.4402 199.465 50.2939C199.72 50.1502 200.002 50.0784 200.311 50.0784C200.675 50.0784 200.992 50.1635 201.266 50.3365C201.537 50.5094 201.737 50.7542 201.859 51.0708H201.338C201.245 50.8739 201.112 50.7223 200.939 50.6132C200.763 50.5068 200.556 50.4535 200.314 50.4535C200.071 50.4535 199.872 50.5068 199.686 50.6132C199.499 50.7196 199.356 50.8713 199.249 51.0682C199.143 51.265 199.092 51.4939 199.092 51.7573C199.092 52.0207 199.146 52.2468 199.249 52.441C199.356 52.6379 199.499 52.7896 199.686 52.896C199.872 53.0024 200.079 53.0556 200.314 53.0556C200.548 53.0556 200.766 53.0024 200.939 52.8987C201.112 52.7949 201.247 52.6433 201.338 52.4437H201.859C201.734 52.7577 201.537 52.9998 201.266 53.1701C200.995 53.3403 200.675 53.4255 200.311 53.4255C200 53.4255 199.718 53.3536 199.465 53.2126C199.209 53.069 199.01 52.8721 198.863 52.6166C198.717 52.3612 198.643 52.0765 198.643 51.7546C198.643 51.4327 198.717 51.1453 198.863 50.8899V50.8952Z" fill="#212121"/>
<path d="M206.51 51.0708C206.417 50.8793 206.284 50.7303 206.108 50.6265C205.933 50.5227 205.728 50.4695 205.494 50.4695C205.26 50.4695 205.049 50.5227 204.863 50.6265C204.677 50.7329 204.531 50.8819 204.422 51.0788C204.315 51.2757 204.262 51.5019 204.262 51.7599C204.262 52.018 204.315 52.2442 204.422 52.4384C204.528 52.6326 204.677 52.7816 204.863 52.888C205.049 52.9945 205.26 53.045 205.494 53.045C205.821 53.045 206.087 52.9492 206.3 52.7577C206.513 52.5661 206.633 52.308 206.67 51.9808H205.337V51.6322H207.135V51.9621C207.109 52.2309 207.024 52.4783 206.877 52.7045C206.731 52.928 206.537 53.1062 206.297 53.2366C206.058 53.367 205.792 53.4308 205.496 53.4308C205.185 53.4308 204.903 53.359 204.648 53.218C204.392 53.0743 204.19 52.8774 204.041 52.622C203.892 52.3666 203.818 52.0819 203.818 51.7599C203.818 51.438 203.892 51.1507 204.041 50.8952C204.19 50.6398 204.392 50.4403 204.648 50.2966C204.903 50.1529 205.185 50.0837 205.496 50.0837C205.85 50.0837 206.164 50.1689 206.438 50.3418C206.712 50.5148 206.909 50.7569 207.034 51.0708H206.513H206.51Z" fill="#212121"/>
<path d="M208.471 53.2206C208.216 53.077 208.013 52.8774 207.864 52.622C207.715 52.3666 207.641 52.0792 207.641 51.7573C207.641 51.4353 207.715 51.148 207.864 50.8926C208.013 50.6372 208.216 50.4376 208.471 50.2939C208.726 50.1503 209.008 50.0811 209.32 50.0811C209.631 50.0811 209.918 50.1529 210.174 50.2939C210.429 50.4376 210.631 50.6345 210.778 50.8899C210.924 51.1453 210.999 51.4327 210.999 51.7546C210.999 52.0766 210.924 52.3666 210.778 52.622C210.631 52.8774 210.429 53.0743 210.174 53.218C209.918 53.3616 209.634 53.4335 209.32 53.4335C209.006 53.4335 208.726 53.3616 208.471 53.218V53.2206ZM209.95 52.904C210.137 52.7976 210.286 52.6459 210.392 52.4464C210.498 52.2468 210.552 52.0207 210.552 51.7599C210.552 51.4992 210.498 51.2677 210.392 51.0708C210.286 50.874 210.139 50.7223 209.953 50.6159C209.767 50.5094 209.557 50.4562 209.32 50.4562C209.083 50.4562 208.873 50.5094 208.686 50.6159C208.5 50.7223 208.354 50.874 208.247 51.0708C208.141 51.2677 208.088 51.4965 208.088 51.7599C208.088 52.0233 208.141 52.2495 208.247 52.4464C208.354 52.6433 208.503 52.7976 208.689 52.904C208.875 53.0104 209.086 53.0637 209.32 53.0637C209.554 53.0637 209.764 53.0104 209.95 52.904Z" fill="#212121"/>
<path d="M212.334 53.2206C212.079 53.077 211.877 52.8774 211.728 52.622C211.579 52.3666 211.504 52.0792 211.504 51.7573C211.504 51.4353 211.579 51.148 211.728 50.8926C211.877 50.6372 212.079 50.4376 212.334 50.2939C212.59 50.1503 212.872 50.0811 213.183 50.0811C213.494 50.0811 213.782 50.1529 214.037 50.2939C214.292 50.4376 214.495 50.6345 214.641 50.8899C214.787 51.1453 214.862 51.4327 214.862 51.7546C214.862 52.0766 214.787 52.3666 214.641 52.622C214.495 52.8774 214.292 53.0743 214.037 53.218C213.782 53.3616 213.497 53.4335 213.183 53.4335C212.869 53.4335 212.59 53.3616 212.334 53.218V53.2206ZM213.814 52.904C214 52.7976 214.149 52.6459 214.255 52.4464C214.362 52.2468 214.415 52.0207 214.415 51.7599C214.415 51.4992 214.362 51.2677 214.255 51.0708C214.149 50.874 214.002 50.7223 213.816 50.6159C213.63 50.5094 213.42 50.4562 213.183 50.4562C212.946 50.4562 212.736 50.5094 212.55 50.6159C212.363 50.7223 212.217 50.874 212.111 51.0708C212.004 51.2677 211.951 51.4965 211.951 51.7599C211.951 52.0233 212.004 52.2495 212.111 52.4464C212.217 52.6433 212.366 52.7976 212.552 52.904C212.739 53.0104 212.949 53.0637 213.183 53.0637C213.417 53.0637 213.627 53.0104 213.814 52.904Z" fill="#212121"/>
<path d="M217.52 50.3205C217.786 50.4535 217.991 50.6451 218.134 50.8925C218.278 51.14 218.347 51.4326 218.347 51.7679C218.347 52.1031 218.275 52.3958 218.134 52.6406C217.993 52.888 217.789 53.0742 217.52 53.2046C217.251 53.335 216.937 53.3988 216.573 53.3988H215.532V50.1183H216.573C216.937 50.1183 217.254 50.1848 217.52 50.3178V50.3205ZM217.56 52.7124C217.786 52.4889 217.9 52.1723 217.9 51.7679C217.9 51.3635 217.786 51.0415 217.557 50.8127C217.328 50.5839 217.001 50.4695 216.573 50.4695H215.969V53.0503H216.573C217.004 53.0503 217.334 52.9386 217.56 52.7151V52.7124Z" fill="#212121"/>
<path d="M219.159 53.3457C219.1 53.2898 219.074 53.2206 219.074 53.1381C219.074 53.0556 219.103 52.9865 219.159 52.9306C219.217 52.8747 219.287 52.8455 219.369 52.8455C219.451 52.8455 219.518 52.8747 219.574 52.9306C219.63 52.9865 219.659 53.0556 219.659 53.1381C219.659 53.2206 219.63 53.2898 219.574 53.3457C219.518 53.4015 219.449 53.4308 219.369 53.4308C219.289 53.4308 219.215 53.4015 219.159 53.3457ZM219.585 50.121L219.531 52.4756H219.167L219.114 50.121H219.585Z" fill="#212121"/>
<path d="M101.827 20.4366V23.1984C101.827 23.5017 101.907 23.7331 102.07 23.8928C102.229 24.0524 102.455 24.1322 102.745 24.1322C103.035 24.1322 103.269 24.0524 103.429 23.8928C103.589 23.7331 103.671 23.5017 103.671 23.1984V20.4366H104.589V23.193C104.589 23.5735 104.507 23.8928 104.339 24.1562C104.171 24.4196 103.948 24.6165 103.669 24.7468C103.389 24.8772 103.078 24.9437 102.735 24.9437C102.391 24.9437 102.088 24.8772 101.814 24.7468C101.537 24.6138 101.319 24.4169 101.16 24.1562C101 23.8928 100.917 23.5735 100.917 23.193V20.4366H101.83H101.827Z" fill="white"/>
<path d="M108.937 22.4877C108.822 22.6979 108.641 22.8655 108.396 22.9932C108.152 23.1209 107.843 23.1848 107.468 23.1848H106.707V24.8982H105.794V20.4363H107.468C107.819 20.4363 108.12 20.4949 108.367 20.6146C108.615 20.7343 108.801 20.8993 108.923 21.1068C109.046 21.317 109.109 21.5511 109.109 21.8172C109.109 22.0567 109.051 22.2802 108.937 22.4877ZM107.989 22.2935C108.112 22.1817 108.17 22.0221 108.17 21.8172C108.17 21.3835 107.923 21.1654 107.428 21.1654H106.704V22.4637H107.428C107.681 22.4637 107.867 22.4079 107.989 22.2935Z" fill="white"/>
<path d="M110.791 24.7838C110.538 24.6774 110.336 24.5231 110.19 24.3235C110.043 24.124 109.966 23.8872 109.961 23.6131H110.937C110.951 23.7967 111.017 23.9404 111.137 24.0468C111.257 24.1532 111.422 24.2064 111.629 24.2064C111.837 24.2064 112.01 24.1559 112.129 24.0574C112.249 23.959 112.313 23.826 112.313 23.6637C112.313 23.5306 112.27 23.4216 112.191 23.3364C112.108 23.2513 112.004 23.1848 111.882 23.1342C111.76 23.0863 111.587 23.0304 111.371 22.9719C111.076 22.8868 110.836 22.8016 110.653 22.7192C110.469 22.6367 110.309 22.509 110.176 22.3413C110.043 22.1737 109.977 21.9476 109.977 21.6655C109.977 21.4021 110.043 21.1707 110.179 20.9764C110.315 20.7796 110.501 20.6306 110.746 20.5268C110.991 20.423 111.267 20.3698 111.579 20.3698C112.047 20.3698 112.427 20.4816 112.72 20.7051C113.013 20.9285 113.175 21.2398 113.204 21.6416H112.201C112.193 21.4873 112.127 21.3622 112.002 21.2611C111.877 21.16 111.714 21.1121 111.509 21.1121C111.331 21.1121 111.19 21.1574 111.084 21.2452C110.977 21.3356 110.924 21.466 110.924 21.6336C110.924 21.7533 110.964 21.8518 111.044 21.9316C111.124 22.0114 111.225 22.0753 111.342 22.1232C111.462 22.1711 111.629 22.2296 111.847 22.2934C112.143 22.3786 112.382 22.4637 112.571 22.5489C112.76 22.634 112.92 22.7617 113.053 22.932C113.186 23.1023 113.255 23.3258 113.255 23.6025C113.255 23.8419 113.191 24.0628 113.066 24.2676C112.941 24.4725 112.755 24.6348 112.512 24.7572C112.27 24.8796 111.98 24.9381 111.648 24.9381C111.331 24.9381 111.046 24.8849 110.791 24.7785V24.7838Z" fill="white"/>
<path d="M116.714 24.8982L115.711 23.1582H115.28V24.8982H114.367V20.4363H116.072C116.424 20.4363 116.724 20.4975 116.972 20.6173C117.219 20.7397 117.405 20.902 117.528 21.1095C117.65 21.317 117.714 21.5485 117.714 21.8039C117.714 22.0992 117.626 22.3626 117.453 22.5994C117.28 22.8362 117.022 22.9985 116.679 23.089L117.767 24.8982H116.714ZM115.282 22.4877H116.043C116.291 22.4877 116.474 22.4292 116.597 22.3121C116.719 22.195 116.78 22.0327 116.78 21.8225C116.78 21.6123 116.719 21.458 116.597 21.3463C116.474 21.2345 116.291 21.176 116.043 21.176H115.282V22.4877Z" fill="white"/>
<path d="M121.96 20.4363V21.1574H120.75V24.8982H119.837V21.1574H118.627V20.4363H121.96Z" fill="white"/>
<path d="M123.033 21.482C123.235 21.1334 123.509 20.8647 123.86 20.6705C124.209 20.4762 124.602 20.3805 125.036 20.3805C125.544 20.3805 125.989 20.5082 126.372 20.7636C126.755 21.019 127.021 21.3729 127.173 21.8252H126.124C126.021 21.6123 125.874 21.4527 125.685 21.3463C125.496 21.2398 125.278 21.1866 125.031 21.1866C124.765 21.1866 124.531 21.2478 124.323 21.3676C124.118 21.4899 123.956 21.6602 123.842 21.8811C123.727 22.1019 123.669 22.3626 123.669 22.6606C123.669 22.9586 123.727 23.214 123.842 23.4375C123.956 23.661 124.118 23.834 124.323 23.9564C124.531 24.0787 124.765 24.1373 125.031 24.1373C125.278 24.1373 125.496 24.0841 125.685 23.975C125.874 23.8659 126.021 23.7063 126.124 23.4934H127.173C127.021 23.9484 126.755 24.3049 126.374 24.5577C125.994 24.8104 125.55 24.9381 125.036 24.9381C124.602 24.9381 124.211 24.8423 123.86 24.6481C123.512 24.4539 123.235 24.1852 123.033 23.8393C122.83 23.4934 122.729 23.1023 122.729 22.6633C122.729 22.2243 122.83 21.8305 123.033 21.4846V21.482Z" fill="white"/>
<path d="M131.065 21.1574V22.2775H132.595V22.9879H131.065V24.1692H132.792V24.8982H130.155V20.431H132.792V21.16H131.065V21.1574Z" fill="white"/>
<path d="M136.288 24.8982L135.285 23.1582H134.854V24.8982H133.941V20.4363H135.647C135.998 20.4363 136.299 20.4975 136.546 20.6173C136.793 20.7397 136.98 20.902 137.102 21.1095C137.225 21.317 137.288 21.5485 137.288 21.8039C137.288 22.0992 137.201 22.3626 137.028 22.5994C136.855 22.8362 136.597 22.9985 136.253 23.089L137.342 24.8982H136.288ZM134.857 22.4877H135.617C135.865 22.4877 136.049 22.4292 136.171 22.3121C136.293 22.195 136.354 22.0327 136.354 21.8225C136.354 21.6123 136.293 21.458 136.171 21.3463C136.049 21.2345 135.865 21.176 135.617 21.176H134.857V22.4877Z" fill="white"/>
<path d="M141.583 22.4877C141.468 22.6979 141.287 22.8655 141.042 22.9932C140.798 23.1209 140.489 23.1848 140.114 23.1848H139.353V24.8982H138.44V20.4363H140.114C140.465 20.4363 140.766 20.4949 141.013 20.6146C141.261 20.7343 141.447 20.8993 141.569 21.1068C141.692 21.317 141.755 21.5511 141.755 21.8172C141.755 22.0567 141.697 22.2802 141.583 22.4877ZM140.635 22.2935C140.758 22.1817 140.816 22.0221 140.816 21.8172C140.816 21.3835 140.569 21.1654 140.074 21.1654H139.35V22.4637H140.074C140.327 22.4637 140.513 22.4079 140.635 22.2935Z" fill="white"/>
<path d="M10.5148 51.1773C7.93396 52.4038 5.2893 54.0295 2.64197 56.1526L11.7493 57.9087C11.7493 57.9087 16.5065 54.0108 23.7275 51.6402C23.6716 51.5976 23.621 51.5444 23.5678 51.4939C23.3603 51.2864 23.1634 51.0496 22.9772 50.7915C22.0486 50.8181 19.7285 50.8766 17.7437 50.8766C16.4187 50.8766 15.5327 51.0256 15.0379 50.9937L10.5121 51.1799L10.5148 51.1773Z" fill="#DDDDDD"/>
<path d="M17.1582 58.5632L27.4203 60.54C27.4203 60.54 40.6436 49.7059 57.089 51.712C57.089 51.712 37.2167 42.485 17.1582 58.5658V58.5632Z" fill="#DDDDDD"/>
<path d="M41.104 10.3898L41.6254 7.13852C41.6893 6.23923 40.4867 5.47297 39.4251 5.56875C34.3193 6.0317 18.9409 7.7957 13.2631 8.3092C11.7359 8.44755 10.5413 9.46924 10.4029 10.757C9.76703 16.7088 9.71382 22.7245 9.07793 28.6497C8.94224 29.9109 9.85217 31.1028 11.2836 31.5019C13.2365 32.0474 15.5246 32.2762 19.4517 32.4012C24.2036 32.5529 32.7097 31.8026 36.1206 30.741C37.3152 30.3685 38.2651 29.722 38.3449 28.6471L40.8725 12.0367L41.104 10.3872V10.3898ZM19.1617 31.3263L11.2942 20.9525L11.4725 18.4702L21.2423 31.3795L19.1617 31.3263ZM22.4263 31.2279L11.7013 17.3926L12.4835 11.4461L27.4629 31.0283C27.4629 31.0283 23.3655 31.3849 22.4263 31.2279Z" fill="#DDDDDD"/>
<path d="M47.0983 0.00532139C45.3848 11.0895 43.7672 21.8092 41.9952 32.5049C41.8542 33.3537 40.75 34.4738 39.8933 34.6946C36.344 35.6099 32.7282 36.7673 29.1177 36.8418C22.1389 36.9828 15.1467 36.4932 8.16259 36.1739C5.66426 36.0595 4.72505 34.6627 5.11617 32.1165C5.88509 27.1198 6.48107 22.0939 7.15155 17.0813C7.36706 17.1105 7.58257 17.1371 7.80074 17.1664C7.54266 20.5693 7.15155 23.967 7.05843 27.3726C6.90943 32.8721 8.26103 34.3115 13.6462 34.6308C21.2848 35.0858 28.8836 34.9208 36.4105 33.2606C39.2068 32.6433 40.4839 31.1906 40.8697 28.2932C41.7797 21.4314 43.0169 14.6149 44.1184 7.77969C44.1822 7.37793 44.2275 6.97086 44.2833 6.56378C40.6835 6.10083 39.1111 7.15976 38.6162 10.4137C38.3395 12.2309 38.1745 14.0747 38.0947 15.9106C37.9963 18.1482 36.493 18.4462 34.8141 18.3344C32.8107 18.2014 33.1167 16.7274 33.3588 15.3944C33.5636 14.2743 33.7792 13.1515 34.0452 12.0447C35.3755 6.49726 36.7511 5.35585 42.4156 5.01529C42.9796 4.9807 43.5384 4.84501 44.2993 4.72262C41.4923 2.61008 32.2307 3.35506 12.4223 6.51323C13.9841 5.63788 15.4554 4.29426 17.1236 3.97232C24.0758 2.63403 31.0733 1.50326 38.0841 0.508181C41.1784 0.0691769 44.3445 0.141013 47.1009 0L47.0983 0.00532139Z" fill="black"/>
<path d="M6.75784 45.3478C7.73429 47.5002 9.30406 48.0643 11.2756 48.1202C21.5935 48.4182 31.9115 48.7268 42.2001 49.0328C41.5084 50.6238 40.0689 51.8318 37.403 51.7892C29.7803 51.6721 22.1523 51.7785 14.5375 51.5151C8.32761 51.2996 5.00714 47.9978 4.93264 42.5435C4.9087 40.862 4.92998 39.1831 4.92998 36.9615C5.71221 37.5681 6.16452 37.7437 6.24966 38.0124C7.62254 42.2615 10.0437 44.0281 14.8861 44.2436C15.4102 44.2676 15.945 44.2277 16.4612 44.2968C25.4887 45.4808 33.7207 44.2649 40.3749 38.1668C40.6543 37.9113 41.0773 37.7783 41.942 37.318C41.6334 39.7791 41.4605 41.8278 41.096 43.8472C40.7554 45.7336 38.9621 45.8879 37.2753 46.0422C27.8088 46.9122 18.3688 46.6542 8.9502 45.5234C8.3622 45.4542 7.76888 45.425 6.7605 45.3451L6.75784 45.3478Z" fill="black"/>
<path d="M82.6603 26.6356C78.6428 26.2844 74.721 25.9864 70.8152 25.5448C70.3709 25.4942 69.7722 24.6907 69.6684 24.1533C69.3066 22.2935 69.1337 20.3991 68.8889 18.518C68.1758 22.666 68.825 27.1491 64.4137 29.9215C64.5787 30.0412 64.7436 30.1636 64.9086 30.2834C65.2704 30.0519 65.6722 29.863 65.9914 29.5836C68.0481 27.7717 70.4374 27.1012 73.1592 27.2023C76.6526 27.3327 80.1487 27.3141 83.6447 27.3407C86.1484 27.3593 88.6547 27.3434 91.0333 27.3434C89.8892 27.2289 88.6095 27.0773 87.3271 26.9762L82.6576 26.6356H82.6603Z" fill="#7C7C7C"/>
<path d="M8.49526 12.3267C5.09497 12.8642 4.19834 15.3226 3.70346 18.1429C3.52253 19.1699 3.35225 20.2394 2.90793 21.1573C2.68976 21.607 1.83835 21.9848 1.29559 21.9609C0.885849 21.9422 0.268582 21.2851 0.154175 20.8141C-0.934023 16.3203 3.93759 11.2066 8.49526 12.3267Z" fill="black"/>
<path d="M91.9831 19.0901C77.8205 12.9786 67.9842 7.8143 53.3613 1.56714C51.1769 0.633254 50.0568 1.16804 49.6045 3.42958C48.4019 9.43728 47.0929 15.4264 46.0206 21.458C45.4114 24.8956 45.1825 28.3996 44.7968 31.7573C46.8508 24.3049 48.7983 16.7726 51.0359 9.3282C52.2226 5.3745 53.2283 5.0499 57.0144 6.47334C67.6702 10.4776 72.9808 13.399 83.6367 17.4006C86.4117 18.4435 89.1974 19.4599 91.9831 20.4736V19.0901Z" fill="black"/>
<path d="M54.7451 46.0528C53.7261 45.6351 52.9146 45.0125 52.3053 44.1904C51.696 43.3683 51.3741 42.3785 51.3422 41.2211H55.8972C55.9637 41.8756 56.1898 42.3758 56.573 42.7191C56.9561 43.0623 57.4563 43.2352 58.0736 43.2352C58.6908 43.2352 59.207 43.0889 59.5742 42.7936C59.9413 42.5009 60.1249 42.0938 60.1249 41.5723C60.1249 41.136 59.9786 40.7768 59.6859 40.4895C59.3932 40.2048 59.0341 39.9706 58.611 39.7844C58.1853 39.6008 57.5813 39.3906 56.7965 39.1538C55.663 38.8026 54.7371 38.4488 54.0188 38.0975C53.3004 37.7437 52.6831 37.2249 52.167 36.5358C51.6508 35.8493 51.3901 34.95 51.3901 33.8432C51.3901 32.1989 51.9834 30.9112 53.1674 29.98C54.3513 29.0487 55.8945 28.5831 57.7969 28.5831C59.6992 28.5831 61.2929 29.0487 62.4769 29.98C63.6609 30.9112 64.2941 32.2069 64.3793 33.8698H59.7498C59.7152 33.3004 59.5076 32.8508 59.1245 32.5235C58.7414 32.1963 58.2492 32.034 57.6479 32.034C57.1317 32.034 56.714 32.1723 56.3974 32.449C56.0807 32.7257 55.9211 33.1248 55.9211 33.6437C55.9211 34.213 56.1872 34.66 56.722 34.9766C57.2567 35.2959 58.0895 35.6391 59.2256 36.009C60.359 36.3947 61.2823 36.7646 61.99 37.1158C62.6977 37.4696 63.3123 37.9805 63.8285 38.651C64.3447 39.3214 64.6054 40.1861 64.6054 41.2424C64.6054 42.2987 64.35 43.1634 63.8418 43.9855C63.3336 44.8077 62.594 45.4622 61.6282 45.9491C60.6597 46.436 59.5183 46.6781 58.1986 46.6781C56.8789 46.6781 55.7615 46.4679 54.7451 46.0475V46.0528Z" fill="#212121"/>
<path d="M81.0216 32.4597V46.5052H76.7433V44.5922C76.3096 45.2121 75.7216 45.7123 74.9793 46.0901C74.237 46.4679 73.4148 46.6568 72.5155 46.6568C71.4486 46.6568 70.5041 46.4174 69.6873 45.9384C68.8705 45.4595 68.2346 44.7678 67.7849 43.8632C67.3353 42.9585 67.1091 41.8916 67.1091 40.6651V32.4597H71.3635V40.0877C71.3635 41.0269 71.6056 41.7586 72.0898 42.2774C72.5741 42.7989 73.2233 43.057 74.0427 43.057C74.8622 43.057 75.5353 42.7962 76.0196 42.2774C76.5038 41.7586 76.7459 41.0269 76.7459 40.0877V32.4597H81.0242H81.0216Z" fill="#212121"/>
<path d="M91.9939 32.8615C92.7362 33.2632 93.3082 33.7927 93.7073 34.4472V32.4597H97.9856V46.4812C97.9856 47.7743 97.7302 48.945 97.222 49.9933C96.7138 51.0416 95.9369 51.877 94.894 52.4969C93.851 53.1168 92.5553 53.4281 91.0041 53.4281C88.9342 53.4281 87.258 52.9359 85.9755 51.9541C84.6905 50.9724 83.9561 49.6421 83.7725 47.9659H88.0029C88.136 48.5033 88.4526 48.9264 88.9528 49.2376C89.453 49.5489 90.0702 49.7033 90.8046 49.7033C91.6879 49.7033 92.393 49.4478 92.9198 48.937C93.4466 48.4235 93.7073 47.6067 93.7073 46.4839V44.4964C93.2896 45.1509 92.7149 45.683 91.9806 46.0954C91.2463 46.5078 90.3869 46.7127 89.4024 46.7127C88.2504 46.7127 87.2074 46.4147 86.2735 45.8187C85.3396 45.2227 84.6 44.3767 84.0599 43.2778C83.5171 42.179 83.2457 40.9072 83.2457 39.4651C83.2457 38.0231 83.5171 36.7566 84.0599 35.6631C84.6026 34.5722 85.3396 33.7341 86.2735 33.1461C87.2074 32.5581 88.2504 32.2655 89.4024 32.2655C90.3869 32.2655 91.2489 32.4677 91.9912 32.8694L91.9939 32.8615ZM92.8187 36.9402C92.2254 36.3203 91.5043 36.009 90.6529 36.009C89.8015 36.009 89.0805 36.315 88.4872 36.9269C87.8939 37.5388 87.5985 38.3823 87.5985 39.4572C87.5985 40.5321 87.8939 41.3835 88.4872 42.0114C89.0778 42.6419 89.8015 42.9559 90.6529 42.9559C91.5043 42.9559 92.2254 42.6446 92.8187 42.0247C93.412 41.4047 93.7073 40.556 93.7073 39.4838C93.7073 38.4115 93.412 37.5628 92.8187 36.9402Z" fill="#212121"/>
<path d="M101.053 35.6551C101.596 34.5642 102.333 33.7261 103.267 33.1381C104.201 32.5501 105.244 32.2575 106.396 32.2575C107.38 32.2575 108.242 32.4597 108.985 32.8614C109.727 33.2632 110.299 33.7927 110.698 34.4472V32.4597H114.976V46.5052H110.698V44.5177C110.28 45.1722 109.7 45.7017 108.958 46.1034C108.216 46.5052 107.351 46.7074 106.369 46.7074C105.233 46.7074 104.201 46.4094 103.267 45.8134C102.333 45.2174 101.593 44.3713 101.053 43.2725C100.511 42.1737 100.239 40.9019 100.239 39.4598C100.239 38.0177 100.511 36.7513 101.053 35.6578V35.6551ZM109.812 36.9375C109.219 36.3176 108.498 36.0063 107.646 36.0063C106.795 36.0063 106.074 36.3123 105.481 36.9242C104.887 37.5362 104.592 38.3796 104.592 39.4545C104.592 40.5294 104.887 41.3808 105.481 42.0087C106.071 42.6393 106.795 42.9532 107.646 42.9532C108.498 42.9532 109.219 42.6419 109.812 42.022C110.405 41.4021 110.701 40.5533 110.701 39.4811C110.701 38.4089 110.405 37.5601 109.812 36.9375Z" fill="#212121"/>
<path d="M140.04 33.8938C141.067 34.95 141.577 36.4187 141.577 38.2998V46.5051H137.323V38.8771C137.323 37.9698 137.086 37.2701 136.61 36.7752C136.134 36.2803 135.479 36.0329 134.646 36.0329C133.814 36.0329 133.156 36.2803 132.683 36.7752C132.207 37.2701 131.97 37.9698 131.97 38.8771V46.5051H127.715V38.8771C127.715 37.9698 127.479 37.2701 127.002 36.7752C126.526 36.2803 125.872 36.0329 125.039 36.0329C124.206 36.0329 123.549 36.2803 123.075 36.7752C122.599 37.2701 122.362 37.9698 122.362 38.8771V46.5051H118.084V32.4597H122.362V34.221C122.796 33.633 123.363 33.1674 124.065 32.8242C124.767 32.481 125.558 32.308 126.444 32.308C127.495 32.308 128.434 32.5342 129.259 32.9865C130.083 33.4388 130.73 34.0853 131.198 34.9261C131.682 34.1545 132.34 33.5239 133.175 33.037C134.008 32.5501 134.918 32.308 135.902 32.308C137.637 32.308 139.018 32.8375 140.045 33.8938H140.04Z" fill="#212121"/>
<path d="M164.951 28.8359L158.872 40.6651V46.5052H154.593V40.6651L148.514 28.8359H153.369L156.772 36.2351L160.151 28.8359H164.956H164.951Z" fill="#212121"/>
<path d="M166.641 35.6551C167.183 34.5642 167.92 33.7261 168.854 33.1381C169.788 32.5501 170.831 32.2575 171.983 32.2575C172.968 32.2575 173.83 32.4597 174.572 32.8614C175.314 33.2632 175.886 33.7927 176.285 34.4472V32.4597H180.564V46.5052H176.285V44.5177C175.868 45.1722 175.288 45.7017 174.545 46.1034C173.803 46.5052 172.938 46.7074 171.957 46.7074C170.82 46.7074 169.788 46.4094 168.854 45.8134C167.92 45.2174 167.181 44.3713 166.641 43.2725C166.098 42.1737 165.826 40.9019 165.826 39.4598C165.826 38.0177 166.098 36.7513 166.641 35.6578V35.6551ZM175.399 36.9375C174.806 36.3176 174.085 36.0063 173.234 36.0063C172.382 36.0063 171.661 36.3123 171.068 36.9242C170.475 37.5362 170.179 38.3796 170.179 39.4545C170.179 40.5294 170.475 41.3808 171.068 42.0087C171.659 42.6393 172.382 42.9532 173.234 42.9532C174.085 42.9532 174.806 42.6419 175.399 42.022C175.993 41.4021 176.288 40.5533 176.288 39.4811C176.288 38.4089 175.993 37.5601 175.399 36.9375Z" fill="#212121"/>
<path d="M191.451 42.8548V46.5052H189.274C187.723 46.5052 186.513 46.1247 185.645 45.3611C184.778 44.5975 184.344 43.3523 184.344 41.6229V36.0356H182.642V32.4597H184.344V29.0355H188.623V32.4597H191.424V36.0356H188.623V41.6735C188.623 42.0938 188.724 42.3945 188.923 42.5807C189.123 42.767 189.458 42.8574 189.924 42.8574H191.451V42.8548Z" fill="#212121"/>
<path d="M199.986 32.9758C200.737 32.5315 201.572 32.308 202.49 32.308V36.863H201.314C200.247 36.863 199.446 37.0945 198.911 37.5548C198.377 38.0177 198.111 38.8266 198.111 39.9839V46.5025H193.832V32.457H198.111V34.7984C198.611 34.0268 199.236 33.4175 199.986 32.9732V32.9758Z" fill="#212121"/>
<path d="M204.501 35.6551C205.044 34.5642 205.781 33.7261 206.715 33.1381C207.649 32.5501 208.692 32.2575 209.844 32.2575C210.828 32.2575 211.69 32.4597 212.433 32.8614C213.175 33.2632 213.747 33.7927 214.146 34.4472V32.4597H218.424V46.5052H214.146V44.5177C213.728 45.1722 213.148 45.7017 212.406 46.1034C211.664 46.5052 210.799 46.7074 209.817 46.7074C208.681 46.7074 207.649 46.4094 206.715 45.8134C205.781 45.2174 205.042 44.3713 204.501 43.2725C203.959 42.1737 203.687 40.9019 203.687 39.4598C203.687 38.0177 203.959 36.7513 204.501 35.6578V35.6551ZM213.26 36.9375C212.667 36.3176 211.946 36.0063 211.094 36.0063C210.243 36.0063 209.522 36.3123 208.929 36.9242C208.335 37.5362 208.04 38.3796 208.04 39.4545C208.04 40.5294 208.335 41.3808 208.929 42.0087C209.519 42.6393 210.243 42.9532 211.094 42.9532C211.946 42.9532 212.667 42.6419 213.26 42.022C213.854 41.4021 214.149 40.5533 214.149 39.4811C214.149 38.4089 213.854 37.5601 213.26 36.9375Z" fill="#212121"/>
</svg>
