<svg width="857" height="234" viewBox="0 0 857 234" fill="none" xmlns="http://www.w3.org/2000/svg">
<g filter="url(#filter0_d_1749_1535)">
<rect x="12" y="8" width="833" height="210" fill="white"/>
</g>
<path d="M44.024 42.304C44.024 41.312 43.464 40.688 42.216 40.688H40.344V43.968H42.216C43.464 43.968 44.024 43.312 44.024 42.304ZM38.104 38.832H42.296C44.984 38.832 46.328 40.384 46.328 42.256C46.328 43.616 45.576 44.992 43.784 45.472L46.456 50H43.864L41.4 45.648H40.344V50H38.104V38.832ZM52.162 42.832C51.09 42.832 50.242 43.52 50.066 44.736H54.274C54.242 43.568 53.314 42.832 52.162 42.832ZM56.37 47.216C55.89 48.848 54.418 50.144 52.226 50.144C49.65 50.144 47.778 48.352 47.778 45.568C47.778 42.768 49.602 40.992 52.226 40.992C54.786 40.992 56.594 42.736 56.594 45.376C56.594 45.664 56.578 45.952 56.53 46.24H50.05C50.162 47.552 51.058 48.288 52.178 48.288C53.138 48.288 53.666 47.808 53.954 47.216H56.37ZM64.437 50V45.104C64.437 43.68 63.653 42.912 62.469 42.912C61.253 42.912 60.469 43.68 60.469 45.104V50H58.229V41.136H60.469V42.24C61.045 41.488 62.005 41.008 63.141 41.008C65.205 41.008 66.677 42.352 66.677 44.8V50H64.437ZM72.6151 42.832C71.5431 42.832 70.6951 43.52 70.5191 44.736H74.7271C74.6951 43.568 73.7671 42.832 72.6151 42.832ZM76.8231 47.216C76.3431 48.848 74.8711 50.144 72.6791 50.144C70.1031 50.144 68.2311 48.352 68.2311 45.568C68.2311 42.768 70.0551 40.992 72.6791 40.992C75.2391 40.992 77.0471 42.736 77.0471 45.376C77.0471 45.664 77.0311 45.952 76.9831 46.24H70.5031C70.6151 47.552 71.5111 48.288 72.6311 48.288C73.5911 48.288 74.1191 47.808 74.4071 47.216H76.8231ZM80.2981 50L77.6901 41.136H79.9621L81.5301 47.888L83.2261 41.136H85.5941L87.2581 47.872L88.8261 41.136H90.9701L88.3781 50H85.9621L84.3461 43.808L82.7301 50H80.2981ZM91.6061 45.536C91.6061 42.768 93.3981 40.992 95.6541 40.992C97.0781 40.992 98.0541 41.664 98.5821 42.4V41.136H100.838V50H98.5821V48.704C98.0541 49.472 97.0461 50.144 95.6381 50.144C93.3981 50.144 91.6061 48.304 91.6061 45.536ZM98.5821 45.568C98.5821 43.888 97.4621 42.96 96.2301 42.96C95.0301 42.96 93.8941 43.856 93.8941 45.536C93.8941 47.216 95.0301 48.176 96.2301 48.176C97.4621 48.176 98.5821 47.248 98.5821 45.568ZM103.026 50V38.16H105.266V50H103.026ZM117.212 42.304C117.212 41.312 116.652 40.688 115.404 40.688H113.532V43.968H115.404C116.652 43.968 117.212 43.312 117.212 42.304ZM111.292 38.832H115.484C118.172 38.832 119.516 40.384 119.516 42.256C119.516 43.616 118.764 44.992 116.972 45.472L119.644 50H117.052L114.588 45.648H113.532V50H111.292V38.832ZM125.35 42.832C124.278 42.832 123.43 43.52 123.254 44.736H127.462C127.43 43.568 126.502 42.832 125.35 42.832ZM129.558 47.216C129.078 48.848 127.606 50.144 125.414 50.144C122.838 50.144 120.965 48.352 120.965 45.568C120.965 42.768 122.789 40.992 125.414 40.992C127.974 40.992 129.782 42.736 129.782 45.376C129.782 45.664 129.766 45.952 129.718 46.24H123.238C123.35 47.552 124.246 48.288 125.366 48.288C126.326 48.288 126.854 47.808 127.142 47.216H129.558ZM143.817 50V45.104C143.817 43.696 143.033 42.96 141.849 42.96C140.649 42.96 139.865 43.696 139.865 45.104V50H137.625V45.104C137.625 43.696 136.841 42.96 135.657 42.96C134.441 42.96 133.657 43.696 133.657 45.104V50H131.417V41.136H133.657V42.208C134.217 41.472 135.161 41.008 136.265 41.008C137.641 41.008 138.777 41.6 139.385 42.704C139.961 41.696 141.129 41.008 142.425 41.008C144.553 41.008 146.057 42.352 146.057 44.8V50H143.817ZM148.182 50V41.136H150.422V50H148.182ZM149.318 40.08C148.518 40.08 147.942 39.504 147.942 38.768C147.942 38.032 148.518 37.456 149.318 37.456C150.102 37.456 150.694 38.032 150.694 38.768C150.694 39.504 150.102 40.08 149.318 40.08ZM158.843 50V45.104C158.843 43.68 158.059 42.912 156.875 42.912C155.659 42.912 154.875 43.68 154.875 45.104V50H152.635V41.136H154.875V42.24C155.451 41.488 156.411 41.008 157.547 41.008C159.611 41.008 161.083 42.352 161.083 44.8V50H158.843ZM162.637 45.536C162.637 42.768 164.429 40.992 166.701 40.992C167.869 40.992 168.989 41.536 169.597 42.368V38.16H171.869V50H169.597V48.688C169.069 49.504 168.077 50.144 166.685 50.144C164.429 50.144 162.637 48.304 162.637 45.536ZM169.613 45.568C169.613 43.888 168.493 42.96 167.261 42.96C166.061 42.96 164.925 43.856 164.925 45.536C164.925 47.216 166.061 48.176 167.261 48.176C168.493 48.176 169.613 47.248 169.613 45.568ZM177.865 42.832C176.793 42.832 175.945 43.52 175.769 44.736H179.977C179.945 43.568 179.017 42.832 177.865 42.832ZM182.073 47.216C181.593 48.848 180.121 50.144 177.929 50.144C175.353 50.144 173.481 48.352 173.481 45.568C173.481 42.768 175.305 40.992 177.929 40.992C180.489 40.992 182.297 42.736 182.297 45.376C182.297 45.664 182.281 45.952 182.233 46.24H175.753C175.865 47.552 176.761 48.288 177.881 48.288C178.841 48.288 179.369 47.808 179.657 47.216H182.073ZM186.172 45.584V50H183.932V41.136H186.172V42.512C186.732 41.6 187.66 41.008 188.892 41.008V43.36H188.3C186.972 43.36 186.172 43.872 186.172 45.584ZM197.281 47.472C197.281 48.992 195.953 50.144 193.793 50.144C191.569 50.144 190.017 48.848 189.921 47.2H192.177C192.257 47.872 192.881 48.384 193.777 48.384C194.657 48.384 195.137 47.984 195.137 47.472C195.137 45.888 190.129 46.896 190.129 43.648C190.129 42.176 191.441 40.992 193.633 40.992C195.777 40.992 197.073 42.16 197.201 43.92H195.057C194.993 43.232 194.449 42.768 193.569 42.768C192.737 42.768 192.305 43.104 192.305 43.616C192.305 45.232 197.217 44.224 197.281 47.472Z" fill="#002850"/>
<path d="M42.424 172.624V173.524H39.016V176.32H42.064V177.22H39.016V180.1H42.424V181H37.924V172.624H42.424ZM53.5683 181V177.28C53.5683 175.936 52.8483 175.252 51.7683 175.252C50.6643 175.252 49.9083 175.96 49.9083 177.376V181H48.8283V177.28C48.8283 175.936 48.1083 175.252 47.0283 175.252C45.9243 175.252 45.1683 175.96 45.1683 177.376V181H44.0763V174.424H45.1683V175.372C45.6003 174.676 46.3803 174.304 47.2443 174.304C48.3243 174.304 49.2243 174.784 49.6563 175.768C50.0403 174.82 50.9763 174.304 51.9843 174.304C53.4843 174.304 54.6483 175.24 54.6483 177.124V181H53.5683ZM56.4396 181V174.424H57.5316V181H56.4396ZM57.0036 173.356C56.5836 173.356 56.2596 173.032 56.2596 172.612C56.2596 172.192 56.5836 171.868 57.0036 171.868C57.3996 171.868 57.7236 172.192 57.7236 172.612C57.7236 173.032 57.3996 173.356 57.0036 173.356ZM64.1208 179.212C64.1208 180.292 63.1728 181.108 61.7208 181.108C60.1848 181.108 59.1048 180.268 59.0328 179.068H60.1608C60.2208 179.704 60.7848 180.184 61.7088 180.184C62.5728 180.184 63.0528 179.752 63.0528 179.212C63.0528 177.748 59.1648 178.6 59.1648 176.152C59.1648 175.144 60.1128 174.316 61.5768 174.316C63.0288 174.316 63.9888 175.096 64.0608 176.38H62.9688C62.9208 175.72 62.4168 175.24 61.5408 175.24C60.7368 175.24 60.2568 175.624 60.2568 176.152C60.2568 177.712 64.0728 176.86 64.1208 179.212ZM70.3903 179.212C70.3903 180.292 69.4423 181.108 67.9903 181.108C66.4543 181.108 65.3743 180.268 65.3023 179.068H66.4303C66.4903 179.704 67.0543 180.184 67.9783 180.184C68.8423 180.184 69.3223 179.752 69.3223 179.212C69.3223 177.748 65.4343 178.6 65.4343 176.152C65.4343 175.144 66.3823 174.316 67.8463 174.316C69.2983 174.316 70.2583 175.096 70.3303 176.38H69.2383C69.1903 175.72 68.6863 175.24 67.8103 175.24C67.0063 175.24 66.5263 175.624 66.5263 176.152C66.5263 177.712 70.3423 176.86 70.3903 179.212ZM71.9318 181V174.424H73.0238V181H71.9318ZM72.4958 173.356C72.0758 173.356 71.7518 173.032 71.7518 172.612C71.7518 172.192 72.0758 171.868 72.4958 171.868C72.8918 171.868 73.2158 172.192 73.2158 172.612C73.2158 173.032 72.8918 173.356 72.4958 173.356ZM81.1249 177.7C81.1249 179.788 79.6249 181.108 77.7529 181.108C75.8929 181.108 74.4769 179.788 74.4769 177.7C74.4769 175.624 75.9409 174.316 77.8009 174.316C79.6729 174.316 81.1249 175.624 81.1249 177.7ZM75.5929 177.7C75.5929 179.368 76.6129 180.148 77.7529 180.148C78.8929 180.148 80.0089 179.368 80.0089 177.7C80.0089 176.044 78.9169 175.264 77.7889 175.264C76.6369 175.264 75.5929 176.044 75.5929 177.7ZM82.5607 181V174.424H83.6527V181H82.5607ZM83.1247 173.356C82.7047 173.356 82.3807 173.032 82.3807 172.612C82.3807 172.192 82.7047 171.868 83.1247 171.868C83.5207 171.868 83.8447 172.192 83.8447 172.612C83.8447 173.032 83.5207 173.356 83.1247 173.356ZM90.3258 181V177.28C90.3258 175.936 89.5938 175.252 88.4898 175.252C87.3738 175.252 86.6058 175.948 86.6058 177.364V181H85.5138V174.424H86.6058V175.36C87.0378 174.676 87.8298 174.304 88.7178 174.304C90.2418 174.304 91.4058 175.24 91.4058 177.124V181H90.3258ZM95.8728 173.524V172.636H101.537V173.524H99.2568V181H98.1648V173.524H95.8728ZM105.677 175.24C104.609 175.24 103.721 175.948 103.601 177.232H107.753C107.765 175.948 106.805 175.24 105.677 175.24ZM108.749 178.972C108.413 180.172 107.357 181.108 105.725 181.108C103.853 181.108 102.473 179.788 102.473 177.7C102.473 175.624 103.805 174.316 105.725 174.316C107.633 174.316 108.881 175.66 108.881 177.46C108.881 177.7 108.869 177.892 108.845 178.12H103.589C103.673 179.452 104.609 180.184 105.725 180.184C106.709 180.184 107.333 179.68 107.573 178.972H108.749ZM115.05 179.212C115.05 180.292 114.102 181.108 112.65 181.108C111.114 181.108 110.034 180.268 109.962 179.068H111.09C111.15 179.704 111.714 180.184 112.638 180.184C113.502 180.184 113.982 179.752 113.982 179.212C113.982 177.748 110.094 178.6 110.094 176.152C110.094 175.144 111.042 174.316 112.506 174.316C113.958 174.316 114.918 175.096 114.99 176.38H113.898C113.85 175.72 113.346 175.24 112.47 175.24C111.666 175.24 111.186 175.624 111.186 176.152C111.186 177.712 115.002 176.86 115.05 179.212ZM116.832 179.2V175.324H115.98V174.424H116.832V172.768H117.924V174.424H119.64V175.324H117.924V179.2C117.924 179.848 118.164 180.076 118.836 180.076H119.64V181H118.656C117.492 181 116.832 180.52 116.832 179.2Z" fill="#212121"/>
<path d="M39.94 190.03C42.23 190.03 43.64 191.37 43.64 193.53C43.64 195.69 42.23 197 39.94 197H37.77V190.03H39.94ZM38.68 196.25H39.94C41.76 196.25 42.71 195.23 42.71 193.53C42.71 191.83 41.76 190.77 39.94 190.77H38.68V196.25ZM49.7003 191.52V197H48.7903V196.19C48.4403 196.76 47.7703 197.08 47.0403 197.08C45.7803 197.08 44.7903 196.3 44.7903 194.73V191.52H45.6903V194.61C45.6903 195.72 46.3003 196.29 47.2203 196.29C48.1603 196.29 48.7903 195.71 48.7903 194.53V191.52H49.7003ZM53.5668 192.2C52.6768 192.2 51.9368 192.79 51.8368 193.86H55.2968C55.3068 192.79 54.5068 192.2 53.5668 192.2ZM56.1268 195.31C55.8468 196.31 54.9668 197.09 53.6068 197.09C52.0468 197.09 50.8968 195.99 50.8968 194.25C50.8968 192.52 52.0068 191.43 53.6068 191.43C55.1968 191.43 56.2368 192.55 56.2368 194.05C56.2368 194.25 56.2268 194.41 56.2068 194.6H51.8268C51.8968 195.71 52.6768 196.32 53.6068 196.32C54.4268 196.32 54.9468 195.9 55.1468 195.31H56.1268ZM64.634 195.1C64.634 196.09 63.824 197.07 62.314 197.07C60.914 197.07 59.924 196.29 59.904 195.14H60.874C60.934 195.72 61.344 196.3 62.314 196.3C63.194 196.3 63.714 195.8 63.714 195.14C63.714 193.26 59.944 194.46 59.944 191.87C59.944 190.72 60.874 189.94 62.254 189.94C63.584 189.94 64.454 190.67 64.564 191.73H63.564C63.504 191.26 63.064 190.73 62.214 190.72C61.464 190.7 60.874 191.09 60.874 191.84C60.874 193.64 64.634 192.52 64.634 195.1ZM71.1731 194.25C71.1731 195.99 69.9231 197.09 68.3631 197.09C66.8131 197.09 65.6331 195.99 65.6331 194.25C65.6331 192.52 66.8531 191.43 68.4031 191.43C69.9631 191.43 71.1731 192.52 71.1731 194.25ZM66.5631 194.25C66.5631 195.64 67.4131 196.29 68.3631 196.29C69.3131 196.29 70.2431 195.64 70.2431 194.25C70.2431 192.87 69.3331 192.22 68.3931 192.22C67.4331 192.22 66.5631 192.87 66.5631 194.25ZM77.5696 194.25C77.5696 195.99 76.3196 197.09 74.7596 197.09C73.2096 197.09 72.0296 195.99 72.0296 194.25C72.0296 192.52 73.2496 191.43 74.7996 191.43C76.3596 191.43 77.5696 192.52 77.5696 194.25ZM72.9596 194.25C72.9596 195.64 73.8096 196.29 74.7596 196.29C75.7096 196.29 76.6396 195.64 76.6396 194.25C76.6396 192.87 75.7296 192.22 74.7896 192.22C73.8296 192.22 72.9596 192.87 72.9596 194.25ZM82.7761 197V193.9C82.7761 192.78 82.1661 192.21 81.2461 192.21C80.3161 192.21 79.6761 192.79 79.6761 193.97V197H78.7661V191.52H79.6761V192.3C80.0361 191.73 80.6961 191.42 81.4361 191.42C82.7061 191.42 83.6761 192.2 83.6761 193.77V197H82.7761ZM86.0526 196.44C86.0526 196.79 85.7826 197.06 85.4526 197.06C85.1026 197.06 84.8326 196.79 84.8326 196.44C84.8326 196.09 85.1026 195.82 85.4526 195.82C85.7826 195.82 86.0526 196.09 86.0526 196.44ZM86.0526 192.16C86.0526 192.51 85.7826 192.78 85.4526 192.78C85.1026 192.78 84.8326 192.51 84.8326 192.16C84.8326 191.81 85.1026 191.54 85.4526 191.54C85.7826 191.54 86.0526 191.81 86.0526 192.16ZM93.1935 197V190.6H92.2335V189.77H94.1135V197H93.1935ZM99.5627 197L97.8427 191.52H98.7727L100.033 196.12L101.393 191.52H102.323L103.653 196.13L104.893 191.52H105.793L104.083 197H103.143L101.823 192.65L100.503 197H99.5627ZM109.026 192.2C108.136 192.2 107.396 192.79 107.296 193.86H110.756C110.766 192.79 109.966 192.2 109.026 192.2ZM111.586 195.31C111.306 196.31 110.426 197.09 109.066 197.09C107.506 197.09 106.356 195.99 106.356 194.25C106.356 192.52 107.466 191.43 109.066 191.43C110.656 191.43 111.696 192.55 111.696 194.05C111.696 194.25 111.686 194.41 111.666 194.6H107.286C107.356 195.71 108.136 196.32 109.066 196.32C109.886 196.32 110.406 195.9 110.606 195.31H111.586ZM115.227 192.2C114.337 192.2 113.597 192.79 113.497 193.86H116.957C116.967 192.79 116.167 192.2 115.227 192.2ZM117.787 195.31C117.507 196.31 116.627 197.09 115.267 197.09C113.707 197.09 112.557 195.99 112.557 194.25C112.557 192.52 113.667 191.43 115.267 191.43C116.857 191.43 117.897 192.55 117.897 194.05C117.897 194.25 117.887 194.41 117.867 194.6H113.487C113.557 195.71 114.337 196.32 115.267 196.32C116.087 196.32 116.607 195.9 116.807 195.31H117.787ZM119.098 197V189.6H120.008V193.95L122.118 191.52H123.388L120.808 194.25L123.398 197H122.158L120.008 194.58V197H119.098ZM127.081 197V192.27H126.371V191.52H127.081V191.13C127.081 189.91 127.681 189.36 129.081 189.36V190.12C128.261 190.12 127.991 190.42 127.991 191.13V191.52H129.141V192.27H127.991V197H127.081ZM131.112 194.02V197H130.202V191.52H131.112V192.41C131.422 191.8 132.012 191.42 132.882 191.42V192.36H132.642C131.772 192.36 131.112 192.75 131.112 194.02ZM139.132 194.25C139.132 195.99 137.882 197.09 136.322 197.09C134.772 197.09 133.592 195.99 133.592 194.25C133.592 192.52 134.812 191.43 136.362 191.43C137.922 191.43 139.132 192.52 139.132 194.25ZM134.522 194.25C134.522 195.64 135.372 196.29 136.322 196.29C137.272 196.29 138.202 195.64 138.202 194.25C138.202 192.87 137.292 192.22 136.352 192.22C135.392 192.22 134.522 192.87 134.522 194.25ZM148.239 197V193.9C148.239 192.78 147.639 192.21 146.739 192.21C145.819 192.21 145.189 192.8 145.189 193.98V197H144.289V193.9C144.289 192.78 143.689 192.21 142.789 192.21C141.869 192.21 141.239 192.8 141.239 193.98V197H140.329V191.52H141.239V192.31C141.599 191.73 142.249 191.42 142.969 191.42C143.869 191.42 144.619 191.82 144.979 192.64C145.299 191.85 146.079 191.42 146.919 191.42C148.169 191.42 149.139 192.2 149.139 193.77V197H148.239ZM157.307 197V193.9C157.307 192.78 156.697 192.21 155.777 192.21C154.847 192.21 154.207 192.79 154.207 193.97V197H153.297V191.52H154.207V192.3C154.567 191.73 155.227 191.42 155.967 191.42C157.237 191.42 158.207 192.2 158.207 193.77V197H157.307ZM164.894 194.25C164.894 195.99 163.644 197.09 162.084 197.09C160.534 197.09 159.354 195.99 159.354 194.25C159.354 192.52 160.574 191.43 162.124 191.43C163.684 191.43 164.894 192.52 164.894 194.25ZM160.284 194.25C160.284 195.64 161.134 196.29 162.084 196.29C163.034 196.29 163.964 195.64 163.964 194.25C163.964 192.87 163.054 192.22 162.114 192.22C161.154 192.22 160.284 192.87 160.284 194.25ZM167.16 197L165.44 191.52H166.37L167.63 196.12L168.99 191.52H169.92L171.25 196.13L172.49 191.52H173.39L171.68 197H170.74L169.42 192.65L168.1 197H167.16Z" fill="#FC9B42"/>
<path d="M66.916 100.812C66.916 103.32 65.08 105.084 62.716 105.084C60.364 105.084 58.516 103.32 58.516 100.812C58.516 98.304 60.364 96.54 62.716 96.54C65.08 96.54 66.916 98.304 66.916 100.812ZM59.632 100.812C59.632 102.852 60.952 104.136 62.716 104.136C64.48 104.136 65.8 102.852 65.8 100.812C65.8 98.76 64.48 97.488 62.716 97.488C60.952 97.488 59.632 98.76 59.632 100.812ZM67.5776 98.424H68.7536L70.8056 103.992L72.8456 98.424H74.0096L71.4296 105H70.1576L67.5776 98.424ZM77.8802 99.24C76.8122 99.24 75.9242 99.948 75.8042 101.232H79.9562C79.9682 99.948 79.0082 99.24 77.8802 99.24ZM80.9522 102.972C80.6162 104.172 79.5602 105.108 77.9282 105.108C76.0562 105.108 74.6762 103.788 74.6762 101.7C74.6762 99.624 76.0082 98.316 77.9282 98.316C79.8362 98.316 81.0842 99.66 81.0842 101.46C81.0842 101.7 81.0722 101.892 81.0482 102.12H75.7922C75.8762 103.452 76.8122 104.184 77.9282 104.184C78.9122 104.184 79.5362 103.68 79.7762 102.972H80.9522ZM83.6176 101.424V105H82.5256V98.424H83.6176V99.492C83.9896 98.76 84.6976 98.304 85.7416 98.304V99.432H85.4536C84.4096 99.432 83.6176 99.9 83.6176 101.424ZM86.5941 101.688C86.5941 99.636 87.9501 98.316 89.7261 98.316C90.7581 98.316 91.7061 98.844 92.1621 99.6V96.12H93.2661V105H92.1621V103.764C91.7661 104.496 90.9141 105.108 89.7141 105.108C87.9501 105.108 86.5941 103.728 86.5941 101.688ZM92.1621 101.7C92.1621 100.176 91.1301 99.264 89.9301 99.264C88.7301 99.264 87.7101 100.14 87.7101 101.688C87.7101 103.236 88.7301 104.148 89.9301 104.148C91.1301 104.148 92.1621 103.248 92.1621 101.7ZM100.944 98.424V105H99.8515V104.028C99.4315 104.712 98.6275 105.096 97.7515 105.096C96.2395 105.096 95.0515 104.16 95.0515 102.276V98.424H96.1315V102.132C96.1315 103.464 96.8635 104.148 97.9675 104.148C99.0955 104.148 99.8515 103.452 99.8515 102.036V98.424H100.944ZM105.583 99.24C104.515 99.24 103.627 99.948 103.507 101.232H107.659C107.671 99.948 106.711 99.24 105.583 99.24ZM108.655 102.972C108.319 104.172 107.263 105.108 105.631 105.108C103.759 105.108 102.379 103.788 102.379 101.7C102.379 99.624 103.711 98.316 105.631 98.316C107.539 98.316 108.787 99.66 108.787 101.46C108.787 101.7 108.775 101.892 108.751 102.12H103.495C103.579 103.452 104.515 104.184 105.631 104.184C106.615 104.184 107.239 103.68 107.479 102.972H108.655Z" fill="#A6A6A6"/>
<path d="M58.96 122.016C58.96 118.688 59.856 116.128 63.12 116.128C66.384 116.128 67.28 118.688 67.28 122.016C67.28 125.408 66.384 127.968 63.12 127.968C59.856 127.968 58.96 125.408 58.96 122.016ZM65.488 122.016C65.488 119.84 65.248 117.792 63.12 117.792C60.992 117.792 60.752 119.84 60.752 122.016C60.752 124.304 60.992 126.304 63.12 126.304C65.248 126.304 65.488 124.304 65.488 122.016Z" fill="#212121"/>
<path d="M446.528 96.636C449.276 96.636 450.968 98.244 450.968 100.836C450.968 103.428 449.276 105 446.528 105H443.924V96.636H446.528ZM445.016 104.1H446.528C448.712 104.1 449.852 102.876 449.852 100.836C449.852 98.796 448.712 97.524 446.528 97.524H445.016V104.1ZM458.24 98.424V105H457.148V104.028C456.728 104.712 455.924 105.096 455.048 105.096C453.536 105.096 452.348 104.16 452.348 102.276V98.424H453.428V102.132C453.428 103.464 454.16 104.148 455.264 104.148C456.392 104.148 457.148 103.452 457.148 102.036V98.424H458.24ZM462.88 99.24C461.812 99.24 460.924 99.948 460.804 101.232H464.956C464.968 99.948 464.008 99.24 462.88 99.24ZM465.952 102.972C465.616 104.172 464.56 105.108 462.928 105.108C461.056 105.108 459.676 103.788 459.676 101.7C459.676 99.624 461.008 98.316 462.928 98.316C464.836 98.316 466.084 99.66 466.084 101.46C466.084 101.7 466.072 101.892 466.048 102.12H460.792C460.876 103.452 461.812 104.184 462.928 104.184C463.912 104.184 464.536 103.68 464.776 102.972H465.952ZM476.161 102.72C476.161 103.908 475.189 105.084 473.377 105.084C471.697 105.084 470.509 104.148 470.485 102.768H471.649C471.721 103.464 472.213 104.16 473.377 104.16C474.433 104.16 475.057 103.56 475.057 102.768C475.057 100.512 470.533 101.952 470.533 98.844C470.533 97.464 471.649 96.528 473.305 96.528C474.901 96.528 475.945 97.404 476.077 98.676H474.877C474.805 98.112 474.277 97.476 473.257 97.464C472.357 97.44 471.649 97.908 471.649 98.808C471.649 100.968 476.161 99.624 476.161 102.72ZM484.008 101.7C484.008 103.788 482.508 105.108 480.636 105.108C478.776 105.108 477.36 103.788 477.36 101.7C477.36 99.624 478.824 98.316 480.684 98.316C482.556 98.316 484.008 99.624 484.008 101.7ZM478.476 101.7C478.476 103.368 479.496 104.148 480.636 104.148C481.776 104.148 482.892 103.368 482.892 101.7C482.892 100.044 481.8 99.264 480.672 99.264C479.52 99.264 478.476 100.044 478.476 101.7ZM491.684 101.7C491.684 103.788 490.184 105.108 488.312 105.108C486.452 105.108 485.036 103.788 485.036 101.7C485.036 99.624 486.5 98.316 488.36 98.316C490.232 98.316 491.684 99.624 491.684 101.7ZM486.152 101.7C486.152 103.368 487.172 104.148 488.312 104.148C489.452 104.148 490.568 103.368 490.568 101.7C490.568 100.044 489.476 99.264 488.348 99.264C487.196 99.264 486.152 100.044 486.152 101.7ZM497.931 105V101.28C497.931 99.936 497.199 99.252 496.095 99.252C494.979 99.252 494.211 99.948 494.211 101.364V105H493.119V98.424H494.211V99.36C494.643 98.676 495.435 98.304 496.323 98.304C497.847 98.304 499.011 99.24 499.011 101.124V105H497.931Z" fill="#A6A6A6"/>
<path d="M443.816 127.84V126.512C446.568 124.096 449.464 121.984 449.464 119.696C449.464 118.48 448.936 117.648 447.576 117.648C446.296 117.648 445.608 118.544 445.56 119.856H443.8C443.864 117.328 445.496 116.096 447.56 116.096C449.928 116.096 451.272 117.52 451.272 119.616C451.272 122.448 448.392 124.608 446.52 126.32H451.592V127.84H443.816Z" fill="#F3AE37"/>
<path d="M565.186 41.306H566.376V44.344H569.358V45.422H566.376V48.446H565.186V45.422H562.218V44.344H565.186V41.306ZM581.919 50L581.135 47.83H576.879L576.095 50H574.751L578.279 40.298H579.749L583.263 50H581.919ZM580.771 46.794L579.007 41.866L577.243 46.794H580.771ZM584.325 46.136C584.325 43.742 585.907 42.202 587.979 42.202C589.183 42.202 590.289 42.818 590.821 43.7V39.64H592.109V50H590.821V48.558C590.359 49.412 589.365 50.126 587.965 50.126C585.907 50.126 584.325 48.516 584.325 46.136ZM590.821 46.15C590.821 44.372 589.617 43.308 588.217 43.308C586.817 43.308 585.627 44.33 585.627 46.136C585.627 47.942 586.817 49.006 588.217 49.006C589.617 49.006 590.821 47.956 590.821 46.15ZM593.786 46.136C593.786 43.742 595.368 42.202 597.44 42.202C598.644 42.202 599.75 42.818 600.282 43.7V39.64H601.57V50H600.282V48.558C599.82 49.412 598.826 50.126 597.426 50.126C595.368 50.126 593.786 48.516 593.786 46.136ZM600.282 46.15C600.282 44.372 599.078 43.308 597.678 43.308C596.278 43.308 595.088 44.33 595.088 46.136C595.088 47.942 596.278 49.006 597.678 49.006C599.078 49.006 600.282 47.956 600.282 46.15ZM612.677 43.112C612.677 42.006 612.061 41.292 610.605 41.292H608.729V44.988H610.605C612.047 44.988 612.677 44.204 612.677 43.112ZM607.455 40.242H610.605C612.901 40.242 613.993 41.516 613.993 43.112C613.993 44.358 613.307 45.548 611.669 45.912L614.119 50H612.593L610.269 46.01H608.729V50H607.455V40.242ZM619.235 43.28C617.989 43.28 616.953 44.106 616.813 45.604H621.657C621.671 44.106 620.551 43.28 619.235 43.28ZM622.819 47.634C622.427 49.034 621.195 50.126 619.291 50.126C617.107 50.126 615.497 48.586 615.497 46.15C615.497 43.728 617.051 42.202 619.291 42.202C621.517 42.202 622.973 43.77 622.973 45.87C622.973 46.15 622.959 46.374 622.931 46.64H616.799C616.897 48.194 617.989 49.048 619.291 49.048C620.439 49.048 621.167 48.46 621.447 47.634H622.819ZM630.268 50V45.66C630.268 44.092 629.414 43.294 628.126 43.294C626.824 43.294 625.928 44.106 625.928 45.758V50H624.654V42.328H625.928V43.42C626.432 42.622 627.356 42.188 628.392 42.188C630.17 42.188 631.528 43.28 631.528 45.478V50H630.268ZM636.871 43.28C635.625 43.28 634.589 44.106 634.449 45.604H639.293C639.307 44.106 638.187 43.28 636.871 43.28ZM640.455 47.634C640.063 49.034 638.831 50.126 636.927 50.126C634.743 50.126 633.133 48.586 633.133 46.15C633.133 43.728 634.687 42.202 636.927 42.202C639.153 42.202 640.609 43.77 640.609 45.87C640.609 46.15 640.595 46.374 640.567 46.64H634.435C634.533 48.194 635.625 49.048 636.927 49.048C638.075 49.048 638.803 48.46 639.083 47.634H640.455ZM643.789 50L641.381 42.328H642.683L644.447 48.768L646.351 42.328H647.653L649.515 48.782L651.251 42.328H652.511L650.117 50H648.801L646.953 43.91L645.105 50H643.789ZM653.299 46.136C653.299 43.742 654.881 42.202 656.939 42.202C658.367 42.202 659.347 42.93 659.795 43.728V42.328H661.083V50H659.795V48.572C659.333 49.398 658.339 50.126 656.925 50.126C654.881 50.126 653.299 48.516 653.299 46.136ZM659.795 46.15C659.795 44.372 658.591 43.308 657.191 43.308C655.791 43.308 654.601 44.33 654.601 46.136C654.601 47.942 655.791 49.006 657.191 49.006C658.591 49.006 659.795 47.956 659.795 46.15ZM663.236 50V39.64H664.51V50H663.236ZM675.636 43.112C675.636 42.006 675.02 41.292 673.564 41.292H671.688V44.988H673.564C675.006 44.988 675.636 44.204 675.636 43.112ZM670.414 40.242H673.564C675.86 40.242 676.952 41.516 676.952 43.112C676.952 44.358 676.266 45.548 674.628 45.912L677.078 50H675.552L673.228 46.01H671.688V50H670.414V40.242ZM682.194 43.28C680.948 43.28 679.912 44.106 679.772 45.604H684.616C684.63 44.106 683.51 43.28 682.194 43.28ZM685.778 47.634C685.386 49.034 684.154 50.126 682.25 50.126C680.066 50.126 678.456 48.586 678.456 46.15C678.456 43.728 680.01 42.202 682.25 42.202C684.476 42.202 685.932 43.77 685.932 45.87C685.932 46.15 685.918 46.374 685.89 46.64H679.758C679.856 48.194 680.948 49.048 682.25 49.048C683.398 49.048 684.126 48.46 684.406 47.634H685.778ZM698.687 50V45.66C698.687 44.092 697.847 43.294 696.587 43.294C695.299 43.294 694.417 44.12 694.417 45.772V50H693.157V45.66C693.157 44.092 692.317 43.294 691.057 43.294C689.769 43.294 688.887 44.12 688.887 45.772V50H687.613V42.328H688.887V43.434C689.391 42.622 690.301 42.188 691.309 42.188C692.569 42.188 693.619 42.748 694.123 43.896C694.571 42.79 695.663 42.188 696.839 42.188C698.589 42.188 699.947 43.28 699.947 45.478V50H698.687ZM702.037 50V42.328H703.311V50H702.037ZM702.695 41.082C702.205 41.082 701.827 40.704 701.827 40.214C701.827 39.724 702.205 39.346 702.695 39.346C703.157 39.346 703.535 39.724 703.535 40.214C703.535 40.704 703.157 41.082 702.695 41.082ZM711.096 50V45.66C711.096 44.092 710.242 43.294 708.954 43.294C707.652 43.294 706.756 44.106 706.756 45.758V50H705.482V42.328H706.756V43.42C707.26 42.622 708.184 42.188 709.22 42.188C710.998 42.188 712.356 43.28 712.356 45.478V50H711.096ZM713.961 46.136C713.961 43.742 715.543 42.202 717.615 42.202C718.819 42.202 719.925 42.818 720.457 43.7V39.64H721.745V50H720.457V48.558C719.995 49.412 719.001 50.126 717.601 50.126C715.543 50.126 713.961 48.516 713.961 46.136ZM720.457 46.15C720.457 44.372 719.253 43.308 717.853 43.308C716.453 43.308 715.263 44.33 715.263 46.136C715.263 47.942 716.453 49.006 717.853 49.006C719.253 49.006 720.457 47.956 720.457 46.15ZM727.16 43.28C725.914 43.28 724.878 44.106 724.738 45.604H729.582C729.596 44.106 728.476 43.28 727.16 43.28ZM730.744 47.634C730.352 49.034 729.12 50.126 727.216 50.126C725.032 50.126 723.422 48.586 723.422 46.15C723.422 43.728 724.976 42.202 727.216 42.202C729.442 42.202 730.898 43.77 730.898 45.87C730.898 46.15 730.884 46.374 730.856 46.64H724.724C724.822 48.194 725.914 49.048 727.216 49.048C728.364 49.048 729.092 48.46 729.372 47.634H730.744ZM733.854 45.828V50H732.58V42.328H733.854V43.574C734.288 42.72 735.114 42.188 736.332 42.188V43.504H735.996C734.778 43.504 733.854 44.05 733.854 45.828ZM743.319 47.914C743.319 49.174 742.213 50.126 740.519 50.126C738.727 50.126 737.467 49.146 737.383 47.746H738.699C738.769 48.488 739.427 49.048 740.505 49.048C741.513 49.048 742.073 48.544 742.073 47.914C742.073 46.206 737.537 47.2 737.537 44.344C737.537 43.168 738.643 42.202 740.351 42.202C742.045 42.202 743.165 43.112 743.249 44.61H741.975C741.919 43.84 741.331 43.28 740.309 43.28C739.371 43.28 738.811 43.728 738.811 44.344C738.811 46.164 743.263 45.17 743.319 47.914Z" fill="#076FD5"/>
<path d="M761.732 48.656L764.798 40.242H766.142L762.46 50H760.99L757.308 40.242H758.666L761.732 48.656ZM767.539 50V42.328H768.813V50H767.539ZM768.197 41.082C767.707 41.082 767.329 40.704 767.329 40.214C767.329 39.724 767.707 39.346 768.197 39.346C768.659 39.346 769.037 39.724 769.037 40.214C769.037 40.704 768.659 41.082 768.197 41.082ZM774.246 43.28C773 43.28 771.964 44.106 771.824 45.604H776.668C776.682 44.106 775.562 43.28 774.246 43.28ZM777.83 47.634C777.438 49.034 776.206 50.126 774.302 50.126C772.118 50.126 770.508 48.586 770.508 46.15C770.508 43.728 772.062 42.202 774.302 42.202C776.528 42.202 777.984 43.77 777.984 45.87C777.984 46.15 777.97 46.374 777.942 46.64H771.81C771.908 48.194 773 49.048 774.302 49.048C775.45 49.048 776.178 48.46 776.458 47.634H777.83ZM781.164 50L778.756 42.328H780.058L781.822 48.768L783.726 42.328H785.028L786.89 48.782L788.626 42.328H789.886L787.492 50H786.176L784.328 43.91L782.48 50H781.164ZM801.435 50L800.651 47.83H796.395L795.611 50H794.267L797.795 40.298H799.265L802.779 50H801.435ZM800.287 46.794L798.523 41.866L796.759 46.794H800.287ZM804.316 50V39.64H805.59V50H804.316ZM807.762 50V39.64H809.036V50H807.762Z" fill="#076FD5"/>
<rect x="37.5" y="75.5" width="773" height="76" stroke="#ECECEC"/>
<line x1="424.5" y1="75" x2="424.5" y2="152" stroke="#ECECEC"/>
<defs>
<filter id="filter0_d_1749_1535" x="0" y="0" width="857" height="234" filterUnits="userSpaceOnUse" color-interpolation-filters="sRGB">
<feFlood flood-opacity="0" result="BackgroundImageFix"/>
<feColorMatrix in="SourceAlpha" type="matrix" values="0 0 0 0 0 0 0 0 0 0 0 0 0 0 0 0 0 0 127 0" result="hardAlpha"/>
<feOffset dy="4"/>
<feGaussianBlur stdDeviation="6"/>
<feComposite in2="hardAlpha" operator="out"/>
<feColorMatrix type="matrix" values="0 0 0 0 0 0 0 0 0 0 0 0 0 0 0 0 0 0 0.1 0"/>
<feBlend mode="normal" in2="BackgroundImageFix" result="effect1_dropShadow_1749_1535"/>
<feBlend mode="normal" in="SourceGraphic" in2="effect1_dropShadow_1749_1535" result="shape"/>
</filter>
</defs>
</svg>
