<svg width="857" height="333" viewBox="0 0 857 333" fill="none" xmlns="http://www.w3.org/2000/svg">
<g filter="url(#filter0_d_1749_1501)">
<rect x="12" y="8" width="833" height="309" fill="white"/>
</g>
<path d="M45.912 46.768C45.912 48.528 44.504 50.112 41.96 50.112C39.64 50.112 37.848 48.896 37.816 46.784H40.216C40.28 47.68 40.872 48.272 41.912 48.272C42.968 48.272 43.592 47.712 43.592 46.912C43.592 44.496 37.832 45.952 37.848 41.904C37.848 39.888 39.48 38.672 41.784 38.672C44.072 38.672 45.64 39.84 45.784 41.856H43.32C43.272 41.12 42.68 40.544 41.72 40.528C40.84 40.496 40.184 40.928 40.184 41.84C40.184 44.08 45.912 42.832 45.912 46.768ZM51.662 42.832C50.59 42.832 49.742 43.52 49.566 44.736H53.774C53.742 43.568 52.814 42.832 51.662 42.832ZM55.87 47.216C55.39 48.848 53.918 50.144 51.726 50.144C49.15 50.144 47.278 48.352 47.278 45.568C47.278 42.768 49.102 40.992 51.726 40.992C54.286 40.992 56.094 42.736 56.094 45.376C56.094 45.664 56.078 45.952 56.03 46.24H49.55C49.662 47.552 50.558 48.288 51.678 48.288C52.638 48.288 53.166 47.808 53.454 47.216H55.87ZM59.969 45.584V50H57.729V41.136H59.969V42.512C60.529 41.6 61.457 41.008 62.689 41.008V43.36H62.097C60.769 43.36 59.969 43.872 59.969 45.584ZM63.2538 41.136H65.6538L67.8938 47.936L70.1338 41.136H72.5178L69.2378 50H66.5178L63.2538 41.136ZM73.7759 50V41.136H76.0159V50H73.7759ZM74.9119 40.08C74.1119 40.08 73.5359 39.504 73.5359 38.768C73.5359 38.032 74.1119 37.456 74.9119 37.456C75.6959 37.456 76.2879 38.032 76.2879 38.768C76.2879 39.504 75.6959 40.08 74.9119 40.08ZM77.653 45.568C77.653 42.784 79.477 40.992 82.037 40.992C84.245 40.992 85.733 42.144 86.213 44.128H83.797C83.541 43.376 82.949 42.896 82.021 42.896C80.773 42.896 79.941 43.84 79.941 45.568C79.941 47.296 80.773 48.224 82.021 48.224C82.949 48.224 83.525 47.808 83.797 47.008H86.213C85.733 48.896 84.245 50.144 82.037 50.144C79.477 50.144 77.653 48.352 77.653 45.568ZM91.662 42.832C90.59 42.832 89.742 43.52 89.566 44.736H93.774C93.742 43.568 92.814 42.832 91.662 42.832ZM95.87 47.216C95.39 48.848 93.918 50.144 91.726 50.144C89.15 50.144 87.278 48.352 87.278 45.568C87.278 42.768 89.102 40.992 91.726 40.992C94.286 40.992 96.094 42.736 96.094 45.376C96.094 45.664 96.078 45.952 96.03 46.24H89.55C89.662 47.552 90.558 48.288 91.678 48.288C92.638 48.288 93.166 47.808 93.454 47.216H95.87ZM107.462 42.304C107.462 41.312 106.902 40.688 105.654 40.688H103.782V43.968H105.654C106.902 43.968 107.462 43.312 107.462 42.304ZM101.542 38.832H105.734C108.422 38.832 109.766 40.384 109.766 42.256C109.766 43.616 109.014 44.992 107.222 45.472L109.894 50H107.302L104.838 45.648H103.782V50H101.542V38.832ZM115.6 42.832C114.528 42.832 113.68 43.52 113.504 44.736H117.712C117.68 43.568 116.752 42.832 115.6 42.832ZM119.808 47.216C119.328 48.848 117.856 50.144 115.664 50.144C113.088 50.144 111.215 48.352 111.215 45.568C111.215 42.768 113.039 40.992 115.664 40.992C118.224 40.992 120.032 42.736 120.032 45.376C120.032 45.664 120.016 45.952 119.968 46.24H113.488C113.6 47.552 114.496 48.288 115.616 48.288C116.576 48.288 117.104 47.808 117.392 47.216H119.808ZM134.067 50V45.104C134.067 43.696 133.283 42.96 132.099 42.96C130.899 42.96 130.115 43.696 130.115 45.104V50H127.875V45.104C127.875 43.696 127.091 42.96 125.907 42.96C124.691 42.96 123.907 43.696 123.907 45.104V50H121.667V41.136H123.907V42.208C124.467 41.472 125.411 41.008 126.515 41.008C127.891 41.008 129.027 41.6 129.635 42.704C130.211 41.696 131.379 41.008 132.675 41.008C134.803 41.008 136.307 42.352 136.307 44.8V50H134.067ZM138.432 50V41.136H140.672V50H138.432ZM139.568 40.08C138.768 40.08 138.192 39.504 138.192 38.768C138.192 38.032 138.768 37.456 139.568 37.456C140.352 37.456 140.944 38.032 140.944 38.768C140.944 39.504 140.352 40.08 139.568 40.08ZM149.093 50V45.104C149.093 43.68 148.309 42.912 147.125 42.912C145.909 42.912 145.125 43.68 145.125 45.104V50H142.885V41.136H145.125V42.24C145.701 41.488 146.661 41.008 147.797 41.008C149.861 41.008 151.333 42.352 151.333 44.8V50H149.093ZM152.887 45.536C152.887 42.768 154.679 40.992 156.951 40.992C158.119 40.992 159.239 41.536 159.847 42.368V38.16H162.119V50H159.847V48.688C159.319 49.504 158.327 50.144 156.935 50.144C154.679 50.144 152.887 48.304 152.887 45.536ZM159.863 45.568C159.863 43.888 158.743 42.96 157.511 42.96C156.311 42.96 155.175 43.856 155.175 45.536C155.175 47.216 156.311 48.176 157.511 48.176C158.743 48.176 159.863 47.248 159.863 45.568ZM168.115 42.832C167.043 42.832 166.195 43.52 166.019 44.736H170.227C170.195 43.568 169.267 42.832 168.115 42.832ZM172.323 47.216C171.843 48.848 170.371 50.144 168.179 50.144C165.603 50.144 163.731 48.352 163.731 45.568C163.731 42.768 165.555 40.992 168.179 40.992C170.739 40.992 172.547 42.736 172.547 45.376C172.547 45.664 172.531 45.952 172.483 46.24H166.003C166.115 47.552 167.011 48.288 168.131 48.288C169.091 48.288 169.619 47.808 169.907 47.216H172.323ZM176.422 45.584V50H174.182V41.136H176.422V42.512C176.982 41.6 177.91 41.008 179.142 41.008V43.36H178.55C177.222 43.36 176.422 43.872 176.422 45.584ZM187.531 47.472C187.531 48.992 186.203 50.144 184.043 50.144C181.819 50.144 180.267 48.848 180.171 47.2H182.427C182.507 47.872 183.131 48.384 184.027 48.384C184.907 48.384 185.387 47.984 185.387 47.472C185.387 45.888 180.379 46.896 180.379 43.648C180.379 42.176 181.691 40.992 183.883 40.992C186.027 40.992 187.323 42.16 187.451 43.92H185.307C185.243 43.232 184.699 42.768 183.819 42.768C182.987 42.768 182.555 43.104 182.555 43.616C182.555 45.232 187.467 44.224 187.531 47.472Z" fill="#002850"/>
<path d="M43.048 177.64L43.504 175.48H40.984L40.528 177.64H43.048ZM42.328 181L42.844 178.6H40.324L39.808 181H38.764L39.28 178.6H37.396V177.64H39.484L39.94 175.48H38.08V174.52H40.144L40.66 172.12H41.704L41.188 174.52H43.708L44.224 172.12H45.268L44.752 174.52H46.42V175.48H44.548L44.092 177.64H45.748V178.6H43.888L43.372 181H42.328ZM53.6661 174.388H52.6581C52.4901 173.548 51.9981 173.056 51.0141 173.056C49.6341 173.056 48.8901 174.004 48.9021 176.584C49.2741 175.732 50.2221 175.252 51.2541 175.252C52.8741 175.252 53.9661 176.32 53.9661 178.144C53.9661 179.728 53.0301 181.024 51.1341 181.024C48.5661 181.024 47.9541 179.176 47.9541 176.548C47.9541 173.824 48.8301 172.144 51.0261 172.144C52.6821 172.144 53.5221 173.176 53.6661 174.388ZM51.0261 176.176C50.0301 176.176 49.0341 176.764 49.0341 178.06C49.0341 179.212 49.7061 180.112 51.0741 180.112C52.2021 180.112 52.9101 179.356 52.9101 178.18C52.9101 176.956 52.2741 176.176 51.0261 176.176ZM61.2833 174.388H60.2753C60.1073 173.548 59.6153 173.056 58.6313 173.056C57.2513 173.056 56.5073 174.004 56.5193 176.584C56.8913 175.732 57.8393 175.252 58.8713 175.252C60.4913 175.252 61.5833 176.32 61.5833 178.144C61.5833 179.728 60.6473 181.024 58.7513 181.024C56.1833 181.024 55.5713 179.176 55.5713 176.548C55.5713 173.824 56.4473 172.144 58.6433 172.144C60.2993 172.144 61.1393 173.176 61.2833 174.388ZM58.6433 176.176C57.6473 176.176 56.6513 176.764 56.6513 178.06C56.6513 179.212 57.3233 180.112 58.6913 180.112C59.8193 180.112 60.5273 179.356 60.5273 178.18C60.5273 176.956 59.8913 176.176 58.6433 176.176ZM64.6405 176.488C63.7525 176.14 63.2485 175.468 63.2485 174.496C63.2485 173.224 64.2085 172.192 66.0925 172.192C67.9765 172.192 68.9485 173.236 68.9485 174.496C68.9485 175.432 68.4085 176.152 67.5565 176.488C68.5405 176.788 69.1765 177.58 69.1765 178.66C69.1765 180.232 67.9285 181.24 66.0925 181.24C64.2685 181.24 63.0325 180.232 63.0325 178.66C63.0325 177.568 63.6685 176.776 64.6405 176.488ZM66.0925 176.128C67.1605 176.128 67.8925 175.528 67.8925 174.628C67.8925 173.632 67.1845 173.104 66.0925 173.104C65.0245 173.104 64.3045 173.62 64.3045 174.64C64.3045 175.54 65.0365 176.128 66.0925 176.128ZM66.0925 176.968C64.9765 176.968 64.0765 177.472 64.0765 178.624C64.0765 179.644 64.8565 180.328 66.0925 180.328C67.3285 180.328 68.0965 179.632 68.0965 178.624C68.0965 177.508 67.2325 176.968 66.0925 176.968ZM71.4908 181V173.32H70.3388V172.324H72.5948V181H71.4908ZM74.8666 178.672H75.8746C76.0306 179.572 76.6066 180.1 77.6146 180.1C78.8866 180.1 79.5706 179.236 79.5346 176.692C79.1866 177.424 78.3226 177.844 77.3866 177.844C75.7906 177.844 74.6026 176.848 74.6026 175.012C74.6026 173.356 75.5866 172.156 77.4586 172.156C79.8106 172.156 80.4946 173.812 80.4946 176.5C80.4946 179.392 79.8346 181.012 77.5546 181.012C75.8266 181.012 74.9866 179.944 74.8666 178.672ZM77.5666 176.92C78.6106 176.92 79.4026 176.236 79.4026 175.072C79.4026 173.896 78.7306 173.068 77.4826 173.068C76.3546 173.068 75.6466 173.836 75.6466 174.988C75.6466 176.104 76.2706 176.92 77.5666 176.92ZM82.0052 174.508C82.1132 173.02 83.2412 172.156 84.8492 172.156C86.5412 172.156 87.4652 173.14 87.4652 174.388C87.4652 175.384 86.8412 176.164 85.9292 176.368V176.428C86.9372 176.668 87.6212 177.412 87.6212 178.66C87.6212 180.004 86.6852 181.06 84.8732 181.06C83.2292 181.06 82.0052 180.184 81.8732 178.504H82.9292C83.0372 179.428 83.7092 180.136 84.8612 180.136C86.0252 180.136 86.5772 179.452 86.5772 178.564C86.5772 177.34 85.7252 176.872 84.1652 176.872H83.8892V175.96H84.1772C85.6292 175.948 86.4092 175.504 86.4092 174.496C86.4092 173.668 85.8572 173.092 84.8132 173.092C83.7932 173.092 83.1812 173.668 83.0732 174.508H82.0052ZM90.6796 176.488C89.7916 176.14 89.2876 175.468 89.2876 174.496C89.2876 173.224 90.2476 172.192 92.1316 172.192C94.0156 172.192 94.9876 173.236 94.9876 174.496C94.9876 175.432 94.4476 176.152 93.5956 176.488C94.5796 176.788 95.2156 177.58 95.2156 178.66C95.2156 180.232 93.9676 181.24 92.1316 181.24C90.3076 181.24 89.0716 180.232 89.0716 178.66C89.0716 177.568 89.7076 176.776 90.6796 176.488ZM92.1316 176.128C93.1996 176.128 93.9316 175.528 93.9316 174.628C93.9316 173.632 93.2236 173.104 92.1316 173.104C91.0636 173.104 90.3436 173.62 90.3436 174.64C90.3436 175.54 91.0756 176.128 92.1316 176.128ZM92.1316 176.968C91.0156 176.968 90.1156 177.472 90.1156 178.624C90.1156 179.644 90.8956 180.328 92.1316 180.328C93.3676 180.328 94.1356 179.632 94.1356 178.624C94.1356 177.508 93.2716 176.968 92.1316 176.968Z" fill="#076FD5"/>
<path d="M99.8171 177.064V176.14H104.605V177.064H99.8171ZM114.354 172.624V173.524H110.946V176.32H113.994V177.22H110.946V180.1H114.354V181H109.854V172.624H114.354ZM120.818 181V177.28C120.818 175.936 120.086 175.252 118.982 175.252C117.866 175.252 117.098 175.948 117.098 177.364V181H116.006V174.424H117.098V175.36C117.53 174.676 118.322 174.304 119.21 174.304C120.734 174.304 121.898 175.24 121.898 177.124V181H120.818ZM123.274 177.688C123.274 175.636 124.63 174.316 126.394 174.316C127.594 174.316 128.458 174.916 128.842 175.624V174.424H129.946V181.144C129.946 182.956 128.734 184.24 126.802 184.24C125.074 184.24 123.838 183.364 123.622 181.96H124.702C124.942 182.752 125.722 183.292 126.802 183.292C127.966 183.292 128.842 182.548 128.842 181.144V179.764C128.446 180.472 127.594 181.108 126.394 181.108C124.63 181.108 123.274 179.728 123.274 177.688ZM128.842 177.7C128.842 176.176 127.81 175.264 126.61 175.264C125.41 175.264 124.39 176.14 124.39 177.688C124.39 179.236 125.41 180.148 126.61 180.148C127.81 180.148 128.842 179.248 128.842 177.7ZM131.791 181V174.424H132.883V181H131.791ZM132.355 173.356C131.935 173.356 131.611 173.032 131.611 172.612C131.611 172.192 131.935 171.868 132.355 171.868C132.751 171.868 133.075 172.192 133.075 172.612C133.075 173.032 132.751 173.356 132.355 173.356ZM139.556 181V177.28C139.556 175.936 138.824 175.252 137.72 175.252C136.604 175.252 135.836 175.948 135.836 177.364V181H134.744V174.424H135.836V175.36C136.268 174.676 137.06 174.304 137.948 174.304C139.472 174.304 140.636 175.24 140.636 177.124V181H139.556ZM145.216 175.24C144.148 175.24 143.26 175.948 143.14 177.232H147.292C147.304 175.948 146.344 175.24 145.216 175.24ZM148.288 178.972C147.952 180.172 146.896 181.108 145.264 181.108C143.392 181.108 142.012 179.788 142.012 177.7C142.012 175.624 143.344 174.316 145.264 174.316C147.172 174.316 148.42 175.66 148.42 177.46C148.42 177.7 148.408 177.892 148.384 178.12H143.128C143.212 179.452 144.148 180.184 145.264 180.184C146.248 180.184 146.872 179.68 147.112 178.972H148.288ZM161.053 176.812C161.053 179.32 159.217 181.084 156.853 181.084C154.501 181.084 152.653 179.32 152.653 176.812C152.653 174.304 154.501 172.54 156.853 172.54C159.217 172.54 161.053 174.304 161.053 176.812ZM153.769 176.812C153.769 178.852 155.089 180.136 156.853 180.136C158.617 180.136 159.937 178.852 159.937 176.812C159.937 174.76 158.617 173.488 156.853 173.488C155.089 173.488 153.769 174.76 153.769 176.812ZM162.494 181V174.424H163.586V181H162.494ZM163.058 173.356C162.638 173.356 162.314 173.032 162.314 172.612C162.314 172.192 162.638 171.868 163.058 171.868C163.454 171.868 163.778 172.192 163.778 172.612C163.778 173.032 163.454 173.356 163.058 173.356ZM165.447 181V172.12H166.539V181H165.447ZM176.64 174.424H175.548C175.572 173.74 175.116 173.368 174.528 173.368C173.88 173.368 173.46 173.776 173.46 174.328C173.46 174.82 173.736 175.228 174.324 175.852L176.82 178.36C176.892 178.252 176.964 178.144 177.036 178.024L177.852 176.656H179.028L178.044 178.36C177.888 178.636 177.732 178.876 177.564 179.116L179.448 181H178.02L176.928 179.896C176.124 180.736 175.224 181.144 174.048 181.144C172.308 181.144 171.12 180.148 171.12 178.6C171.12 177.448 171.78 176.524 173.088 176.008C172.572 175.408 172.368 174.94 172.368 174.328C172.368 173.26 173.22 172.468 174.576 172.468C175.896 172.468 176.7 173.308 176.64 174.424ZM174.048 180.208C174.912 180.208 175.584 179.872 176.208 179.176L173.748 176.704C172.704 177.1 172.212 177.724 172.212 178.564C172.212 179.5 172.956 180.208 174.048 180.208ZM183.67 181V172.636H188.398V173.524H184.762V176.344H187.714V177.232H184.762V181H183.67ZM189.717 181V174.424H190.809V181H189.717ZM190.281 173.356C189.861 173.356 189.537 173.032 189.537 172.612C189.537 172.192 189.861 171.868 190.281 171.868C190.677 171.868 191.001 172.192 191.001 172.612C191.001 173.032 190.677 173.356 190.281 173.356ZM192.67 181V172.12H193.762V181H192.67ZM195.863 179.2V175.324H195.011V174.424H195.863V172.768H196.955V174.424H198.671V175.324H196.955V179.2C196.955 179.848 197.195 180.076 197.867 180.076H198.671V181H197.687C196.523 181 195.863 180.52 195.863 179.2ZM202.79 175.24C201.722 175.24 200.834 175.948 200.714 177.232H204.866C204.878 175.948 203.918 175.24 202.79 175.24ZM205.862 178.972C205.526 180.172 204.47 181.108 202.838 181.108C200.966 181.108 199.586 179.788 199.586 177.7C199.586 175.624 200.918 174.316 202.838 174.316C204.746 174.316 205.994 175.66 205.994 177.46C205.994 177.7 205.982 177.892 205.958 178.12H200.702C200.786 179.452 201.722 180.184 202.838 180.184C203.822 180.184 204.446 179.68 204.686 178.972H205.862ZM208.528 177.424V181H207.436V174.424H208.528V175.492C208.9 174.76 209.608 174.304 210.652 174.304V175.432H210.364C209.32 175.432 208.528 175.9 208.528 177.424ZM219.588 175.096C219.588 174.148 219.06 173.536 217.812 173.536H216.204V176.704H217.812C219.048 176.704 219.588 176.032 219.588 175.096ZM215.112 172.636H217.812C219.78 172.636 220.716 173.728 220.716 175.096C220.716 176.164 220.128 177.184 218.724 177.496L220.824 181H219.516L217.524 177.58H216.204V181H215.112V172.636ZM225.208 175.24C224.14 175.24 223.252 175.948 223.132 177.232H227.284C227.296 175.948 226.336 175.24 225.208 175.24ZM228.28 178.972C227.944 180.172 226.888 181.108 225.256 181.108C223.384 181.108 222.004 179.788 222.004 177.7C222.004 175.624 223.336 174.316 225.256 174.316C227.164 174.316 228.412 175.66 228.412 177.46C228.412 177.7 228.4 177.892 228.376 178.12H223.12C223.204 179.452 224.14 180.184 225.256 180.184C226.24 180.184 226.864 179.68 227.104 178.972H228.28ZM230.946 175.636C231.342 174.94 232.206 174.316 233.406 174.316C235.17 174.316 236.526 175.636 236.526 177.688C236.526 179.728 235.17 181.108 233.406 181.108C232.206 181.108 231.354 180.46 230.946 179.788V184.12H229.854V174.424H230.946V175.636ZM235.41 177.688C235.41 176.14 234.39 175.264 233.178 175.264C231.99 175.264 230.946 176.176 230.946 177.7C230.946 179.248 231.99 180.148 233.178 180.148C234.39 180.148 235.41 179.236 235.41 177.688ZM237.963 181V172.12H239.055V181H237.963ZM240.508 177.688C240.508 175.636 241.864 174.316 243.628 174.316C244.852 174.316 245.692 174.94 246.076 175.624V174.424H247.18V181H246.076V179.776C245.68 180.484 244.828 181.108 243.616 181.108C241.864 181.108 240.508 179.728 240.508 177.688ZM246.076 177.7C246.076 176.176 245.044 175.264 243.844 175.264C242.644 175.264 241.624 176.14 241.624 177.688C241.624 179.236 242.644 180.148 243.844 180.148C245.044 180.148 246.076 179.248 246.076 177.7ZM248.618 177.7C248.618 175.636 249.95 174.316 251.822 174.316C253.454 174.316 254.522 175.156 254.858 176.536H253.682C253.454 175.744 252.794 175.24 251.822 175.24C250.622 175.24 249.734 176.092 249.734 177.7C249.734 179.332 250.622 180.184 251.822 180.184C252.794 180.184 253.442 179.716 253.682 178.888H254.858C254.522 180.196 253.454 181.108 251.822 181.108C249.95 181.108 248.618 179.788 248.618 177.7ZM265.807 181V177.28C265.807 175.936 265.087 175.252 264.007 175.252C262.903 175.252 262.147 175.96 262.147 177.376V181H261.067V177.28C261.067 175.936 260.347 175.252 259.267 175.252C258.163 175.252 257.407 175.96 257.407 177.376V181H256.315V174.424H257.407V175.372C257.839 174.676 258.619 174.304 259.483 174.304C260.563 174.304 261.463 174.784 261.895 175.768C262.279 174.82 263.215 174.304 264.223 174.304C265.723 174.304 266.887 175.24 266.887 177.124V181H265.807ZM271.474 175.24C270.406 175.24 269.518 175.948 269.398 177.232H273.55C273.562 175.948 272.602 175.24 271.474 175.24ZM274.546 178.972C274.21 180.172 273.154 181.108 271.522 181.108C269.65 181.108 268.27 179.788 268.27 177.7C268.27 175.624 269.602 174.316 271.522 174.316C273.43 174.316 274.678 175.66 274.678 177.46C274.678 177.7 274.666 177.892 274.642 178.12H269.386C269.47 179.452 270.406 180.184 271.522 180.184C272.506 180.184 273.13 179.68 273.37 178.972H274.546ZM280.931 181V177.28C280.931 175.936 280.199 175.252 279.095 175.252C277.979 175.252 277.211 175.948 277.211 177.364V181H276.119V174.424H277.211V175.36C277.643 174.676 278.435 174.304 279.323 174.304C280.847 174.304 282.011 175.24 282.011 177.124V181H280.931ZM284.035 179.2V175.324H283.183V174.424H284.035V172.768H285.127V174.424H286.843V175.324H285.127V179.2C285.127 179.848 285.367 180.076 286.039 180.076H286.843V181H285.859C284.695 181 284.035 180.52 284.035 179.2Z" fill="#212121"/>
<path d="M43.048 253.64L43.504 251.48H40.984L40.528 253.64H43.048ZM42.328 257L42.844 254.6H40.324L39.808 257H38.764L39.28 254.6H37.396V253.64H39.484L39.94 251.48H38.08V250.52H40.144L40.66 248.12H41.704L41.188 250.52H43.708L44.224 248.12H45.268L44.752 250.52H46.42V251.48H44.548L44.092 253.64H45.748V254.6H43.888L43.372 257H42.328ZM53.6661 250.388H52.6581C52.4901 249.548 51.9981 249.056 51.0141 249.056C49.6341 249.056 48.8901 250.004 48.9021 252.584C49.2741 251.732 50.2221 251.252 51.2541 251.252C52.8741 251.252 53.9661 252.32 53.9661 254.144C53.9661 255.728 53.0301 257.024 51.1341 257.024C48.5661 257.024 47.9541 255.176 47.9541 252.548C47.9541 249.824 48.8301 248.144 51.0261 248.144C52.6821 248.144 53.5221 249.176 53.6661 250.388ZM51.0261 252.176C50.0301 252.176 49.0341 252.764 49.0341 254.06C49.0341 255.212 49.7061 256.112 51.0741 256.112C52.2021 256.112 52.9101 255.356 52.9101 254.18C52.9101 252.956 52.2741 252.176 51.0261 252.176ZM61.2833 250.388H60.2753C60.1073 249.548 59.6153 249.056 58.6313 249.056C57.2513 249.056 56.5073 250.004 56.5193 252.584C56.8913 251.732 57.8393 251.252 58.8713 251.252C60.4913 251.252 61.5833 252.32 61.5833 254.144C61.5833 255.728 60.6473 257.024 58.7513 257.024C56.1833 257.024 55.5713 255.176 55.5713 252.548C55.5713 249.824 56.4473 248.144 58.6433 248.144C60.2993 248.144 61.1393 249.176 61.2833 250.388ZM58.6433 252.176C57.6473 252.176 56.6513 252.764 56.6513 254.06C56.6513 255.212 57.3233 256.112 58.6913 256.112C59.8193 256.112 60.5273 255.356 60.5273 254.18C60.5273 252.956 59.8913 252.176 58.6433 252.176ZM64.6405 252.488C63.7525 252.14 63.2485 251.468 63.2485 250.496C63.2485 249.224 64.2085 248.192 66.0925 248.192C67.9765 248.192 68.9485 249.236 68.9485 250.496C68.9485 251.432 68.4085 252.152 67.5565 252.488C68.5405 252.788 69.1765 253.58 69.1765 254.66C69.1765 256.232 67.9285 257.24 66.0925 257.24C64.2685 257.24 63.0325 256.232 63.0325 254.66C63.0325 253.568 63.6685 252.776 64.6405 252.488ZM66.0925 252.128C67.1605 252.128 67.8925 251.528 67.8925 250.628C67.8925 249.632 67.1845 249.104 66.0925 249.104C65.0245 249.104 64.3045 249.62 64.3045 250.64C64.3045 251.54 65.0365 252.128 66.0925 252.128ZM66.0925 252.968C64.9765 252.968 64.0765 253.472 64.0765 254.624C64.0765 255.644 64.8565 256.328 66.0925 256.328C67.3285 256.328 68.0965 255.632 68.0965 254.624C68.0965 253.508 67.2325 252.968 66.0925 252.968ZM71.4908 257V249.32H70.3388V248.324H72.5948V257H71.4908ZM74.8666 254.672H75.8746C76.0306 255.572 76.6066 256.1 77.6146 256.1C78.8866 256.1 79.5706 255.236 79.5346 252.692C79.1866 253.424 78.3226 253.844 77.3866 253.844C75.7906 253.844 74.6026 252.848 74.6026 251.012C74.6026 249.356 75.5866 248.156 77.4586 248.156C79.8106 248.156 80.4946 249.812 80.4946 252.5C80.4946 255.392 79.8346 257.012 77.5546 257.012C75.8266 257.012 74.9866 255.944 74.8666 254.672ZM77.5666 252.92C78.6106 252.92 79.4026 252.236 79.4026 251.072C79.4026 249.896 78.7306 249.068 77.4826 249.068C76.3546 249.068 75.6466 249.836 75.6466 250.988C75.6466 252.104 76.2706 252.92 77.5666 252.92ZM82.0052 250.508C82.1132 249.02 83.2412 248.156 84.8492 248.156C86.5412 248.156 87.4652 249.14 87.4652 250.388C87.4652 251.384 86.8412 252.164 85.9292 252.368V252.428C86.9372 252.668 87.6212 253.412 87.6212 254.66C87.6212 256.004 86.6852 257.06 84.8732 257.06C83.2292 257.06 82.0052 256.184 81.8732 254.504H82.9292C83.0372 255.428 83.7092 256.136 84.8612 256.136C86.0252 256.136 86.5772 255.452 86.5772 254.564C86.5772 253.34 85.7252 252.872 84.1652 252.872H83.8892V251.96H84.1772C85.6292 251.948 86.4092 251.504 86.4092 250.496C86.4092 249.668 85.8572 249.092 84.8132 249.092C83.7932 249.092 83.1812 249.668 83.0732 250.508H82.0052ZM89.4916 254.672H90.4996C90.6556 255.572 91.2316 256.1 92.2396 256.1C93.5116 256.1 94.1956 255.236 94.1596 252.692C93.8116 253.424 92.9476 253.844 92.0116 253.844C90.4156 253.844 89.2276 252.848 89.2276 251.012C89.2276 249.356 90.2116 248.156 92.0836 248.156C94.4356 248.156 95.1196 249.812 95.1196 252.5C95.1196 255.392 94.4596 257.012 92.1796 257.012C90.4516 257.012 89.6116 255.944 89.4916 254.672ZM92.1916 252.92C93.2356 252.92 94.0276 252.236 94.0276 251.072C94.0276 249.896 93.3556 249.068 92.1076 249.068C90.9796 249.068 90.2716 249.836 90.2716 250.988C90.2716 252.104 90.8956 252.92 92.1916 252.92Z" fill="#076FD5"/>
<path d="M99.8054 253.064V252.14H104.593V253.064H99.8054ZM109.326 249.524V248.636H114.99V249.524H112.71V257H111.618V249.524H109.326ZM116.334 257V250.424H117.426V257H116.334ZM116.898 249.356C116.478 249.356 116.154 249.032 116.154 248.612C116.154 248.192 116.478 247.868 116.898 247.868C117.294 247.868 117.618 248.192 117.618 248.612C117.618 249.032 117.294 249.356 116.898 249.356ZM120.379 253.424V257H119.287V250.424H120.379V251.492C120.751 250.76 121.459 250.304 122.503 250.304V251.432H122.215C121.171 251.432 120.379 251.9 120.379 253.424ZM126.56 251.24C125.492 251.24 124.604 251.948 124.484 253.232H128.636C128.648 251.948 127.688 251.24 126.56 251.24ZM129.632 254.972C129.296 256.172 128.24 257.108 126.608 257.108C124.736 257.108 123.356 255.788 123.356 253.7C123.356 251.624 124.688 250.316 126.608 250.316C128.516 250.316 129.764 251.66 129.764 253.46C129.764 253.7 129.752 253.892 129.728 254.12H124.472C124.556 255.452 125.492 256.184 126.608 256.184C127.592 256.184 128.216 255.68 128.456 254.972H129.632ZM138.88 251.096C138.88 250.148 138.352 249.536 137.104 249.536H135.496V252.704H137.104C138.34 252.704 138.88 252.032 138.88 251.096ZM134.404 248.636H137.104C139.072 248.636 140.008 249.728 140.008 251.096C140.008 252.164 139.42 253.184 138.016 253.496L140.116 257H138.808L136.816 253.58H135.496V257H134.404V248.636ZM147.945 253.7C147.945 255.788 146.445 257.108 144.573 257.108C142.713 257.108 141.297 255.788 141.297 253.7C141.297 251.624 142.761 250.316 144.621 250.316C146.493 250.316 147.945 251.624 147.945 253.7ZM142.413 253.7C142.413 255.368 143.433 256.148 144.573 256.148C145.713 256.148 146.829 255.368 146.829 253.7C146.829 252.044 145.737 251.264 144.609 251.264C143.457 251.264 142.413 252.044 142.413 253.7ZM149.621 255.2V251.324H148.769V250.424H149.621V248.768H150.713V250.424H152.429V251.324H150.713V255.2C150.713 255.848 150.953 256.076 151.625 256.076H152.429V257H151.445C150.281 257 149.621 256.52 149.621 255.2ZM153.344 253.688C153.344 251.636 154.7 250.316 156.464 250.316C157.688 250.316 158.528 250.94 158.912 251.624V250.424H160.016V257H158.912V255.776C158.516 256.484 157.664 257.108 156.452 257.108C154.7 257.108 153.344 255.728 153.344 253.688ZM158.912 253.7C158.912 252.176 157.88 251.264 156.68 251.264C155.48 251.264 154.46 252.14 154.46 253.688C154.46 255.236 155.48 256.148 156.68 256.148C157.88 256.148 158.912 255.248 158.912 253.7ZM162.102 255.2V251.324H161.25V250.424H162.102V248.768H163.194V250.424H164.91V251.324H163.194V255.2C163.194 255.848 163.434 256.076 164.105 256.076H164.91V257H163.926C162.762 257 162.102 256.52 162.102 255.2ZM166.233 257V250.424H167.325V257H166.233ZM166.797 249.356C166.377 249.356 166.053 249.032 166.053 248.612C166.053 248.192 166.377 247.868 166.797 247.868C167.193 247.868 167.517 248.192 167.517 248.612C167.517 249.032 167.193 249.356 166.797 249.356ZM175.426 253.7C175.426 255.788 173.926 257.108 172.054 257.108C170.194 257.108 168.778 255.788 168.778 253.7C168.778 251.624 170.242 250.316 172.102 250.316C173.974 250.316 175.426 251.624 175.426 253.7ZM169.894 253.7C169.894 255.368 170.914 256.148 172.054 256.148C173.194 256.148 174.31 255.368 174.31 253.7C174.31 252.044 173.218 251.264 172.09 251.264C170.938 251.264 169.894 252.044 169.894 253.7ZM181.674 257V253.28C181.674 251.936 180.942 251.252 179.838 251.252C178.722 251.252 177.954 251.948 177.954 253.364V257H176.862V250.424H177.954V251.36C178.386 250.676 179.178 250.304 180.066 250.304C181.59 250.304 182.754 251.24 182.754 253.124V257H181.674Z" fill="#212121"/>
<path d="M41.52 190.02V190.77H38.68V193.1H41.22V193.85H38.68V196.25H41.52V197H37.77V190.02H41.52ZM42.247 191.52H43.227L44.937 196.16L46.637 191.52H47.607L45.457 197H44.397L42.247 191.52ZM50.8324 192.2C49.9424 192.2 49.2024 192.79 49.1024 193.86H52.5624C52.5724 192.79 51.7724 192.2 50.8324 192.2ZM53.3924 195.31C53.1124 196.31 52.2324 197.09 50.8724 197.09C49.3124 197.09 48.1624 195.99 48.1624 194.25C48.1624 192.52 49.2724 191.43 50.8724 191.43C52.4624 191.43 53.5024 192.55 53.5024 194.05C53.5024 194.25 53.4924 194.41 53.4724 194.6H49.0924C49.1624 195.71 49.9424 196.32 50.8724 196.32C51.6924 196.32 52.2124 195.9 52.4124 195.31H53.3924ZM55.6136 194.02V197H54.7036V191.52H55.6136V192.41C55.9236 191.8 56.5136 191.42 57.3836 191.42V192.36H57.1436C56.2736 192.36 55.6136 192.75 55.6136 194.02ZM60.5141 195.96L62.2141 191.52H63.1541L59.8541 199.58H58.9141L59.9941 196.94L57.7841 191.52H58.7941L60.5141 195.96ZM71.4548 191.49H70.6148C70.4748 190.79 70.0648 190.38 69.2448 190.38C68.0948 190.38 67.4748 191.17 67.4848 193.32C67.7948 192.61 68.5848 192.21 69.4448 192.21C70.7948 192.21 71.7048 193.1 71.7048 194.62C71.7048 195.94 70.9248 197.02 69.3448 197.02C67.2048 197.02 66.6948 195.48 66.6948 193.29C66.6948 191.02 67.4248 189.62 69.2548 189.62C70.6348 189.62 71.3348 190.48 71.4548 191.49ZM69.2548 192.98C68.4248 192.98 67.5948 193.47 67.5948 194.55C67.5948 195.51 68.1548 196.26 69.2948 196.26C70.2348 196.26 70.8248 195.63 70.8248 194.65C70.8248 193.63 70.2948 192.98 69.2548 192.98ZM86.3245 197V193.9C86.3245 192.78 85.7245 192.21 84.8245 192.21C83.9045 192.21 83.2745 192.8 83.2745 193.98V197H82.3745V193.9C82.3745 192.78 81.7745 192.21 80.8745 192.21C79.9545 192.21 79.3245 192.8 79.3245 193.98V197H78.4145V191.52H79.3245V192.31C79.6845 191.73 80.3345 191.42 81.0545 191.42C81.9545 191.42 82.7045 191.82 83.0645 192.64C83.3845 191.85 84.1645 191.42 85.0045 191.42C86.2545 191.42 87.2245 192.2 87.2245 193.77V197H86.3245ZM93.9173 194.25C93.9173 195.99 92.6673 197.09 91.1073 197.09C89.5573 197.09 88.3773 195.99 88.3773 194.25C88.3773 192.52 89.5973 191.43 91.1473 191.43C92.7073 191.43 93.9173 192.52 93.9173 194.25ZM89.3073 194.25C89.3073 195.64 90.1573 196.29 91.1073 196.29C92.0573 196.29 92.9873 195.64 92.9873 194.25C92.9873 192.87 92.0773 192.22 91.1373 192.22C90.1773 192.22 89.3073 192.87 89.3073 194.25ZM99.1238 197V193.9C99.1238 192.78 98.5138 192.21 97.5938 192.21C96.6638 192.21 96.0238 192.79 96.0238 193.97V197H95.1138V191.52H96.0238V192.3C96.3838 191.73 97.0438 191.42 97.7838 191.42C99.0538 191.42 100.024 192.2 100.024 193.77V197H99.1238ZM101.71 195.5V192.27H101V191.52H101.71V190.14H102.62V191.52H104.05V192.27H102.62V195.5C102.62 196.04 102.82 196.23 103.38 196.23H104.05V197H103.23C102.26 197 101.71 196.6 101.71 195.5ZM105.153 197V189.6H106.063V192.31C106.423 191.73 107.103 191.42 107.873 191.42C109.093 191.42 110.063 192.2 110.063 193.77V197H109.163V193.9C109.163 192.78 108.553 192.21 107.633 192.21C106.703 192.21 106.063 192.79 106.063 193.97V197H105.153ZM114.839 198.86H113.889C112.619 197.61 111.859 195.59 111.859 193.34C111.859 191.08 112.619 188.97 114.039 187.66H114.989V187.75C113.449 189.2 112.739 191.3 112.739 193.34C112.739 195.37 113.449 197.34 114.839 198.77V198.86ZM120.03 195.51C120.03 196.41 119.24 197.09 118.03 197.09C116.75 197.09 115.85 196.39 115.79 195.39H116.73C116.78 195.92 117.25 196.32 118.02 196.32C118.74 196.32 119.14 195.96 119.14 195.51C119.14 194.29 115.9 195 115.9 192.96C115.9 192.12 116.69 191.43 117.91 191.43C119.12 191.43 119.92 192.08 119.98 193.15H119.07C119.03 192.6 118.61 192.2 117.88 192.2C117.21 192.2 116.81 192.52 116.81 192.96C116.81 194.26 119.99 193.55 120.03 195.51ZM121.025 198.86V198.77C122.415 197.34 123.125 195.37 123.125 193.34C123.125 191.3 122.415 189.2 120.875 187.75V187.66H121.825C123.245 188.97 124.005 191.08 124.005 193.34C124.005 195.59 123.245 197.61 121.975 198.86H121.025ZM133.722 194.25C133.722 195.99 132.472 197.09 130.912 197.09C129.362 197.09 128.182 195.99 128.182 194.25C128.182 192.52 129.402 191.43 130.952 191.43C132.512 191.43 133.722 192.52 133.722 194.25ZM129.112 194.25C129.112 195.64 129.962 196.29 130.912 196.29C131.862 196.29 132.792 195.64 132.792 194.25C132.792 192.87 131.882 192.22 130.942 192.22C129.982 192.22 129.112 192.87 129.112 194.25ZM135.828 194.02V197H134.918V191.52H135.828V192.41C136.138 191.8 136.728 191.42 137.598 191.42V192.36H137.358C136.488 192.36 135.828 192.75 135.828 194.02ZM141.885 197V190.6H140.925V189.77H142.805V197H141.885ZM144.368 193.31C144.368 191.24 144.888 189.66 146.888 189.66C148.878 189.66 149.398 191.24 149.398 193.31C149.398 195.41 148.878 197 146.888 197C144.888 197 144.368 195.41 144.368 193.31ZM148.498 193.31C148.498 191.81 148.308 190.49 146.888 190.49C145.458 190.49 145.268 191.81 145.268 193.31C145.268 194.87 145.458 196.17 146.888 196.17C148.308 196.17 148.498 194.87 148.498 193.31ZM150.007 198.43L150.737 195.74H151.737L150.617 198.43H150.007ZM152.63 193.31C152.63 191.24 153.15 189.66 155.15 189.66C157.14 189.66 157.66 191.24 157.66 193.31C157.66 195.41 157.14 197 155.15 197C153.15 197 152.63 195.41 152.63 193.31ZM156.76 193.31C156.76 191.81 156.57 190.49 155.15 190.49C153.72 190.49 153.53 191.81 153.53 193.31C153.53 194.87 153.72 196.17 155.15 196.17C156.57 196.17 156.76 194.87 156.76 193.31ZM158.909 193.31C158.909 191.24 159.429 189.66 161.429 189.66C163.419 189.66 163.939 191.24 163.939 193.31C163.939 195.41 163.419 197 161.429 197C159.429 197 158.909 195.41 158.909 193.31ZM163.039 193.31C163.039 191.81 162.849 190.49 161.429 190.49C159.999 190.49 159.809 191.81 159.809 193.31C159.809 194.87 159.999 196.17 161.429 196.17C162.849 196.17 163.039 194.87 163.039 193.31ZM165.188 193.31C165.188 191.24 165.708 189.66 167.708 189.66C169.698 189.66 170.218 191.24 170.218 193.31C170.218 195.41 169.698 197 167.708 197C165.708 197 165.188 195.41 165.188 193.31ZM169.318 193.31C169.318 191.81 169.128 190.49 167.708 190.49C166.278 190.49 166.088 191.81 166.088 193.31C166.088 194.87 166.278 196.17 167.708 196.17C169.128 196.17 169.318 194.87 169.318 193.31ZM174.284 197V190.08H175.264L177.824 195.8L180.384 190.08H181.354V197H180.444V191.84L178.144 197H177.504L175.194 191.83V197H174.284ZM182.897 197V191.52H183.807V197H182.897ZM183.367 190.63C183.017 190.63 182.747 190.36 182.747 190.01C182.747 189.66 183.017 189.39 183.367 189.39C183.697 189.39 183.967 189.66 183.967 190.01C183.967 190.36 183.697 190.63 183.367 190.63ZM185.358 197V189.6H186.268V197H185.358ZM190.149 192.2C189.259 192.2 188.519 192.79 188.419 193.86H191.879C191.889 192.79 191.089 192.2 190.149 192.2ZM192.709 195.31C192.429 196.31 191.549 197.09 190.189 197.09C188.629 197.09 187.479 195.99 187.479 194.25C187.479 192.52 188.589 191.43 190.189 191.43C191.779 191.43 192.819 192.55 192.819 194.05C192.819 194.25 192.809 194.41 192.789 194.6H188.409C188.479 195.71 189.259 196.32 190.189 196.32C191.009 196.32 191.529 195.9 191.729 195.31H192.709ZM197.96 195.51C197.96 196.41 197.17 197.09 195.96 197.09C194.68 197.09 193.78 196.39 193.72 195.39H194.66C194.71 195.92 195.18 196.32 195.95 196.32C196.67 196.32 197.07 195.96 197.07 195.51C197.07 194.29 193.83 195 193.83 192.96C193.83 192.12 194.62 191.43 195.84 191.43C197.05 191.43 197.85 192.08 197.91 193.15H197C196.96 192.6 196.54 192.2 195.81 192.2C195.14 192.2 194.74 192.52 194.74 192.96C194.74 194.26 197.92 193.55 197.96 195.51ZM189.074 208.72V207.95H193.064V208.72H189.074Z" fill="#A6A6A6"/>
<path d="M39.94 205.03C42.23 205.03 43.64 206.37 43.64 208.53C43.64 210.69 42.23 212 39.94 212H37.77V205.03H39.94ZM38.68 211.25H39.94C41.76 211.25 42.71 210.23 42.71 208.53C42.71 206.83 41.76 205.77 39.94 205.77H38.68V211.25ZM49.7003 206.52V212H48.7903V211.19C48.4403 211.76 47.7703 212.08 47.0403 212.08C45.7803 212.08 44.7903 211.3 44.7903 209.73V206.52H45.6903V209.61C45.6903 210.72 46.3003 211.29 47.2203 211.29C48.1603 211.29 48.7903 210.71 48.7903 209.53V206.52H49.7003ZM53.5668 207.2C52.6768 207.2 51.9368 207.79 51.8368 208.86H55.2968C55.3068 207.79 54.5068 207.2 53.5668 207.2ZM56.1268 210.31C55.8468 211.31 54.9668 212.09 53.6068 212.09C52.0468 212.09 50.8968 210.99 50.8968 209.25C50.8968 207.52 52.0068 206.43 53.6068 206.43C55.1968 206.43 56.2368 207.55 56.2368 209.05C56.2368 209.25 56.2268 209.41 56.2068 209.6H51.8268C51.8968 210.71 52.6768 211.32 53.6068 211.32C54.4268 211.32 54.9468 210.9 55.1468 210.31H56.1268ZM64.634 210.1C64.634 211.09 63.824 212.07 62.314 212.07C60.914 212.07 59.924 211.29 59.904 210.14H60.874C60.934 210.72 61.344 211.3 62.314 211.3C63.194 211.3 63.714 210.8 63.714 210.14C63.714 208.26 59.944 209.46 59.944 206.87C59.944 205.72 60.874 204.94 62.254 204.94C63.584 204.94 64.454 205.67 64.564 206.73H63.564C63.504 206.26 63.064 205.73 62.214 205.72C61.464 205.7 60.874 206.09 60.874 206.84C60.874 208.64 64.634 207.52 64.634 210.1ZM71.1731 209.25C71.1731 210.99 69.9231 212.09 68.3631 212.09C66.8131 212.09 65.6331 210.99 65.6331 209.25C65.6331 207.52 66.8531 206.43 68.4031 206.43C69.9631 206.43 71.1731 207.52 71.1731 209.25ZM66.5631 209.25C66.5631 210.64 67.4131 211.29 68.3631 211.29C69.3131 211.29 70.2431 210.64 70.2431 209.25C70.2431 207.87 69.3331 207.22 68.3931 207.22C67.4331 207.22 66.5631 207.87 66.5631 209.25ZM77.5696 209.25C77.5696 210.99 76.3196 212.09 74.7596 212.09C73.2096 212.09 72.0296 210.99 72.0296 209.25C72.0296 207.52 73.2496 206.43 74.7996 206.43C76.3596 206.43 77.5696 207.52 77.5696 209.25ZM72.9596 209.25C72.9596 210.64 73.8096 211.29 74.7596 211.29C75.7096 211.29 76.6396 210.64 76.6396 209.25C76.6396 207.87 75.7296 207.22 74.7896 207.22C73.8296 207.22 72.9596 207.87 72.9596 209.25ZM82.7761 212V208.9C82.7761 207.78 82.1661 207.21 81.2461 207.21C80.3161 207.21 79.6761 207.79 79.6761 208.97V212H78.7661V206.52H79.6761V207.3C80.0361 206.73 80.6961 206.42 81.4361 206.42C82.7061 206.42 83.6761 207.2 83.6761 208.77V212H82.7761ZM200.768 212V210.39H197.068V209.7L200.578 204.84H201.668V209.6H202.668V210.39H201.668V212H200.768ZM198.118 209.6H200.808V205.79L198.118 209.6ZM208.447 206.49H207.607C207.467 205.79 207.057 205.38 206.237 205.38C205.087 205.38 204.467 206.17 204.477 208.32C204.787 207.61 205.577 207.21 206.437 207.21C207.787 207.21 208.697 208.1 208.697 209.62C208.697 210.94 207.917 212.02 206.337 212.02C204.197 212.02 203.687 210.48 203.687 208.29C203.687 206.02 204.417 204.62 206.247 204.62C207.627 204.62 208.327 205.48 208.447 206.49ZM206.247 207.98C205.417 207.98 204.587 208.47 204.587 209.55C204.587 210.51 205.147 211.26 206.287 211.26C207.227 211.26 207.817 210.63 207.817 209.65C207.817 208.63 207.287 207.98 206.247 207.98ZM209.635 204.79H214.375V205.48L211.595 212H210.675L213.495 205.57H209.635V204.79ZM215.814 213.22V212.38H221.134V213.22H215.814ZM222.868 212V205.08H223.848L226.408 210.8L228.968 205.08H229.938V212H229.028V206.84L226.728 212H226.088L223.778 206.83V212H222.868ZM231.481 212V206.52H232.391V212H231.481ZM231.951 205.63C231.601 205.63 231.331 205.36 231.331 205.01C231.331 204.66 231.601 204.39 231.951 204.39C232.281 204.39 232.551 204.66 232.551 205.01C232.551 205.36 232.281 205.63 231.951 205.63ZM233.942 212V204.6H234.852V212H233.942ZM238.733 207.2C237.843 207.2 237.103 207.79 237.003 208.86H240.463C240.473 207.79 239.673 207.2 238.733 207.2ZM241.293 210.31C241.013 211.31 240.133 212.09 238.773 212.09C237.213 212.09 236.063 210.99 236.063 209.25C236.063 207.52 237.173 206.43 238.773 206.43C240.363 206.43 241.403 207.55 241.403 209.05C241.403 209.25 241.393 209.41 241.373 209.6H236.993C237.063 210.71 237.843 211.32 238.773 211.32C239.593 211.32 240.113 210.9 240.313 210.31H241.293ZM246.544 210.51C246.544 211.41 245.754 212.09 244.544 212.09C243.264 212.09 242.364 211.39 242.304 210.39H243.244C243.294 210.92 243.764 211.32 244.534 211.32C245.254 211.32 245.654 210.96 245.654 210.51C245.654 209.29 242.414 210 242.414 207.96C242.414 207.12 243.204 206.43 244.424 206.43C245.634 206.43 246.434 207.08 246.494 208.15H245.584C245.544 207.6 245.124 207.2 244.394 207.2C243.724 207.2 243.324 207.52 243.324 207.96C243.324 209.26 246.504 208.55 246.544 210.51ZM248.109 213.22V212.38H253.429V213.22H248.109ZM258.893 207.08C258.893 206.29 258.453 205.78 257.413 205.78H256.073V208.42H257.413C258.443 208.42 258.893 207.86 258.893 207.08ZM255.163 205.03H257.413C259.053 205.03 259.833 205.94 259.833 207.08C259.833 207.97 259.343 208.82 258.173 209.08L259.923 212H258.833L257.173 209.15H256.073V212H255.163V205.03ZM263.577 207.2C262.687 207.2 261.947 207.79 261.847 208.86H265.307C265.317 207.79 264.517 207.2 263.577 207.2ZM266.137 210.31C265.857 211.31 264.977 212.09 263.617 212.09C262.057 212.09 260.907 210.99 260.907 209.25C260.907 207.52 262.017 206.43 263.617 206.43C265.207 206.43 266.247 207.55 266.247 209.05C266.247 209.25 266.237 209.41 266.217 209.6H261.837C261.907 210.71 262.687 211.32 263.617 211.32C264.437 211.32 264.957 210.9 265.157 210.31H266.137ZM275.358 212V208.9C275.358 207.78 274.758 207.21 273.858 207.21C272.938 207.21 272.308 207.8 272.308 208.98V212H271.408V208.9C271.408 207.78 270.808 207.21 269.908 207.21C268.988 207.21 268.358 207.8 268.358 208.98V212H267.448V206.52H268.358V207.31C268.718 206.73 269.368 206.42 270.088 206.42C270.988 206.42 271.738 206.82 272.098 207.64C272.418 206.85 273.198 206.42 274.038 206.42C275.288 206.42 276.258 207.2 276.258 208.77V212H275.358ZM277.41 209.24C277.41 207.53 278.54 206.43 280.01 206.43C281.03 206.43 281.73 206.95 282.05 207.52V206.52H282.97V212H282.05V210.98C281.72 211.57 281.01 212.09 280 212.09C278.54 212.09 277.41 210.94 277.41 209.24ZM282.05 209.25C282.05 207.98 281.19 207.22 280.19 207.22C279.19 207.22 278.34 207.95 278.34 209.24C278.34 210.53 279.19 211.29 280.19 211.29C281.19 211.29 282.05 210.54 282.05 209.25ZM288.518 212V208.9C288.518 207.78 287.908 207.21 286.988 207.21C286.058 207.21 285.418 207.79 285.418 208.97V212H284.508V206.52H285.418V207.3C285.778 206.73 286.438 206.42 287.178 206.42C288.448 206.42 289.418 207.2 289.418 208.77V212H288.518ZM290.905 212V206.52H291.815V212H290.905ZM291.375 205.63C291.025 205.63 290.755 205.36 290.755 205.01C290.755 204.66 291.025 204.39 291.375 204.39C291.705 204.39 291.975 204.66 291.975 205.01C291.975 205.36 291.705 205.63 291.375 205.63ZM297.376 212V208.9C297.376 207.78 296.766 207.21 295.846 207.21C294.916 207.21 294.276 207.79 294.276 208.97V212H293.366V206.52H294.276V207.3C294.636 206.73 295.296 206.42 296.036 206.42C297.306 206.42 298.276 207.2 298.276 208.77V212H297.376ZM299.422 209.24C299.422 207.53 300.552 206.43 302.022 206.43C303.022 206.43 303.742 206.93 304.062 207.52V206.52H304.982V212.12C304.982 213.63 303.972 214.7 302.362 214.7C300.922 214.7 299.892 213.97 299.712 212.8H300.612C300.812 213.46 301.462 213.91 302.362 213.91C303.332 213.91 304.062 213.29 304.062 212.12V210.97C303.732 211.56 303.022 212.09 302.022 212.09C300.552 212.09 299.422 210.94 299.422 209.24ZM304.062 209.25C304.062 207.98 303.202 207.22 302.202 207.22C301.202 207.22 300.352 207.95 300.352 209.24C300.352 210.53 301.202 211.29 302.202 211.29C303.202 211.29 304.062 210.54 304.062 209.25Z" fill="#FC9B42"/>
<path d="M87.6586 206.59C87.7486 205.35 88.6886 204.63 90.0286 204.63C91.4386 204.63 92.2086 205.45 92.2086 206.49C92.2086 207.32 91.6886 207.97 90.9286 208.14V208.19C91.7686 208.39 92.3386 209.01 92.3386 210.05C92.3386 211.17 91.5586 212.05 90.0486 212.05C88.6786 212.05 87.6586 211.32 87.5486 209.92H88.4286C88.5186 210.69 89.0786 211.28 90.0386 211.28C91.0086 211.28 91.4686 210.71 91.4686 209.97C91.4686 208.95 90.7586 208.56 89.4586 208.56H89.2286V207.8H89.4686C90.6786 207.79 91.3286 207.42 91.3286 206.58C91.3286 205.89 90.8686 205.41 89.9986 205.41C89.1486 205.41 88.6386 205.89 88.5486 206.59H87.6586ZM104.293 212V208.9C104.293 207.78 103.693 207.21 102.793 207.21C101.873 207.21 101.243 207.8 101.243 208.98V212H100.343V208.9C100.343 207.78 99.7433 207.21 98.8433 207.21C97.9233 207.21 97.2933 207.8 97.2933 208.98V212H96.3833V206.52H97.2933V207.31C97.6533 206.73 98.3033 206.42 99.0233 206.42C99.9233 206.42 100.673 206.82 101.033 207.64C101.353 206.85 102.133 206.42 102.973 206.42C104.223 206.42 105.193 207.2 105.193 208.77V212H104.293ZM111.886 209.25C111.886 210.99 110.636 212.09 109.076 212.09C107.526 212.09 106.346 210.99 106.346 209.25C106.346 207.52 107.566 206.43 109.116 206.43C110.676 206.43 111.886 207.52 111.886 209.25ZM107.276 209.25C107.276 210.64 108.126 211.29 109.076 211.29C110.026 211.29 110.956 210.64 110.956 209.25C110.956 207.87 110.046 207.22 109.106 207.22C108.146 207.22 107.276 207.87 107.276 209.25ZM117.093 212V208.9C117.093 207.78 116.483 207.21 115.563 207.21C114.633 207.21 113.993 207.79 113.993 208.97V212H113.083V206.52H113.993V207.3C114.353 206.73 115.013 206.42 115.753 206.42C117.023 206.42 117.993 207.2 117.993 208.77V212H117.093ZM119.679 210.5V207.27H118.969V206.52H119.679V205.14H120.589V206.52H122.019V207.27H120.589V210.5C120.589 211.04 120.789 211.23 121.349 211.23H122.019V212H121.199C120.229 212 119.679 211.6 119.679 210.5ZM123.122 212V204.6H124.032V207.31C124.392 206.73 125.072 206.42 125.842 206.42C127.062 206.42 128.032 207.2 128.032 208.77V212H127.132V208.9C127.132 207.78 126.522 207.21 125.602 207.21C124.672 207.21 124.032 207.79 124.032 208.97V212H123.122ZM132.354 212V207.27H131.644V206.52H132.354V206.13C132.354 204.91 132.954 204.36 134.354 204.36V205.12C133.534 205.12 133.264 205.42 133.264 206.13V206.52H134.414V207.27H133.264V212H132.354ZM136.385 209.02V212H135.475V206.52H136.385V207.41C136.695 206.8 137.285 206.42 138.155 206.42V207.36H137.915C137.045 207.36 136.385 207.75 136.385 209.02ZM144.406 209.25C144.406 210.99 143.156 212.09 141.596 212.09C140.046 212.09 138.866 210.99 138.866 209.25C138.866 207.52 140.086 206.43 141.636 206.43C143.196 206.43 144.406 207.52 144.406 209.25ZM139.796 209.25C139.796 210.64 140.646 211.29 141.596 211.29C142.546 211.29 143.476 210.64 143.476 209.25C143.476 207.87 142.566 207.22 141.626 207.22C140.666 207.22 139.796 207.87 139.796 209.25ZM150.802 209.25C150.802 210.99 149.552 212.09 147.992 212.09C146.442 212.09 145.262 210.99 145.262 209.25C145.262 207.52 146.482 206.43 148.032 206.43C149.592 206.43 150.802 207.52 150.802 209.25ZM146.192 209.25C146.192 210.64 147.042 211.29 147.992 211.29C148.942 211.29 149.872 210.64 149.872 209.25C149.872 207.87 148.962 207.22 148.022 207.22C147.062 207.22 146.192 207.87 146.192 209.25ZM159.909 212V208.9C159.909 207.78 159.309 207.21 158.409 207.21C157.489 207.21 156.859 207.8 156.859 208.98V212H155.959V208.9C155.959 207.78 155.359 207.21 154.459 207.21C153.539 207.21 152.909 207.8 152.909 208.98V212H151.999V206.52H152.909V207.31C153.269 206.73 153.919 206.42 154.639 206.42C155.539 206.42 156.289 206.82 156.649 207.64C156.969 206.85 157.749 206.42 158.589 206.42C159.839 206.42 160.809 207.2 160.809 208.77V212H159.909ZM169.537 205.02H170.447V212H169.537L165.877 206.45V212H164.967V205.02H165.877L169.537 210.56V205.02ZM177.199 209.25C177.199 210.99 175.949 212.09 174.389 212.09C172.839 212.09 171.659 210.99 171.659 209.25C171.659 207.52 172.879 206.43 174.429 206.43C175.989 206.43 177.199 207.52 177.199 209.25ZM172.589 209.25C172.589 210.64 173.439 211.29 174.389 211.29C175.339 211.29 176.269 210.64 176.269 209.25C176.269 207.87 175.359 207.22 174.419 207.22C173.459 207.22 172.589 207.87 172.589 209.25ZM179.465 212L177.745 206.52H178.675L179.935 211.12L181.295 206.52H182.225L183.555 211.13L184.795 206.52H185.695L183.985 212H183.045L181.725 207.65L180.405 212H179.465Z" fill="#212121"/>
<path d="M87.0586 213H185.825V213.5H87.0586V213Z" fill="#212121"/>
<path d="M41.52 266.02V266.77H38.68V269.1H41.22V269.85H38.68V272.25H41.52V273H37.77V266.02H41.52ZM42.247 267.52H43.227L44.937 272.16L46.637 267.52H47.607L45.457 273H44.397L42.247 267.52ZM50.8324 268.2C49.9424 268.2 49.2024 268.79 49.1024 269.86H52.5624C52.5724 268.79 51.7724 268.2 50.8324 268.2ZM53.3924 271.31C53.1124 272.31 52.2324 273.09 50.8724 273.09C49.3124 273.09 48.1624 271.99 48.1624 270.25C48.1624 268.52 49.2724 267.43 50.8724 267.43C52.4624 267.43 53.5024 268.55 53.5024 270.05C53.5024 270.25 53.4924 270.41 53.4724 270.6H49.0924C49.1624 271.71 49.9424 272.32 50.8724 272.32C51.6924 272.32 52.2124 271.9 52.4124 271.31H53.3924ZM55.6136 270.02V273H54.7036V267.52H55.6136V268.41C55.9236 267.8 56.5136 267.42 57.3836 267.42V268.36H57.1436C56.2736 268.36 55.6136 268.75 55.6136 270.02ZM60.5141 271.96L62.2141 267.52H63.1541L59.8541 275.58H58.9141L59.9941 272.94L57.7841 267.52H58.7941L60.5141 271.96ZM71.4548 267.49H70.6148C70.4748 266.79 70.0648 266.38 69.2448 266.38C68.0948 266.38 67.4748 267.17 67.4848 269.32C67.7948 268.61 68.5848 268.21 69.4448 268.21C70.7948 268.21 71.7048 269.1 71.7048 270.62C71.7048 271.94 70.9248 273.02 69.3448 273.02C67.2048 273.02 66.6948 271.48 66.6948 269.29C66.6948 267.02 67.4248 265.62 69.2548 265.62C70.6348 265.62 71.3348 266.48 71.4548 267.49ZM69.2548 268.98C68.4248 268.98 67.5948 269.47 67.5948 270.55C67.5948 271.51 68.1548 272.26 69.2948 272.26C70.2348 272.26 70.8248 271.63 70.8248 270.65C70.8248 269.63 70.2948 268.98 69.2548 268.98ZM86.3245 273V269.9C86.3245 268.78 85.7245 268.21 84.8245 268.21C83.9045 268.21 83.2745 268.8 83.2745 269.98V273H82.3745V269.9C82.3745 268.78 81.7745 268.21 80.8745 268.21C79.9545 268.21 79.3245 268.8 79.3245 269.98V273H78.4145V267.52H79.3245V268.31C79.6845 267.73 80.3345 267.42 81.0545 267.42C81.9545 267.42 82.7045 267.82 83.0645 268.64C83.3845 267.85 84.1645 267.42 85.0045 267.42C86.2545 267.42 87.2245 268.2 87.2245 269.77V273H86.3245ZM93.9173 270.25C93.9173 271.99 92.6673 273.09 91.1073 273.09C89.5573 273.09 88.3773 271.99 88.3773 270.25C88.3773 268.52 89.5973 267.43 91.1473 267.43C92.7073 267.43 93.9173 268.52 93.9173 270.25ZM89.3073 270.25C89.3073 271.64 90.1573 272.29 91.1073 272.29C92.0573 272.29 92.9873 271.64 92.9873 270.25C92.9873 268.87 92.0773 268.22 91.1373 268.22C90.1773 268.22 89.3073 268.87 89.3073 270.25ZM99.1238 273V269.9C99.1238 268.78 98.5138 268.21 97.5938 268.21C96.6638 268.21 96.0238 268.79 96.0238 269.97V273H95.1138V267.52H96.0238V268.3C96.3838 267.73 97.0438 267.42 97.7838 267.42C99.0538 267.42 100.024 268.2 100.024 269.77V273H99.1238ZM101.71 271.5V268.27H101V267.52H101.71V266.14H102.62V267.52H104.05V268.27H102.62V271.5C102.62 272.04 102.82 272.23 103.38 272.23H104.05V273H103.23C102.26 273 101.71 272.6 101.71 271.5ZM105.153 273V265.6H106.063V268.31C106.423 267.73 107.103 267.42 107.873 267.42C109.093 267.42 110.063 268.2 110.063 269.77V273H109.163V269.9C109.163 268.78 108.553 268.21 107.633 268.21C106.703 268.21 106.063 268.79 106.063 269.97V273H105.153ZM114.839 274.86H113.889C112.619 273.61 111.859 271.59 111.859 269.34C111.859 267.08 112.619 264.97 114.039 263.66H114.989V263.75C113.449 265.2 112.739 267.3 112.739 269.34C112.739 271.37 113.449 273.34 114.839 274.77V274.86ZM120.03 271.51C120.03 272.41 119.24 273.09 118.03 273.09C116.75 273.09 115.85 272.39 115.79 271.39H116.73C116.78 271.92 117.25 272.32 118.02 272.32C118.74 272.32 119.14 271.96 119.14 271.51C119.14 270.29 115.9 271 115.9 268.96C115.9 268.12 116.69 267.43 117.91 267.43C119.12 267.43 119.92 268.08 119.98 269.15H119.07C119.03 268.6 118.61 268.2 117.88 268.2C117.21 268.2 116.81 268.52 116.81 268.96C116.81 270.26 119.99 269.55 120.03 271.51ZM121.025 274.86V274.77C122.415 273.34 123.125 271.37 123.125 269.34C123.125 267.3 122.415 265.2 120.875 263.75V263.66H121.825C123.245 264.97 124.005 267.08 124.005 269.34C124.005 271.59 123.245 273.61 121.975 274.86H121.025ZM133.722 270.25C133.722 271.99 132.472 273.09 130.912 273.09C129.362 273.09 128.182 271.99 128.182 270.25C128.182 268.52 129.402 267.43 130.952 267.43C132.512 267.43 133.722 268.52 133.722 270.25ZM129.112 270.25C129.112 271.64 129.962 272.29 130.912 272.29C131.862 272.29 132.792 271.64 132.792 270.25C132.792 268.87 131.882 268.22 130.942 268.22C129.982 268.22 129.112 268.87 129.112 270.25ZM135.828 270.02V273H134.918V267.52H135.828V268.41C136.138 267.8 136.728 267.42 137.598 267.42V268.36H137.358C136.488 268.36 135.828 268.75 135.828 270.02ZM141.885 273V266.6H140.925V265.77H142.805V273H141.885ZM144.368 269.31C144.368 267.24 144.888 265.66 146.888 265.66C148.878 265.66 149.398 267.24 149.398 269.31C149.398 271.41 148.878 273 146.888 273C144.888 273 144.368 271.41 144.368 269.31ZM148.498 269.31C148.498 267.81 148.308 266.49 146.888 266.49C145.458 266.49 145.268 267.81 145.268 269.31C145.268 270.87 145.458 272.17 146.888 272.17C148.308 272.17 148.498 270.87 148.498 269.31ZM150.007 274.43L150.737 271.74H151.737L150.617 274.43H150.007ZM152.63 269.31C152.63 267.24 153.15 265.66 155.15 265.66C157.14 265.66 157.66 267.24 157.66 269.31C157.66 271.41 157.14 273 155.15 273C153.15 273 152.63 271.41 152.63 269.31ZM156.76 269.31C156.76 267.81 156.57 266.49 155.15 266.49C153.72 266.49 153.53 267.81 153.53 269.31C153.53 270.87 153.72 272.17 155.15 272.17C156.57 272.17 156.76 270.87 156.76 269.31ZM158.909 269.31C158.909 267.24 159.429 265.66 161.429 265.66C163.419 265.66 163.939 267.24 163.939 269.31C163.939 271.41 163.419 273 161.429 273C159.429 273 158.909 271.41 158.909 269.31ZM163.039 269.31C163.039 267.81 162.849 266.49 161.429 266.49C159.999 266.49 159.809 267.81 159.809 269.31C159.809 270.87 159.999 272.17 161.429 272.17C162.849 272.17 163.039 270.87 163.039 269.31ZM165.188 269.31C165.188 267.24 165.708 265.66 167.708 265.66C169.698 265.66 170.218 267.24 170.218 269.31C170.218 271.41 169.698 273 167.708 273C165.708 273 165.188 271.41 165.188 269.31ZM169.318 269.31C169.318 267.81 169.128 266.49 167.708 266.49C166.278 266.49 166.088 267.81 166.088 269.31C166.088 270.87 166.278 272.17 167.708 272.17C169.128 272.17 169.318 270.87 169.318 269.31ZM174.284 273V266.08H175.264L177.824 271.8L180.384 266.08H181.354V273H180.444V267.84L178.144 273H177.504L175.194 267.83V273H174.284ZM182.897 273V267.52H183.807V273H182.897ZM183.367 266.63C183.017 266.63 182.747 266.36 182.747 266.01C182.747 265.66 183.017 265.39 183.367 265.39C183.697 265.39 183.967 265.66 183.967 266.01C183.967 266.36 183.697 266.63 183.367 266.63ZM185.358 273V265.6H186.268V273H185.358ZM190.149 268.2C189.259 268.2 188.519 268.79 188.419 269.86H191.879C191.889 268.79 191.089 268.2 190.149 268.2ZM192.709 271.31C192.429 272.31 191.549 273.09 190.189 273.09C188.629 273.09 187.479 271.99 187.479 270.25C187.479 268.52 188.589 267.43 190.189 267.43C191.779 267.43 192.819 268.55 192.819 270.05C192.819 270.25 192.809 270.41 192.789 270.6H188.409C188.479 271.71 189.259 272.32 190.189 272.32C191.009 272.32 191.529 271.9 191.729 271.31H192.709ZM197.96 271.51C197.96 272.41 197.17 273.09 195.96 273.09C194.68 273.09 193.78 272.39 193.72 271.39H194.66C194.71 271.92 195.18 272.32 195.95 272.32C196.67 272.32 197.07 271.96 197.07 271.51C197.07 270.29 193.83 271 193.83 268.96C193.83 268.12 194.62 267.43 195.84 267.43C197.05 267.43 197.85 268.08 197.91 269.15H197C196.96 268.6 196.54 268.2 195.81 268.2C195.14 268.2 194.74 268.52 194.74 268.96C194.74 270.26 197.92 269.55 197.96 271.51ZM189.074 284.72V283.95H193.064V284.72H189.074Z" fill="#A6A6A6"/>
<path d="M39.94 281.03C42.23 281.03 43.64 282.37 43.64 284.53C43.64 286.69 42.23 288 39.94 288H37.77V281.03H39.94ZM38.68 287.25H39.94C41.76 287.25 42.71 286.23 42.71 284.53C42.71 282.83 41.76 281.77 39.94 281.77H38.68V287.25ZM49.7003 282.52V288H48.7903V287.19C48.4403 287.76 47.7703 288.08 47.0403 288.08C45.7803 288.08 44.7903 287.3 44.7903 285.73V282.52H45.6903V285.61C45.6903 286.72 46.3003 287.29 47.2203 287.29C48.1603 287.29 48.7903 286.71 48.7903 285.53V282.52H49.7003ZM53.5668 283.2C52.6768 283.2 51.9368 283.79 51.8368 284.86H55.2968C55.3068 283.79 54.5068 283.2 53.5668 283.2ZM56.1268 286.31C55.8468 287.31 54.9668 288.09 53.6068 288.09C52.0468 288.09 50.8968 286.99 50.8968 285.25C50.8968 283.52 52.0068 282.43 53.6068 282.43C55.1968 282.43 56.2368 283.55 56.2368 285.05C56.2368 285.25 56.2268 285.41 56.2068 285.6H51.8268C51.8968 286.71 52.6768 287.32 53.6068 287.32C54.4268 287.32 54.9468 286.9 55.1468 286.31H56.1268ZM64.634 286.1C64.634 287.09 63.824 288.07 62.314 288.07C60.914 288.07 59.924 287.29 59.904 286.14H60.874C60.934 286.72 61.344 287.3 62.314 287.3C63.194 287.3 63.714 286.8 63.714 286.14C63.714 284.26 59.944 285.46 59.944 282.87C59.944 281.72 60.874 280.94 62.254 280.94C63.584 280.94 64.454 281.67 64.564 282.73H63.564C63.504 282.26 63.064 281.73 62.214 281.72C61.464 281.7 60.874 282.09 60.874 282.84C60.874 284.64 64.634 283.52 64.634 286.1ZM71.1731 285.25C71.1731 286.99 69.9231 288.09 68.3631 288.09C66.8131 288.09 65.6331 286.99 65.6331 285.25C65.6331 283.52 66.8531 282.43 68.4031 282.43C69.9631 282.43 71.1731 283.52 71.1731 285.25ZM66.5631 285.25C66.5631 286.64 67.4131 287.29 68.3631 287.29C69.3131 287.29 70.2431 286.64 70.2431 285.25C70.2431 283.87 69.3331 283.22 68.3931 283.22C67.4331 283.22 66.5631 283.87 66.5631 285.25ZM77.5696 285.25C77.5696 286.99 76.3196 288.09 74.7596 288.09C73.2096 288.09 72.0296 286.99 72.0296 285.25C72.0296 283.52 73.2496 282.43 74.7996 282.43C76.3596 282.43 77.5696 283.52 77.5696 285.25ZM72.9596 285.25C72.9596 286.64 73.8096 287.29 74.7596 287.29C75.7096 287.29 76.6396 286.64 76.6396 285.25C76.6396 283.87 75.7296 283.22 74.7896 283.22C73.8296 283.22 72.9596 283.87 72.9596 285.25ZM82.7761 288V284.9C82.7761 283.78 82.1661 283.21 81.2461 283.21C80.3161 283.21 79.6761 283.79 79.6761 284.97V288H78.7661V282.52H79.6761V283.3C80.0361 282.73 80.6961 282.42 81.4361 282.42C82.7061 282.42 83.6761 283.2 83.6761 284.77V288H82.7761ZM200.768 288V286.39H197.068V285.7L200.578 280.84H201.668V285.6H202.668V286.39H201.668V288H200.768ZM198.118 285.6H200.808V281.79L198.118 285.6ZM208.447 282.49H207.607C207.467 281.79 207.057 281.38 206.237 281.38C205.087 281.38 204.467 282.17 204.477 284.32C204.787 283.61 205.577 283.21 206.437 283.21C207.787 283.21 208.697 284.1 208.697 285.62C208.697 286.94 207.917 288.02 206.337 288.02C204.197 288.02 203.687 286.48 203.687 284.29C203.687 282.02 204.417 280.62 206.247 280.62C207.627 280.62 208.327 281.48 208.447 282.49ZM206.247 283.98C205.417 283.98 204.587 284.47 204.587 285.55C204.587 286.51 205.147 287.26 206.287 287.26C207.227 287.26 207.817 286.63 207.817 285.65C207.817 284.63 207.287 283.98 206.247 283.98ZM209.635 280.79H214.375V281.48L211.595 288H210.675L213.495 281.57H209.635V280.79ZM215.814 289.22V288.38H221.134V289.22H215.814ZM222.868 288V281.08H223.848L226.408 286.8L228.968 281.08H229.938V288H229.028V282.84L226.728 288H226.088L223.778 282.83V288H222.868ZM231.481 288V282.52H232.391V288H231.481ZM231.951 281.63C231.601 281.63 231.331 281.36 231.331 281.01C231.331 280.66 231.601 280.39 231.951 280.39C232.281 280.39 232.551 280.66 232.551 281.01C232.551 281.36 232.281 281.63 231.951 281.63ZM233.942 288V280.6H234.852V288H233.942ZM238.733 283.2C237.843 283.2 237.103 283.79 237.003 284.86H240.463C240.473 283.79 239.673 283.2 238.733 283.2ZM241.293 286.31C241.013 287.31 240.133 288.09 238.773 288.09C237.213 288.09 236.063 286.99 236.063 285.25C236.063 283.52 237.173 282.43 238.773 282.43C240.363 282.43 241.403 283.55 241.403 285.05C241.403 285.25 241.393 285.41 241.373 285.6H236.993C237.063 286.71 237.843 287.32 238.773 287.32C239.593 287.32 240.113 286.9 240.313 286.31H241.293ZM246.544 286.51C246.544 287.41 245.754 288.09 244.544 288.09C243.264 288.09 242.364 287.39 242.304 286.39H243.244C243.294 286.92 243.764 287.32 244.534 287.32C245.254 287.32 245.654 286.96 245.654 286.51C245.654 285.29 242.414 286 242.414 283.96C242.414 283.12 243.204 282.43 244.424 282.43C245.634 282.43 246.434 283.08 246.494 284.15H245.584C245.544 283.6 245.124 283.2 244.394 283.2C243.724 283.2 243.324 283.52 243.324 283.96C243.324 285.26 246.504 284.55 246.544 286.51ZM248.109 289.22V288.38H253.429V289.22H248.109ZM258.893 283.08C258.893 282.29 258.453 281.78 257.413 281.78H256.073V284.42H257.413C258.443 284.42 258.893 283.86 258.893 283.08ZM255.163 281.03H257.413C259.053 281.03 259.833 281.94 259.833 283.08C259.833 283.97 259.343 284.82 258.173 285.08L259.923 288H258.833L257.173 285.15H256.073V288H255.163V281.03ZM263.577 283.2C262.687 283.2 261.947 283.79 261.847 284.86H265.307C265.317 283.79 264.517 283.2 263.577 283.2ZM266.137 286.31C265.857 287.31 264.977 288.09 263.617 288.09C262.057 288.09 260.907 286.99 260.907 285.25C260.907 283.52 262.017 282.43 263.617 282.43C265.207 282.43 266.247 283.55 266.247 285.05C266.247 285.25 266.237 285.41 266.217 285.6H261.837C261.907 286.71 262.687 287.32 263.617 287.32C264.437 287.32 264.957 286.9 265.157 286.31H266.137ZM275.358 288V284.9C275.358 283.78 274.758 283.21 273.858 283.21C272.938 283.21 272.308 283.8 272.308 284.98V288H271.408V284.9C271.408 283.78 270.808 283.21 269.908 283.21C268.988 283.21 268.358 283.8 268.358 284.98V288H267.448V282.52H268.358V283.31C268.718 282.73 269.368 282.42 270.088 282.42C270.988 282.42 271.738 282.82 272.098 283.64C272.418 282.85 273.198 282.42 274.038 282.42C275.288 282.42 276.258 283.2 276.258 284.77V288H275.358ZM277.41 285.24C277.41 283.53 278.54 282.43 280.01 282.43C281.03 282.43 281.73 282.95 282.05 283.52V282.52H282.97V288H282.05V286.98C281.72 287.57 281.01 288.09 280 288.09C278.54 288.09 277.41 286.94 277.41 285.24ZM282.05 285.25C282.05 283.98 281.19 283.22 280.19 283.22C279.19 283.22 278.34 283.95 278.34 285.24C278.34 286.53 279.19 287.29 280.19 287.29C281.19 287.29 282.05 286.54 282.05 285.25ZM288.518 288V284.9C288.518 283.78 287.908 283.21 286.988 283.21C286.058 283.21 285.418 283.79 285.418 284.97V288H284.508V282.52H285.418V283.3C285.778 282.73 286.438 282.42 287.178 282.42C288.448 282.42 289.418 283.2 289.418 284.77V288H288.518ZM290.905 288V282.52H291.815V288H290.905ZM291.375 281.63C291.025 281.63 290.755 281.36 290.755 281.01C290.755 280.66 291.025 280.39 291.375 280.39C291.705 280.39 291.975 280.66 291.975 281.01C291.975 281.36 291.705 281.63 291.375 281.63ZM297.376 288V284.9C297.376 283.78 296.766 283.21 295.846 283.21C294.916 283.21 294.276 283.79 294.276 284.97V288H293.366V282.52H294.276V283.3C294.636 282.73 295.296 282.42 296.036 282.42C297.306 282.42 298.276 283.2 298.276 284.77V288H297.376ZM299.422 285.24C299.422 283.53 300.552 282.43 302.022 282.43C303.022 282.43 303.742 282.93 304.062 283.52V282.52H304.982V288.12C304.982 289.63 303.972 290.7 302.362 290.7C300.922 290.7 299.892 289.97 299.712 288.8H300.612C300.812 289.46 301.462 289.91 302.362 289.91C303.332 289.91 304.062 289.29 304.062 288.12V286.97C303.732 287.56 303.022 288.09 302.022 288.09C300.552 288.09 299.422 286.94 299.422 285.24ZM304.062 285.25C304.062 283.98 303.202 283.22 302.202 283.22C301.202 283.22 300.352 283.95 300.352 285.24C300.352 286.53 301.202 287.29 302.202 287.29C303.202 287.29 304.062 286.54 304.062 285.25Z" fill="#FC9B42"/>
<path d="M87.6586 282.59C87.7486 281.35 88.6886 280.63 90.0286 280.63C91.4386 280.63 92.2086 281.45 92.2086 282.49C92.2086 283.32 91.6886 283.97 90.9286 284.14V284.19C91.7686 284.39 92.3386 285.01 92.3386 286.05C92.3386 287.17 91.5586 288.05 90.0486 288.05C88.6786 288.05 87.6586 287.32 87.5486 285.92H88.4286C88.5186 286.69 89.0786 287.28 90.0386 287.28C91.0086 287.28 91.4686 286.71 91.4686 285.97C91.4686 284.95 90.7586 284.56 89.4586 284.56H89.2286V283.8H89.4686C90.6786 283.79 91.3286 283.42 91.3286 282.58C91.3286 281.89 90.8686 281.41 89.9986 281.41C89.1486 281.41 88.6386 281.89 88.5486 282.59H87.6586ZM104.293 288V284.9C104.293 283.78 103.693 283.21 102.793 283.21C101.873 283.21 101.243 283.8 101.243 284.98V288H100.343V284.9C100.343 283.78 99.7433 283.21 98.8433 283.21C97.9233 283.21 97.2933 283.8 97.2933 284.98V288H96.3833V282.52H97.2933V283.31C97.6533 282.73 98.3033 282.42 99.0233 282.42C99.9233 282.42 100.673 282.82 101.033 283.64C101.353 282.85 102.133 282.42 102.973 282.42C104.223 282.42 105.193 283.2 105.193 284.77V288H104.293ZM111.886 285.25C111.886 286.99 110.636 288.09 109.076 288.09C107.526 288.09 106.346 286.99 106.346 285.25C106.346 283.52 107.566 282.43 109.116 282.43C110.676 282.43 111.886 283.52 111.886 285.25ZM107.276 285.25C107.276 286.64 108.126 287.29 109.076 287.29C110.026 287.29 110.956 286.64 110.956 285.25C110.956 283.87 110.046 283.22 109.106 283.22C108.146 283.22 107.276 283.87 107.276 285.25ZM117.093 288V284.9C117.093 283.78 116.483 283.21 115.563 283.21C114.633 283.21 113.993 283.79 113.993 284.97V288H113.083V282.52H113.993V283.3C114.353 282.73 115.013 282.42 115.753 282.42C117.023 282.42 117.993 283.2 117.993 284.77V288H117.093ZM119.679 286.5V283.27H118.969V282.52H119.679V281.14H120.589V282.52H122.019V283.27H120.589V286.5C120.589 287.04 120.789 287.23 121.349 287.23H122.019V288H121.199C120.229 288 119.679 287.6 119.679 286.5ZM123.122 288V280.6H124.032V283.31C124.392 282.73 125.072 282.42 125.842 282.42C127.062 282.42 128.032 283.2 128.032 284.77V288H127.132V284.9C127.132 283.78 126.522 283.21 125.602 283.21C124.672 283.21 124.032 283.79 124.032 284.97V288H123.122ZM132.354 288V283.27H131.644V282.52H132.354V282.13C132.354 280.91 132.954 280.36 134.354 280.36V281.12C133.534 281.12 133.264 281.42 133.264 282.13V282.52H134.414V283.27H133.264V288H132.354ZM136.385 285.02V288H135.475V282.52H136.385V283.41C136.695 282.8 137.285 282.42 138.155 282.42V283.36H137.915C137.045 283.36 136.385 283.75 136.385 285.02ZM144.406 285.25C144.406 286.99 143.156 288.09 141.596 288.09C140.046 288.09 138.866 286.99 138.866 285.25C138.866 283.52 140.086 282.43 141.636 282.43C143.196 282.43 144.406 283.52 144.406 285.25ZM139.796 285.25C139.796 286.64 140.646 287.29 141.596 287.29C142.546 287.29 143.476 286.64 143.476 285.25C143.476 283.87 142.566 283.22 141.626 283.22C140.666 283.22 139.796 283.87 139.796 285.25ZM150.802 285.25C150.802 286.99 149.552 288.09 147.992 288.09C146.442 288.09 145.262 286.99 145.262 285.25C145.262 283.52 146.482 282.43 148.032 282.43C149.592 282.43 150.802 283.52 150.802 285.25ZM146.192 285.25C146.192 286.64 147.042 287.29 147.992 287.29C148.942 287.29 149.872 286.64 149.872 285.25C149.872 283.87 148.962 283.22 148.022 283.22C147.062 283.22 146.192 283.87 146.192 285.25ZM159.909 288V284.9C159.909 283.78 159.309 283.21 158.409 283.21C157.489 283.21 156.859 283.8 156.859 284.98V288H155.959V284.9C155.959 283.78 155.359 283.21 154.459 283.21C153.539 283.21 152.909 283.8 152.909 284.98V288H151.999V282.52H152.909V283.31C153.269 282.73 153.919 282.42 154.639 282.42C155.539 282.42 156.289 282.82 156.649 283.64C156.969 282.85 157.749 282.42 158.589 282.42C159.839 282.42 160.809 283.2 160.809 284.77V288H159.909ZM169.537 281.02H170.447V288H169.537L165.877 282.45V288H164.967V281.02H165.877L169.537 286.56V281.02ZM177.199 285.25C177.199 286.99 175.949 288.09 174.389 288.09C172.839 288.09 171.659 286.99 171.659 285.25C171.659 283.52 172.879 282.43 174.429 282.43C175.989 282.43 177.199 283.52 177.199 285.25ZM172.589 285.25C172.589 286.64 173.439 287.29 174.389 287.29C175.339 287.29 176.269 286.64 176.269 285.25C176.269 283.87 175.359 283.22 174.419 283.22C173.459 283.22 172.589 283.87 172.589 285.25ZM179.465 288L177.745 282.52H178.675L179.935 287.12L181.295 282.52H182.225L183.555 287.13L184.795 282.52H185.695L183.985 288H183.045L181.725 283.65L180.405 288H179.465Z" fill="#212121"/>
<path d="M87.0586 289H185.825V289.5H87.0586V289Z" fill="#212121"/>
<path d="M66.916 100.812C66.916 103.32 65.08 105.084 62.716 105.084C60.364 105.084 58.516 103.32 58.516 100.812C58.516 98.304 60.364 96.54 62.716 96.54C65.08 96.54 66.916 98.304 66.916 100.812ZM59.632 100.812C59.632 102.852 60.952 104.136 62.716 104.136C64.48 104.136 65.8 102.852 65.8 100.812C65.8 98.76 64.48 97.488 62.716 97.488C60.952 97.488 59.632 98.76 59.632 100.812ZM67.5776 98.424H68.7536L70.8056 103.992L72.8456 98.424H74.0096L71.4296 105H70.1576L67.5776 98.424ZM77.8802 99.24C76.8122 99.24 75.9242 99.948 75.8042 101.232H79.9562C79.9682 99.948 79.0082 99.24 77.8802 99.24ZM80.9522 102.972C80.6162 104.172 79.5602 105.108 77.9282 105.108C76.0562 105.108 74.6762 103.788 74.6762 101.7C74.6762 99.624 76.0082 98.316 77.9282 98.316C79.8362 98.316 81.0842 99.66 81.0842 101.46C81.0842 101.7 81.0722 101.892 81.0482 102.12H75.7922C75.8762 103.452 76.8122 104.184 77.9282 104.184C78.9122 104.184 79.5362 103.68 79.7762 102.972H80.9522ZM83.6176 101.424V105H82.5256V98.424H83.6176V99.492C83.9896 98.76 84.6976 98.304 85.7416 98.304V99.432H85.4536C84.4096 99.432 83.6176 99.9 83.6176 101.424ZM86.5941 101.688C86.5941 99.636 87.9501 98.316 89.7261 98.316C90.7581 98.316 91.7061 98.844 92.1621 99.6V96.12H93.2661V105H92.1621V103.764C91.7661 104.496 90.9141 105.108 89.7141 105.108C87.9501 105.108 86.5941 103.728 86.5941 101.688ZM92.1621 101.7C92.1621 100.176 91.1301 99.264 89.9301 99.264C88.7301 99.264 87.7101 100.14 87.7101 101.688C87.7101 103.236 88.7301 104.148 89.9301 104.148C91.1301 104.148 92.1621 103.248 92.1621 101.7ZM100.944 98.424V105H99.8515V104.028C99.4315 104.712 98.6275 105.096 97.7515 105.096C96.2395 105.096 95.0515 104.16 95.0515 102.276V98.424H96.1315V102.132C96.1315 103.464 96.8635 104.148 97.9675 104.148C99.0955 104.148 99.8515 103.452 99.8515 102.036V98.424H100.944ZM105.583 99.24C104.515 99.24 103.627 99.948 103.507 101.232H107.659C107.671 99.948 106.711 99.24 105.583 99.24ZM108.655 102.972C108.319 104.172 107.263 105.108 105.631 105.108C103.759 105.108 102.379 103.788 102.379 101.7C102.379 99.624 103.711 98.316 105.631 98.316C107.539 98.316 108.787 99.66 108.787 101.46C108.787 101.7 108.775 101.892 108.751 102.12H103.495C103.579 103.452 104.515 104.184 105.631 104.184C106.615 104.184 107.239 103.68 107.479 102.972H108.655Z" fill="#A6A6A6"/>
<path d="M58.96 122.016C58.96 118.688 59.856 116.128 63.12 116.128C66.384 116.128 67.28 118.688 67.28 122.016C67.28 125.408 66.384 127.968 63.12 127.968C59.856 127.968 58.96 125.408 58.96 122.016ZM65.488 122.016C65.488 119.84 65.248 117.792 63.12 117.792C60.992 117.792 60.752 119.84 60.752 122.016C60.752 124.304 60.992 126.304 63.12 126.304C65.248 126.304 65.488 124.304 65.488 122.016Z" fill="#212121"/>
<path d="M321.528 96.636C324.276 96.636 325.968 98.244 325.968 100.836C325.968 103.428 324.276 105 321.528 105H318.924V96.636H321.528ZM320.016 104.1H321.528C323.712 104.1 324.852 102.876 324.852 100.836C324.852 98.796 323.712 97.524 321.528 97.524H320.016V104.1ZM333.24 98.424V105H332.148V104.028C331.728 104.712 330.924 105.096 330.048 105.096C328.536 105.096 327.348 104.16 327.348 102.276V98.424H328.428V102.132C328.428 103.464 329.16 104.148 330.264 104.148C331.392 104.148 332.148 103.452 332.148 102.036V98.424H333.24ZM337.88 99.24C336.812 99.24 335.924 99.948 335.804 101.232H339.956C339.968 99.948 339.008 99.24 337.88 99.24ZM340.952 102.972C340.616 104.172 339.56 105.108 337.928 105.108C336.056 105.108 334.676 103.788 334.676 101.7C334.676 99.624 336.008 98.316 337.928 98.316C339.836 98.316 341.084 99.66 341.084 101.46C341.084 101.7 341.072 101.892 341.048 102.12H335.792C335.876 103.452 336.812 104.184 337.928 104.184C338.912 104.184 339.536 103.68 339.776 102.972H340.952ZM351.161 102.72C351.161 103.908 350.189 105.084 348.377 105.084C346.697 105.084 345.509 104.148 345.485 102.768H346.649C346.721 103.464 347.213 104.16 348.377 104.16C349.433 104.16 350.057 103.56 350.057 102.768C350.057 100.512 345.533 101.952 345.533 98.844C345.533 97.464 346.649 96.528 348.305 96.528C349.901 96.528 350.945 97.404 351.077 98.676H349.877C349.805 98.112 349.277 97.476 348.257 97.464C347.357 97.44 346.649 97.908 346.649 98.808C346.649 100.968 351.161 99.624 351.161 102.72ZM359.008 101.7C359.008 103.788 357.508 105.108 355.636 105.108C353.776 105.108 352.36 103.788 352.36 101.7C352.36 99.624 353.824 98.316 355.684 98.316C357.556 98.316 359.008 99.624 359.008 101.7ZM353.476 101.7C353.476 103.368 354.496 104.148 355.636 104.148C356.776 104.148 357.892 103.368 357.892 101.7C357.892 100.044 356.8 99.264 355.672 99.264C354.52 99.264 353.476 100.044 353.476 101.7ZM366.684 101.7C366.684 103.788 365.184 105.108 363.312 105.108C361.452 105.108 360.036 103.788 360.036 101.7C360.036 99.624 361.5 98.316 363.36 98.316C365.232 98.316 366.684 99.624 366.684 101.7ZM361.152 101.7C361.152 103.368 362.172 104.148 363.312 104.148C364.452 104.148 365.568 103.368 365.568 101.7C365.568 100.044 364.476 99.264 363.348 99.264C362.196 99.264 361.152 100.044 361.152 101.7ZM372.931 105V101.28C372.931 99.936 372.199 99.252 371.095 99.252C369.979 99.252 369.211 99.948 369.211 101.364V105H368.119V98.424H369.211V99.36C369.643 98.676 370.435 98.304 371.323 98.304C372.847 98.304 374.011 99.24 374.011 101.124V105H372.931Z" fill="#A6A6A6"/>
<path d="M318.816 127.84V126.512C321.568 124.096 324.464 121.984 324.464 119.696C324.464 118.48 323.936 117.648 322.576 117.648C321.296 117.648 320.608 118.544 320.56 119.856H318.8C318.864 117.328 320.496 116.096 322.56 116.096C324.928 116.096 326.272 117.52 326.272 119.616C326.272 122.448 323.392 124.608 321.52 126.32H326.592V127.84H318.816Z" fill="#F3AE37"/>
<path d="M576.36 102.72C576.36 103.908 575.388 105.084 573.576 105.084C571.896 105.084 570.708 104.148 570.684 102.768H571.848C571.92 103.464 572.412 104.16 573.576 104.16C574.632 104.16 575.256 103.56 575.256 102.768C575.256 100.512 570.732 101.952 570.732 98.844C570.732 97.464 571.848 96.528 573.504 96.528C575.1 96.528 576.144 97.404 576.276 98.676H575.076C575.004 98.112 574.476 97.476 573.456 97.464C572.556 97.44 571.848 97.908 571.848 98.808C571.848 100.968 576.36 99.624 576.36 102.72ZM582.779 105V101.28C582.779 99.936 582.047 99.252 580.943 99.252C579.827 99.252 579.059 99.948 579.059 101.364V105H577.967V98.424H579.059V99.36C579.491 98.676 580.283 98.304 581.171 98.304C582.695 98.304 583.859 99.24 583.859 101.124V105H582.779ZM591.883 101.7C591.883 103.788 590.383 105.108 588.511 105.108C586.651 105.108 585.235 103.788 585.235 101.7C585.235 99.624 586.699 98.316 588.559 98.316C590.431 98.316 591.883 99.624 591.883 101.7ZM586.351 101.7C586.351 103.368 587.371 104.148 588.511 104.148C589.651 104.148 590.767 103.368 590.767 101.7C590.767 100.044 589.675 99.264 588.547 99.264C587.395 99.264 586.351 100.044 586.351 101.7ZM599.559 101.7C599.559 103.788 598.059 105.108 596.187 105.108C594.327 105.108 592.911 103.788 592.911 101.7C592.911 99.624 594.375 98.316 596.235 98.316C598.107 98.316 599.559 99.624 599.559 101.7ZM594.027 101.7C594.027 103.368 595.047 104.148 596.187 104.148C597.327 104.148 598.443 103.368 598.443 101.7C598.443 100.044 597.351 99.264 596.223 99.264C595.071 99.264 594.027 100.044 594.027 101.7ZM605.014 98.424V99.312L601.81 104.1H605.038V105H600.562V104.1L603.754 99.312H600.586V98.424H605.014ZM609.251 99.24C608.183 99.24 607.295 99.948 607.175 101.232H611.327C611.339 99.948 610.379 99.24 609.251 99.24ZM612.323 102.972C611.987 104.172 610.931 105.108 609.299 105.108C607.427 105.108 606.047 103.788 606.047 101.7C606.047 99.624 607.379 98.316 609.299 98.316C611.207 98.316 612.455 99.66 612.455 101.46C612.455 101.7 612.443 101.892 612.419 102.12H607.163C607.247 103.452 608.183 104.184 609.299 104.184C610.283 104.184 610.907 103.68 611.147 102.972H612.323ZM613.489 101.688C613.489 99.636 614.845 98.316 616.621 98.316C617.653 98.316 618.601 98.844 619.057 99.6V96.12H620.161V105H619.057V103.764C618.661 104.496 617.809 105.108 616.609 105.108C614.845 105.108 613.489 103.728 613.489 101.688ZM619.057 101.7C619.057 100.176 618.025 99.264 616.825 99.264C615.625 99.264 614.605 100.14 614.605 101.688C614.605 103.236 615.625 104.148 616.825 104.148C618.025 104.148 619.057 103.248 619.057 101.7Z" fill="#A6A6A6"/>
<path d="M570.96 122.016C570.96 118.688 571.856 116.128 575.12 116.128C578.384 116.128 579.28 118.688 579.28 122.016C579.28 125.408 578.384 127.968 575.12 127.968C571.856 127.968 570.96 125.408 570.96 122.016ZM577.488 122.016C577.488 119.84 577.248 117.792 575.12 117.792C572.992 117.792 572.752 119.84 572.752 122.016C572.752 124.304 572.992 126.304 575.12 126.304C577.248 126.304 577.488 124.304 577.488 122.016Z" fill="black"/>
<path d="M565.186 41.306H566.376V44.344H569.358V45.422H566.376V48.446H565.186V45.422H562.218V44.344H565.186V41.306ZM581.919 50L581.135 47.83H576.879L576.095 50H574.751L578.279 40.298H579.749L583.263 50H581.919ZM580.771 46.794L579.007 41.866L577.243 46.794H580.771ZM584.325 46.136C584.325 43.742 585.907 42.202 587.979 42.202C589.183 42.202 590.289 42.818 590.821 43.7V39.64H592.109V50H590.821V48.558C590.359 49.412 589.365 50.126 587.965 50.126C585.907 50.126 584.325 48.516 584.325 46.136ZM590.821 46.15C590.821 44.372 589.617 43.308 588.217 43.308C586.817 43.308 585.627 44.33 585.627 46.136C585.627 47.942 586.817 49.006 588.217 49.006C589.617 49.006 590.821 47.956 590.821 46.15ZM593.786 46.136C593.786 43.742 595.368 42.202 597.44 42.202C598.644 42.202 599.75 42.818 600.282 43.7V39.64H601.57V50H600.282V48.558C599.82 49.412 598.826 50.126 597.426 50.126C595.368 50.126 593.786 48.516 593.786 46.136ZM600.282 46.15C600.282 44.372 599.078 43.308 597.678 43.308C596.278 43.308 595.088 44.33 595.088 46.136C595.088 47.942 596.278 49.006 597.678 49.006C599.078 49.006 600.282 47.956 600.282 46.15ZM613.797 47.34C613.797 48.726 612.663 50.098 610.549 50.098C608.589 50.098 607.203 49.006 607.175 47.396H608.533C608.617 48.208 609.191 49.02 610.549 49.02C611.781 49.02 612.509 48.32 612.509 47.396C612.509 44.764 607.231 46.444 607.231 42.818C607.231 41.208 608.533 40.116 610.465 40.116C612.327 40.116 613.545 41.138 613.699 42.622H612.299C612.215 41.964 611.599 41.222 610.409 41.208C609.359 41.18 608.533 41.726 608.533 42.776C608.533 45.296 613.797 43.728 613.797 47.34ZM618.934 43.28C617.688 43.28 616.652 44.106 616.512 45.604H621.356C621.37 44.106 620.25 43.28 618.934 43.28ZM622.518 47.634C622.126 49.034 620.894 50.126 618.99 50.126C616.806 50.126 615.196 48.586 615.196 46.15C615.196 43.728 616.75 42.202 618.99 42.202C621.216 42.202 622.672 43.77 622.672 45.87C622.672 46.15 622.658 46.374 622.63 46.64H616.498C616.596 48.194 617.688 49.048 618.99 49.048C620.138 49.048 620.866 48.46 621.146 47.634H622.518ZM625.627 45.828V50H624.353V42.328H625.627V43.574C626.061 42.72 626.887 42.188 628.105 42.188V43.504H627.769C626.551 43.504 625.627 44.05 625.627 45.828ZM628.666 42.328H630.038L632.432 48.824L634.812 42.328H636.17L633.16 50H631.676L628.666 42.328ZM637.424 50V42.328H638.698V50H637.424ZM638.082 41.082C637.592 41.082 637.214 40.704 637.214 40.214C637.214 39.724 637.592 39.346 638.082 39.346C638.544 39.346 638.922 39.724 638.922 40.214C638.922 40.704 638.544 41.082 638.082 41.082ZM640.393 46.15C640.393 43.742 641.947 42.202 644.131 42.202C646.035 42.202 647.281 43.182 647.673 44.792H646.301C646.035 43.868 645.265 43.28 644.131 43.28C642.731 43.28 641.695 44.274 641.695 46.15C641.695 48.054 642.731 49.048 644.131 49.048C645.265 49.048 646.021 48.502 646.301 47.536H647.673C647.281 49.062 646.035 50.126 644.131 50.126C641.947 50.126 640.393 48.586 640.393 46.15ZM652.635 43.28C651.389 43.28 650.353 44.106 650.213 45.604H655.057C655.071 44.106 653.951 43.28 652.635 43.28ZM656.219 47.634C655.827 49.034 654.595 50.126 652.691 50.126C650.507 50.126 648.897 48.586 648.897 46.15C648.897 43.728 650.451 42.202 652.691 42.202C654.917 42.202 656.373 43.77 656.373 45.87C656.373 46.15 656.359 46.374 656.331 46.64H650.199C650.297 48.194 651.389 49.048 652.691 49.048C653.839 49.048 654.567 48.46 654.847 47.634H656.219ZM667.009 43.112C667.009 42.006 666.393 41.292 664.937 41.292H663.061V44.988H664.937C666.379 44.988 667.009 44.204 667.009 43.112ZM661.787 40.242H664.937C667.233 40.242 668.325 41.516 668.325 43.112C668.325 44.358 667.639 45.548 666.001 45.912L668.451 50H666.925L664.601 46.01H663.061V50H661.787V40.242ZM673.567 43.28C672.321 43.28 671.285 44.106 671.145 45.604H675.989C676.003 44.106 674.883 43.28 673.567 43.28ZM677.151 47.634C676.759 49.034 675.527 50.126 673.623 50.126C671.439 50.126 669.829 48.586 669.829 46.15C669.829 43.728 671.383 42.202 673.623 42.202C675.849 42.202 677.305 43.77 677.305 45.87C677.305 46.15 677.291 46.374 677.263 46.64H671.131C671.229 48.194 672.321 49.048 673.623 49.048C674.771 49.048 675.499 48.46 675.779 47.634H677.151ZM690.06 50V45.66C690.06 44.092 689.22 43.294 687.96 43.294C686.672 43.294 685.79 44.12 685.79 45.772V50H684.53V45.66C684.53 44.092 683.69 43.294 682.43 43.294C681.142 43.294 680.26 44.12 680.26 45.772V50H678.986V42.328H680.26V43.434C680.764 42.622 681.674 42.188 682.682 42.188C683.942 42.188 684.992 42.748 685.496 43.896C685.944 42.79 687.036 42.188 688.212 42.188C689.962 42.188 691.32 43.28 691.32 45.478V50H690.06ZM693.41 50V42.328H694.684V50H693.41ZM694.068 41.082C693.578 41.082 693.2 40.704 693.2 40.214C693.2 39.724 693.578 39.346 694.068 39.346C694.53 39.346 694.908 39.724 694.908 40.214C694.908 40.704 694.53 41.082 694.068 41.082ZM702.469 50V45.66C702.469 44.092 701.615 43.294 700.327 43.294C699.025 43.294 698.129 44.106 698.129 45.758V50H696.855V42.328H698.129V43.42C698.633 42.622 699.557 42.188 700.593 42.188C702.371 42.188 703.729 43.28 703.729 45.478V50H702.469ZM705.334 46.136C705.334 43.742 706.916 42.202 708.988 42.202C710.192 42.202 711.298 42.818 711.83 43.7V39.64H713.118V50H711.83V48.558C711.368 49.412 710.374 50.126 708.974 50.126C706.916 50.126 705.334 48.516 705.334 46.136ZM711.83 46.15C711.83 44.372 710.626 43.308 709.226 43.308C707.826 43.308 706.636 44.33 706.636 46.136C706.636 47.942 707.826 49.006 709.226 49.006C710.626 49.006 711.83 47.956 711.83 46.15ZM718.533 43.28C717.287 43.28 716.251 44.106 716.111 45.604H720.955C720.969 44.106 719.849 43.28 718.533 43.28ZM722.117 47.634C721.725 49.034 720.493 50.126 718.589 50.126C716.405 50.126 714.795 48.586 714.795 46.15C714.795 43.728 716.349 42.202 718.589 42.202C720.815 42.202 722.271 43.77 722.271 45.87C722.271 46.15 722.257 46.374 722.229 46.64H716.097C716.195 48.194 717.287 49.048 718.589 49.048C719.737 49.048 720.465 48.46 720.745 47.634H722.117ZM725.227 45.828V50H723.953V42.328H725.227V43.574C725.661 42.72 726.487 42.188 727.705 42.188V43.504H727.369C726.151 43.504 725.227 44.05 725.227 45.828ZM734.692 47.914C734.692 49.174 733.586 50.126 731.892 50.126C730.1 50.126 728.84 49.146 728.756 47.746H730.072C730.142 48.488 730.8 49.048 731.878 49.048C732.886 49.048 733.446 48.544 733.446 47.914C733.446 46.206 728.91 47.2 728.91 44.344C728.91 43.168 730.016 42.202 731.724 42.202C733.418 42.202 734.538 43.112 734.622 44.61H733.348C733.292 43.84 732.704 43.28 731.682 43.28C730.744 43.28 730.184 43.728 730.184 44.344C730.184 46.164 734.636 45.17 734.692 47.914Z" fill="#076FD5"/>
<path d="M761.732 48.656L764.798 40.242H766.142L762.46 50H760.99L757.308 40.242H758.666L761.732 48.656ZM767.539 50V42.328H768.813V50H767.539ZM768.197 41.082C767.707 41.082 767.329 40.704 767.329 40.214C767.329 39.724 767.707 39.346 768.197 39.346C768.659 39.346 769.037 39.724 769.037 40.214C769.037 40.704 768.659 41.082 768.197 41.082ZM774.246 43.28C773 43.28 771.964 44.106 771.824 45.604H776.668C776.682 44.106 775.562 43.28 774.246 43.28ZM777.83 47.634C777.438 49.034 776.206 50.126 774.302 50.126C772.118 50.126 770.508 48.586 770.508 46.15C770.508 43.728 772.062 42.202 774.302 42.202C776.528 42.202 777.984 43.77 777.984 45.87C777.984 46.15 777.97 46.374 777.942 46.64H771.81C771.908 48.194 773 49.048 774.302 49.048C775.45 49.048 776.178 48.46 776.458 47.634H777.83ZM781.164 50L778.756 42.328H780.058L781.822 48.768L783.726 42.328H785.028L786.89 48.782L788.626 42.328H789.886L787.492 50H786.176L784.328 43.91L782.48 50H781.164ZM801.435 50L800.651 47.83H796.395L795.611 50H794.267L797.795 40.298H799.265L802.779 50H801.435ZM800.287 46.794L798.523 41.866L796.759 46.794H800.287ZM804.316 50V39.64H805.59V50H804.316ZM807.762 50V39.64H809.036V50H807.762Z" fill="#076FD5"/>
<rect x="37.5" y="75.5" width="773" height="76" stroke="#ECECEC"/>
<line x1="294.5" y1="75" x2="294.5" y2="152" stroke="#ECECEC"/>
<line x1="553.5" y1="75" x2="553.5" y2="152" stroke="#ECECEC"/>
<path d="M845 229.996L12 229.996" stroke="#ECECEC"/>
<defs>
<filter id="filter0_d_1749_1501" x="0" y="0" width="857" height="333" filterUnits="userSpaceOnUse" color-interpolation-filters="sRGB">
<feFlood flood-opacity="0" result="BackgroundImageFix"/>
<feColorMatrix in="SourceAlpha" type="matrix" values="0 0 0 0 0 0 0 0 0 0 0 0 0 0 0 0 0 0 127 0" result="hardAlpha"/>
<feOffset dy="4"/>
<feGaussianBlur stdDeviation="6"/>
<feComposite in2="hardAlpha" operator="out"/>
<feColorMatrix type="matrix" values="0 0 0 0 0 0 0 0 0 0 0 0 0 0 0 0 0 0 0.1 0"/>
<feBlend mode="normal" in2="BackgroundImageFix" result="effect1_dropShadow_1749_1501"/>
<feBlend mode="normal" in="SourceGraphic" in2="effect1_dropShadow_1749_1501" result="shape"/>
</filter>
</defs>
</svg>
