<svg width="857" height="367" viewBox="0 0 857 367" fill="none" xmlns="http://www.w3.org/2000/svg">
<g filter="url(#filter0_d_1749_1845)">
<rect x="12" y="8" width="833" height="343" fill="white"/>
</g>
<path d="M43.34 98V91.6H42.38V90.77H44.26V98H43.34ZM45.8231 94.31C45.8231 92.24 46.3431 90.66 48.3431 90.66C50.3331 90.66 50.8531 92.24 50.8531 94.31C50.8531 96.41 50.3331 98 48.3431 98C46.3431 98 45.8231 96.41 45.8231 94.31ZM49.9531 94.31C49.9531 92.81 49.7631 91.49 48.3431 91.49C46.9131 91.49 46.7231 92.81 46.7231 94.31C46.7231 95.87 46.9131 97.17 48.3431 97.17C49.7631 97.17 49.9531 95.87 49.9531 94.31ZM56.0324 98L53.1624 94.82V98H52.2524V91.03H53.1624V94.26L56.0424 91.03H57.1924L54.0324 94.52L57.2224 98H56.0324ZM68.8148 98V94.9C68.8148 93.78 68.2148 93.21 67.3148 93.21C66.3948 93.21 65.7648 93.8 65.7648 94.98V98H64.8648V94.9C64.8648 93.78 64.2648 93.21 63.3648 93.21C62.4448 93.21 61.8148 93.8 61.8148 94.98V98H60.9048V92.52H61.8148V93.31C62.1748 92.73 62.8248 92.42 63.5448 92.42C64.4448 92.42 65.1948 92.82 65.5548 93.64C65.8748 92.85 66.6548 92.42 67.4948 92.42C68.7448 92.42 69.7148 93.2 69.7148 94.77V98H68.8148ZM71.2075 98V92.52H72.1175V98H71.2075ZM71.6775 91.63C71.3275 91.63 71.0575 91.36 71.0575 91.01C71.0575 90.66 71.3275 90.39 71.6775 90.39C72.0075 90.39 72.2775 90.66 72.2775 91.01C72.2775 91.36 72.0075 91.63 71.6775 91.63Z" fill="#A6A6A6"/>
<path d="M37.33 117.79H42.07V118.48L39.29 125H38.37L41.19 118.57H37.33V117.79ZM44.119 124.44C44.119 124.79 43.849 125.06 43.519 125.06C43.169 125.06 42.899 124.79 42.899 124.44C42.899 124.09 43.169 123.82 43.519 123.82C43.849 123.82 44.119 124.09 44.119 124.44ZM45.4386 117.76H49.7886V118.56H46.2786V120.84C46.5786 120.43 47.2186 120.11 47.9286 120.11C49.6886 120.11 50.2486 121.38 50.2486 122.5C50.2486 123.9 49.4686 125.02 47.7786 125.02C46.3386 125.02 45.4686 124.21 45.2886 123.04H46.1786C46.3486 123.8 46.9386 124.25 47.7886 124.25C48.8886 124.25 49.3786 123.51 49.3786 122.52C49.3786 121.49 48.8486 120.89 47.7986 120.89C47.0686 120.89 46.5386 121.27 46.2986 121.84H45.4386V117.76ZM55.3879 125L52.5179 121.82V125H51.6079V118.03H52.5179V121.26L55.3979 118.03H56.5479L53.3879 121.52L56.5779 125H55.3879ZM68.1702 125V121.9C68.1702 120.78 67.5702 120.21 66.6702 120.21C65.7502 120.21 65.1202 120.8 65.1202 121.98V125H64.2202V121.9C64.2202 120.78 63.6202 120.21 62.7202 120.21C61.8002 120.21 61.1702 120.8 61.1702 121.98V125H60.2602V119.52H61.1702V120.31C61.5302 119.73 62.1802 119.42 62.9002 119.42C63.8002 119.42 64.5502 119.82 64.9102 120.64C65.2302 119.85 66.0102 119.42 66.8502 119.42C68.1002 119.42 69.0702 120.2 69.0702 121.77V125H68.1702ZM70.563 125V119.52H71.473V125H70.563ZM71.033 118.63C70.683 118.63 70.413 118.36 70.413 118.01C70.413 117.66 70.683 117.39 71.033 117.39C71.363 117.39 71.633 117.66 71.633 118.01C71.633 118.36 71.363 118.63 71.033 118.63Z" fill="#A6A6A6"/>
<path d="M45.88 144.76H50.23V145.56H46.72V147.84C47.02 147.43 47.66 147.11 48.37 147.11C50.13 147.11 50.69 148.38 50.69 149.5C50.69 150.9 49.91 152.02 48.22 152.02C46.78 152.02 45.91 151.21 45.73 150.04H46.62C46.79 150.8 47.38 151.25 48.23 151.25C49.33 151.25 49.82 150.51 49.82 149.52C49.82 148.49 49.29 147.89 48.24 147.89C47.51 147.89 46.98 148.27 46.74 148.84H45.88V144.76ZM55.8293 152L52.9593 148.82V152H52.0493V145.03H52.9593V148.26L55.8393 145.03H56.9893L53.8293 148.52L57.0193 152H55.8293ZM68.6116 152V148.9C68.6116 147.78 68.0116 147.21 67.1116 147.21C66.1916 147.21 65.5616 147.8 65.5616 148.98V152H64.6616V148.9C64.6616 147.78 64.0616 147.21 63.1616 147.21C62.2416 147.21 61.6116 147.8 61.6116 148.98V152H60.7016V146.52H61.6116V147.31C61.9716 146.73 62.6216 146.42 63.3416 146.42C64.2416 146.42 64.9916 146.82 65.3516 147.64C65.6716 146.85 66.4516 146.42 67.2916 146.42C68.5416 146.42 69.5116 147.2 69.5116 148.77V152H68.6116ZM71.0044 152V146.52H71.9144V152H71.0044ZM71.4744 145.63C71.1244 145.63 70.8544 145.36 70.8544 145.01C70.8544 144.66 71.1244 144.39 71.4744 144.39C71.8044 144.39 72.0744 144.66 72.0744 145.01C72.0744 145.36 71.8044 145.63 71.4744 145.63Z" fill="#A6A6A6"/>
<path d="M37.51 178.92V178.27C39.41 176.74 41.21 175.3 41.21 173.82C41.21 173.02 40.86 172.42 39.88 172.42C38.94 172.42 38.46 173.07 38.42 173.98H37.54C37.6 172.44 38.57 171.64 39.87 171.64C41.23 171.64 42.11 172.44 42.11 173.78C42.11 175.58 40.17 177.11 38.88 178.16H42.32V178.92H37.51ZM44.412 178.44C44.412 178.79 44.142 179.06 43.812 179.06C43.462 179.06 43.192 178.79 43.192 178.44C43.192 178.09 43.462 177.82 43.812 177.82C44.142 177.82 44.412 178.09 44.412 178.44ZM50.3416 173.49H49.5016C49.3616 172.79 48.9516 172.38 48.1316 172.38C46.9816 172.38 46.3616 173.17 46.3716 175.32C46.6816 174.61 47.4716 174.21 48.3316 174.21C49.6816 174.21 50.5916 175.1 50.5916 176.62C50.5916 177.94 49.8116 179.02 48.2316 179.02C46.0916 179.02 45.5816 177.48 45.5816 175.29C45.5816 173.02 46.3116 171.62 48.1416 171.62C49.5216 171.62 50.2216 172.48 50.3416 173.49ZM48.1416 174.98C47.3116 174.98 46.4816 175.47 46.4816 176.55C46.4816 177.51 47.0416 178.26 48.1816 178.26C49.1216 178.26 49.7116 177.63 49.7116 176.65C49.7116 175.63 49.1816 174.98 48.1416 174.98ZM55.7492 179L52.8792 175.82V179H51.9692V172.03H52.8792V175.26L55.7592 172.03H56.9092L53.7492 175.52L56.9392 179H55.7492ZM68.5316 179V175.9C68.5316 174.78 67.9316 174.21 67.0316 174.21C66.1116 174.21 65.4816 174.8 65.4816 175.98V179H64.5816V175.9C64.5816 174.78 63.9816 174.21 63.0816 174.21C62.1616 174.21 61.5316 174.8 61.5316 175.98V179H60.6216V173.52H61.5316V174.31C61.8916 173.73 62.5416 173.42 63.2616 173.42C64.1616 173.42 64.9116 173.82 65.2716 174.64C65.5916 173.85 66.3716 173.42 67.2116 173.42C68.4616 173.42 69.4316 174.2 69.4316 175.77V179H68.5316ZM70.9243 179V173.52H71.8343V179H70.9243ZM71.3943 172.63C71.0443 172.63 70.7743 172.36 70.7743 172.01C70.7743 171.66 71.0443 171.39 71.3943 171.39C71.7243 171.39 71.9943 171.66 71.9943 172.01C71.9943 172.36 71.7243 172.63 71.3943 172.63Z" fill="#A6A6A6"/>
<path d="M51.62 202.31C51.62 200.24 52.14 198.66 54.14 198.66C56.13 198.66 56.65 200.24 56.65 202.31C56.65 204.41 56.13 206 54.14 206C52.14 206 51.62 204.41 51.62 202.31ZM55.75 202.31C55.75 200.81 55.56 199.49 54.14 199.49C52.71 199.49 52.52 200.81 52.52 202.31C52.52 203.87 52.71 205.17 54.14 205.17C55.56 205.17 55.75 203.87 55.75 202.31ZM68.6253 206V202.9C68.6253 201.78 68.0253 201.21 67.1253 201.21C66.2053 201.21 65.5753 201.8 65.5753 202.98V206H64.6753V202.9C64.6753 201.78 64.0753 201.21 63.1753 201.21C62.2553 201.21 61.6253 201.8 61.6253 202.98V206H60.7153V200.52H61.6253V201.31C61.9853 200.73 62.6353 200.42 63.3553 200.42C64.2553 200.42 65.0053 200.82 65.3653 201.64C65.6853 200.85 66.4653 200.42 67.3053 200.42C68.5553 200.42 69.5253 201.2 69.5253 202.77V206H68.6253ZM71.018 206V200.52H71.928V206H71.018ZM71.488 199.63C71.138 199.63 70.868 199.36 70.868 199.01C70.868 198.66 71.138 198.39 71.488 198.39C71.818 198.39 72.088 198.66 72.088 199.01C72.088 199.36 71.818 199.63 71.488 199.63Z" fill="#A6A6A6"/>
<path d="M137.32 214.04H138.46V221H137.32L133.89 215.81V221H132.75V214.04H133.89L137.32 219.22V214.04ZM145.207 218.24C145.207 219.97 143.927 221.09 142.347 221.09C140.777 221.09 139.587 219.97 139.587 218.24C139.587 216.51 140.827 215.4 142.397 215.4C143.967 215.4 145.207 216.51 145.207 218.24ZM140.747 218.24C140.747 219.49 141.487 220.1 142.347 220.1C143.197 220.1 144.037 219.49 144.037 218.24C144.037 216.99 143.227 216.39 142.377 216.39C141.517 216.39 140.747 216.99 140.747 218.24ZM145.684 215.49H146.904L148.464 219.98L150.024 215.49H151.234L149.134 221H147.774L145.684 215.49ZM154.453 220.9V220.07C156.173 218.56 157.983 217.24 157.983 215.81C157.983 215.05 157.653 214.53 156.803 214.53C156.003 214.53 155.573 215.09 155.543 215.91H154.443C154.483 214.33 155.503 213.56 156.793 213.56C158.273 213.56 159.113 214.45 159.113 215.76C159.113 217.53 157.313 218.88 156.143 219.95H159.313V220.9H154.453ZM160.295 215.51C160.375 214.25 161.355 213.54 162.685 213.54C164.135 213.54 164.925 214.38 164.925 215.44C164.925 216.31 164.375 216.9 163.805 217.09V217.13C164.565 217.36 165.055 217.99 165.055 219C165.055 220.16 164.235 221.04 162.715 221.04C161.335 221.04 160.265 220.32 160.195 218.89H161.295C161.345 219.57 161.845 220.09 162.705 220.09C163.555 220.09 163.975 219.57 163.975 218.89C163.975 217.93 163.355 217.6 162.165 217.6H161.905V216.66H162.175C163.205 216.65 163.835 216.35 163.835 215.57C163.835 214.94 163.425 214.52 162.645 214.52C161.845 214.52 161.475 215 161.405 215.51H160.295Z" fill="#474747"/>
<path d="M344.02 214.05C346.25 214.05 347.71 215.4 347.71 217.55C347.71 219.69 346.25 221 344.02 221H341.75V214.05H344.02ZM342.89 220.07H344.02C345.66 220.07 346.54 219.13 346.54 217.55C346.54 215.96 345.66 214.98 344.02 214.98H342.89V220.07ZM351.16 216.36C350.39 216.36 349.77 216.88 349.65 217.75H352.7C352.68 216.9 352.01 216.36 351.16 216.36ZM353.74 219.36C353.43 220.32 352.56 221.09 351.21 221.09C349.63 221.09 348.46 219.97 348.46 218.24C348.46 216.51 349.58 215.4 351.21 215.4C352.78 215.4 353.89 216.49 353.89 218.11C353.89 218.3 353.88 218.48 353.85 218.67H349.64C349.72 219.58 350.37 220.13 351.21 220.13C351.91 220.13 352.3 219.79 352.51 219.36H353.74ZM354.632 218.24C354.632 216.52 355.752 215.4 357.332 215.4C358.682 215.4 359.562 216.07 359.872 217.23H358.642C358.452 216.7 358.012 216.36 357.332 216.36C356.412 216.36 355.802 217.04 355.802 218.24C355.802 219.45 356.412 220.13 357.332 220.13C358.012 220.13 358.432 219.83 358.642 219.26H359.872C359.562 220.34 358.682 221.09 357.332 221.09C355.752 221.09 354.632 219.97 354.632 218.24ZM363.365 220.9V220.07C365.085 218.56 366.895 217.24 366.895 215.81C366.895 215.05 366.565 214.53 365.715 214.53C364.915 214.53 364.485 215.09 364.455 215.91H363.355C363.395 214.33 364.415 213.56 365.705 213.56C367.185 213.56 368.025 214.45 368.025 215.76C368.025 217.53 366.225 218.88 365.055 219.95H368.225V220.9H363.365ZM369.207 215.51C369.287 214.25 370.267 213.54 371.597 213.54C373.047 213.54 373.837 214.38 373.837 215.44C373.837 216.31 373.287 216.9 372.717 217.09V217.13C373.477 217.36 373.967 217.99 373.967 219C373.967 220.16 373.147 221.04 371.627 221.04C370.247 221.04 369.177 220.32 369.107 218.89H370.207C370.257 219.57 370.757 220.09 371.617 220.09C372.467 220.09 372.887 219.57 372.887 218.89C372.887 217.93 372.267 217.6 371.077 217.6H370.817V216.66H371.087C372.117 216.65 372.747 216.35 372.747 215.57C372.747 214.94 372.337 214.52 371.557 214.52C370.757 214.52 370.387 215 370.317 215.51H369.207Z" fill="#474747"/>
<path d="M553.39 219.06V214.05H554.54V219.06C554.54 220.32 553.69 221.07 552.49 221.07C551.29 221.07 550.44 220.32 550.44 219.06H551.59C551.6 219.64 551.88 220.06 552.49 220.06C553.1 220.06 553.39 219.64 553.39 219.06ZM556.015 218.22C556.015 216.52 557.165 215.4 558.615 215.4C559.545 215.4 560.185 215.84 560.525 216.29V215.49H561.675V221H560.525V220.18C560.175 220.65 559.515 221.09 558.595 221.09C557.165 221.09 556.015 219.92 556.015 218.22ZM560.525 218.24C560.525 217.06 559.715 216.39 558.855 216.39C558.005 216.39 557.185 217.03 557.185 218.22C557.185 219.41 558.005 220.1 558.855 220.1C559.715 220.1 560.525 219.43 560.525 218.24ZM567.082 221V217.92C567.082 216.91 566.532 216.39 565.702 216.39C564.862 216.39 564.312 216.91 564.312 217.92V221H563.172V215.49H564.312V216.12C564.682 215.67 565.292 215.4 565.952 215.4C567.242 215.4 568.212 216.21 568.212 217.75V221H567.082ZM572.024 220.9V220.07C573.744 218.56 575.554 217.24 575.554 215.81C575.554 215.05 575.224 214.53 574.374 214.53C573.574 214.53 573.144 215.09 573.114 215.91H572.014C572.054 214.33 573.074 213.56 574.364 213.56C575.844 213.56 576.684 214.45 576.684 215.76C576.684 217.53 574.884 218.88 573.714 219.95H576.884V220.9H572.024ZM581.365 221V219.48H577.745V218.62L581.105 213.8H582.485V218.49H583.415V219.48H582.485V221H581.365ZM579.055 218.49H581.415V214.96L579.055 218.49Z" fill="#474747"/>
<path d="M759.75 221V214.05H763.84V214.98H760.89V217.03H763.19V217.96H760.89V221H759.75ZM767.216 216.36C766.446 216.36 765.826 216.88 765.706 217.75H768.756C768.736 216.9 768.066 216.36 767.216 216.36ZM769.796 219.36C769.486 220.32 768.616 221.09 767.266 221.09C765.686 221.09 764.516 219.97 764.516 218.24C764.516 216.51 765.636 215.4 767.266 215.4C768.836 215.4 769.946 216.49 769.946 218.11C769.946 218.3 769.936 218.48 769.906 218.67H765.696C765.776 219.58 766.426 220.13 767.266 220.13C767.966 220.13 768.356 219.79 768.566 219.36H769.796ZM772.208 216.31C772.568 215.81 773.258 215.4 774.128 215.4C775.588 215.4 776.718 216.52 776.718 218.22C776.718 219.92 775.578 221.09 774.128 221.09C773.218 221.09 772.568 220.68 772.208 220.2V221H771.068V213.6H772.208V216.31ZM775.558 218.22C775.558 217.03 774.738 216.39 773.878 216.39C773.028 216.39 772.208 217.06 772.208 218.24C772.208 219.43 773.028 220.1 773.878 220.1C774.738 220.1 775.558 219.41 775.558 218.22ZM780.203 220.9V220.07C781.923 218.56 783.733 217.24 783.733 215.81C783.733 215.05 783.403 214.53 782.553 214.53C781.753 214.53 781.323 215.09 781.293 215.91H780.193C780.233 214.33 781.253 213.56 782.543 213.56C784.023 213.56 784.863 214.45 784.863 215.76C784.863 217.53 783.063 218.88 781.893 219.95H785.063V220.9H780.203ZM789.545 221V219.48H785.925V218.62L789.285 213.8H790.665V218.49H791.595V219.48H790.665V221H789.545ZM787.235 218.49H789.595V214.96L787.235 218.49Z" fill="#474747"/>
<path d="M811 94.0001L81 93.9999" stroke="#E5E5E5"/>
<path d="M811 121L81 121" stroke="#E5E5E5"/>
<path d="M811 148L81 148" stroke="#E5E5E5"/>
<path d="M811 175L81 175" stroke="#E5E5E5"/>
<path d="M811 202L81 202" stroke="#E5E5E5"/>
<path d="M38.072 45.728V38.832H40.312V45.744C40.312 47.28 41.144 48.08 42.568 48.08C44.008 48.08 44.84 47.28 44.84 45.744V38.832H47.096V45.728C47.096 48.672 44.984 50.112 42.536 50.112C40.088 50.112 38.072 48.672 38.072 45.728ZM49.6123 47.248V42.976H48.5563V41.136H49.6123V38.944H51.8683V41.136H53.8523V42.976H51.8683V47.264C51.8683 47.856 52.1083 48.112 52.8123 48.112H53.8523V50H52.4443C50.7483 50 49.6123 49.28 49.6123 47.248ZM55.4634 50V41.136H57.7034V50H55.4634ZM56.5994 40.08C55.7994 40.08 55.2234 39.504 55.2234 38.768C55.2234 38.032 55.7994 37.456 56.5994 37.456C57.3834 37.456 57.9754 38.032 57.9754 38.768C57.9754 39.504 57.3834 40.08 56.5994 40.08ZM59.9165 50V38.16H62.1565V50H59.9165ZM64.3696 50V41.136H66.6096V50H64.3696ZM65.5056 40.08C64.7056 40.08 64.1296 39.504 64.1296 38.768C64.1296 38.032 64.7056 37.456 65.5056 37.456C66.2896 37.456 66.8816 38.032 66.8816 38.768C66.8816 39.504 66.2896 40.08 65.5056 40.08ZM74.7748 41.136V42.944L70.8708 48.16H74.8228V50H68.3268V48.192L72.1988 42.976H68.3428V41.136H74.7748ZM75.9811 45.536C75.9811 42.768 77.7731 40.992 80.0291 40.992C81.4531 40.992 82.4291 41.664 82.9571 42.4V41.136H85.2131V50H82.9571V48.704C82.4291 49.472 81.4211 50.144 80.0131 50.144C77.7731 50.144 75.9811 48.304 75.9811 45.536ZM82.9571 45.568C82.9571 43.888 81.8371 42.96 80.6051 42.96C79.4051 42.96 78.2691 43.856 78.2691 45.536C78.2691 47.216 79.4051 48.176 80.6051 48.176C81.8371 48.176 82.9571 47.248 82.9571 45.568ZM87.7529 47.248V42.976H86.6969V41.136H87.7529V38.944H90.0089V41.136H91.9929V42.976H90.0089V47.264C90.0089 47.856 90.2489 48.112 90.9529 48.112H91.9929V50H90.5849C88.8889 50 87.7529 49.28 87.7529 47.248ZM93.604 50V41.136H95.844V50H93.604ZM94.74 40.08C93.94 40.08 93.364 39.504 93.364 38.768C93.364 38.032 93.94 37.456 94.74 37.456C95.524 37.456 96.116 38.032 96.116 38.768C96.116 39.504 95.524 40.08 94.74 40.08ZM106.617 45.568C106.617 48.352 104.569 50.144 101.993 50.144C99.4331 50.144 97.4971 48.352 97.4971 45.568C97.4971 42.768 99.4971 40.992 102.057 40.992C104.617 40.992 106.617 42.768 106.617 45.568ZM99.7691 45.568C99.7691 47.328 100.793 48.192 101.993 48.192C103.177 48.192 104.313 47.328 104.313 45.568C104.313 43.792 103.209 42.944 102.025 42.944C100.841 42.944 99.7691 43.792 99.7691 45.568ZM114.468 50V45.104C114.468 43.68 113.684 42.912 112.5 42.912C111.284 42.912 110.5 43.68 110.5 45.104V50H108.26V41.136H110.5V42.24C111.076 41.488 112.036 41.008 113.172 41.008C115.236 41.008 116.708 42.352 116.708 44.8V50H114.468Z" fill="#002850"/>
<path d="M755.63 50L754.846 47.83H750.59L749.806 50H748.462L751.99 40.298H753.46L756.974 50H755.63ZM754.482 46.794L752.718 41.866L750.954 46.794H754.482ZM758.512 50V39.64H759.786V50H758.512ZM761.957 50V39.64H763.231V50H761.957ZM768.533 41.278V40.242H775.141V41.278H772.481V50H771.207V41.278H768.533ZM776.709 50V42.328H777.983V50H776.709ZM777.367 41.082C776.877 41.082 776.499 40.704 776.499 40.214C776.499 39.724 776.877 39.346 777.367 39.346C777.829 39.346 778.207 39.724 778.207 40.214C778.207 40.704 777.829 41.082 777.367 41.082ZM791.228 50V45.66C791.228 44.092 790.388 43.294 789.128 43.294C787.84 43.294 786.958 44.12 786.958 45.772V50H785.698V45.66C785.698 44.092 784.858 43.294 783.598 43.294C782.31 43.294 781.428 44.12 781.428 45.772V50H780.154V42.328H781.428V43.434C781.932 42.622 782.842 42.188 783.85 42.188C785.11 42.188 786.16 42.748 786.664 43.896C787.112 42.79 788.204 42.188 789.38 42.188C791.13 42.188 792.488 43.28 792.488 45.478V50H791.228ZM797.84 43.28C796.594 43.28 795.558 44.106 795.418 45.604H800.262C800.276 44.106 799.156 43.28 797.84 43.28ZM801.424 47.634C801.032 49.034 799.8 50.126 797.896 50.126C795.712 50.126 794.102 48.586 794.102 46.15C794.102 43.728 795.656 42.202 797.896 42.202C800.122 42.202 801.578 43.77 801.578 45.87C801.578 46.15 801.564 46.374 801.536 46.64H795.404C795.502 48.194 796.594 49.048 797.896 49.048C799.044 49.048 799.772 48.46 800.052 47.634H801.424Z" fill="#076FD5"/>
<path d="M808 49L811 46L808 43" stroke="#0479EB" stroke-linecap="round"/>
<path d="M58.408 274.524V273.636H64.072V274.524H61.792V282H60.7V274.524H58.408ZM71.6562 278.7C71.6562 280.788 70.1562 282.108 68.2842 282.108C66.4242 282.108 65.0082 280.788 65.0082 278.7C65.0082 276.624 66.4722 275.316 68.3322 275.316C70.2042 275.316 71.6562 276.624 71.6562 278.7ZM66.1242 278.7C66.1242 280.368 67.1442 281.148 68.2842 281.148C69.4242 281.148 70.5402 280.368 70.5402 278.7C70.5402 277.044 69.4482 276.264 68.3202 276.264C67.1682 276.264 66.1242 277.044 66.1242 278.7ZM73.332 280.2V276.324H72.48V275.424H73.332V273.768H74.424V275.424H76.14V276.324H74.424V280.2C74.424 280.848 74.664 281.076 75.336 281.076H76.14V282H75.156C73.992 282 73.332 281.52 73.332 280.2ZM77.0551 278.688C77.0551 276.636 78.4111 275.316 80.1751 275.316C81.3991 275.316 82.2391 275.94 82.6231 276.624V275.424H83.7271V282H82.6231V280.776C82.2271 281.484 81.3751 282.108 80.1631 282.108C78.4111 282.108 77.0551 280.728 77.0551 278.688ZM82.6231 278.7C82.6231 277.176 81.5911 276.264 80.3911 276.264C79.1911 276.264 78.1711 277.14 78.1711 278.688C78.1711 280.236 79.1911 281.148 80.3911 281.148C81.5911 281.148 82.6231 280.248 82.6231 278.7ZM85.5724 282V273.12H86.6644V282H85.5724ZM91.3168 277.812C91.3168 275.304 93.1528 273.528 95.4928 273.528C97.3048 273.528 98.7448 274.44 99.3688 276.06H98.0608C97.6048 275.052 96.7168 274.488 95.4928 274.488C93.7408 274.488 92.4328 275.76 92.4328 277.812C92.4328 279.852 93.7408 281.124 95.4928 281.124C96.7168 281.124 97.6048 280.56 98.0608 279.564H99.3688C98.7448 281.172 97.3048 282.072 95.4928 282.072C93.1528 282.072 91.3168 280.32 91.3168 277.812ZM107.234 278.7C107.234 280.788 105.734 282.108 103.862 282.108C102.002 282.108 100.586 280.788 100.586 278.7C100.586 276.624 102.05 275.316 103.91 275.316C105.782 275.316 107.234 276.624 107.234 278.7ZM101.702 278.7C101.702 280.368 102.722 281.148 103.862 281.148C105.002 281.148 106.118 280.368 106.118 278.7C106.118 277.044 105.026 276.264 103.898 276.264C102.746 276.264 101.702 277.044 101.702 278.7ZM113.398 280.212C113.398 281.292 112.45 282.108 110.998 282.108C109.462 282.108 108.382 281.268 108.31 280.068H109.438C109.498 280.704 110.062 281.184 110.986 281.184C111.85 281.184 112.33 280.752 112.33 280.212C112.33 278.748 108.442 279.6 108.442 277.152C108.442 276.144 109.39 275.316 110.854 275.316C112.306 275.316 113.266 276.096 113.338 277.38H112.246C112.198 276.72 111.694 276.24 110.818 276.24C110.014 276.24 109.534 276.624 109.534 277.152C109.534 278.712 113.35 277.86 113.398 280.212ZM115.18 280.2V276.324H114.328V275.424H115.18V273.768H116.272V275.424H117.988V276.324H116.272V280.2C116.272 280.848 116.512 281.076 117.184 281.076H117.988V282H117.004C115.84 282 115.18 281.52 115.18 280.2Z" fill="#A6A6A6"/>
<path d="M72.7 304.9H75.3C75.52 306.06 76.26 306.72 77.56 306.72C79.2 306.72 79.92 305.5 79.92 302.22C79.3 303.08 78.12 303.58 76.84 303.58C74.32 303.58 72.3 302 72.3 298.92C72.3 296 74.14 294.08 77.22 294.08C81.18 294.08 82.4 296.76 82.4 301.38C82.4 306.34 81.3 309.02 77.44 309.02C74.34 309.02 72.86 307.04 72.7 304.9ZM77.42 301.3C78.82 301.3 79.66 300.36 79.66 298.94C79.66 297.34 78.74 296.46 77.32 296.46C75.86 296.46 74.98 297.44 74.98 298.9C74.98 300.22 75.72 301.3 77.42 301.3ZM94.7395 298.06H92.1395C91.8795 296.98 91.2995 296.38 90.0395 296.38C88.2195 296.38 87.3795 297.74 87.3395 301.1C87.9995 300 89.3195 299.4 90.7395 299.4C93.3395 299.4 95.1595 301.12 95.1595 304.16C95.1595 306.98 93.4195 309.04 90.2995 309.04C85.9795 309.04 84.8995 306 84.8995 301.48C84.8995 296.72 86.4395 294.08 90.1395 294.08C93.1195 294.08 94.5195 296 94.7395 298.06ZM90.0995 301.7C88.7995 301.7 87.5995 302.46 87.5995 304.12C87.5995 305.68 88.5195 306.66 90.1595 306.66C91.5995 306.66 92.4995 305.72 92.4995 304.22C92.4995 302.72 91.7195 301.7 90.0995 301.7ZM96.5525 311.88L97.8925 305.92H100.853L98.3725 311.88H96.5525ZM104.07 309V297H102.13V294.42H106.95V309H104.07ZM110.356 304.9H112.956C113.176 306.06 113.916 306.72 115.216 306.72C116.856 306.72 117.576 305.5 117.576 302.22C116.956 303.08 115.776 303.58 114.496 303.58C111.976 303.58 109.956 302 109.956 298.92C109.956 296 111.796 294.08 114.876 294.08C118.836 294.08 120.056 296.76 120.056 301.38C120.056 306.34 118.956 309.02 115.096 309.02C111.996 309.02 110.516 307.04 110.356 304.9ZM115.076 301.3C116.476 301.3 117.316 300.36 117.316 298.94C117.316 297.34 116.396 296.46 114.976 296.46C113.516 296.46 112.636 297.44 112.636 298.9C112.636 300.22 113.376 301.3 115.076 301.3ZM122.236 301.52C122.236 297.3 123.516 294.14 127.636 294.14C131.756 294.14 133.036 297.3 133.036 301.52C133.036 305.78 131.756 308.96 127.636 308.96C123.516 308.96 122.236 305.78 122.236 301.52ZM130.276 301.52C130.276 299.02 129.996 296.74 127.636 296.74C125.276 296.74 124.996 299.02 124.996 301.52C124.996 304.12 125.276 306.36 127.636 306.36C129.996 306.36 130.276 304.12 130.276 301.52ZM138.425 307.5C138.425 308.42 137.705 309.14 136.725 309.14C135.705 309.14 134.985 308.42 134.985 307.5C134.985 306.58 135.705 305.86 136.725 305.86C137.705 305.86 138.425 306.58 138.425 307.5ZM140.361 301.52C140.361 297.3 141.641 294.14 145.761 294.14C149.881 294.14 151.161 297.3 151.161 301.52C151.161 305.78 149.881 308.96 145.761 308.96C141.641 308.96 140.361 305.78 140.361 301.52ZM148.401 301.52C148.401 299.02 148.121 296.74 145.761 296.74C143.401 296.74 143.121 299.02 143.121 301.52C143.121 304.12 143.401 306.36 145.761 306.36C148.121 306.36 148.401 304.12 148.401 301.52ZM153.29 301.52C153.29 297.3 154.57 294.14 158.69 294.14C162.81 294.14 164.09 297.3 164.09 301.52C164.09 305.78 162.81 308.96 158.69 308.96C154.57 308.96 153.29 305.78 153.29 301.52ZM161.33 301.52C161.33 299.02 161.05 296.74 158.69 296.74C156.33 296.74 156.05 299.02 156.05 301.52C156.05 304.12 156.33 306.36 158.69 306.36C161.05 306.36 161.33 304.12 161.33 301.52Z" fill="#212121"/>
<path d="M459.66 309V297H457.72V294.42H462.54V309H459.66ZM465.306 301.52C465.306 297.3 466.586 294.14 470.706 294.14C474.826 294.14 476.106 297.3 476.106 301.52C476.106 305.78 474.826 308.96 470.706 308.96C466.586 308.96 465.306 305.78 465.306 301.52ZM473.346 301.52C473.346 299.02 473.066 296.74 470.706 296.74C468.346 296.74 468.066 299.02 468.066 301.52C468.066 304.12 468.346 306.36 470.706 306.36C473.066 306.36 473.346 304.12 473.346 301.52ZM481.496 307.5C481.496 308.42 480.776 309.14 479.796 309.14C478.776 309.14 478.056 308.42 478.056 307.5C478.056 306.58 478.776 305.86 479.796 305.86C480.776 305.86 481.496 306.58 481.496 307.5ZM483.431 301.52C483.431 297.3 484.711 294.14 488.831 294.14C492.951 294.14 494.231 297.3 494.231 301.52C494.231 305.78 492.951 308.96 488.831 308.96C484.711 308.96 483.431 305.78 483.431 301.52ZM491.471 301.52C491.471 299.02 491.191 296.74 488.831 296.74C486.471 296.74 486.191 299.02 486.191 301.52C486.191 304.12 486.471 306.36 488.831 306.36C491.191 306.36 491.471 304.12 491.471 301.52ZM496.361 301.52C496.361 297.3 497.641 294.14 501.761 294.14C505.881 294.14 507.161 297.3 507.161 301.52C507.161 305.78 505.881 308.96 501.761 308.96C497.641 308.96 496.361 305.78 496.361 301.52ZM504.401 301.52C504.401 299.02 504.121 296.74 501.761 296.74C499.401 296.74 499.121 299.02 499.121 301.52C499.121 304.12 499.401 306.36 501.761 306.36C504.121 306.36 504.401 304.12 504.401 301.52ZM513.736 312.62L519.136 290.06H521.876L516.476 312.62H513.736ZM544.368 309V302.88C544.368 301.12 543.388 300.2 541.908 300.2C540.408 300.2 539.428 301.12 539.428 302.88V309H536.628V302.88C536.628 301.12 535.648 300.2 534.168 300.2C532.648 300.2 531.668 301.12 531.668 302.88V309H528.868V297.92H531.668V299.26C532.368 298.34 533.548 297.76 534.928 297.76C536.648 297.76 538.068 298.5 538.828 299.88C539.548 298.62 541.008 297.76 542.628 297.76C545.288 297.76 547.168 299.44 547.168 302.5V309H544.368ZM549.825 309V297.92H552.625V309H549.825ZM551.245 296.6C550.245 296.6 549.525 295.88 549.525 294.96C549.525 294.04 550.245 293.32 551.245 293.32C552.225 293.32 552.965 294.04 552.965 294.96C552.965 295.88 552.225 296.6 551.245 296.6Z" fill="#212121"/>
<path d="M446.528 273.636C449.276 273.636 450.968 275.244 450.968 277.836C450.968 280.428 449.276 282 446.528 282H443.924V273.636H446.528ZM445.016 281.1H446.528C448.712 281.1 449.852 279.876 449.852 277.836C449.852 275.796 448.712 274.524 446.528 274.524H445.016V281.1ZM458.24 275.424V282H457.148V281.028C456.728 281.712 455.924 282.096 455.048 282.096C453.536 282.096 452.348 281.16 452.348 279.276V275.424H453.428V279.132C453.428 280.464 454.16 281.148 455.264 281.148C456.392 281.148 457.148 280.452 457.148 279.036V275.424H458.24ZM462.88 276.24C461.812 276.24 460.924 276.948 460.804 278.232H464.956C464.968 276.948 464.008 276.24 462.88 276.24ZM465.952 279.972C465.616 281.172 464.56 282.108 462.928 282.108C461.056 282.108 459.676 280.788 459.676 278.7C459.676 276.624 461.008 275.316 462.928 275.316C464.836 275.316 466.084 276.66 466.084 278.46C466.084 278.7 466.072 278.892 466.048 279.12H460.792C460.876 280.452 461.812 281.184 462.928 281.184C463.912 281.184 464.536 280.68 464.776 279.972H465.952ZM476.161 279.72C476.161 280.908 475.189 282.084 473.377 282.084C471.697 282.084 470.509 281.148 470.485 279.768H471.649C471.721 280.464 472.213 281.16 473.377 281.16C474.433 281.16 475.057 280.56 475.057 279.768C475.057 277.512 470.533 278.952 470.533 275.844C470.533 274.464 471.649 273.528 473.305 273.528C474.901 273.528 475.945 274.404 476.077 275.676H474.877C474.805 275.112 474.277 274.476 473.257 274.464C472.357 274.44 471.649 274.908 471.649 275.808C471.649 277.968 476.161 276.624 476.161 279.72ZM484.008 278.7C484.008 280.788 482.508 282.108 480.636 282.108C478.776 282.108 477.36 280.788 477.36 278.7C477.36 276.624 478.824 275.316 480.684 275.316C482.556 275.316 484.008 276.624 484.008 278.7ZM478.476 278.7C478.476 280.368 479.496 281.148 480.636 281.148C481.776 281.148 482.892 280.368 482.892 278.7C482.892 277.044 481.8 276.264 480.672 276.264C479.52 276.264 478.476 277.044 478.476 278.7ZM491.684 278.7C491.684 280.788 490.184 282.108 488.312 282.108C486.452 282.108 485.036 280.788 485.036 278.7C485.036 276.624 486.5 275.316 488.36 275.316C490.232 275.316 491.684 276.624 491.684 278.7ZM486.152 278.7C486.152 280.368 487.172 281.148 488.312 281.148C489.452 281.148 490.568 280.368 490.568 278.7C490.568 277.044 489.476 276.264 488.348 276.264C487.196 276.264 486.152 277.044 486.152 278.7ZM497.931 282V278.28C497.931 276.936 497.199 276.252 496.095 276.252C494.979 276.252 494.211 276.948 494.211 278.364V282H493.119V275.424H494.211V276.36C494.643 275.676 495.435 275.304 496.323 275.304C497.847 275.304 499.011 276.24 499.011 278.124V282H497.931Z" fill="#A6A6A6"/>
<rect x="37.5" y="252.5" width="773" height="76" stroke="#ECECEC"/>
<line x1="424.5" y1="252" x2="424.5" y2="329" stroke="#ECECEC"/>
<path d="M67.6249 297C67.7244 297 67.8198 296.96 67.8901 296.89C67.9605 296.82 68 296.724 68 296.625V295.375C68 295.276 67.9605 295.18 67.8901 295.11C67.8198 295.04 67.7244 295 67.6249 295H58.3751C58.2756 295 58.1802 295.04 58.1099 295.11C58.0395 295.18 58 295.276 58 295.375V296.773C58 296.823 58.0097 296.871 58.0286 296.917C58.0474 296.962 58.075 297.004 58.1099 297.039C58.1447 297.073 58.1861 297.101 58.2316 297.12C58.2771 297.139 58.3259 297.148 58.3751 297.148H61.0418C61.4042 297.127 61.7665 297.193 62.0979 297.341C62.4294 297.489 62.7201 297.715 62.9453 298H58.3751C58.2756 298 58.1802 298.04 58.1099 298.11C58.0395 298.18 58 298.276 58 298.375V299.625C58 299.725 58.0395 299.82 58.1099 299.891C58.1802 299.961 58.2756 300 58.3751 300H63.336C63.1418 301.128 62.3058 301.833 61 301.833H58.3751C58.2758 301.833 58.1805 301.872 58.1102 301.942C58.0399 302.013 58.0002 302.108 58 302.207V303.864C58 303.915 58.0107 303.967 58.0314 304.014C58.0521 304.061 58.0824 304.104 58.1204 304.139L63.2787 308.9C63.3479 308.964 63.4387 309 63.5329 309H66.1129C66.1883 309 66.262 308.977 66.3243 308.935C66.3865 308.892 66.4345 308.832 66.462 308.761C66.4894 308.691 66.4951 308.614 66.4781 308.541C66.4612 308.467 66.4225 308.401 66.3671 308.349L61.652 303.997C62.747 304.01 63.8053 303.603 64.6094 302.859C65.4134 302.116 65.902 301.093 65.9747 300H67.6249C67.7244 300 67.8198 299.96 67.8901 299.89C67.9605 299.82 68 299.724 68 299.625V298.375C68 298.326 67.9903 298.277 67.9714 298.232C67.9526 298.186 67.925 298.145 67.8901 298.11C67.8553 298.075 67.8139 298.047 67.7684 298.029C67.7229 298.01 67.6741 298 67.6249 298H65.7911C65.6864 297.649 65.537 297.313 65.3467 297H67.6249Z" fill="black"/>
<path d="M453.625 297C453.724 297 453.82 296.96 453.89 296.89C453.96 296.82 454 296.724 454 296.625V295.375C454 295.276 453.96 295.18 453.89 295.11C453.82 295.04 453.724 295 453.625 295H444.375C444.276 295 444.18 295.04 444.11 295.11C444.04 295.18 444 295.276 444 295.375V296.773C444 296.823 444.01 296.871 444.029 296.917C444.047 296.962 444.075 297.004 444.11 297.039C444.145 297.073 444.186 297.101 444.232 297.12C444.277 297.139 444.326 297.148 444.375 297.148H447.042C447.404 297.127 447.767 297.193 448.098 297.341C448.429 297.489 448.72 297.715 448.945 298H444.375C444.276 298 444.18 298.04 444.11 298.11C444.04 298.18 444 298.276 444 298.375V299.625C444 299.725 444.04 299.82 444.11 299.891C444.18 299.961 444.276 300 444.375 300H449.336C449.142 301.128 448.306 301.833 447 301.833H444.375C444.276 301.833 444.181 301.872 444.11 301.942C444.04 302.013 444 302.108 444 302.207V303.864C444 303.915 444.011 303.967 444.031 304.014C444.052 304.061 444.082 304.104 444.12 304.139L449.279 308.9C449.348 308.964 449.439 309 449.533 309H452.113C452.188 309 452.262 308.977 452.324 308.935C452.387 308.892 452.435 308.832 452.462 308.761C452.489 308.691 452.495 308.614 452.478 308.541C452.461 308.467 452.423 308.401 452.367 308.349L447.652 303.997C448.747 304.01 449.805 303.603 450.609 302.859C451.413 302.116 451.902 301.093 451.975 300H453.625C453.724 300 453.82 299.96 453.89 299.89C453.96 299.82 454 299.724 454 299.625V298.375C454 298.326 453.99 298.277 453.971 298.232C453.953 298.186 453.925 298.145 453.89 298.11C453.855 298.075 453.814 298.047 453.768 298.029C453.723 298.01 453.674 298 453.625 298H451.791C451.686 297.649 451.537 297.313 451.347 297H453.625Z" fill="black"/>
<path d="M748 109C748 105.686 750.686 103 754 103H793C796.314 103 799 105.686 799 109V202H748V109Z" fill="#00A7B9"/>
<defs>
<filter id="filter0_d_1749_1845" x="0" y="0" width="857" height="367" filterUnits="userSpaceOnUse" color-interpolation-filters="sRGB">
<feFlood flood-opacity="0" result="BackgroundImageFix"/>
<feColorMatrix in="SourceAlpha" type="matrix" values="0 0 0 0 0 0 0 0 0 0 0 0 0 0 0 0 0 0 127 0" result="hardAlpha"/>
<feOffset dy="4"/>
<feGaussianBlur stdDeviation="6"/>
<feComposite in2="hardAlpha" operator="out"/>
<feColorMatrix type="matrix" values="0 0 0 0 0 0 0 0 0 0 0 0 0 0 0 0 0 0 0.1 0"/>
<feBlend mode="normal" in2="BackgroundImageFix" result="effect1_dropShadow_1749_1845"/>
<feBlend mode="normal" in="SourceGraphic" in2="effect1_dropShadow_1749_1845" result="shape"/>
</filter>
</defs>
</svg>
