<svg width="21" height="24" viewBox="0 0 21 24" fill="none" xmlns="http://www.w3.org/2000/svg">
<g clip-path="url(#clip0_1_9155)">
<path d="M21 21.75C20.9998 22.3467 20.7627 22.9189 20.3408 23.3408C19.9189 23.7627 19.3467 23.9998 18.75 24H2.25C1.65331 23.9998 1.08111 23.7627 0.659182 23.3408C0.23726 22.9189 0.000156447 22.3467 0 21.75L0 9H21V21.75ZM6 12.5625C5.99957 12.4135 5.94018 12.2706 5.83478 12.1652C5.72939 12.0598 5.58658 12.0004 5.43752 12H3.56252C3.41347 12.0004 3.27063 12.0598 3.16523 12.1652C3.05983 12.2706 3.00043 12.4135 3 12.5625V14.4375C3.00044 14.5866 3.05985 14.7294 3.16525 14.8348C3.27065 14.9402 3.41347 14.9996 3.56252 15H5.43752C5.58657 14.9996 5.72938 14.9402 5.83477 14.8348C5.94016 14.7294 5.99956 14.5866 6 14.4375V12.5625ZM6 18.5625C5.99957 18.4135 5.94018 18.2706 5.83478 18.1653C5.72939 18.0599 5.58658 18.0004 5.43752 18H3.56252C3.41347 18.0004 3.27063 18.0598 3.16523 18.1652C3.05983 18.2706 3.00043 18.4135 3 18.5625V20.4375C3.00044 20.5866 3.05985 20.7294 3.16525 20.8348C3.27065 20.9402 3.41347 20.9996 3.56252 21H5.43752C5.58657 20.9996 5.72938 20.9402 5.83477 20.8348C5.94016 20.7294 5.99956 20.5866 6 20.4375V18.5625ZM12 12.5625C11.9996 12.4135 11.9402 12.2706 11.8348 12.1652C11.7294 12.0598 11.5866 12.0004 11.4375 12H9.56252C9.41347 12.0004 9.27063 12.0598 9.16523 12.1652C9.05983 12.2706 9.00043 12.4135 9 12.5625V14.4375C9.00044 14.5866 9.05985 14.7294 9.16525 14.8348C9.27065 14.9402 9.41347 14.9996 9.56252 15H11.4375C11.5866 14.9996 11.7294 14.9402 11.8348 14.8348C11.9402 14.7294 11.9996 14.5866 12 14.4375V12.5625ZM12 18.5625C11.9996 18.4135 11.9402 18.2706 11.8348 18.1653C11.7294 18.0599 11.5866 18.0004 11.4375 18H9.56252C9.41347 18.0004 9.27063 18.0598 9.16523 18.1652C9.05983 18.2706 9.00043 18.4135 9 18.5625V20.4375C9.00044 20.5866 9.05985 20.7294 9.16525 20.8348C9.27065 20.9402 9.41347 20.9996 9.56252 21H11.4375C11.5866 20.9996 11.7294 20.9402 11.8348 20.8348C11.9402 20.7294 11.9996 20.5866 12 20.4375V18.5625ZM18 12.5625C17.9996 12.4135 17.9402 12.2706 17.8348 12.1652C17.7294 12.0598 17.5866 12.0004 17.4375 12H15.5625C15.4135 12.0004 15.2706 12.0598 15.1652 12.1652C15.0598 12.2706 15.0004 12.4135 15 12.5625V14.4375C15.0004 14.5866 15.0599 14.7294 15.1652 14.8348C15.2706 14.9402 15.4135 14.9996 15.5625 15H17.4375C17.5866 14.9996 17.7294 14.9402 17.8348 14.8348C17.9402 14.7294 17.9996 14.5866 18 14.4375V12.5625ZM18 18.5625C17.9996 18.4135 17.9402 18.2706 17.8348 18.1653C17.7294 18.0599 17.5866 18.0004 17.4375 18H15.5625C15.4135 18.0004 15.2706 18.0598 15.1652 18.1652C15.0598 18.2706 15.0004 18.4135 15 18.5625V20.4375C15.0004 20.5866 15.0599 20.7294 15.1652 20.8348C15.2706 20.9402 15.4135 20.9996 15.5625 21H17.4375C17.5866 20.9996 17.7294 20.9402 17.8348 20.8348C17.9402 20.7294 17.9996 20.5866 18 20.4375V18.5625ZM2.25 3H4.5V0.75C4.50065 0.551287 4.57987 0.360898 4.72039 0.220386C4.8609 0.0798742 5.05129 0.000648334 5.25 0L6.75 0C6.94871 0.000648334 7.1391 0.0798742 7.27961 0.220386C7.42013 0.360898 7.49935 0.551287 7.5 0.75V3H13.5V0.75C13.5006 0.551287 13.5799 0.360898 13.7204 0.220386C13.8609 0.0798742 14.0513 0.000648334 14.25 0L15.75 0C15.9487 0.000648334 16.1391 0.0798742 16.2796 0.220386C16.4201 0.360898 16.4994 0.551287 16.5 0.75V3H18.75C19.3467 3.00016 19.9189 3.23726 20.3408 3.65918C20.7627 4.08111 20.9998 4.65331 21 5.25V7.5H0V5.25C0.000156447 4.65331 0.23726 4.08111 0.659182 3.65918C1.08111 3.23726 1.65331 3.00016 2.25 3Z" fill="#256EB5"/>
</g>
<defs>
<clipPath id="clip0_1_9155">
<rect width="21" height="24" fill="white"/>
</clipPath>
</defs>
</svg>
